<svg id="d7b44e62-2825-4984-99da-d1cd5ce58db8" data-name="illustrations" xmlns="http://www.w3.org/2000/svg" viewBox="0 0 198.43 85.04">
  <title>cables-strip</title>
  <ellipse cx="136.52" cy="42.52" rx="3.3" ry="8.44" fill="#fff" stroke="#000" stroke-linecap="round" stroke-miterlimit="10" stroke-width="0.71"/>
  <ellipse cx="83.88" cy="58.24" rx="3.31" ry="8.47" fill="#fff" stroke="#000" stroke-linecap="round" stroke-miterlimit="10" stroke-width="0.71"/>
  <g>
    <g>
      <path d="M111.48,18.27s-1.62-.51-10.62,4.83V31c9,4.49,10.62,4.25,10.62,4.25,3,0,5.52-3.8,5.52-8.5S114.53,18.27,111.48,18.27Zm0.4,14.17c-1.94,0-3.5-2.54-3.5-5.66s1.57-5.66,3.5-5.66,3.5,2.54,3.5,5.66S113.81,32.44,111.88,32.44Z" fill="#fff" stroke="#000" stroke-linecap="round" stroke-miterlimit="10"/>
      <g id="49f501b1-4c24-48d6-a27d-cc7742db3810" data-name="&lt;Group&gt;">
        <g>
          <line x1="92.92" y1="28.99" x2="103.12" y2="28.99" fill="none" stroke="#000" stroke-linecap="square" stroke-miterlimit="10" stroke-width="0.71"/>
          <line x1="92.92" y1="28.99" x2="103.12" y2="28.99" fill="none" stroke="#fff" stroke-linecap="square" stroke-miterlimit="10" stroke-width="1.42"/>
        </g>
        <g>
          <line x1="92.92" y1="27.01" x2="103.12" y2="27.01" fill="none" stroke="#000" stroke-linecap="square" stroke-miterlimit="10" stroke-width="0.71"/>
          <line x1="92.92" y1="27.01" x2="103.12" y2="27.01" fill="none" stroke="#fff" stroke-linecap="square" stroke-miterlimit="10" stroke-width="1.42"/>
        </g>
        <g>
          <line x1="92.92" y1="25.03" x2="103.12" y2="25.03" fill="none" stroke="#000" stroke-linecap="square" stroke-miterlimit="10" stroke-width="0.71"/>
          <line x1="92.92" y1="25.03" x2="103.12" y2="25.03" fill="none" stroke="#fff" stroke-linecap="square" stroke-miterlimit="10" stroke-width="1.42"/>
        </g>
      </g>
      <path d="M84.5,35.52c10.19,0,9-1.52,14.17-1.52h5.17s3-.26,3-7.23c0-6.28-3-6.73-3-6.73H98.18c-4.26,0-3.85-1.52-13.68-1.52,0,0,2.74,1.78,2.74,8.69S84.5,35.52,84.5,35.52Z" fill="#fff" stroke="#000" stroke-linecap="round" stroke-linejoin="round" stroke-width="0.71"/>
      <path d="M83.88,18.39C82,18.39,80.5,22.25,80.5,27s1.51,8.62,3.37,8.62,3.37-3.86,3.37-8.62S85.74,18.39,83.88,18.39Zm0,15.53c-1.11,0-2-3.09-2-6.91s0.9-6.91,2-6.91,2,3.09,2,6.91S85,33.92,83.88,33.92Z" fill="#fff" stroke="#000" stroke-linecap="round" stroke-miterlimit="10" stroke-width="0.71"/>
      <path d="M50.12,40.84c0.85,0.07,7.8-1.38,13.11-5.57,4.2-3.32,6.48-4.75,22.18-3.81a21.92,21.92,0,0,0-.29-9.85s-16.77-1.28-24.84,3.85A69.65,69.65,0,0,1,49,31.59" fill="#fff" stroke="#000" stroke-miterlimit="10" stroke-width="0.71"/>
    </g>
    <g>
      <ellipse cx="103.55" cy="58.28" rx="2.73" ry="6.98" fill="#fff" stroke="#000" stroke-linecap="round" stroke-miterlimit="10" stroke-width="0.71"/>
      <path d="M111.48,49.54s-1.62-.51-10.62,4.83v7.91c9,4.49,10.62,4.25,10.62,4.25,3,0,5.52-3.8,5.52-8.5S114.53,49.54,111.48,49.54Zm0.4,14.17c-1.94,0-3.5-2.54-3.5-5.66s1.57-5.66,3.5-5.66,3.5,2.54,3.5,5.66S113.81,63.7,111.88,63.7Z" fill="#fff" stroke="#000" stroke-linecap="round" stroke-miterlimit="10"/>
      <g id="ca3d8c68-2d30-401a-895e-b70c322283dd" data-name="&lt;Group&gt;">
        <g>
          <line x1="92.92" y1="60.51" x2="103.12" y2="60.51" fill="none" stroke="#000" stroke-linecap="square" stroke-miterlimit="10" stroke-width="0.71"/>
          <line x1="92.92" y1="60.51" x2="103.12" y2="60.51" fill="none" stroke="#fff" stroke-linecap="square" stroke-miterlimit="10" stroke-width="1.42"/>
        </g>
        <g>
          <line x1="92.92" y1="58.52" x2="103.12" y2="58.52" fill="none" stroke="#000" stroke-linecap="square" stroke-miterlimit="10" stroke-width="0.71"/>
          <line x1="92.92" y1="58.52" x2="103.12" y2="58.52" fill="none" stroke="#fff" stroke-linecap="square" stroke-miterlimit="10" stroke-width="1.42"/>
        </g>
        <g>
          <line x1="92.92" y1="56.55" x2="103.12" y2="56.55" fill="none" stroke="#000" stroke-linecap="square" stroke-miterlimit="10" stroke-width="0.71"/>
          <line x1="92.92" y1="56.55" x2="103.12" y2="56.55" fill="none" stroke="#fff" stroke-linecap="square" stroke-miterlimit="10" stroke-width="1.42"/>
        </g>
      </g>
      <path d="M84.5,66.78c10.19,0,9-1.52,14.17-1.52h5.17s3-.26,3-7.23c0-6.28-3-6.73-3-6.73H98.18c-4.26,0-3.85-1.52-13.68-1.52,0,0,2.74,1.78,2.74,8.69S84.5,66.78,84.5,66.78Z" fill="#fff" stroke="#000" stroke-linecap="round" stroke-linejoin="round" stroke-width="0.71"/>
      <path d="M83.88,49.9c-1.86,0-3.37,3.86-3.37,8.62s1.51,8.62,3.37,8.62,3.37-3.86,3.37-8.62S85.74,49.9,83.88,49.9Zm0,15.53c-1.11,0-2-3.09-2-6.91s0.9-6.91,2-6.91,2,3.09,2,6.91S85,65.43,83.88,65.43Z" fill="#fff" stroke="#000" stroke-linecap="round" stroke-miterlimit="10" stroke-width="0.71"/>
      <path d="M50.31,43.84c0.85-.07,3.43-0.64,10.67,4.38,0.77,0.54,1.48,1,2.14,1.53,4,2.91,5.66,4.11,15.21,3.77l6.9-.12s1.38,3.86.1,9.92l-6.65.12q-1.55.05-2.93,0.05c-10.06,0-13.53-2.14-18.46-5.72-0.61-.44-1.25-0.91-2-1.4-4.36-3-6.09-2.61-6.15-2.61" fill="#fff" stroke="#000" stroke-miterlimit="10" stroke-width="0.71"/>
    </g>
    <g>
      <ellipse cx="156.56" cy="42.58" rx="2.73" ry="6.98" fill="#fff" stroke="#000" stroke-linecap="round" stroke-miterlimit="10" stroke-width="0.71"/>
      <path d="M164.49,33.84s-2.63-.51-10.63,4.83v7.91c8,4.49,10.63,4.25,10.63,4.25,3,0,5.52-3.8,5.52-8.5S167.54,33.84,164.49,33.84ZM164.9,48c-1.94,0-3.5-2.54-3.5-5.66s1.57-5.66,3.5-5.66,3.5,2.54,3.5,5.66S166.83,48,164.9,48Z" fill="#fff" stroke="#000" stroke-linecap="round" stroke-miterlimit="10"/>
      <g id="54dab005-28f7-4c19-bfde-d33623186778" data-name="&lt;Group&gt;">
        <g>
          <line x1="144.93" y1="44.56" x2="156.13" y2="44.56" fill="none" stroke="#000" stroke-linecap="square" stroke-miterlimit="10" stroke-width="0.71"/>
          <line x1="144.93" y1="44.56" x2="156.13" y2="44.56" fill="none" stroke="#fff" stroke-linecap="square" stroke-miterlimit="10" stroke-width="1.42"/>
        </g>
        <g>
          <line x1="144.93" y1="42.57" x2="156.13" y2="42.57" fill="none" stroke="#000" stroke-linecap="square" stroke-miterlimit="10" stroke-width="0.71"/>
          <line x1="144.93" y1="42.57" x2="156.13" y2="42.57" fill="none" stroke="#fff" stroke-linecap="square" stroke-miterlimit="10" stroke-width="1.42"/>
        </g>
        <g>
          <line x1="144.93" y1="40.6" x2="156.13" y2="40.6" fill="none" stroke="#000" stroke-linecap="square" stroke-miterlimit="10" stroke-width="0.71"/>
          <line x1="144.93" y1="40.6" x2="156.13" y2="40.6" fill="none" stroke="#fff" stroke-linecap="square" stroke-miterlimit="10" stroke-width="1.42"/>
        </g>
      </g>
      <path d="M136.52,51.09c10.19,0,9-1.52,14.17-1.52h6.17s3-.26,3-7.23c0-6.28-3-6.73-3-6.73H150.2c-4.26,0-3.85-1.52-13.68-1.52,0,0,3.33,1.78,3.33,8.69S136.52,51.09,136.52,51.09Z" fill="#fff" stroke="#000" stroke-linecap="round" stroke-linejoin="round" stroke-width="0.71"/>
      <path d="M136.52,34c-1.86,0-3.37,3.86-3.37,8.62s1.51,8.62,3.37,8.62,3.37-3.86,3.37-8.62S138.38,34,136.52,34Zm0,15.53c-1.11,0-2-3.09-2-6.91s0.9-6.91,2-6.91,2,3.09,2,6.91S137.63,49.48,136.52,49.48Z" fill="#fff" stroke="#000" stroke-linecap="round" stroke-miterlimit="10" stroke-width="0.71"/>
      <path d="M50.12,37.47s12.66,0.79,36.74.22c15.51-.37,38.88-0.28,51-0.11,0,0,1.4,5.42,0,9.92,0,0-35.48-.26-50.83.1-24.2.57-36.77-.23-37-0.23" fill="#fff" stroke="#000" stroke-miterlimit="10" stroke-width="0.71"/>
    </g>
    <path d="M14.16,57.91l32.52,0c2,0,3.64-6.81,3.64-15.45s-1.7-15.36-3.73-15.36H14.35" fill="none" stroke="#000" stroke-miterlimit="10"/>
  </g>
</svg>
