<svg id="8980e370-3ba2-4818-bb03-c76f09293d9c" data-name="Layer 2" xmlns="http://www.w3.org/2000/svg" viewBox="0 0 170.08 48.15">
  <title>enclosure</title>
  <g id="dd5f7f67-048b-469a-be72-035364c5c81a" data-name="lid side">
    <rect x="35.43" width="99.21" height="14.17" transform="translate(170.08 14.17) rotate(180)" fill="none" stroke="#000" stroke-linecap="round" stroke-linejoin="round" stroke-width="0.71"/>
    <path d="M38.27,0V14.17m93.54,0V0M82.2,14.17V0m5.67,0V14.17" fill="none" stroke="#000" stroke-linecap="round" stroke-linejoin="round" stroke-width="0.71"/>
    <rect y="14.17" width="170.08" height="5.67" transform="translate(170.08 34.02) rotate(180)" fill="none" stroke="#000" stroke-linecap="round" stroke-linejoin="round" stroke-width="0.71"/>
    <rect x="10.63" y="19.84" width="148.82" height="8.5" transform="translate(170.08 48.19) rotate(180)" fill="none" stroke="#000" stroke-linecap="round" stroke-linejoin="round" stroke-width="0.71"/>
    <polygon points="161.95 45.15 161.82 46.51 160.45 48.15 8.36 48.15 4.7 44.65 8.82 42.71 6.18 40.81 8.51 38.83 6.68 37.65 7.7 35.15 8.51 34.47 7.7 33.96 10.45 28.14 159.45 28.14 163.2 34.2 161.11 36.38 164.75 38.15 161.63 41.02 164.75 43.16 161.95 45.15" fill="none" stroke="#000" stroke-linecap="round" stroke-linejoin="round" stroke-width="0.71"/>
    <path d="M49.12,46.06l112.83-1.27a0.35,0.35,0,1,1,0,.71h0Z"/>
    <line x1="8.82" y1="42.71" x2="161.63" y2="41.02" fill="none" stroke="#000" stroke-linecap="round" stroke-linejoin="round" stroke-width="0.71"/>
    <line x1="8.51" y1="38.83" x2="161.11" y2="36.38" fill="none" stroke="#000" stroke-linecap="round" stroke-linejoin="round" stroke-width="0.71"/>
    <path d="M8.51,34.11l102.6,0.35-102.6.35a0.35,0.35,0,0,1,0-.71h0Z"/>
  </g>
</svg>
