<svg id="6a88caa8-532d-4297-b825-74d65ed29a5b" data-name="Layer 2" xmlns="http://www.w3.org/2000/svg" viewBox="0 0 170.08 121.03">
  <title>enclosure</title>
  <g>
    <polygon points="7.43 77.89 7.49 78.92 7.41 76.87 7.43 77.89" fill="#fff" stroke="#000" stroke-linecap="round" stroke-linejoin="round" stroke-width="0.71"/>
    <path d="M163.07,74.73l0.06-.53v0l0.11-.71-0.07.31V73.5l0-.05,2.56-3.78,2-3.89,1.44-4,0.87-3.39L170.4,55H170l0.38-4.59L170.2,46l-0.77-4.19-1.35-4.06-1.91-3.94L163.7,30l-3-3.68-3.51-3.52-4-3.34-4.47-3.13-4.9-2.91-5.3-2.67-5.66-2.4-6-2.13-6.27-1.83-6.51-1.53-6.71-1.21-6.86-.89-7-.56-7-.22-7,.11-7,.45-6.9.78-6.76,1.1L52.28,3.86,45.92,5.6l-6.09,2L34.06,9.94l-5.43,2.58-5,2.83L19,18.41l-4.16,3.27-3.68,3.46L8,28.75,5.32,32.51l-2.1,3.87-1.54,4-1,4L0.33,48.42v5.71L0.61,58l0.87,3.92,1.44,3.92,2,3.86,2.48,3.66,0,0.79,0,0.85,0.08,0.85,0,0.42,0.06,0.42L7.49,78.92l0.19,1.7L8,82.3,8.4,84l0.53,1.66,0.31,0.83,0.33,0.83L9.75,87.7l0.18,0.41,0.19,0.41,0.2,0.41,0.86,1.62,1,1.6L12.68,93l0.55,0.79,0.29,0.39,0.29,0.39,0.3,0.39,0.31,0.39,1.29,1.53,1.39,1.5,0.73,0.74,0.76,0.73L19,100.16l0.39,0.36,0.4,0.36,0.41,0.36,1.68,1.4L23.61,104l1.86,1.32,2,1.28,1,0.62,1,0.61,1,0.6L31.57,109l2.19,1.14L36,111.25l0.58,0.27,0.58,0.26L37.78,112l0.59,0.26,1.2,0.5,1.21,0.49,2.47,0.93,2.54,0.88,0.64,0.21,0.65,0.21,0.65,0.2,0.65,0.2,1.32,0.39L51,116.68l2.7,0.71L56.48,118l0.69,0.15,0.7,0.15,0.7,0.14,0.7,0.14,1.41,0.27,1.42,0.25,2.86,0.46,2.89,0.4,0.73,0.09,0.73,0.09L70,120.26l0.73,0.08,1.46,0.14,1.47,0.13,2.95,0.2,3,0.14,0.74,0,0.74,0,0.74,0h3.72l3-.06,3-.12,0.74,0,0.74,0,0.74,0,0.74-.05,1.48-.12,1.47-.14,2.93-.32,2.91-.38,0.72-.11,0.72-.11,0.72-.11,0.72-.12,1.43-.25,1.42-.26,2.82-.57,2.78-.64,0.69-.17,0.69-.17,0.68-.18,0.68-.18,1.35-.37,1.34-.39,2.64-.81,2.59-.87,0.64-.23,0.63-.23,0.63-.23,0.63-.24L129,113l1.22-.5,2.4-1,2.33-1.09,0.57-.28,0.57-.28,0.56-.29,0.56-.29,1.1-.59,1.08-.6,2.1-1.24,2-1.28,0.49-.33,0.49-.33,0.48-.33,0.48-.34,0.94-.68,0.91-.69,1.76-1.41,1.67-1.45,0.4-.37,0.4-.37,0.39-.37,0.38-.37,0.75-.75,0.72-.76,1.37-1.55,1.27-1.57,0.3-.4,0.3-.4,0.29-.4,0.28-.4,0.55-.81,0.52-.82,1-1.65,0.85-1.67,0.38-.84,0.36-.85,0.33-.85,0.3-.85,0.51-1.71,0.4-1.72,0.16-.87,0.13-.87,0.05-.43,0-.43,0-.43,0-.43,0.06-1.84Z" fill="#fff"/>
  </g>
  <g>
    <line x1="139.71" y1="41.51" x2="139.71" y2="29.94" fill="none" stroke="#000" stroke-linecap="round" stroke-linejoin="round" stroke-width="0.71"/>
    <line x1="30.36" y1="45.1" x2="30.36" y2="56.67" fill="none" stroke="#000" stroke-linecap="round" stroke-linejoin="round" stroke-width="0.71"/>
    <path d="M43.69,16L30.56,44.25m0,0-0.17,1.13,0.51,1.1L32,47.42m0,0L67.9,68.13m0,0,1.61,0.65,1.9,0.29,2-.1m0,0,49-7.58m0,0,1.78-.48,1.39-.8,0.83-1m0,0,13.13-28.29m0,0,0.17-1.13-0.51-1.1-1.13-.93m0,0L102.18,6.91m0,0-1.61-.65L98.66,6l-2,.1m0,0-49,7.58m0,0-1.78.48-1.39.8-0.83,1M163,75.15L162.93,77l0,0.43,0,0.43,0,0.43-0.05.43-0.13.87-0.16.87-0.4,1.72-0.51,1.71-0.3.85-0.33.85-0.36.85-0.38.84L159.33,89l-1,1.65-0.52.82-0.55.81-0.28.4-0.29.4-0.3.4-0.3.4-1.27,1.57L153.5,97l-0.72.76-0.75.75-0.38.37-0.39.37-0.4.37-0.4.37-1.67,1.45L147,102.81l-0.91.69-0.94.68-0.48.34-0.48.33-0.49.33-0.49.33-2,1.28-2.1,1.24-1.08.6-1.1.59-0.56.29-0.56.29-0.57.28-0.57.28-2.33,1.09-2.4,1-1.22.5-1.24.49-0.63.24-0.63.23-0.63.23-0.64.23-2.59.87-2.64.81-1.34.39-1.35.37-0.68.18-0.68.18-0.69.17-0.69.17-2.78.64-2.82.57-1.42.26-1.43.25-0.72.12-0.72.11-0.72.11-0.72.11-2.91.38-2.93.32-1.47.14-1.48.12-0.74.05-0.74,0-0.74,0-0.74,0-3,.12-3,.06H81.51l-0.74,0L80,121l-0.74,0-3-.14-2.95-.2-1.47-.13-1.46-.14-0.73-.08L69,120.18l-0.73-.09L67.51,120l-2.89-.4-2.86-.46-1.42-.25-1.41-.27-0.7-.14-0.7-.14-0.7-.15L56.15,118l-2.74-.65-2.7-.71-1.33-.37-1.32-.39-0.65-.2-0.65-.2-0.65-.21-0.64-.21-2.54-.88-2.47-.93-1.21-.49-1.2-.5L37.46,112l-0.59-.26-0.58-.26-0.58-.27-2.27-1.09L31.24,109l-1.07-.59-1-.6-1-.61-1-.62-2-1.28L23.28,104l-1.77-1.36-1.68-1.4-0.41-.36-0.4-.36-0.39-.36-0.39-.36-0.76-.73-0.73-.74-1.39-1.5L14.09,95.3l-0.31-.39-0.3-.39-0.29-.39-0.29-.39L12.36,93l-0.52-.79-1-1.6L10,88.93l-0.2-.41-0.19-.41L9.43,87.7l-0.18-.41-0.33-.83-0.31-.83L8.08,84,7.66,82.3l-0.3-1.68-0.19-1.7" fill="none" stroke="#000" stroke-linecap="round" stroke-linejoin="round" stroke-width="0.71"/>
    <path d="M7.17,78.92l-0.06-1,0-1m0-3.52v0.08m0,3.13v0.31M163,75.16V74.82M7.09,73.07l0,1.06,0,0.85,0.08,0.85,0,0.42,0.06,0.42L7.41,77.1l0.07,0.42,0.35,1.68L8.3,80.88l0.28,0.83,0.3,0.83L9,83l0.17,0.41,0.18,0.41L9.57,84.2l0.8,1.64,0.91,1.61,0.49,0.8L12.29,89l0.27,0.4,0.28,0.39,0.28,0.39,0.29,0.39,1.23,1.55L16,93.68l1.43,1.48,1.53,1.45L19.33,97l0.4,0.36,0.41,0.35L20.56,98l0.85,0.7,0.87,0.69,1.81,1.34,1.9,1.3,0.49,0.32L27,102.71l0.25,0.16L27.47,103l0.25,0.16L28,103.33l1,0.61,1,0.6,2.15,1.17,2.23,1.12L35,107.1l0.57,0.27,0.58,0.27,0.58,0.26,1.18,0.52,1.19,0.5,2.44,1L44,110.8l1.27,0.43,1.29,0.42,0.65,0.21,0.65,0.2,0.66,0.2,0.66,0.19,2.67,0.74,2.72,0.68L56,114.19l1.39,0.3,0.7,0.15,0.7,0.14,0.7,0.14L60.18,115l2.84,0.5L65.89,116l2.9,0.37,2.93,0.31,1.47,0.13,1.47,0.11,1.48,0.1,1.48,0.08,3,0.11,3,0h3l1.49,0,1.49-.05,3-.15,3-.22,0.74-.06,0.74-.07,0.74-.07,0.74-.08,1.47-.17,1.46-.18,2.9-.41,2.87-.47,1.42-.26,1.42-.28,0.71-.14,0.7-.15,0.7-.15,0.7-.16,2.76-.66,2.71-.72,1.34-.38,1.33-.4,0.66-.2,0.66-.21,0.65-.21,0.65-.22,2.56-.9,2.5-1,2.44-1,2.37-1.06,0.58-.27,0.58-.28,0.57-.28,0.57-.28,1.12-.57,1.1-.59,2.15-1.21,2.07-1.26,0.51-.32,0.5-.32,0.49-.33,0.49-.33,1-.67,0.94-.68,1.81-1.38L149.52,97l0.42-.36,0.41-.36,0.2-.18,0.2-.18,0.2-.18,0.2-.18,0.78-.74,0.75-.75,1.43-1.53,1.33-1.56,0.63-.79,0.6-.8,0.29-.4,0.28-.4,0.28-.4,0.27-.41,1-1.64,0.91-1.66,0.41-.84,0.39-.84,0.18-.42,0.18-.42,0.17-.42L161.2,81m1.67-7.59,0,0.2,0,0.53-0.06.53-0.15,1.06-0.19,1.06L161.89,79,161.2,81m-1.46-3.9-0.18.46-0.44,1-0.48,1-0.26.51-0.27.51-0.28.51-0.29.51-0.6,1-0.64,1-0.34.5-0.35.49-0.36.49-0.37.49-0.76,1-0.8,1-0.84.95-0.88.94-0.23.23-0.23.23-0.23.23-0.23.23-0.47.46-0.48.45-2,1.78-2.16,1.72-0.56.42-0.57.42-0.29.21-0.29.21-0.29.21-0.29.2-1.2.81-1.23.79-2.55,1.53-2.67,1.46-0.34.18-0.34.18-0.35.17-0.35.17-0.7.34-0.71.34-1.43.66-1.46.64-1.48.62-1.51.6-0.76.29-0.77.29-0.39.14-0.39.14-0.39.14-0.39.14-3.18,1.06-3.25,1-1.66.45-1.68.43-0.42.1-0.42.1-0.42.1-0.42.1-0.85.19-0.85.19-3.45.69-3.5.59-0.88.13-0.89.13-0.44.06-0.45.06-0.45.06-0.45.06-1.79.21L96.6,112l-3.6.3-3.63.21-0.46,0-0.46,0-0.46,0H87.54l-0.91,0-0.91,0-1.82,0H82.09l-1.82,0-1.81-.06-0.91,0-0.91,0-0.45,0-0.45,0-0.45,0-0.45,0-3.6-.29-3.56-.39-1.77-.23-1.76-.26-0.44-.07L63.27,111,62.83,111l-0.44-.07-0.87-.15-0.87-.15-3.42-.67-3.36-.77L53,109l-0.83-.21-0.41-.11-0.41-.11L51,108.41l-0.41-.11L49,107.83l-1.6-.49-3.13-1-3-1.12L40.8,105l-0.37-.15-0.37-.15-0.37-.15L39,104.3,38.22,104l-1.43-.63-1.41-.65L34,102l-1.35-.69L32,101l-0.66-.36L31,100.47l-0.32-.18-0.32-.18L30,99.93l-2.49-1.5-2.36-1.56L24,96.06l-1.1-.82L22.67,95l-0.27-.21-0.27-.21-0.26-.21L21.35,94l-0.51-.43-1-.86-1-.88L18,90.91,17.09,90l-0.43-.46-0.42-.46L16,88.86l-0.2-.23-0.2-.23-0.2-.23-0.77-.94-0.73-.95-1.34-1.92-1.18-2-0.14-.25-0.13-.25L11,81.66l-0.13-.25-0.25-.5-0.24-.5-0.45-1-0.4-1-0.36-1-0.32-1-0.14-.51-0.13-.51-0.06-.24" fill="none" stroke="#000" stroke-linecap="round" stroke-linejoin="round" stroke-width="0.71"/>
    <polyline points="161.2 81.05 162.34 77.27 162.92 73.44" fill="none" stroke="#000" stroke-linecap="round" stroke-linejoin="round" stroke-width="0.71"/>
    <polyline points="17.86 83.77 18.02 83.95 18.31 84.27 18.61 84.58 18.91 84.89 19.21 85.2 20.46 86.42 21.79 87.62 23.18 88.79 24.64 89.94 25.02 90.22 25.4 90.5 25.79 90.78 26.17 91.06 26.96 91.6 27.76 92.14 29.41 93.2 31.13 94.22 32.01 94.72 32.9 95.22 33.35 95.46 33.81 95.7 34.27 95.94 34.73 96.17 36.61 97.1 38.55 97.98 40.53 98.83 42.57 99.64 43.08 99.84 43.6 100.03 44.13 100.22 44.65 100.41 45.71 100.78 46.77 101.14 48.94 101.83 51.14 102.48 52.26 102.78 53.38 103.08 53.95 103.23 54.52 103.37 55.09 103.51 55.66 103.65 57.97 104.17 60.31 104.64 61.48 104.86 62.67 105.07 63.27 105.17 63.86 105.27 64.46 105.37 65.06 105.46" fill="none" stroke="#000" stroke-linecap="round" stroke-linejoin="round" stroke-width="0.71"/>
    <polyline points="10.73 77.52 10.9 77.91 11.06 78.25 11.22 78.59 11.39 78.94 11.56 79.28 11.92 79.96 12.29 80.63 13.1 81.97 13.99 83.3 14.46 83.95 14.95 84.61 15.21 84.93 15.46 85.26 15.72 85.58 15.99 85.9 17.1 87.17 18.28 88.42 19.53 89.64 20.85 90.84 21.19 91.14 21.54 91.43 21.89 91.73 22.24 92.02 22.96 92.59 23.7 93.17 25.21 94.28 26.8 95.38 27.61 95.91 28.44 96.44 28.86 96.7 29.29 96.96 29.72 97.21 30.15 97.47 31.91 98.47 33.73 99.43 35.6 100.36 37.52 101.25 38.51 101.69 39.5 102.11 40.51 102.52 41.52 102.93 43.59 103.71 45.7 104.45 46.77 104.8 47.86 105.15 48.4 105.32 48.95 105.48 49.5 105.65 50.05 105.81 52.29 106.43 54.55 107 56.84 107.54 59.17 108.03 59.76 108.14 60.35 108.26 60.94 108.37 61.53 108.47 62.72 108.68 63.91 108.88 66.31 109.23 68.73 109.54 69.94 109.68 71.16 109.81 72.39 109.92 73.62 110.03 76.09 110.2 78.56 110.33 81.04 110.41 83.52 110.44 84.77 110.44 86.01 110.43 86.63 110.42 87.26 110.4 87.88 110.39 88.5 110.37 90.98 110.26 93.45 110.11 95.92 109.91 98.37 109.66 98.98 109.59 99.6 109.52 100.21 109.44 100.81 109.37 102.03 109.2 103.24 109.03 105.64 108.64 108.02 108.22 109.2 107.98 110.38 107.74 110.96 107.62 111.55 107.49 112.13 107.36 112.71 107.22 115.01 106.66 117.27 106.06 119.5 105.42 121.7 104.73 122.25 104.55 122.79 104.37 123.33 104.18 123.86 104 124.93 103.62 125.98 103.23 128.05 102.42 130.07 101.57 131.07 101.13 132.05 100.69 132.54 100.46 133.03 100.23 133.51 100 133.98 99.76 135.86 98.8 137.68 97.81 139.44 96.79 141.15 95.73 141.57 95.46 141.98 95.19 142.39 94.91 142.8 94.64 143.6 94.08 144.39 93.51 145.91 92.36 147.36 91.19 148.07 90.59 148.75 89.98 149.09 89.67 149.42 89.37 149.75 89.06 150.08 88.75 151.33 87.49 152.51 86.21 153.62 84.91 154.66 83.59 154.91 83.26 155.15 82.92 155.39 82.59 155.62 82.25 156.08 81.58 156.51 80.89 157.31 79.53" fill="none" stroke="#000" stroke-linecap="round" stroke-linejoin="round" stroke-width="0.71"/>
    <polyline points="7.88 74.35 8.27 76.23 8.46 76.93 8.66 77.63 8.88 78.33 9.12 79.03 9.67 80.42 10.29 81.79 10.98 83.15 11.76 84.5 11.96 84.83 12.17 85.17 12.39 85.5 12.61 85.83 13.06 86.5 13.53 87.15 14.53 88.45 15.6 89.73 16.16 90.36 16.74 90.99 17.03 91.3 17.33 91.61 17.64 91.92 17.95 92.23 19.23 93.45 20.58 94.64 21.99 95.8 23.47 96.94 24.23 97.5 25.02 98.05 25.41 98.32 25.81 98.59 26.21 98.86 26.62 99.13 28.29 100.18 30.01 101.2 31.79 102.19 33.62 103.14 34.09 103.38 34.56 103.61 35.04 103.84 35.51 104.06 36.48 104.51 37.45 104.95 39.44 105.79 41.47 106.6 42.51 106.99 43.55 107.37 44.08 107.56 44.61 107.74 45.14 107.92 45.68 108.1 47.84 108.8 50.04 109.45 52.28 110.06 54.55 110.63 55.12 110.76 55.7 110.9 56.27 111.03 56.85 111.16 58.02 111.4 59.19 111.64 61.55 112.08 63.93 112.48 64.53 112.57 65.13 112.66 65.74 112.75 66.34 112.83 67.55 112.99 68.77 113.14 69.98 113.27 71.21 113.4 71.82 113.45 72.44 113.51 73.05 113.56 73.67 113.61 76.13 113.78 78.61 113.91 81.08 113.98 83.57 114.02 84.19 114.02 84.81 114.02 85.44 114.01 86.06 114 87.3 113.98 88.55 113.94 91.03 113.84 93.5 113.69 95.96 113.49 98.42 113.24 99.03 113.17 99.64 113.1 100.25 113.03 100.86 112.95 102.08 112.79 103.29 112.62 105.69 112.24 108.07 111.81 109.25 111.58 110.43 111.34 111.02 111.22 111.6 111.09 112.19 110.96 112.77 110.83 115.07 110.28 117.34 109.68 119.58 109.04 121.78 108.36 122.33 108.18 122.87 108 123.41 107.82 123.95 107.64 125.02 107.26 126.08 106.88 128.16 106.08 130.19 105.24 131.19 104.8 132.18 104.36 132.67 104.14 133.16 103.91 133.64 103.68 134.12 103.45 136.01 102.5 137.85 101.52 139.63 100.5 141.35 99.45 141.78 99.18 142.19 98.91 142.61 98.64 143.02 98.37 143.83 97.82 144.63 97.26 146.17 96.12 147.65 94.95 148.37 94.36 149.06 93.75 149.41 93.45 149.75 93.15 150.08 92.84 150.41 92.53 151.7 91.28 152.91 90.01 154.04 88.72 155.11 87.41 155.62 86.75 156.11 86.08 156.58 85.41 157.03 84.73 157.88 83.37 158.65 81.99 159.34 80.6 159.96 79.19 160.1 78.83 160.24 78.48 160.37 78.13 160.5 77.77 160.74 77.06 160.96 76.34 161.2 75.47" fill="none" stroke="#000" stroke-linecap="round" stroke-linejoin="round" stroke-width="0.71"/>
    <polyline points="146.19 88.93 141.81 92.12 136.94 95.05 131.61 97.71 125.88 100.07 119.8 102.11 113.4 103.82 106.77 105.17 99.94 106.16 92.98 106.77 85.95 107.01 78.91 106.87 71.93 106.35 65.06 105.46" fill="none" stroke="#000" stroke-linecap="round" stroke-linejoin="round" stroke-width="0.71"/>
    <polyline points="122.22 97.88 115.93 99.75 109.36 101.27 102.57 102.42 95.62 103.19 88.58 103.58 81.5 103.58 74.46 103.19 67.51 102.42 60.72 101.27 54.15 99.75 47.86 97.88" fill="none" stroke="#000" stroke-linecap="round" stroke-linejoin="round" stroke-width="0.71"/>
    <polyline points="139.71 41.51 139.66 41.94 139.52 42.36" fill="none" stroke="#000" stroke-linecap="round" stroke-linejoin="round" stroke-width="0.71"/>
    <line x1="139.52" y1="42.36" x2="126.39" y2="70.65" fill="none" stroke="#000" stroke-linecap="round" stroke-linejoin="round" stroke-width="0.71"/>
    <polyline points="126.39 70.65 125.56 71.68 124.17 72.49 122.38 72.97" fill="none" stroke="#000" stroke-linecap="round" stroke-linejoin="round" stroke-width="0.71"/>
    <line x1="122.38" y1="72.97" x2="73.38" y2="80.55" fill="none" stroke="#000" stroke-linecap="round" stroke-linejoin="round" stroke-width="0.71"/>
    <polyline points="73.38 80.55 71.41 80.65 69.51 80.35 67.9 79.7" fill="none" stroke="#000" stroke-linecap="round" stroke-linejoin="round" stroke-width="0.71"/>
    <line x1="67.9" y1="79.7" x2="32.03" y2="58.99" fill="none" stroke="#000" stroke-linecap="round" stroke-linejoin="round" stroke-width="0.71"/>
    <polyline points="32.02 58.99 30.8 57.93 30.36 56.67" fill="none" stroke="#000" stroke-linecap="round" stroke-linejoin="round" stroke-width="0.71"/>
    <polyline points="170.08 53.73 169.79 57.78 168.92 61.81 167.47 65.78 165.47 69.67 162.91 73.45 159.83 77.09 156.23 80.58 152.15 83.88 147.6 86.98 142.63 89.84 137.27 92.47 131.55 94.83 125.51 96.9 119.2 98.69 112.65 100.16 105.91 101.32 99.03 102.15 92.06 102.65 85.04 102.82 78.02 102.65 71.04 102.15 64.16 101.32 57.43 100.16 50.88 98.68 44.56 96.9 38.53 94.83 32.81 92.47 27.44 89.84 22.47 86.97 17.93 83.88 13.85 80.58 10.25 77.09 7.16 73.44 4.61 69.67 2.6 65.78 1.16 61.8 0.29 57.78 0 53.72" fill="none" stroke="#000" stroke-linecap="round" stroke-linejoin="round" stroke-width="0.71"/>
    <polyline points="2.9 36.38 1.36 40.34 0.4 44.37 0.01 48.42 0.2 52.47 0.97 56.51 2.32 60.49 4.24 64.39 6.7 68.19 9.7 71.86 13.21 75.38 17.22 78.71 21.69 81.84 26.59 84.75 31.89 87.42 37.55 89.82 43.54 91.95 49.81 93.78 56.32 95.31 63.03 96.52 69.89 97.41 76.85 97.96 83.87 98.19 90.89 98.07 97.88 97.63 104.78 96.85 111.54 95.75 118.12 94.32 124.48 92.59 130.57 90.56 136.34 88.25 141.77 85.67 146.81 82.84 151.42 79.78 155.58 76.51 159.26 73.05 162.44 69.43 165.08 65.67 167.18 61.8 168.72 57.84 169.68 53.82 170.07 49.77 169.88 45.71 169.1 41.68 167.76 37.7 165.84 33.79 163.38 29.99 160.38 26.32 156.87 22.81 152.86 19.47 148.39 16.34 143.49 13.43 138.19 10.77 132.53 8.36 126.54 6.24 120.27 4.41 113.76 2.88 107.05 1.67 100.19 0.78 93.23 0.22 86.21 0 79.19 0.11 72.2 0.56 65.3 1.34 58.54 2.44 51.96 3.86 45.6 5.59 39.51 7.62 33.74 9.94 28.31 12.52 23.27 15.35 18.66 18.41 14.49 21.68 10.81 25.13 7.64 28.75 5 32.51 2.9 36.38" fill="none" stroke="#000" stroke-linecap="round" stroke-linejoin="round" stroke-width="0.71"/>
    <line x1="170.08" y1="53.72" x2="170.08" y2="49.09" fill="none" stroke="#000" stroke-linecap="round" stroke-linejoin="round" stroke-width="0.71"/>
    <line y1="49.09" y2="53.72" fill="none" stroke="#000" stroke-linecap="round" stroke-linejoin="round" stroke-width="0.71"/>
    <line x1="139.52" y1="42.36" x2="139.52" y2="30.79" fill="none" stroke="#000" stroke-linecap="round" stroke-linejoin="round" stroke-width="0.71"/>
    <line x1="126.39" y1="59.08" x2="126.39" y2="70.65" fill="none" stroke="#000" stroke-linecap="round" stroke-linejoin="round" stroke-width="0.71"/>
    <line x1="32.03" y1="47.42" x2="32.03" y2="58.99" fill="none" stroke="#000" stroke-linecap="round" stroke-linejoin="round" stroke-width="0.71"/>
    <line x1="67.9" y1="79.7" x2="67.9" y2="68.13" fill="none" stroke="#000" stroke-linecap="round" stroke-linejoin="round" stroke-width="0.71"/>
    <line x1="122.38" y1="72.97" x2="122.38" y2="61.39" fill="none" stroke="#000" stroke-linecap="round" stroke-linejoin="round" stroke-width="0.71"/>
    <line x1="73.38" y1="68.98" x2="73.38" y2="80.55" fill="none" stroke="#000" stroke-linecap="round" stroke-linejoin="round" stroke-width="0.71"/>
  </g>
</svg>
