<svg id="e70ddf2f-1347-4920-9234-e42bbf488abf" data-name="Layer 2" xmlns="http://www.w3.org/2000/svg" viewBox="0 0 170.08 121.03">
  <title>enclosure</title>
  <g>
    <polygon points="7.75 78.52 7.81 79.55 7.73 77.5 7.75 78.52" fill="#fff" stroke="#000" stroke-linecap="round" stroke-linejoin="round" stroke-width="0.71"/>
    <path d="M163.39,75.36l0.06-.53v0l0.11-.71-0.07.31V74.13l0-.05,2.56-3.78,2-3.89,1.44-4L170.43,59l0.29-3.42h-0.39L170.72,51l-0.19-4.38-0.77-4.19-1.35-4.06-1.91-3.94L164,30.64,161,27l-3.51-3.52-4-3.34L149,17l-4.9-2.91-5.3-2.67L133.17,9l-6-2.13L120.91,5,114.4,3.51,107.69,2.3l-6.86-.89-7-.56-7-.22-7,.11-7,.45L65.95,2l-6.76,1.1L52.6,4.49,46.25,6.22l-6.09,2-5.78,2.31L29,13.15l-5,2.83L19.3,19l-4.16,3.27-3.68,3.46L8.29,29.38,5.64,33.14,3.54,37,2,41,1,45,0.65,49v5.71l0.29,3.85,0.87,3.92,1.44,3.92,2,3.86L7.74,74l0,0.79,0,0.85,0.08,0.85,0,0.42L8,77.31,7.81,79.55,8,81.24l0.3,1.68L8.73,84.6l0.53,1.66,0.31,0.83,0.33,0.83,0.18,0.41,0.18,0.41,0.19,0.41,0.2,0.41,0.86,1.62,1,1.6L13,93.58l0.55,0.79,0.29,0.39,0.29,0.39,0.3,0.39,0.31,0.39L16,97.46,17.41,99l0.73,0.74,0.76,0.73,0.39,0.36,0.39,0.36,0.4,0.36,0.41,0.36,1.68,1.4,1.77,1.36,1.86,1.32,2,1.28,1,0.62,1,0.61,1,0.6,1.07,0.59,2.19,1.14,2.27,1.09,0.58,0.27,0.58,0.26,0.59,0.26,0.59,0.26,1.2,0.5,1.21,0.49,2.47,0.93,2.54,0.88,0.64,0.21,0.65,0.21,0.65,0.2,0.65,0.2L50,116.94l1.33,0.38,2.7,0.71,2.74,0.65,0.69,0.15,0.7,0.15,0.7,0.14,0.7,0.14L61,119.52l1.42,0.25,2.86,0.46,2.89,0.4,0.73,0.09,0.73,0.09,0.73,0.08L71.07,121l1.46,0.14L74,121.23l2.95,0.2,3,0.14,0.74,0,0.74,0,0.74,0h3.72l3-.06,3-.12,0.74,0,0.74,0,0.74,0,0.74-.05,1.48-.12,1.47-.14,2.93-.32,2.91-.38,0.72-.11,0.72-.11,0.72-.11,0.72-.12,1.43-.25,1.42-.26,2.82-.57,2.78-.64,0.69-.17,0.69-.17,0.68-.18,0.68-.18,1.35-.37,1.34-.39,2.64-.81,2.59-.87,0.64-.23,0.63-.23,0.63-.23,0.63-.24,1.24-.49,1.22-.5,2.4-1,2.33-1.09,0.57-.28,0.57-.28,0.56-.29,0.56-.29,1.1-.59,1.08-.6,2.1-1.24,2-1.28,0.49-.33,0.49-.33,0.48-.33,0.48-.34,0.94-.68,0.91-.69,1.76-1.41,1.67-1.45,0.4-.37,0.4-.37,0.39-.37,0.38-.37,0.75-.75,0.72-.76L155.52,96l1.27-1.57,0.3-.4,0.3-.4,0.29-.4,0.28-.4,0.55-.81,0.52-.82,1-1.65,0.85-1.67,0.38-.84,0.36-.85,0.33-.85,0.3-.85,0.51-1.71,0.4-1.72,0.16-.87,0.13-.87,0.05-.43,0-.43,0-.43,0-.43,0.06-1.84Z" fill="#fff"/>
  </g>
  <g>
    <line x1="140.04" y1="42.14" x2="140.04" y2="30.57" fill="none" stroke="#000" stroke-linecap="round" stroke-linejoin="round" stroke-width="0.71"/>
    <line x1="30.69" y1="45.73" x2="30.69" y2="57.3" fill="none" stroke="#000" stroke-linecap="round" stroke-linejoin="round" stroke-width="0.71"/>
    <polyline points="117.87 33.96 118.08 34.57 118.26 35.18 118.41 35.79 118.52 36.41 118.6 37.03 118.65 37.65 118.67 37.96 118.67 38.27 118.67 38.28" fill="none" stroke="#000" stroke-linecap="round" stroke-linejoin="round" stroke-width="0.71"/>
    <path d="M113.53,27.44l-1-.73-0.38-.27-0.39-.26-0.2-.13-0.2-.13-0.2-.13-0.2-.13-0.82-.5-0.85-.48-0.87-.46-0.89-.45-0.92-.43-0.94-.41-1-.39-1-.38-0.5-.18-0.51-.18-0.26-.09-0.26-.09L102,21.54l-0.26-.08-1.05-.32-1.06-.3-1.08-.28-1.09-.26-1.1-.24-1.11-.21-1.12-.19L93,19.48l-1.15-.15-1.16-.13-0.29,0-0.29,0-0.29,0-0.29,0L88.9,19l-0.58,0-1.16-.06L86,18.9l-1.16,0H83.67l-1.16,0-1.16,0L80.19,19,79,19.11l-0.29,0-0.29,0-0.29,0-0.29,0-0.57.06-0.57.07-1.13.16-1.11.18-1.1.2-1.09.22-1.07.24-1.06.26-1,.28-1,.3-0.26.08-0.26.08-0.25.08-0.25.08-0.5.17-0.49.17-1,.36-0.94.37L63.25,23l-0.9.41-0.87.43-0.85.44-0.82.46L59,25.2l-0.2.12-0.19.12-0.19.12-0.19.13-0.37.25-0.37.26-0.71.52-0.67.53-0.64.54-0.61.55-0.58.56-0.54.58-0.51.59-0.48.6-0.23.3-0.22.31-0.11.15-0.1.15-0.1.15-0.1.16-0.37.62-0.33.63-0.29.63-0.26.64-0.22.64-0.18.64-0.14.65L50,37l0,0.33,0,0.33v0.8m68.6,1-0.13-.7-0.16-.66-0.2-.66-0.24-.65-0.27-.65-0.15-.32-0.16-.32-0.08-.16-0.09-.16L117,35l-0.09-.16-0.38-.63-0.42-.62-0.45-.61-0.49-.6-0.52-.59-0.55-.58-0.59-.57L112.85,30l-0.32-.28-0.33-.27L112,29.33l-0.17-.14-0.17-.13-0.17-.13-0.72-.52-0.74-.51-0.77-.49-0.79-.48-0.82-.46L106.82,26,106,25.6l-0.9-.41L104.6,25l-0.47-.2-0.24-.1-0.24-.1-0.24-.09-0.24-.09-1-.36-1-.34-1-.32-1-.3-1-.28-1-.26-1.06-.24L95,22.1,94.48,22l-0.55-.1-0.27,0-0.28,0-0.28,0-0.28,0-1.11-.15-1.11-.13-1.11-.11-1.11-.09-1.12-.07-1.12,0-1.12,0H81.64l-1.12.07-1.11.09-1.1.11-1.09.13-1.08.15-1.07.17L74,22.08l-1.05.21-0.52.12-0.52.12-0.26.06-0.26.06-0.26.06-0.26.07-1,.28-1,.29-1,.31L67,24,66,24.34l-0.9.37-0.88.38-0.86.4L63,25.7l-0.42.21L62.35,26l-0.2.11-0.2.11-0.2.11L61,26.8l-0.75.47-0.72.48-0.69.49-0.66.5-0.63.52-0.6.53-0.57.54-0.27.28-0.27.28L55.66,31l-0.13.14-0.13.14-0.12.14L54.82,32l-0.43.58L54,33.2l-0.36.6-0.32.6L53,35l-0.25.61-0.21.62-0.09.31-0.08.31,0,0.16,0,0.16,0,0.16,0,0.16-0.1.63-0.06.63,0,0.63V40l0.05,0.63,0.09,0.63,0.13,0.63,0.17,0.63,0.1,0.31,0.11,0.31,0.06,0.16,0.06,0.16,0.06,0.16L53,43.78l0.28,0.61L53.54,45l0.35,0.6,0.39,0.59,0.42,0.58,0.46,0.57,0.49,0.57,0.53,0.56,0.28,0.28L56.74,49l0.15,0.14L57,49.28l0.15,0.13,0.15,0.13L58,50.07l0.66,0.51,0.68,0.5L60,51.56,60.75,52l0.77,0.45,0.8,0.44,0.83,0.42,0.43,0.21L64,53.75l0.22,0.1,0.22,0.1L64.67,54l0.22,0.1,0.9,0.37,0.92,0.35,0.94,0.33,1,0.32,1,0.3,1,0.28,1,0.26,1,0.24,0.53,0.11,0.53,0.11L74,56.87l0.27,0.05,0.27,0,0.27,0,1.08,0.18,1.08,0.16L78,57.49l1.1,0.11,1.1,0.09,1.11,0.07,1.12,0,1.13,0h2.27l1.13,0,1.12-.06,1.12-.08,1.11-.1,1.11-.13,1.1-.15,1.09-.17,1.09-.19,0.54-.1,0.54-.11,0.27-.06,0.27-.06,0.27-.06,0.27-.06,1.05-.25,1-.27,1-.29,1-.31,1-.33,1-.35,0.95-.37,0.93-.39,0.46-.2,0.45-.21,0.45-.21,0.44-.22,0.86-.44,0.84-.46,0.81-.48,0.78-.49m8.3-9.87-0.1-.32-0.23-.65-0.27-.65-0.3-.64-0.34-.64-0.37-.63-0.41-.62-0.22-.31-0.23-.31-0.12-.15-0.12-.15-0.12-.15-0.12-.15-0.52-.6-0.55-.59-0.58-.57L113,33.59,112.32,33l-0.67-.54-0.7-.52-0.74-.51-0.38-.25L109.44,31l-0.2-.12-0.2-.12-0.2-.12-0.2-.12L107.82,30,107,29.57l-0.87-.43-0.89-.41-0.91-.4L103.37,28l-1-.36-1-.34-0.5-.16-0.5-.16-0.51-.16-0.51-.15-1-.28-1-.26-1.06-.24-1.07-.22-1.08-.2-1.09-.18L92,25.08l-1.11-.14-0.56-.06-0.56-.06-0.28,0-0.28,0-0.28,0-0.28,0-1.13-.07-1.13,0-1.12,0H84.1L83,24.6l-1.12,0-1.12.06-1.11.08-0.56,0-0.56.05-0.28,0-0.28,0-0.28,0-0.28,0-1.09.15-1.08.17-1.06.19-1.05.21-1,.23-1,.25-1,.27-1,.29-0.49.15-0.49.16-0.24.08-0.24.08-0.24.08-0.24.08-0.94.35-0.91.36-0.89.38-0.86.4-0.83.41-0.81.43-0.78.45-0.76.46L60,30.88l-0.36.24-0.18.12-0.18.12-0.18.12-0.17.12-0.67.51-0.64.52L57,33.17l-0.57.54-0.54.55-0.51.56-0.47.57L54.47,36l-0.21.29-0.2.3-0.1.15-0.09.15L53.78,37l-0.09.15-0.33.61-0.29.61L52.81,39l-0.22.62-0.18.62-0.14.62-0.06.32" fill="none" stroke="#000" stroke-linecap="round" stroke-linejoin="round" stroke-width="0.71"/>
    <path d="M117.55,43.06L117,42l-0.37-.64-0.4-.63-0.44-.62-0.47-.61-0.51-.6-0.54-.59-0.57-.58-0.61-.57-0.32-.28-0.32-.28-0.33-.27-0.34-.27-0.7-.53-0.73-.52-0.76-.5-0.78-.48L108,33.61l-0.83-.45-0.86-.43-0.89-.42L105,32.1l-0.46-.2-0.23-.1-0.23-.1-0.24-.1-0.24-.1-1-.37-1-.35-1-.33-1-.31-1-.29-1-.27-1.05-.25-1.07-.23L94.95,29l-0.54-.1-0.27,0-0.27,0-0.27,0-0.28,0-1.11-.16-1.11-.14L90,28.32l-1.11-.1-1.12-.08-1.12-.05-1.12,0H82.13L81,28.15l-1.12.08-1.11.1-1.1.12-1.09.14-1.08.16-1.07.18-1.06.2-0.52.11-0.52.12-0.26.06-0.26.06-0.26.06-0.26.06-1,.27-1,.29-1,.3-1,.32-0.93.34-0.91.36-0.89.38-0.87.39-0.43.2-0.42.21-0.21.11-0.21.11L62.29,33l-0.2.11-0.8.45L60.52,34l-0.73.47-0.7.49-0.67.5L57.76,36l-0.61.52L56.57,37l-0.28.27L56,37.59l-0.13.14-0.13.14L55.63,38l-0.13.14L55,38.73l-0.45.58-0.41.59-0.37.59-0.34.6-0.3.6-0.27.61-0.23.62v0m63.93,1.77-0.21-.33-0.43-.62-0.46-.61-0.5-.6L114.43,42l-0.14-.15-0.14-.15L114,41.52l-0.15-.15-0.3-.29-0.3-.28-0.63-.56L112,39.7l-0.69-.53-0.72-.52-0.75-.5L109,37.67l-0.81-.47-0.84-.46-0.21-.11L107,36.51l-0.22-.11-0.22-.11-0.44-.21-0.45-.21-0.91-.41-0.92-.39-0.94-.37-1-.35-1-.33-1-.31-1-.29-1-.27-0.26-.07L97.33,33,97.06,33l-0.27-.06-0.53-.12-0.54-.11-1.08-.21-1.08-.19-1.09-.17-1.1-.15-1.11-.13-1.11-.1L88,31.63l-1.13-.06H83.51l-1.12,0-1.12.05-1.11.07-1.11.09-1.1.11L76.86,32l-1.09.16-0.27,0-0.27,0-0.27,0-0.27,0-0.53.1-0.53.1-1,.22-1,.24-1,.26-1,.28-1,.3-1,.32-0.94.34-0.93.36L65.5,35l-0.23.09L65,35.16l-0.22.1-0.44.19-0.44.2-0.85.41-0.82.42-0.8.44-0.77.45L60,37.83l-0.71.48-0.69.5-0.66.51-0.16.13-0.16.13-0.16.13-0.15.13-0.3.27-0.29.27-0.56.55-0.52.56-0.49.56-0.45.57-0.42.58-0.38.59-0.5.88m62,1.82-0.81-.93L114,45l-0.59-.57-0.62-.56-0.65-.55-0.68-.53-0.72-.52-0.18-.13L110.37,42l-0.19-.13L110,41.74l-0.39-.25-0.39-.25-0.8-.48-0.83-.46-0.85-.44-0.87-.43L105,39,104,38.64l-0.94-.37-1-.36-0.25-.09-0.25-.09-0.25-.08-0.25-.08-0.5-.16-0.5-.16-1-.3-1-.28-1-.26L96,36.19,94.92,36l-1.08-.19-1.09-.17-1.11-.15-0.28,0-0.28,0-0.28,0-0.28,0L90,35.26l-0.56-.05-1.12-.09-1.12-.06L86,35l-1.12,0H83.79l-1.12,0-1.12,0-1.12.07-0.28,0-0.28,0-0.28,0-0.28,0-0.56.05-0.55.06-1.1.13L76,35.61l-1.07.17L73.89,36l-1,.21-1,.24-1,.26-1,.28L69.53,37l-0.25.07L69,37.19l-0.25.08-0.49.16-0.48.16-0.95.33-0.92.35-0.9.37L64.16,39l-0.85.4-0.83.42-0.81.44-0.78.45-0.19.12L60.51,41l-0.19.12-0.19.12-0.37.24-0.36.24-0.69.5-0.66.51-0.63.52-0.6.53-0.56.54-0.53.55-0.5.56L54.78,46l-0.11.15-0.11.15-0.11.15m59.24,1.75L113.56,48l-0.31-.28-0.31-.28-0.16-.14-0.16-.14L112.46,47l-0.17-.14-0.68-.54-0.71-.52-0.74-.51-0.76-.49-0.79-.48-0.82-.46L107,43.45,106.08,43l-0.45-.21-0.45-.21L105,42.5l-0.23-.1-0.23-.1-0.23-.1-0.94-.38-1-.36-1-.34-1-.32-1-.3-1-.28-1-.26-1.06-.24-0.54-.11-0.54-.11-0.27-.05-0.27-.05-0.27,0-0.27,0L93,39.11,91.89,39l-1.1-.14-1.11-.11-1.11-.09-1.12-.07-1.12,0-1.13,0H82.93l-1.13,0-1.12.06-1.11.08-1.1.1-1.09.13L76.3,39l-1.08.17-1.07.19-0.53.1-0.53.11-0.26.06-0.26.06-0.26.06L72,39.85l-1,.25-1,.27-1,.29-1,.31-0.95.33-0.93.35L65.27,42l-0.89.38-0.44.2-0.43.2-0.21.1-0.21.1-0.21.11-0.21.11-0.81.43-0.78.45-0.75.46L59.59,45l-0.7.49-0.67.5-0.64.52L57,47.07l-0.29.27-0.28.27-0.14.14-0.14.14-0.24.25m55.74,1.71-0.55-.41-0.73-.51-0.76-.5-0.39-.24-0.4-.24-0.2-.12-0.2-.12-0.21-.12L108,47.47,107.14,47l-0.87-.44-0.89-.42-0.91-.4-0.93-.38L102.61,45l-1-.35-1-.33-0.5-.16L99.63,44,99.37,44l-0.26-.07-0.26-.07-0.26-.07-1-.27-1.06-.25L95.43,43l-1.08-.2-1.08-.18-1.09-.16-1.1-.14L90,42.2l-0.56-.05-0.56,0-0.28,0-0.28,0L88,42,87.7,42,86.57,42l-1.13,0H83.2l-1.12,0L81,42l-1.11.08-1.11.1-0.55.06-0.55.06-0.28,0-0.28,0-0.27,0-0.27,0-1.09.16-1.07.19L73.33,43l-1,.23-1,.25-1,.27-1,.29-1,.31-0.48.16-0.48.17-0.24.08-0.24.09-0.24.09L66.39,45l-0.92.36-0.89.38-0.87.39-0.84.41L62.05,47l-0.79.44-0.76.46-0.74.47-0.36.24-0.35.25L58.89,49l-0.17.13-0.17.13-0.17.13-0.64.51m51.37,1.71-0.93-.54-0.83-.45-0.85-.44-0.88-.42-0.9-.4-0.93-.39-1-.37-0.24-.09-0.24-.09-0.24-.09-0.25-.09-0.49-.17-0.5-.16-1-.31-1-.29-1-.27-1-.25-1.06-.23-1.07-.21-1.09-.19L92.43,46l-0.28,0-0.28,0-0.28,0-0.28,0-0.56-.07L90.2,45.7l-1.12-.1L88,45.52l-1.12-.06-1.12,0H83.48l-1.13,0-1.13.05-0.28,0-0.28,0-0.28,0-0.28,0-0.56,0-0.55,0-1.1.12-1.09.14-1.08.16-1.07.18-1.06.2-1,.22-1,.24-1,.26-0.25.07L70,47.32l-0.25.07-0.25.07L69,47.61l-0.49.15-1,.32-0.94.34-0.92.35-0.89.37-0.87.39-0.85.41-0.83.43-0.8.44-0.2.11L61.06,51l-0.19.12-0.19.12-0.56.35m45.8,1.73-0.09,0-0.45-.21-0.45-.2L104,52.51l-0.94-.37-1-.35-1-.33-1-.32-1-.3-1-.28L97,50.3l-0.27-.06-0.27-.06-0.27-.06-0.27-.06L95.41,50l-0.54-.11-1.09-.19-1.09-.17-1.1-.15-1.1-.13-1.11-.11L88.25,49l-1.12-.06L86,48.9H83.73l-1.12,0-1.12,0L80.38,49l-1.11.09-1.1.11-1.09.13L76,49.51l-1.08.18-0.27,0-0.27,0-0.27.05-0.27.05L73.31,50l-0.53.11-1,.24-1,.26-1,.28-1,.29-1,.31-0.94.33-0.93.35L65,52.53l-0.22.1-0.22.1-0.22.1-0.22.1-0.43.2-0.43.21-0.07,0m38.41,1.72L101.36,55l-0.5-.16-0.5-.16-0.51-.15-0.51-.15-1-.28-1-.26-1.06-.24-1.07-.22-1.08-.2L93,53l-1.1-.16-1.11-.14-0.56-.06-0.56-.05-0.56,0-0.56,0-1.13-.07-1.12,0-1.12,0H84l-1.12,0-1.12,0-1.12.06-1.12.08L79,52.61l-0.56.06-0.55.06-0.55.07-1.09.15-1.08.17-1.06.19-1,.21-1,.23L71,54l-1,.27-1,.29-0.49.15L68,54.87l-0.65.22M95,56.82l-1.76-.31-0.28,0-0.28,0-0.28,0-0.28,0-0.56-.07L91,56.2l-1.11-.12L88.79,56l-1.12-.07-1.12-.05-1.12,0H83.18l-1.13,0H81.49l-0.28,0-0.28,0-0.56,0-0.56,0-1.11.1-1.1.12-1.09.14-1.08.16-1.65.3m-18-7.39-2.29-2.31-1.75-2.46L50.59,42.1,50,39.45V36.79l0.6-2.64,1.19-2.57,1.76-2.46,2.3-2.31,2.8-2.12,3.25-1.89,3.65-1.63,4-1.34m0,0,1.8-.44L73.2,19l0.93-.17,0.94-.15,0.47-.07L76,18.55l0.48-.06L77,18.43l1.92-.2,1.93-.14L82.76,18H84.7l1,0,1,0,0.49,0,0.49,0h0.24l0.24,0,0.24,0,0.24,0,1.93,0.17,1.9,0.23,1.87,0.3,1.84,0.36L97,19.42l0.9,0.22,0.45,0.11,0.45,0.12,0.22,0.06L99.29,20l0.22,0.06,0.22,0.06,1.72,0.53,1.66,0.59,1.59,0.64,1.53,0.69L107,22.93l0.72,0.38L108,23.5l0.35,0.2,0.17,0.1,0.17,0.1,0.17,0.1,0.17,0.1,1.31,0.84,1.22,0.87,1.13,0.91,1,0.95,0.48,0.49,0.46,0.5,0.22,0.25,0.22,0.26,0.21,0.26,0.2,0.26,0.74,1,0.63,1.06,0.52,1.08,0.41,1.1m-8,17.21,2.86-2.06,2.34-2.27,1.78-2.44,1.19-2.55,0.57-2.62-0.06-2.64L117.87,34m-8,17.21-1.31.83-1.39.78-1.46.74-1.53.69-0.8.32-0.81.31-0.21.08-0.21.08-0.21.07-0.21.07-0.42.14-0.43.14L99.17,56l-1.77.46-1.81.4-1.85.34-0.94.15-1,.13-0.48.06-0.48.06-0.48.05-0.48,0L88,57.83l-1.93.09-1.94,0-1.94,0-1,0-1-.06L80,57.8l-0.24,0-0.24,0-0.24,0-0.48,0-0.48,0-1.91-.22-1.88-.28-1.84-.34-1.81-.41L70,56.18l-0.89-.24-0.22-.06-0.22-.06-0.22-.06-0.22-.06-0.43-.13-0.43-.14-1.67-.57-1.61-.62-1.55-.68L61,52.81l-0.72-.38L59.61,52l-0.17-.1-0.17-.1-0.17-.1-0.17-.1-0.33-.21-0.33-.21L57,50.35l-1.18-.9M44,16.59L30.88,44.88m0,0L30.71,46l0.51,1.1L32.35,48m0,0L68.22,68.76m0,0,1.61,0.65,1.9,0.29,2-.1m0,0,49-7.58m0,0,1.78-.48,1.39-.8,0.83-1m0,0,13.13-28.29m0,0L140,30.28l-0.51-1.1-1.13-.93m0,0L102.5,7.54m0,0-1.61-.65L99,6.6l-2,.1m0,0L48,14.28m0,0-1.78.48-1.39.8-0.83,1m119.3,59.19-0.06,1.84,0,0.43,0,0.43,0,0.43-0.05.43-0.13.87-0.16.87-0.4,1.72-0.51,1.71-0.3.85-0.33.85-0.36.85-0.38.84-0.85,1.67-1,1.65-0.52.82-0.55.81-0.28.4-0.29.4-0.3.4-0.3.4L155.2,96l-1.37,1.55-0.72.76-0.75.75-0.38.37-0.39.37-0.4.37-0.4.37L149.11,102l-1.76,1.41-0.91.69-0.94.68-0.48.34-0.48.33-0.49.33-0.49.33-2,1.28-2.1,1.24-1.08.6-1.1.59-0.56.29-0.56.29-0.57.28L135,111l-2.33,1.09-2.4,1-1.22.5-1.24.49-0.63.24-0.63.23-0.63.23-0.64.23-2.59.87-2.64.81-1.34.39-1.35.37-0.68.18-0.68.18-0.69.17-0.69.17-2.78.64-2.82.57-1.42.26-1.43.25-0.72.12-0.72.11-0.72.11-0.72.11-2.91.38-2.93.32-1.47.14-1.48.12-0.74.05-0.74,0-0.74,0-0.74,0-3,.12-3,.06H81.83l-0.74,0-0.74,0-0.74,0-3-.14-2.95-.2-1.47-.13L70.75,121,70,120.89l-0.73-.08-0.73-.09-0.73-.09-2.89-.4-2.86-.46-1.42-.25-1.41-.27-0.7-.14-0.7-.14-0.7-.15-0.69-.15L53.73,118l-2.7-.71-1.33-.37-1.32-.39-0.65-.2-0.65-.2-0.65-.21-0.64-.21-2.54-.88-2.47-.93-1.21-.49-1.2-.5-0.59-.26-0.59-.26-0.58-.26L36,111.88l-2.27-1.09-2.19-1.14-1.07-.59-1-.6-1-.61-1-.62-2-1.28-1.86-1.32-1.77-1.36-1.68-1.4-0.41-.36-0.4-.36L19,100.79l-0.39-.36-0.76-.73L17.09,99l-1.39-1.5-1.29-1.53-0.31-.39-0.3-.39-0.29-.39-0.29-.39-0.55-.79-0.52-.79-1-1.6-0.86-1.62-0.2-.41-0.19-.41-0.18-.41-0.18-.41-0.33-.83-0.31-.83L8.4,84.6,8,82.93l-0.3-1.68-0.19-1.7" fill="none" stroke="#000" stroke-linecap="round" stroke-linejoin="round" stroke-width="0.71"/>
    <path d="M7.49,79.55l-0.06-1,0-1m0-3.52V74m0,3.13V77.5m155.91-1.71V75.45M7.41,73.7l0,1.06,0,0.85,0.08,0.85,0,0.42,0.06,0.42,0.06,0.42L7.8,78.15l0.35,1.68,0.47,1.68L8.9,82.35l0.3,0.83,0.16,0.41L9.53,84l0.18,0.41,0.18,0.41,0.8,1.64,0.91,1.61,0.49,0.8,0.52,0.79,0.27,0.4,0.28,0.39,0.28,0.39,0.29,0.39L15,92.8l1.33,1.52,1.43,1.48,1.53,1.45,0.4,0.36L20.06,98l0.41,0.35,0.42,0.35,0.85,0.7,0.87,0.69,1.81,1.34,1.9,1.3L26.8,103l0.49,0.32,0.25,0.16,0.25,0.16L28,103.81,28.3,104l1,0.61,1,0.6,2.15,1.17,2.23,1.12,0.57,0.27L35.89,108l0.58,0.27L37,108.53,38.23,109l1.19,0.5,2.44,1,2.5,0.91,1.27,0.43,1.29,0.42,0.65,0.21,0.65,0.2,0.66,0.2,0.66,0.19,2.67,0.74,2.72,0.68,1.38,0.32,1.39,0.3,0.7,0.15,0.7,0.14,0.7,0.14,0.71,0.13,2.84,0.5,2.87,0.43,2.9,0.37L72,117.28l1.47,0.13L75,117.52l1.48,0.1,1.48,0.08,3,0.11,3,0h3l1.49,0,1.49-.05,3-.15,3-.22,0.74-.06,0.74-.07,0.74-.07,0.74-.08,1.47-.17,1.46-.18,2.9-.41,2.87-.47,1.42-.26,1.42-.28,0.71-.14,0.7-.15,0.7-.15,0.7-.16,2.76-.66,2.71-.72,1.34-.38,1.33-.4,0.66-.2,0.66-.21,0.65-.21,0.65-.22,2.56-.9,2.5-1,2.44-1,2.37-1.06,0.58-.27,0.58-.28,0.57-.28,0.57-.28,1.12-.57,1.1-.59,2.15-1.21,2.07-1.26,0.51-.32,0.5-.32,0.49-.33,0.49-.33,1-.67,0.94-.68L148.13,99l1.72-1.42,0.42-.36,0.41-.36,0.2-.18,0.2-.18,0.2-.18,0.2-.18,0.78-.74,0.75-.75,1.43-1.53,1.33-1.56,0.63-.79L157,90l0.29-.4,0.28-.4,0.28-.4,0.27-.41,1-1.64L160,85.05l0.41-.84,0.39-.84L161,83l0.18-.42,0.17-.42,0.16-.43m1.67-7.59,0,0.2,0,0.53-0.06.53-0.15,1.06-0.19,1.06-0.51,2.11-0.68,2.09m-1.46-3.9-0.18.46-0.44,1-0.48,1-0.26.51-0.27.51-0.28.51-0.29.51-0.6,1-0.64,1-0.34.5-0.35.49-0.36.49-0.37.49-0.76,1-0.8,1-0.84.95-0.88.94-0.23.23-0.23.23-0.23.23-0.23.23-0.47.46-0.48.45-2,1.78-2.16,1.72-0.56.42-0.57.42-0.29.21-0.29.21-0.29.21-0.29.2-1.2.81-1.23.79-2.55,1.53-2.67,1.46-0.34.18-0.34.18-0.35.17-0.35.17-0.7.34-0.71.34-1.43.66-1.46.64-1.48.62-1.51.6-0.76.29-0.77.29-0.39.14-0.39.14-0.39.14-0.39.14L121,107.83l-3.25,1-1.66.45-1.68.43-0.42.1-0.42.1-0.42.1-0.42.1-0.85.19-0.85.19-3.45.69-3.5.59-0.88.13-0.89.13-0.44.06-0.45.06-0.45.06-0.45.06-1.79.21-1.79.19-3.6.3-3.63.21-0.46,0-0.46,0-0.46,0H87.86l-0.91,0-0.91,0-1.82,0H82.41l-1.82,0-1.81-.06-0.91,0-0.91,0-0.45,0-0.45,0-0.45,0-0.45,0-3.6-.29L68,112.3l-1.77-.23-1.76-.26L64,111.74l-0.44-.07-0.44-.07-0.44-.07-0.87-.15L61,111.23l-3.42-.67-3.36-.77-0.83-.21-0.83-.21-0.41-.11-0.41-.11L51.3,109l-0.41-.11-1.62-.46-1.6-.49-3.13-1-3-1.12-0.37-.15-0.37-.15-0.37-.15L40,105.23l-0.73-.3-0.73-.31L37.11,104l-1.41-.65-1.38-.67L33,102l-0.67-.35-0.66-.36-0.33-.18L31,100.92l-0.32-.18-0.32-.18-2.49-1.5L25.5,97.49l-1.13-.81-1.1-.82L23,95.66l-0.27-.21-0.27-.21L22.19,95l-0.52-.42-0.51-.43-1-.86-1-.88-0.92-.89-0.88-.9L17,90.18l-0.42-.46-0.21-.23-0.2-.23L16,89l-0.2-.23L15,87.86l-0.73-.95L12.91,85l-1.18-2-0.14-.25-0.13-.25-0.13-.25L11.2,82,11,81.55,10.71,81l-0.45-1-0.4-1L9.5,78,9.18,77,9,76.49,8.9,76l-0.06-.24" fill="none" stroke="#000" stroke-linecap="round" stroke-linejoin="round" stroke-width="0.71"/>
    <polyline points="161.53 81.68 162.66 77.9 163.24 74.07" fill="none" stroke="#000" stroke-linecap="round" stroke-linejoin="round" stroke-width="0.71"/>
    <polyline points="18.18 84.4 18.34 84.58 18.64 84.9 18.93 85.21 19.23 85.52 19.53 85.83 20.79 87.05 22.11 88.25 23.5 89.42 24.97 90.57 25.34 90.85 25.72 91.13 26.11 91.41 26.5 91.69 27.28 92.23 28.09 92.77 29.74 93.83 31.45 94.85 32.33 95.35 33.22 95.84 33.67 96.09 34.13 96.33 34.59 96.57 35.05 96.8 36.94 97.73 38.87 98.61 40.85 99.46 42.89 100.27 43.41 100.47 43.92 100.66 44.45 100.85 44.97 101.04 46.03 101.41 47.09 101.77 49.26 102.46 51.46 103.11 52.58 103.42 53.7 103.71 54.27 103.86 54.84 104 55.41 104.14 55.98 104.28 58.29 104.8 60.63 105.27 61.81 105.49 62.99 105.7 63.59 105.8 64.19 105.9 64.79 106 65.39 106.09" fill="none" stroke="#000" stroke-linecap="round" stroke-linejoin="round" stroke-width="0.71"/>
    <polyline points="11.05 78.15 11.22 78.54 11.38 78.88 11.54 79.22 11.71 79.57 11.88 79.91 12.24 80.59 12.62 81.26 13.43 82.6 14.31 83.93 14.79 84.58 15.28 85.24 15.53 85.56 15.79 85.89 16.05 86.21 16.31 86.53 17.42 87.8 18.6 89.05 19.85 90.27 21.17 91.47 21.52 91.77 21.86 92.06 22.21 92.36 22.56 92.65 23.28 93.22 24.02 93.8 25.54 94.92 27.12 96 27.93 96.54 28.76 97.07 29.18 97.33 29.61 97.59 30.04 97.84 30.47 98.1 32.23 99.1 34.05 100.06 35.92 100.99 37.84 101.88 38.83 102.31 39.82 102.74 40.83 103.15 41.85 103.56 43.91 104.34 46.02 105.08 47.1 105.43 48.18 105.78 48.73 105.95 49.27 106.11 49.82 106.28 50.38 106.44 52.61 107.06 54.87 107.63 57.17 108.17 59.49 108.66 60.08 108.77 60.67 108.89 61.26 109 61.85 109.11 63.04 109.31 64.23 109.51 66.63 109.86 69.05 110.17 70.27 110.31 71.49 110.44 72.71 110.55 73.94 110.66 76.41 110.83 78.88 110.96 81.36 111.04 83.84 111.07 85.09 111.07 86.33 111.06 86.96 111.05 87.58 111.03 88.2 111.02 88.82 111 91.3 110.89 93.77 110.74 96.24 110.54 98.69 110.29 99.31 110.22 99.92 110.15 100.53 110.08 101.14 110 102.35 109.83 103.56 109.66 105.96 109.28 108.34 108.85 109.52 108.61 110.7 108.37 111.28 108.25 111.87 108.12 112.45 107.99 113.03 107.85 115.33 107.29 117.6 106.69 119.83 106.05 122.03 105.36 122.57 105.18 123.11 105 123.65 104.81 124.19 104.63 125.25 104.25 126.3 103.86 128.37 103.05 130.4 102.2 131.39 101.76 132.38 101.31 132.86 101.09 133.35 100.86 133.83 100.63 134.31 100.39 136.18 99.43 138 98.44 139.77 97.42 141.47 96.36 141.89 96.09 142.31 95.81 142.72 95.54 143.12 95.27 143.93 94.71 144.71 94.14 146.23 92.99 147.69 91.82 148.39 91.22 149.08 90.61 149.41 90.3 149.75 90 150.08 89.69 150.4 89.38 151.65 88.12 152.84 86.84 153.94 85.54 154.98 84.22 155.23 83.89 155.47 83.55 155.71 83.22 155.94 82.88 156.4 82.2 156.83 81.52 157.64 80.16" fill="none" stroke="#000" stroke-linecap="round" stroke-linejoin="round" stroke-width="0.71"/>
    <polyline points="8.2 74.98 8.6 76.86 8.78 77.56 8.98 78.26 9.2 78.96 9.45 79.66 9.99 81.05 10.61 82.42 11.31 83.78 12.08 85.13 12.29 85.46 12.49 85.8 12.71 86.13 12.93 86.47 13.38 87.13 13.85 87.78 14.85 89.08 15.92 90.36 16.48 91 17.06 91.62 17.36 91.93 17.66 92.25 17.96 92.55 18.27 92.86 19.55 94.08 20.9 95.27 22.32 96.43 23.79 97.57 24.56 98.13 25.34 98.68 25.73 98.95 26.14 99.22 26.54 99.49 26.95 99.76 28.61 100.81 30.33 101.83 32.11 102.82 33.95 103.77 34.41 104.01 34.88 104.24 35.36 104.47 35.84 104.69 36.8 105.14 37.77 105.58 39.76 106.42 41.8 107.23 42.83 107.62 43.88 108 44.4 108.19 44.93 108.37 45.47 108.56 46 108.73 48.16 109.43 50.36 110.08 52.6 110.69 54.87 111.26 55.44 111.39 56.02 111.53 56.6 111.66 57.18 111.78 58.34 112.03 59.51 112.27 61.87 112.71 64.25 113.11 64.86 113.2 65.46 113.29 66.06 113.38 66.66 113.46 67.87 113.62 69.09 113.77 70.31 113.9 71.53 114.03 72.14 114.08 72.76 114.14 73.37 114.19 73.99 114.24 76.46 114.41 78.93 114.54 81.41 114.61 83.89 114.65 84.51 114.65 85.14 114.64 85.76 114.64 86.38 114.63 87.63 114.61 88.87 114.57 91.35 114.47 93.82 114.31 96.28 114.12 98.74 113.87 99.36 113.8 99.97 113.73 100.58 113.66 101.19 113.58 102.4 113.42 103.61 113.25 106.01 112.87 108.39 112.44 109.58 112.21 110.75 111.97 111.34 111.85 111.93 111.72 112.51 111.59 113.09 111.46 115.39 110.91 117.67 110.31 119.9 109.67 122.11 108.99 122.65 108.81 123.19 108.64 123.74 108.45 124.27 108.27 125.34 107.89 126.4 107.51 128.48 106.71 130.51 105.87 131.51 105.43 132.5 104.99 132.99 104.77 133.48 104.54 133.97 104.31 134.45 104.08 136.34 103.13 138.17 102.14 139.95 101.13 141.68 100.08 142.1 99.81 142.52 99.54 142.93 99.27 143.34 99 144.16 98.45 144.95 97.89 146.49 96.75 147.97 95.58 148.69 94.99 149.39 94.38 149.73 94.08 150.07 93.78 150.41 93.47 150.74 93.16 152.02 91.91 153.23 90.64 154.37 89.35 155.44 88.04 155.94 87.38 156.43 86.71 156.9 86.04 157.35 85.36 158.2 84 158.97 82.62 159.66 81.23 160.28 79.82 160.43 79.47 160.56 79.11 160.69 78.75 160.82 78.4 161.06 77.69 161.28 76.97 161.52 76.1" fill="none" stroke="#000" stroke-linecap="round" stroke-linejoin="round" stroke-width="0.71"/>
    <polyline points="146.51 89.56 142.13 92.75 137.26 95.68 131.94 98.34 126.21 100.7 120.12 102.74 113.73 104.45 107.09 105.8 100.26 106.79 93.3 107.4 86.27 107.64 79.24 107.5 72.25 106.98 65.39 106.09" fill="none" stroke="#000" stroke-linecap="round" stroke-linejoin="round" stroke-width="0.71"/>
    <polyline points="122.54 98.51 116.25 100.38 109.68 101.9 102.89 103.05 95.94 103.82 88.9 104.21 81.82 104.21 74.78 103.82 67.83 103.05 61.04 101.9 54.47 100.38 48.18 98.51" fill="none" stroke="#000" stroke-linecap="round" stroke-linejoin="round" stroke-width="0.71"/>
    <polyline points="140.04 42.14 139.99 42.57 139.84 42.99" fill="none" stroke="#000" stroke-linecap="round" stroke-linejoin="round" stroke-width="0.71"/>
    <line x1="139.84" y1="42.99" x2="126.71" y2="71.28" fill="none" stroke="#000" stroke-linecap="round" stroke-linejoin="round" stroke-width="0.71"/>
    <polyline points="126.71 71.28 125.88 72.31 124.49 73.12 122.7 73.6" fill="none" stroke="#000" stroke-linecap="round" stroke-linejoin="round" stroke-width="0.71"/>
    <line x1="122.7" y1="73.6" x2="73.7" y2="81.18" fill="none" stroke="#000" stroke-linecap="round" stroke-linejoin="round" stroke-width="0.71"/>
    <polyline points="73.7 81.18 71.74 81.28 69.83 80.98 68.22 80.33" fill="none" stroke="#000" stroke-linecap="round" stroke-linejoin="round" stroke-width="0.71"/>
    <line x1="68.22" y1="80.33" x2="32.35" y2="59.62" fill="none" stroke="#000" stroke-linecap="round" stroke-linejoin="round" stroke-width="0.71"/>
    <polyline points="32.35 59.62 31.12 58.56 30.69 57.3" fill="none" stroke="#000" stroke-linecap="round" stroke-linejoin="round" stroke-width="0.71"/>
    <polyline points="170.4 54.35 170.11 58.41 169.24 62.44 167.8 66.41 165.79 70.3 163.24 74.08 160.15 77.72 156.55 81.21 152.47 84.51 147.93 87.61 142.96 90.47 137.59 93.1 131.87 95.45 125.83 97.53 119.52 99.31 112.97 100.79 106.24 101.95 99.36 102.78 92.38 103.28 85.36 103.45 78.34 103.28 71.36 102.78 64.49 101.95 57.75 100.79 51.2 99.31 44.89 97.53 38.85 95.45 33.13 93.1 27.77 90.47 22.8 87.61 18.25 84.51 14.17 81.21 10.57 77.72 7.49 74.08 4.93 70.3 2.92 66.41 1.48 62.43 0.61 58.41 0.32 54.35" fill="none" stroke="#000" stroke-linecap="round" stroke-linejoin="round" stroke-width="0.71"/>
    <polyline points="3.22 37.02 1.68 40.98 0.72 44.99 0.33 49.05 0.52 53.1 1.3 57.14 2.65 61.12 4.56 65.02 7.02 68.82 10.02 72.49 13.54 76.01 17.54 79.34 22.01 82.47 26.91 85.38 32.21 88.05 37.87 90.45 43.86 92.58 50.13 94.41 56.64 95.94 63.35 97.15 70.21 98.03 77.17 98.59 84.19 98.82 91.22 98.7 98.2 98.26 105.1 97.48 111.86 96.38 118.45 94.95 124.8 93.22 130.89 91.19 136.66 88.88 142.09 86.3 147.13 83.47 151.74 80.41 155.91 77.14 159.59 73.68 162.76 70.06 165.41 66.3 167.5 62.43 169.04 58.47 170.01 54.45 170.39 50.4 170.2 46.34 169.43 42.31 168.08 38.33 166.17 34.42 163.7 30.62 160.7 26.95 157.19 23.44 153.18 20.1 148.72 16.97 143.81 14.06 138.51 11.4 132.85 8.99 126.86 6.87 120.59 5.04 114.08 3.51 107.37 2.3 100.51 1.41 93.55 0.85 86.53 0.63 79.51 0.74 72.52 1.19 65.62 1.97 58.86 3.07 52.28 4.49 45.92 6.22 39.84 8.25 34.06 10.57 28.63 13.15 23.6 15.97 18.98 19.04 14.82 22.3 11.14 25.76 7.96 29.38 5.32 33.14 3.22 37.02" fill="none" stroke="#000" stroke-linecap="round" stroke-linejoin="round" stroke-width="0.71"/>
    <line x1="170.4" y1="54.35" x2="170.4" y2="49.72" fill="none" stroke="#000" stroke-linecap="round" stroke-linejoin="round" stroke-width="0.71"/>
    <line x1="0.32" y1="49.72" x2="0.32" y2="54.35" fill="none" stroke="#000" stroke-linecap="round" stroke-linejoin="round" stroke-width="0.71"/>
    <line x1="139.84" y1="42.99" x2="139.84" y2="31.42" fill="none" stroke="#000" stroke-linecap="round" stroke-linejoin="round" stroke-width="0.71"/>
    <line x1="126.71" y1="59.71" x2="126.71" y2="71.28" fill="none" stroke="#000" stroke-linecap="round" stroke-linejoin="round" stroke-width="0.71"/>
    <line x1="32.35" y1="48.05" x2="32.35" y2="59.62" fill="none" stroke="#000" stroke-linecap="round" stroke-linejoin="round" stroke-width="0.71"/>
    <line x1="68.22" y1="80.33" x2="68.22" y2="68.76" fill="none" stroke="#000" stroke-linecap="round" stroke-linejoin="round" stroke-width="0.71"/>
    <line x1="122.7" y1="73.6" x2="122.7" y2="62.02" fill="none" stroke="#000" stroke-linecap="round" stroke-linejoin="round" stroke-width="0.71"/>
    <line x1="73.7" y1="69.61" x2="73.7" y2="81.18" fill="none" stroke="#000" stroke-linecap="round" stroke-linejoin="round" stroke-width="0.71"/>
  </g>
</svg>
