<svg id="f2c7edb5-7956-49dd-9446-530f9aac155b" data-name="illustration" xmlns="http://www.w3.org/2000/svg" viewBox="0 0 127.56 155.91">
  <title>heater_element</title>
  <g opacity="0.25">
    <path d="M72.52,35.19C50,41.72,48.33,25.34,48.33,25.34l10.07-4.19s0.94,7.69,13.78,4l8.6-3.09,3.8,9A104.37,104.37,0,0,1,72.52,35.19Z" fill="none" stroke="#000" stroke-linejoin="round" stroke-width="0.71"/>
    <g>
      <path d="M111.28,9.06s-2.72.84-15.42,9.34l1.67,4c14.78-3.56,17.34-4.78,17.34-4.78,4.54-1.91,7.41-5.37,6.42-7.72S115.81,7.15,111.28,9.06Zm4.2,6.61c-2.88,1.21-5.75.92-6.41-.65s1.14-3.83,4-5,5.75-.92,6.41.65S118.36,14.46,115.48,15.67Z" fill="#fff" stroke="#000" stroke-linecap="round" stroke-linejoin="round"/>
      <g id="0c8952ce-90be-40f9-897c-72bafd783bf9" data-name="&lt;Group&gt;">
        <g>
          <line x1="87.59" y1="24.02" x2="105.29" y2="16.58" fill="none" stroke="#000" stroke-linecap="square" stroke-miterlimit="10" stroke-width="2.83"/>
          <line x1="87.59" y1="24.02" x2="105.29" y2="16.58" fill="none" stroke="#fff" stroke-linecap="square" stroke-linejoin="round" stroke-width="1.42"/>
        </g>
      </g>
      <path d="M102,12.1l-11.2,4.71c-3.25,1.37-3.43.07-10.93,3.23l5.46,13c7.78-3.27,6.35-4,10.33-5.71l10.82-4.55Z" fill="#fff" stroke="#000" stroke-linecap="round" stroke-linejoin="round" stroke-width="0.71"/>
    </g>
  </g>
  <g opacity="0.5">
    <path d="M68,47.69H48c-4.74,0-4.51,5.45-4.51,5.45S36,52.89,36,58.33l0.17,19.94s0.14,2.09,0,6.07L36,102s4,7.06,14.16,7.06H81.78V104.4H90.7v4.71s15.85,0,15.85-9.29V82.6l-1.23-26.27s0.54-3.32-7-3.32c0,0,.21-5.32-5-5.32H77.94" fill="none" stroke="#000" stroke-linejoin="round" stroke-width="0.71"/>
    <path d="M70.82,80.37s-5.39,1.55-6.56-2.79L64,59.91a4.22,4.22,0,0,1,3.3-1.63c2,0,3.64,2,3.64,2Z" fill="none" stroke="#000" stroke-linejoin="round" stroke-width="0.71"/>
    <path d="M70.82,80.37s-0.37,2.57,2.76,2.57H97.92c2.85-.86,2.5-4,2.5-4s-1.07-12-2.54-12.07c-2-.15-22.13.56-22.13,0.56V56l-1.24-.93H70.82V80.37Z" fill="none" stroke="#000" stroke-linejoin="round" stroke-width="0.71"/>
    <path d="M77.63,52.39V44s0.21-1.84-2.27-1.84c0,0-2.34-.43-3,1.05l-0.1,9.15" fill="none" stroke="#000" stroke-linejoin="round" stroke-width="0.71"/>
    <path d="M44.94,64.71H42.71v3.41l9.47,0.06a1.06,1.06,0,0,0,.62-0.93l-0.34-11.7s-0.09-3.16,2.6-3.16h32S90,52.3,89.8,55.92C89.38,62.5,88.9,67,88.9,67" fill="none" stroke="#000" stroke-linejoin="round" stroke-width="0.71"/>
    <path d="M45.07,68.13l0.31-16.79s0.06-1.24,2.48-1.24H65.77s2-.53,2.17-2,0-9.55,0-9.55A0.76,0.76,0,0,1,68.49,38h3.43a0.63,0.63,0,0,1,.33.6V52.39" fill="none" stroke="#000" stroke-linejoin="round" stroke-width="0.71"/>
    <path d="M44.48,126.31s9,11.55,30.66,9.85a40.12,40.12,0,0,0,22.27-9.59" fill="none" stroke="#000" stroke-linejoin="round" stroke-width="0.71"/>
    <path d="M102,124.92c-3.36,6.92-10.66,15.32-26.45,16.44C48.1,143.31,40.88,125,40.88,125" fill="none" stroke="#000" stroke-linejoin="round" stroke-width="0.71"/>
    <path d="M41.93,127s16,17.49,40.9,10.71c9.43-2.57,14.85-7.71,17.94-12.39" fill="none" stroke="#000" stroke-linejoin="round" stroke-width="0.71"/>
    <line x1="71.3" y1="127.33" x2="71.3" y2="136.02" fill="none" stroke="#000" stroke-linejoin="round" stroke-width="0.71"/>
    <polyline points="36.05 76.17 27.17 79.39 27.17 111.35 71.3 127.33 115.42 111.35 115.42 79.39 106.24 76.06" fill="none" stroke="#000" stroke-linejoin="round" stroke-width="0.71"/>
    <polyline points="115.42 111.35 115.42 120.04 71.3 136.02 27.17 120.04 27.17 111.35" fill="none" stroke="#000" stroke-linejoin="round" stroke-width="0.71"/>
    <path d="M36.18,85.65c0,3,4.3,3.76,4.3,3.76S39.92,83,45.41,83H97.92s4.41-.34,4.41,5.22c0,0,4.22-.48,4.22-5.56" fill="none" stroke="#000" stroke-linejoin="round" stroke-width="0.71"/>
  </g>
  <g>
    <path d="M84.32,78.28s8.33,0,8.33-5.63V66.26H90.43s-0.5,2.62-2.75,2.62c-1.88,0-3.19.13-3.19,0.13-4.92,0-9,2.08-9,4.64S79.39,78.28,84.32,78.28ZM83.5,70.19c3.13,0,5.66,1.75,5.66,3.45s-2.53,3.09-5.66,3.09-5.66-1.38-5.66-3.09S80.38,70.19,83.5,70.19Z" fill="#fff" stroke="#000" stroke-linecap="round" stroke-linejoin="round"/>
    <path d="M94.59,67.85V55.7c0-3.53,1.26-3.19,1.26-11.33,0,0,.2-2.74-7-2.74s-7,2.74-7,2.74c0,8.44,1.26,7.41,1.26,11.74V67.85s1.68,2,5.78,2S94.59,67.85,94.59,67.85Z" fill="#fff" stroke="#000" stroke-linecap="round" stroke-linejoin="round" stroke-width="0.71"/>
    <ellipse cx="88.81" cy="44.21" rx="7.04" ry="2.58" fill="#fff" stroke="#000" stroke-linecap="round" stroke-linejoin="round" stroke-width="0.71"/>
    <path d="M65.07,25.48S64,28.58,82.69,33.75c11.48,3.18,11.5,12.13,11.5,12.13s-1.42.91-5.37,0.91-5.31-.89-5.31-0.89S84.07,42.5,72.87,40C58.55,36.8,56.49,29.49,56.49,29.49Z" fill="#fff" stroke="#000" stroke-linejoin="round" stroke-width="0.71"/>
    <polygon points="81.85 73.04 80.9 73.72 81.86 74.18 82.93 73.49 84.11 73.49 85.15 74.21 86.11 73.74 85.28 73.21 85.28 72.45 86.02 71.83 85.24 71.39 84.14 71.92 82.99 71.92 81.74 71.41 80.94 71.83 81.85 72.31 81.85 73.04"/>
  </g>
  <path d="M24.66,61.18s-8.43.48-10.62-7.93c-2.06-7.9,7.49-14.49,22-17,6.67-1.14,6.67-3.78,6.67-3.78l9.68-1.73S53.59,36.64,45,41.5c-7,4-20.31,4.5-21.8,7.18-1.7,3,1.5,3.3,1.5,3.3v9.21Z" fill="#fff" stroke="#000" stroke-linejoin="round" stroke-width="0.71"/>
  <path d="M58.66,0l8.73,22.4c0.58,1.95-5,5.4-13.44,7.91s-15.23,2.88-15.81.93L27.17,0" fill="#fff" stroke="#000" stroke-linecap="round" stroke-linejoin="round"/>
  <g>
    <path d="M48.14,60.47l4.49,0.72m0.9-8.3-5.39.73" fill="#fff" stroke="#000" stroke-linecap="round" stroke-linejoin="round" stroke-width="0.71"/>
    <g id="f6d04f46-625f-405c-ab91-b050e63a47dc" data-name="&lt;Group&gt;">
      <g>
        <line x1="30.2" y1="57.12" x2="49.4" y2="57.12" fill="none" stroke="#000" stroke-linecap="square" stroke-miterlimit="10" stroke-width="2.83"/>
        <line x1="30.2" y1="57.12" x2="49.4" y2="57.12" fill="none" stroke="#fff" stroke-linecap="square" stroke-linejoin="round" stroke-width="0.71"/>
      </g>
    </g>
    <path d="M48.14,62.5H36c-3.53,0-3.19,1.26-11.33,1.26V49.68c8.44,0,7.41,1.26,11.74,1.26H48.14V62.5Z" fill="#fff" stroke="#000" stroke-linecap="round" stroke-linejoin="round" stroke-width="0.71"/>
  </g>
</svg>
