<svg id="80bbbd99-c6b5-4d49-a6e9-74f58618940e" data-name="illustration" xmlns="http://www.w3.org/2000/svg" viewBox="0 0 160.26 954.28">
  <title>heater_element</title>
  <g opacity="0.25">
    <g>
      <g id="54124002-6bc7-48b6-85d7-6834c6222a83" data-name="eye lug">
        <path d="M41,109.3a24.44,24.44,0,0,1,.32-5.26l1.53-1s1.52-1.35,1.52-11.17h-17C27.39,102,28.92,103,28.92,103l1.53,1c0.36,1.68.57,7.66,0,9.58l-1.53.72v5.85h7" fill="#fff" stroke="#000" stroke-linejoin="round" stroke-width="0.71"/>
        <line x1="30.44" y1="104.04" x2="41.35" y2="104.04" fill="none" stroke="#000" stroke-linejoin="round" stroke-width="0.71"/>
        <line x1="30.44" y1="113.62" x2="35.9" y2="113.62" fill="none" stroke="#000" stroke-linejoin="round" stroke-width="0.71"/>
      </g>
      <path id="898f822c-ab4e-40b0-bb19-1a05023b1350" data-name="cable" d="M30.44,91.84S28.86,81,36.92,74c6.49-5.67,3.68-18.83,3.68-18.83H54.86s0.59,16-8.35,24.75c-6.76,6.65-4.35,11.91-4.35,11.91H30.44Z" fill="#fff" stroke="#000" stroke-linejoin="round" stroke-width="0.71"/>
    </g>
    <path d="M88.34,217.27V943.2s0,11.07-11.34,11.07S65.66,943.2,65.66,943.2V217.27" fill="none" stroke="#231f20" stroke-miterlimit="10" stroke-width="0.71"/>
    <path d="M48.65,217.27V943.2s0,11.07-11.34,11.07S26,943.2,26,943.2V217.27" fill="none" stroke="#231f20" stroke-miterlimit="10" stroke-width="0.71"/>
    <path d="M16.05,160.57H70.38v-5.93h10.4v5.93H98.26V132.81H93.34c0-6.65-5.14-6.25-5.14-6.25H27c-6.4,0-5.74,6.25-5.74,6.25h-5Z" fill="none" stroke="#000" stroke-linejoin="round" stroke-width="0.71"/>
    <line x1="57.16" y1="160.57" x2="57.16" y2="180.42" fill="none" stroke="#000" stroke-linejoin="round" stroke-width="0.71"/>
    <polygon points="109.6 160.57 109.6 180.42 57.16 180.42 4.72 180.42 4.72 160.57 109.6 160.57" fill="none" stroke="#000" stroke-linejoin="round" stroke-width="0.71"/>
    <g>
      <path d="M101.35,217.27H13.21a14.6,14.6,0,0,1-1.35-2.92c-0.05-.66,2-1.3,2-3.21,0-2.43-2.06-3.25-2.06-3.9s2.06-1.49,2.06-3.37S11.8,201.73,11.8,201s2.06-1,2.06-3.06S11.8,195.8,11.8,195s2.06-1.17,2.06-2.83S11.8,189.71,11.8,189s2.81-2.66,2.81-8.59H99.94c0,5.27,2.53,7.8,2.53,8.59s-2,.49-1.61,2.37c0.35,1.66,1.23,1.34,1.23,2.11s-1.9.91-1.9,2.83,1.9,2.33,1.9,3.1-1.9,1.36-1.9,3.28,1.9,2.32,1.9,3-1.9,1.46-1.9,3.73c0,2,2,2.52,2.28,2.91S101.35,217.27,101.35,217.27Z" fill="none" stroke="#000" stroke-linejoin="round" stroke-width="0.71"/>
      <line x1="102.1" y1="189" x2="11.8" y2="189" fill="none" stroke="#000" stroke-linejoin="round" stroke-width="0.71"/>
      <line x1="11.8" y1="195.03" x2="102.1" y2="193.48" fill="none" stroke="#000" stroke-linejoin="round" stroke-width="0.71"/>
      <line x1="12.02" y1="200.96" x2="102.1" y2="199.41" fill="none" stroke="#000" stroke-linejoin="round" stroke-width="0.71"/>
      <line x1="11.8" y1="207.24" x2="102.1" y2="205.7" fill="none" stroke="#000" stroke-linejoin="round" stroke-width="0.71"/>
    </g>
    <rect x="35.9" y="109.55" width="42.52" height="17.01" fill="#fff" stroke="#000" stroke-linejoin="round" stroke-width="0.71"/>
    <rect x="54.97" y="106.02" width="3.96" height="20.54" fill="#fff" stroke="#000" stroke-linejoin="round" stroke-width="0.71"/>
    <g>
      <polygon points="54.97 104.02 51.01 105.02 51.01 126.56 54.97 126.56 54.97 104.02" fill="#fff" stroke="#000" stroke-linejoin="round" stroke-width="0.71"/>
      <path d="M51,105s1.33,3,4-1" fill="none" stroke="#000" stroke-linejoin="round" stroke-width="0.71"/>
    </g>
    <g>
      <path id="0afa96bf-1aba-475b-a2e7-8581b5d5eed7" data-name="screw" d="M61.68,125c0-1.94.7-3.19,6.66-3.19C74,121.78,75,123,75,125H61.68Z" fill="none" stroke="#000" stroke-linejoin="round" stroke-width="0.71"/>
      <g id="dd789bc1-5d20-4a02-b983-39d4c830488f" data-name="eye lug">
        <path d="M71.91,91.84C71.91,102,73.44,103,73.44,103L75,104c0.36,1.68.57,7.66,0,9.58l-1.53.72v5.85h14v-6l-1.53-.55s-0.76-5.84,0-9.58l1.53-1s1.52-1.35,1.52-11.17h-17Z" fill="#fff" stroke="#000" stroke-linejoin="round" stroke-width="0.71"/>
        <line x1="74.96" y1="104.04" x2="85.87" y2="104.04" fill="none" stroke="#000" stroke-linejoin="round" stroke-width="0.71"/>
        <line x1="74.96" y1="113.62" x2="85.87" y2="113.62" fill="none" stroke="#000" stroke-linejoin="round" stroke-width="0.71"/>
        <path d="M61.68,125v1.59H76.32s4.63-.29,1.5-6.37H76S78.76,125,75,125H61.68Z" fill="#fff" stroke="#000" stroke-linejoin="round" stroke-width="0.71"/>
      </g>
      <path id="e8302c00-b41f-413b-a6b1-5eb134742693" data-name="cable" d="M86.63,91.84s1.31-7.65-8.21-19c-6-7.18-7.16-17.62-7.16-17.62H58s0.9,14.33,9,23.1c8.54,9.29,7.15,13.57,7.15,13.57h12.5Z" fill="#fff" stroke="#000" stroke-linejoin="round" stroke-width="0.71"/>
    </g>
    <rect x="32.98" width="46.92" height="55.18" fill="none" stroke="#000" stroke-linejoin="round" stroke-width="0.71"/>
  </g>
  <g>
    <g id="b5e6c8ec-f082-44dc-b83b-3ff5928c2ed2" data-name="eye lug">
      <path d="M113.28,122.35c0.09,10.19,1.63,11.16,1.63,11.16l1.54,1c0.37,1.67.64,7.65,0.09,9.58l-1.52.73,0.05,5.85,14-.13-0.06-6-1.53-.54s-0.82-5.84-.09-9.58l1.52-1s1.51-1.37,1.42-11.19Z" fill="#fff" stroke="#000" stroke-linejoin="round" stroke-width="0.71"/>
      <line x1="116.44" y1="134.52" x2="127.35" y2="134.42" fill="none" stroke="#000" stroke-linejoin="round" stroke-width="0.71"/>
      <line x1="116.53" y1="144.1" x2="127.44" y2="144" fill="none" stroke="#000" stroke-linejoin="round" stroke-width="0.71"/>
    </g>
    <path id="9e56372a-0ec1-4787-8d34-209f3f12c096" data-name="ground cable" d="M128,122.2s0.08-5.91-8.25-16.18c-7-8.61-19.08-14.14-40.94-23.92C61.14,74.19,63,55.18,63,55.18H49.84s0.09,26.61,17.42,34.13c21,9.12,34.24,15.29,39.5,20.24,9.19,8.64,8.79,12.69,8.79,12.69Z" fill="#fff" stroke="#000" stroke-linejoin="round" stroke-width="0.71"/>
    <g id="25c2ebdf-a821-4fa5-9142-dd566d11c1a4" data-name="eye lug metal">
      <path d="M118.16,150.66a4.18,4.18,0,0,1,.22,2.7,24.43,24.43,0,0,1,7-.08,3.48,3.48,0,0,1-.16-2.69Z" fill="none" stroke="#000" stroke-linejoin="round" stroke-width="0.71"/>
      <polygon points="128.57 157.64 115.5 157.8 115.34 156.34 128.66 156.21 128.57 157.64" fill="none" stroke="#000" stroke-linejoin="round" stroke-width="0.71"/>
    </g>
    <g id="f292ac1e-7d11-4abc-beb1-7e984a7c78bc" data-name="screw">
      <path d="M115.34,156.34c0-1.94.67-3.19,6.63-3.25,5.71-.05,6.67,1.19,6.69,3.12Z" fill="none" stroke="#000" stroke-linejoin="round" stroke-width="0.71"/>
      <polygon points="124.25 165.02 119.94 165.06 119.9 157.73 124.22 157.69 124.25 165.02" fill="none" stroke="#000" stroke-linejoin="round" stroke-width="0.71"/>
      <line x1="119.91" y1="159.76" x2="124.22" y2="159.24" fill="none" stroke="#000" stroke-linejoin="round" stroke-width="0.71"/>
      <line x1="119.97" y1="161.11" x2="124.28" y2="160.59" fill="none" stroke="#000" stroke-linejoin="round" stroke-width="0.71"/>
      <line x1="119.88" y1="162.46" x2="124.19" y2="161.93" fill="none" stroke="#000" stroke-linejoin="round" stroke-width="0.71"/>
      <line x1="119.93" y1="163.81" x2="124.24" y2="163.26" fill="none" stroke="#000" stroke-linejoin="round" stroke-width="0.71"/>
    </g>
  </g>
</svg>
