<svg id="81916b6c-bb63-400f-beaf-79936dac9ec0" data-name="illustration" xmlns="http://www.w3.org/2000/svg" viewBox="0 0 113.39 155.91">
  <title>heater_element</title>
  <g opacity="0.25">
    <path d="M61.74,29.13c-13-12.72-8.43-15.9-8.43-15.9l10.52-.59s0.05,4.44,4.13,9.74l7.27,5.53L69.71,36S68,35.26,61.74,29.13Z" fill="none" stroke="#000" stroke-linejoin="round" stroke-width="0.71"/>
    <g>
      <path d="M102.74,46.43s-2.19-1.83-16.23-7.85l-2.42,3.56c11,10.46,13.44,11.95,13.44,11.95,4.07,2.77,8.54,3.3,10,1.19S106.82,49.2,102.74,46.43Zm-3.25,7.12c-2.59-1.76-3.9-4.33-2.95-5.74s3.83-1.13,6.42.63,3.9,4.33,2.95,5.74S102.08,55.31,99.49,53.55Z" fill="#fff" stroke="#000" stroke-linecap="round" stroke-linejoin="round"/>
      <g id="488bfb8b-b7b3-4297-94ce-f0899b869c1c" data-name="&lt;Group&gt;">
        <g>
          <line x1="77.31" y1="34.7" x2="93.18" y2="45.5" fill="none" stroke="#000" stroke-linecap="square" stroke-miterlimit="10" stroke-width="2.83"/>
          <line x1="77.31" y1="34.7" x2="93.18" y2="45.5" fill="none" stroke="#fff" stroke-linecap="square" stroke-linejoin="round" stroke-width="1.42"/>
        </g>
      </g>
      <path d="M95.17,40.34l-10-6.83c-2.92-2-1.93-2.84-8.66-7.42L68.54,37.73c7,4.75,6.84,3.13,10.42,5.56l9.71,6.6Z" fill="#fff" stroke="#000" stroke-linecap="round" stroke-linejoin="round" stroke-width="0.71"/>
    </g>
  </g>
  <g opacity="0.5">
    <path d="M53.8,47.69H33.85c-4.74,0-4.51,5.45-4.51,5.45s-7.47-.25-7.47,5.2L22,78.27s0.14,2.09,0,6.07L21.88,102s4,7.06,14.16,7.06H67.61V104.4h8.92v4.71s15.85,0,15.85-9.29V82.6L91.15,56.33s0.54-3.32-7-3.32c0,0,.21-5.32-5-5.32H63.77" fill="none" stroke="#000" stroke-linejoin="round" stroke-width="0.71"/>
    <path d="M22,85.59c0,3,4.3,3.76,4.3,3.76s-0.57-6.41,4.92-6.41H83.75s4.41-.34,4.41,5.22c0,0,4.22-.48,4.22-5.56" fill="none" stroke="#000" stroke-linejoin="round" stroke-width="0.71"/>
    <path d="M56.65,80.37s-5.39,1.55-6.56-2.79L49.84,59.91a4.22,4.22,0,0,1,3.3-1.63c2,0,3.64,2,3.64,2Z" fill="none" stroke="#000" stroke-linejoin="round" stroke-width="0.71"/>
    <path d="M56.65,80.37s-0.37,2.57,2.76,2.57H83.75c2.85-.86,2.5-4,2.5-4s-1.07-12-2.54-12.07c-2-.15-22.13.56-22.13,0.56V56l-1.24-.93H56.65V80.37Z" fill="none" stroke="#000" stroke-linejoin="round" stroke-width="0.71"/>
    <path d="M63.46,52.39V44s0.21-1.84-2.27-1.84c0,0-2.34-.43-3,1.05l-0.1,9.15" fill="none" stroke="#000" stroke-linejoin="round" stroke-width="0.71"/>
    <path d="M30.77,64.71H28.54v3.41L38,68.18a1.06,1.06,0,0,0,.62-0.93l-0.34-11.7s-0.09-3.16,2.6-3.16h32s2.92-.09,2.69,3.53C75.21,62.5,74.73,67,74.73,67" fill="none" stroke="#000" stroke-linejoin="round" stroke-width="0.71"/>
    <path d="M30.89,68.13L31.2,51.34s0.06-1.24,2.48-1.24H51.6s2-.53,2.17-2,0-9.55,0-9.55A0.76,0.76,0,0,1,54.32,38h3.43a0.63,0.63,0,0,1,.33.6V52.39" fill="none" stroke="#000" stroke-linejoin="round" stroke-width="0.71"/>
    <path d="M30.31,126.31s9,11.55,30.66,9.85a40.12,40.12,0,0,0,22.27-9.59" fill="none" stroke="#000" stroke-linejoin="round" stroke-width="0.71"/>
    <path d="M87.78,124.92c-3.36,6.92-10.66,15.32-26.45,16.44C33.93,143.31,26.7,125,26.7,125" fill="none" stroke="#000" stroke-linejoin="round" stroke-width="0.71"/>
    <path d="M27.76,127s16,17.49,40.9,10.71c9.43-2.57,14.85-7.71,17.94-12.39" fill="none" stroke="#000" stroke-linejoin="round" stroke-width="0.71"/>
    <line x1="57.12" y1="127.33" x2="57.12" y2="136.02" fill="none" stroke="#000" stroke-linejoin="round" stroke-width="0.71"/>
    <polyline points="21.88 76.17 13 79.39 13 111.35 57.12 127.33 101.25 111.35 101.25 79.39 92.07 76.06" fill="none" stroke="#000" stroke-linejoin="round" stroke-width="0.71"/>
    <polyline points="101.25 111.35 101.25 120.04 57.12 136.02 13 120.04 13 111.35" fill="none" stroke="#000" stroke-linejoin="round" stroke-width="0.71"/>
  </g>
  <g>
    <path d="M70.78,78.28s9,0,9-5.63V66.26H76.26s-0.5,2.62-2.75,2.62c-1.88,0-3.19.13-3.19,0.13-4.92,0-8.68,2.08-8.68,4.64S65.85,78.28,70.78,78.28Zm-1.45-8.08c3.13,0,5.66,1.75,5.66,3.45s-2.53,3.09-5.66,3.09-5.66-1.38-5.66-3.09S66.2,70.19,69.33,70.19Z" fill="#fff" stroke="#000" stroke-linecap="round" stroke-linejoin="round"/>
    <path d="M80.42,67.85V57.7c0-3.53,1.26-1.19,1.26-9.33,0,0,.2-2.74-7-2.74s-7,2.74-7,2.74c0,8.44,1.26,5.41,1.26,9.74v9.74s1.68,2,5.78,2S80.42,67.85,80.42,67.85Z" fill="#fff" stroke="#000" stroke-linecap="round" stroke-linejoin="round" stroke-width="0.71"/>
    <ellipse cx="74.64" cy="48.21" rx="7.04" ry="2.58" fill="#fff" stroke="#000" stroke-linecap="round" stroke-linejoin="round" stroke-width="0.71"/>
    <path d="M66.45,17.88s4.4,11.41,8.67,16.46C80,40.13,80,49.88,80,49.88s-1.42.91-5.37,0.91-5.31-.89-5.31-0.89,0-8.16-5.26-14.3C59.29,30,57.12,18.25,57.12,18.25Z" fill="#fff" stroke="#000" stroke-linejoin="round" stroke-width="0.71"/>
    <polygon points="67.68 73.04 66.72 73.72 67.68 74.18 68.76 73.49 69.94 73.49 70.98 74.21 71.94 73.74 71.11 73.21 71.11 72.45 71.84 71.83 71.07 71.39 69.97 71.92 68.81 71.92 67.57 71.41 66.77 71.83 67.68 72.31 67.68 73.04"/>
  </g>
  <g>
    <path d="M36.74,51.76v3.89c0,2.28-.08,3.48,1.52,4.29" fill="none" stroke="#000" stroke-linecap="round" stroke-linejoin="round"/>
    <path d="M45,50.06V39.91c0-3.53,1.26-1.19,1.26-9.33,0,0,.2-2.74-7-2.74s-7,2.74-7,2.74c0,8.44,1.26,5.41,1.26,9.74v9.74s1.68,2,5.78,2S45,50.06,45,50.06Z" fill="#fff" stroke="#000" stroke-linecap="round" stroke-linejoin="round" stroke-width="0.71"/>
    <ellipse cx="39.17" cy="30.42" rx="7.04" ry="2.58" fill="#fff" stroke="#000" stroke-linecap="round" stroke-linejoin="round" stroke-width="0.71"/>
    <path d="M45.36,17.88s-0.12,2.74-5.07,5a10.73,10.73,0,0,0-6.47,9.18S35.25,33,39.2,33,44,32.29,44,32.29s-0.78-1.54,4.71-4.68c6.38-3.66,5.95-9.36,5.95-9.36Z" fill="#fff" stroke="#000" stroke-linejoin="round" stroke-width="0.71"/>
  </g>
  <path d="M72.74-.24V18c0,2-6.71,3.73-15.48,3.73s-15.52-1.61-15.52-3.64V-0.24" fill="#fff" stroke="#000" stroke-linejoin="round"/>
</svg>
