<svg id="52e287ee-df79-4d29-8488-032dbf5c65ae" data-name="illustration" xmlns="http://www.w3.org/2000/svg" viewBox="0 0 133.5 450.17">
  <title>heater_element</title>
  <g>
    <path d="M87.78,124.92c-3.36,6.92-10.66,15.32-26.45,16.44C33.93,143.31,26.7,125,26.7,125l30.42,11Z" fill="#fff" stroke="#000" stroke-linejoin="round" stroke-width="0.71"/>
    <polygon points="101.25 111.35 101.25 120.04 57.12 136.02 13 120.04 13 111.35 57.12 127.33 101.25 111.35" fill="#fff" stroke="#000" stroke-linejoin="round" stroke-width="0.71"/>
    <polyline points="21.88 76.17 13 79.39 13 111.35 57.12 127.33 101.25 111.35 101.25 79.39 92.07 76.06" fill="#fff" stroke="#000" stroke-linejoin="round" stroke-width="0.71"/>
    <g>
      <g id="f411d24e-5583-4b37-853d-f148808076fb" data-name="eye lug">
        <path d="M105.59,77c2.92,7.53,4.32,7.81,4.32,7.81l1.42,0.32a26.27,26.27,0,0,1,2.74,7.08l-0.92,1,1.67,4.32,10.31-4-1.72-4.44-1.28,0A29.21,29.21,0,0,1,119.39,82l0.83-1.19s0.74-1.43-2.07-8.69Z" fill="#fff" stroke="#000" stroke-linejoin="round" stroke-width="0.71"/>
        <line x1="111.33" y1="85.14" x2="119.39" y2="82.02" fill="#fff" stroke="#000" stroke-linejoin="round" stroke-width="0.71"/>
        <line x1="114.07" y1="92.21" x2="122.13" y2="89.09" fill="#fff" stroke="#000" stroke-linejoin="round" stroke-width="0.71"/>
      </g>
      <path id="cc431c7b-d94e-4857-87bb-cd50d9ab1ad3" data-name="ground cable" d="M56,38c-3.29-7.57-3.6-17.11-3.6-17.11h8.1L74.64,52.17l-17.46.52Z" fill="#fff" stroke="#000" stroke-linejoin="round" stroke-width="0.71"/>
      <path id="34410b62-7e8a-4bf7-8dd6-3ed263a64d6c" data-name="ground cable" d="M91.33,58.94c11.8,7.73,15.9,17.35,15.9,17.35l9.23-3.51s-2.1-4.51-8.69-12.64c-5.53-6.82-12-11.09-28.51-16.55V59.94Z" fill="#fff" stroke="#000" stroke-linejoin="round" stroke-width="0.71"/>
      <g id="584e36b7-75be-4863-a430-9c1374f89c89" data-name="eye lug metal">
        <path d="M117.11,96.62s2.52,2.81-.5,5l9.84-3.81s-3.41-.36-4.11-3.21Z" fill="#fff" stroke="#000" stroke-linejoin="round" stroke-width="0.71"/>
        <polygon points="126.78 98.88 117.14 102.66 116.61 101.61 126.45 97.8 126.78 98.88" fill="#fff" stroke="#000" stroke-linejoin="round" stroke-width="0.71"/>
      </g>
    </g>
    <path d="M32.9,133.21V412.47c0,2.17,3.81,3.94,8.51,3.94s8.51-1.76,8.51-3.94V140.94a31.17,31.17,0,0,1-17-7.73" fill="#fff" stroke="#231f20" stroke-miterlimit="10" stroke-width="0.71"/>
    <path d="M81,133.92V412.47c0,2.17-3.81,3.94-8.51,3.94s-8.51-1.76-8.51-3.94V141.1A31.4,31.4,0,0,0,81,133.92Z" fill="#fff" stroke="#231f20" stroke-miterlimit="10" stroke-width="0.71"/>
    <path d="M53.8,47.69H33.85c-4.74,0-4.51,5.45-4.51,5.45s-7.47-.25-7.47,5.2L22,78.27s0.14,2.09,0,6.07L21.88,102s4,7.06,14.16,7.06H67.61V104.4h8.92v4.71s15.85,0,15.85-9.29V82.6L91.15,56.33s0.54-3.32-7-3.32c0,0,.21-5.32-5-5.32H63.77" fill="#fff" stroke="#000" stroke-linejoin="round" stroke-width="0.71"/>
    <path d="M22,85.59c0,3,4.3,3.76,4.3,3.76s-0.57-6.41,4.92-6.41H83.75s4.41-.34,4.41,5.22c0,0,4.22-.48,4.22-5.56" fill="#fff" stroke="#000" stroke-linejoin="round" stroke-width="0.71"/>
    <path d="M56.65,80.37s-5.39,1.55-6.56-2.79L49.84,59.91a4.22,4.22,0,0,1,3.3-1.63c2,0,3.64,2,3.64,2Z" fill="#fff" stroke="#000" stroke-linejoin="round" stroke-width="0.71"/>
    <path d="M56.65,80.37s-0.37,2.57,2.76,2.57H83.75c2.85-.86,2.5-4,2.5-4s-1.07-12-2.54-12.07c-2-.15-22.13.56-22.13,0.56V56l-1.24-.93H56.65V80.37Z" fill="#fff" stroke="#000" stroke-linejoin="round" stroke-width="0.71"/>
    <path d="M63.46,52.39V44s0.21-1.84-2.27-1.84c0,0-2.34-.43-3,1.05l-0.1,9.15" fill="#fff" stroke="#000" stroke-linejoin="round" stroke-width="0.71"/>
    <path d="M30.89,68.13L31.2,51.34s0.06-1.24,2.48-1.24H51.6s2-.53,2.17-2,0-9.55,0-9.55A0.76,0.76,0,0,1,54.32,38h3.43a0.63,0.63,0,0,1,.33.6V52.39" fill="#fff" stroke="#000" stroke-linejoin="round" stroke-width="0.71"/>
    <path d="M30.77,64.71H28.54v3.41L38,68.18a1.06,1.06,0,0,0,.62-0.93l-0.34-11.7s-0.09-3.16,2.6-3.16h32s2.92-.09,2.69,3.53C75.21,62.5,74.73,67,74.73,67" fill="none" stroke="#000" stroke-linejoin="round" stroke-width="0.71"/>
    <path d="M30.31,126.31s9,11.55,30.66,9.85a40.12,40.12,0,0,0,22.27-9.59" fill="none" stroke="#000" stroke-linejoin="round" stroke-width="0.71"/>
    <path d="M27.76,127s16,17.49,40.9,10.71c9.43-2.57,14.85-7.71,17.94-12.39" fill="none" stroke="#000" stroke-linejoin="round" stroke-width="0.71"/>
    <line x1="57.12" y1="127.33" x2="57.12" y2="136.02" fill="#fff" stroke="#000" stroke-linejoin="round" stroke-width="0.71"/>
    <g>
      <path d="M70.28,78.28s8.47,0,8.47-5.63v-6h-2.5s-0.5,2.41-2.75,2.41c-1.88,0-3.19,0-3.19,0-4.92,0-8.93,2-8.93,4.59S65.36,78.28,70.28,78.28Zm-1-8.08c3.13,0,5.66,1.75,5.66,3.45s-2.53,3.09-5.66,3.09-5.66-1.38-5.66-3.09S66.2,70.19,69.33,70.19Z" fill="#fff" stroke="#000" stroke-linecap="round" stroke-linejoin="round"/>
      <path d="M80.42,67.85V57.7c0-3.53,1.26-1.19,1.26-9.33,0,0,.2-2.74-7-2.74s-7,2.74-7,2.74c0,8.44,1.26,5.41,1.26,9.74v9.74s1.68,2,5.78,2S80.42,67.85,80.42,67.85Z" fill="#fff" stroke="#000" stroke-linecap="round" stroke-linejoin="round" stroke-width="0.71"/>
      <ellipse cx="74.64" cy="48.21" rx="7.04" ry="2.58" fill="#fff" stroke="#000" stroke-linecap="round" stroke-linejoin="round" stroke-width="0.71"/>
      <path d="M66.45,17.88s4.4,11.41,8.67,16.46C80,40.13,80,49.88,80,49.88s-1.42.91-5.37,0.91-5.31-.89-5.31-0.89,0-8.16-5.26-14.3C59.29,30,57.12,18.25,57.12,18.25Z" fill="#fff" stroke="#000" stroke-linejoin="round" stroke-width="0.71"/>
      <polygon points="67.68 73.04 66.72 73.72 67.68 74.18 68.76 73.49 69.94 73.49 70.98 74.21 71.94 73.74 71.11 73.21 71.11 72.45 71.84 71.83 71.07 71.39 69.97 71.92 68.81 71.92 67.57 71.41 66.77 71.83 67.68 72.31 67.68 73.04"/>
    </g>
    <g>
      <path d="M45,50.06V39.91c0-3.53,1.26-1.19,1.26-9.33,0,0,.2-2.74-7-2.74s-7,2.74-7,2.74c0,8.44,1.26,5.41,1.26,9.74v9.74s1.68,2,5.78,2S45,50.06,45,50.06Z" fill="#fff" stroke="#000" stroke-linecap="round" stroke-linejoin="round" stroke-width="0.71"/>
      <ellipse cx="39.17" cy="30.42" rx="7.04" ry="2.58" fill="#fff" stroke="#000" stroke-linecap="round" stroke-linejoin="round" stroke-width="0.71"/>
      <path d="M45.36,17.88s-0.12,2.74-5.07,5a10.73,10.73,0,0,0-6.47,9.18S35.25,33,39.2,33,44,32.29,44,32.29s-0.78-1.54,4.71-4.68c6.38-3.66,5.95-9.36,5.95-9.36Z" fill="#fff" stroke="#000" stroke-linejoin="round" stroke-width="0.71"/>
      <path d="M36.12,51.63v6.91s0.84,2.56,2.33,2.56" fill="none" stroke="#000" stroke-linecap="round" stroke-linejoin="round" stroke-width="0.71"/>
    </g>
    <path d="M71.76,0.17V18c0,2-6.71,3.73-15.48,3.73s-15.52-1.61-15.52-3.64V0.17" fill="#fff" stroke="#000" stroke-linejoin="round"/>
  </g>
</svg>
