<svg id="9e1335de-1253-4082-9ff0-b94f77add94a" data-name="illustration" xmlns="http://www.w3.org/2000/svg" viewBox="0 0 113.39 155.91">
  <title>heater_element</title>
  <g opacity="0.25">
    <polyline points="22.08 78.92 12.63 81.29 12.63 116.67 56.66 128.91 100.76 116.67 100.76 81.29 91.27 78.92" fill="#fff" stroke="#231f20" stroke-miterlimit="10" stroke-width="0.71"/>
    <path d="M22.08,68.14V92.52s6.29,12.76,34.28,12.76c18,0,31.76-7.16,34.94-14.31V68.36" fill="#fff" stroke="#231f20" stroke-miterlimit="10" stroke-width="0.71"/>
    <path d="M22.08,87.39s6.29,12.76,34.28,12.76c18.52,0,30.3-6.13,34.94-13.32" fill="#fff" stroke="#231f20" stroke-miterlimit="10" stroke-width="0.71"/>
    <path d="M22.08,82.26S28.38,95,56.36,95C73.68,95,89.5,86.83,91.3,81.23" fill="#fff" stroke="#231f20" stroke-miterlimit="10" stroke-width="0.71"/>
    <path d="M22.08,77.13S28.77,89.93,56.36,89.9c21.95,0,32.19-8.21,34.94-14.31" fill="#fff" stroke="#231f20" stroke-miterlimit="10" stroke-width="0.71"/>
    <path d="M22.08,72.1s2,12.76,34.28,12.76c21,0,32.88-7.56,34.94-14.31" fill="#fff" stroke="#231f20" stroke-miterlimit="10" stroke-width="0.71"/>
    <path d="M81,57.89V68.75c0,2.17-3.81,3.94-8.51,3.94s-8.51-1.76-8.51-3.94V54.09c-2.34-.21-4.76-0.32-7.24-0.32-2.32,0-4.58.1-6.78,0.28v14.7c0,2.17-3.81,3.94-8.51,3.94s-8.51-1.76-8.51-3.94v-11C26.24,60.32,22.08,64,22.08,68.14c0,7.93,15.5,14.36,34.61,14.36S91.3,76.07,91.3,68.14C91.3,64.12,87.34,60.5,81,57.89Z" fill="#fff" stroke="#231f20" stroke-miterlimit="10" stroke-width="0.71"/>
    <path d="M87.67,120.75v15.5A5.67,5.67,0,0,1,82,141.92H33a5.67,5.67,0,0,1-5.67-5.67v-15.5" fill="none" stroke="#231f20" stroke-linecap="round" stroke-linejoin="round" stroke-width="0.71"/>
    <path d="M49.92,65.44v3.31c0,2.17-3.81,3.94-8.51,3.94s-8.51-1.76-8.51-3.94V65.44a3.43,3.43,0,0,0-1.8,2.7c0,2.63,4.62,4.77,10.31,4.77s10.31-2.14,10.31-4.77A3.43,3.43,0,0,0,49.92,65.44Z" fill="#fff" stroke="#231f20" stroke-miterlimit="10" stroke-width="0.71"/>
    <path d="M81,65.44v3.31c0,2.17-3.81,3.94-8.51,3.94s-8.51-1.76-8.51-3.94V65.44a3.43,3.43,0,0,0-1.8,2.7c0,2.63,4.62,4.77,10.31,4.77s10.31-2.14,10.31-4.77A3.43,3.43,0,0,0,81,65.44Z" fill="#fff" stroke="#231f20" stroke-miterlimit="10" stroke-width="0.71"/>
    <path d="M49.92,15.19V68.75c0,2.17-3.81,3.94-8.51,3.94s-8.51-1.76-8.51-3.94V15.19" fill="#fff" stroke="#231f20" stroke-miterlimit="10" stroke-width="0.71"/>
    <path d="M81,15.19V68.75c0,2.17-3.81,3.94-8.51,3.94s-8.51-1.76-8.51-3.94V15.19" fill="#fff" stroke="#231f20" stroke-miterlimit="10" stroke-width="0.71"/>
    <line x1="56.69" y1="118.01" x2="56.69" y2="128.91" fill="#fff" stroke="#231f20" stroke-miterlimit="10" stroke-width="0.71"/>
    <polyline points="100.76 105.77 56.69 118.02 12.63 105.77" fill="#fff" stroke="#231f20" stroke-miterlimit="10" stroke-width="0.71"/>
  </g>
  <g>
    <path d="M91.26,75.66l0,15.87S90.42,105.9,56.69,105.9,22.08,91.53,22.08,91.53V75.31c-7,3.9-11.27,9-11.27,14.58v3.36c0,12.23,20.39,22.15,45.55,22.15s45.55-9.92,45.55-22.15V89.9C101.92,84.48,97.91,79.51,91.26,75.66Z" fill="#aaa" stroke="#231f20" stroke-linecap="round" stroke-linejoin="round" stroke-width="0.71"/>
    <path d="M101.92,89.9c0,12.23-20.39,22.15-45.55,22.15S10.81,102.13,10.81,89.9" fill="none" stroke="#231f20" stroke-linecap="round" stroke-linejoin="round" stroke-width="0.71"/>
  </g>
</svg>
