<svg id="13f59c3a-a164-490c-beb0-444593874dc3" data-name="kettles" xmlns="http://www.w3.org/2000/svg" viewBox="0 0 498.92 376.29">
  <title>kettle_holepunch_zoomed</title>
  <g id="30e4078a-ecb0-404d-bdd3-2ca733044281" data-name="iso outside">
    <g id="96e19023-af5c-41f4-88fd-15dd0b936f55" data-name="kettle bottom">
      <path d="M-65.19,375.58c-132.56,0-257.18-8.73-350.9-24.59-45.54-7.71-81.29-16.68-106.24-26.66-25.59-10.24-38.57-21-38.57-32V-667.77c8.9,20.35,59.44,39.18,144.57,53.58,93.8,15.87,218.5,24.61,351.14,24.61S192.15-598.31,286-614.18c85.13-14.4,135.67-33.24,144.57-53.58V292.29c0,11-13,21.8-38.57,32-25,10-60.7,19-106.24,26.66C192,366.85,67.37,375.58-65.19,375.58Z" fill="#d0d2d3"/>
      <path d="M429.81-664.85V292.29c0,21.35-52.56,42.49-144.22,58-93.69,15.85-218.26,24.58-350.78,24.58s-257.1-8.73-350.78-24.58c-91.65-15.51-144.22-36.65-144.22-58V-664.85c5.22,8.57,17.62,16.81,37.07,24.59,25.1,10,61,19.05,106.68,26.78,93.84,15.88,218.58,24.62,351.26,24.62s257.42-8.74,351.26-24.62c45.69-7.73,81.58-16.74,106.68-26.78,19.44-7.78,31.85-16,37.07-24.59m1.42-9.43c0,46.39-222.25,84-496.42,84s-496.42-37.61-496.42-84V292.29c0,46.39,222.25,84,496.42,84s496.42-37.61,496.42-84V-674.28h0Z" fill="#231f20"/>
    </g>
  </g>
  <ellipse cx="294.49" cy="187.41" rx="29.42" ry="58.83" fill="#929497" stroke="#231f20" stroke-miterlimit="10" stroke-width="1.42"/>
  <g>
    <g>
      <path d="M321.57,187.41c0-32.49,13.17-58.83,29.42-58.83h-56.5c-16.25,0-29.42,26.34-29.42,58.83s13.17,58.83,29.42,58.83H351C334.74,246.25,321.57,219.91,321.57,187.41Z" fill="#fff" stroke="#231f20" stroke-linecap="round" stroke-linejoin="round" stroke-width="1.42"/>
      <ellipse cx="350.99" cy="187.41" rx="29.42" ry="58.83" fill="#fff" stroke="#231f20" stroke-linecap="round" stroke-linejoin="round" stroke-width="1.42"/>
    </g>
    <g>
      <path d="M347.35,187.41c0-13.73,5.56-24.86,12.43-24.86H356c-6.86,0-12.43,11.13-12.43,24.86s5.56,24.86,12.43,24.86h3.73C352.91,212.27,347.35,201.14,347.35,187.41Z" fill="#fff" stroke="#231f20" stroke-linecap="round" stroke-linejoin="round" stroke-width="1.42"/>
      <ellipse cx="359.77" cy="187.41" rx="12.43" ry="24.86" fill="#fff" stroke="#231f20" stroke-linecap="round" stroke-linejoin="round" stroke-width="1.42"/>
    </g>
    <g>
      <path d="M371.41,187.41c0-9.18,3.72-16.62,8.31-16.62H361.79c-4.59,0-8.31,7.44-8.31,16.62S357.2,204,361.79,204h17.93C375.13,204,371.41,196.59,371.41,187.41Z" fill="#fff" stroke="#231f20" stroke-linecap="round" stroke-linejoin="round" stroke-width="1.42"/>
      <ellipse cx="379.72" cy="187.41" rx="8.31" ry="16.62" fill="#fff" stroke="#231f20" stroke-linecap="round" stroke-linejoin="round" stroke-width="1.42"/>
      <path d="M378.36,175.92s-2.75,3.24-2.75,11.49,3.25,11.92,3.25,11.92h3a39.42,39.42,0,0,1,2.5-11.92,18.58,18.58,0,0,1-2.87-11.49h-3.17Z" fill="#fff" stroke="#231f20" stroke-linecap="round" stroke-linejoin="round" stroke-width="1.42"/>
      <line x1="384.4" y1="187.41" x2="375.61" y2="187.41" fill="none" stroke="#231f20" stroke-linecap="round" stroke-linejoin="round" stroke-width="1.42"/>
    </g>
    <path d="M498.92,54.32L442.61,180.67c-6,18.67-22.58,18.67-22.58,18.67H378.86l-3.25-11.92,2.75-11.49h30.75s9.5,0,13.36-9l55-124.29h14Z" fill="#fff" stroke="#231f20" stroke-linecap="round" stroke-linejoin="round" stroke-width="1.42"/>
    <path d="M375.61,187.41h39.83s10,0,15.79-11.49L491.44,42.67" fill="none" stroke="#231f20" stroke-linecap="round" stroke-linejoin="round" stroke-width="1.42"/>
  </g>
</svg>
