<svg xmlns="http://www.w3.org/2000/svg" xmlns:xlink="http://www.w3.org/1999/xlink" viewBox="0 0 992.13 1134.57">
  <defs>
    <filter id="5f552e69-a0d6-4c59-9be6-8897be0cb2df" x="98.59" y="751.16" width="791.54" height="152.11" filterUnits="userSpaceOnUse" color-interpolation-filters="sRGB">
      <feFlood flood-color="#fff" result="bg"/>
      <feBlend in="SourceGraphic" in2="bg"/>
    </filter>
    <mask id="e6b2e4d1-645a-4caf-a968-99f28161619b" x="98.59" y="751.16" width="791.54" height="152.11" maskUnits="userSpaceOnUse">
      <path d="M837.16,769.18c-7.48,0-14.3,5.59-19.49,14.78H197.14a43.7,43.7,0,0,0-34.26,16.54H108.54s-9.94.78-9.94,10,10.83,10,10.83,10H154a43.7,43.7,0,0,0-.06,14.13H108.54s-9.94.78-9.94,10,10.83,10,10.83,10h53.21a43.7,43.7,0,0,0,34.52,16.86H817.36c5.23,9.51,12.17,15.31,19.79,15.31,16.25,0,29.42-26.34,29.42-58.83S853.4,769.18,837.16,769.18ZM173.92,828.11a23.35,23.35,0,0,1,1.27-7.59H808c-0.16,2.46-.25,5-0.25,7.49,0,2.25.07,4.46,0.19,6.64H174.86A23.39,23.39,0,0,1,173.92,828.11Z" filter="url(#5f552e69-a0d6-4c59-9be6-8897be0cb2df)"/>
    </mask>
    <linearGradient id="80be4c7c-984f-4a69-9a14-1c5b39348f59" x1="163.68" y1="195.35" x2="1123.68" y2="433.35" gradientUnits="userSpaceOnUse">
      <stop offset="0" stop-color="#00adee" stop-opacity="0.1"/>
      <stop offset="0.15" stop-color="#00adee" stop-opacity="0.24"/>
      <stop offset="1" stop-color="#00adee"/>
    </linearGradient>
  </defs>
  <title>kettle</title>
  <g style="isolation: isolate">
    <g id="a44f0829-1ba6-4d9f-9582-01680742b957" data-name="kettles">
      <g id="60e0504d-945f-474e-9ebc-918253368d37" data-name="iso inside">
        <path d="M496.06,168.29C222.1,168.29,0,130.7,0,84.34v965.88c0,46.36,222.1,83.94,496.06,83.94s496.06-37.58,496.06-83.94V84.34C992.13,130.7,770,168.29,496.06,168.29Z" fill="#d0d2d3" stroke="#231f20" stroke-miterlimit="10" stroke-width="0.71"/>
        <ellipse id="626606a8-425d-445c-9c18-c0da89ff3764" data-name="kettle bottom" cx="496.06" cy="84.34" rx="496.06" ry="83.94" fill="#d0d2d3" stroke="#231f20" stroke-miterlimit="10" stroke-width="0.71"/>
        <ellipse id="a7c51a5b-9b1f-45f9-b302-db537d9fb27a" data-name="kettle top" cx="496.06" cy="1049.72" rx="496.06" ry="83.94" fill="#d0d2d3" stroke="#231f20" stroke-miterlimit="10" stroke-width="0.71"/>
        <g>
          <g mask="url(#e6b2e4d1-645a-4caf-a968-99f28161619b)">
            <g>
              <polyline points="817.76 769.94 818.51 768.92 819.41 767.89 820.45 766.84 821.66 765.78 823.05 764.71 824.63 763.62 825.06 763.35 825.5 763.07 825.73 762.93 825.96 762.79 826.19 762.65 826.42 762.51 827.39 761.96 828.42 761.4" fill="none" stroke="#000" stroke-linecap="round" stroke-linejoin="round" stroke-width="0.71"/>
              <line x1="815.73" y1="773.68" x2="813.04" y2="779.04" fill="none" stroke="#000" stroke-linecap="round" stroke-linejoin="round" stroke-width="0.71"/>
              <polyline points="830.18 898.72 827.61 895.93 825.14 893.11 822.78 890.25 820.54 887.36 818.44 884.42 816.47 881.45 816 880.69 815.55 879.94 815.32 879.56 815.1 879.18 814.88 878.8 814.66 878.42 813.83 876.9 813.04 875.38" fill="none" stroke="#000" stroke-linecap="round" stroke-linejoin="round" stroke-width="0.71"/>
              <polyline points="828.42 761.4 829.48 760.85 830.59 760.3 831.74 759.75 832.93 759.2 835.43 758.12 838.07 757.04 839.44 756.51 840.85 755.98 841.56 755.72 842.29 755.45 842.65 755.32 843.02 755.19 843.38 755.06 843.75 754.93 845.25 754.4 846.76 753.89 848.3 753.37 849.86 752.86" fill="none" stroke="#000" stroke-linecap="round" stroke-linejoin="round" stroke-width="0.71"/>
              <polyline points="846.17 893.02 845.16 893.57 844.19 894.12 843.28 894.67 842.41 895.22 840.84 896.3 839.44 897.38 838.81 897.91 838.23 898.44 837.95 898.7 837.68 898.97 837.55 899.1 837.42 899.23 837.3 899.36 837.17 899.49 836.7 900.02 836.27 900.53 835.88 901.05 835.52 901.56" fill="none" stroke="#000" stroke-linecap="round" stroke-linejoin="round" stroke-width="0.71"/>
              <line x1="873.9" y1="884.48" x2="841.81" y2="901.56" fill="none" stroke="#000" stroke-linecap="round" stroke-linejoin="round" stroke-width="0.71"/>
              <polyline points="855.2 755.7 855.44 758.49 855.81 761.32 856.33 764.17 857 767.06 857.85 770 858.88 772.98 859.17 773.73 859.48 774.48 859.63 774.86 859.79 775.24 859.95 775.62 860.12 776 860.81 777.52 861.55 779.04" fill="none" stroke="#000" stroke-linecap="round" stroke-linejoin="round" stroke-width="0.71"/>
              <line x1="861.48" y1="755.7" x2="884.98" y2="802.37" fill="none" stroke="#000" stroke-linecap="round" stroke-linejoin="round" stroke-width="0.71"/>
              <polyline points="867.61 884.48 864.53 885.5 861.54 886.53 858.66 887.58 855.89 888.63 853.24 889.71 850.73 890.8 850.12 891.08 849.52 891.35 849.23 891.49 848.94 891.63 848.65 891.77 848.36 891.91 847.24 892.46 846.17 893.02" fill="none" stroke="#000" stroke-linecap="round" stroke-linejoin="round" stroke-width="0.71"/>
              <polyline points="825.8 850.89 826.7 854.46 827.74 857.9 828.89 861.18 830.15 864.29 831.52 867.22 833 869.94 834.57 872.46 836.22 874.74 837.95 876.79 839.74 878.59" fill="none" stroke="#000" stroke-linecap="round" stroke-linejoin="round" stroke-width="0.71"/>
              <path d="M841,770.63h-0.53l-1.24.09-1.23.2-1.22.3-1.22.4-1.21.5-1.21.6-0.15.08-0.15.08-0.15.09-0.15.09-0.3.18-0.3.18-0.59.39-0.58.41-1.15.89-1.13,1-1.11,1.07-1.08,1.16-1.06,1.26-1,1.35-0.13.18-0.13.18-0.13.18-0.13.18-0.25.36-0.25.37-0.49.75-0.48.76-0.94,1.58-0.9,1.65-0.86,1.72-0.83,1.8-0.79,1.87-0.75,1.94-0.09.25-0.09.25-0.09.25-0.09.25-0.18.5-0.17.51-0.34,1-0.33,1-0.62,2.09-0.57,2.14-0.53,2.18-0.48,2.22-0.22,1.13-0.21,1.14L813,810l-0.1.58-0.1.58-0.09.58-0.34,2.34-0.28,2.35-0.23,2.36-0.18,2.37-0.13,2.39-0.08,2.4,0,1.2v3.63l0.07,2.41,0.13,2.39,0.18,2.36,0.23,2.34,0.27,2.32,0.32,2.3,0.18,1.14,0.19,1.13,0.1,0.56,0.1,0.56,0.05,0.28,0.05,0.28,0.06,0.28,0.06,0.28,0.47,2.2,0.52,2.15,0.56,2.09,0.6,2,0.65,2,0.69,1.93,0.36,0.94,0.37,0.93,0.19,0.46,0.19,0.46,0.1,0.23,0.1,0.23,0.1,0.23,0.1,0.22,0.81,1.74,0.85,1.66,0.88,1.58L822,872l0.94,1.42,1,1.34,0.5,0.64,0.51,0.62,0.26,0.3,0.26,0.3,0.13,0.15,0.13,0.15,0.13,0.14,0.13,0.14,1.06,1.09,1.08,1,1.09,0.89,1.11,0.8,1.13,0.7,1.14,0.6,0.58,0.27,0.58,0.24,0.29,0.11,0.29,0.11,0.15,0.05,0.15,0,0.15,0,0.15,0,1.18,0.3,1.18,0.2,1.72,0.11m3.79-113-0.27,0-0.62.12-0.62.15-0.15,0-0.15,0-0.15,0-0.15,0-0.31.1-0.31.1-1.22.48-1.2.58-1.19.67-1.17.77-1.15.87-1.14,1-0.56.52-0.56.54-0.14.14-0.14.14-0.14.14-0.14.14-0.27.29-0.27.3-1.07,1.24-1,1.32-1,1.4-1,1.48-0.94,1.56-0.91,1.64-0.44.85-0.44.87-0.22.44-0.21.45-0.21.45-0.21.46-0.8,1.86L821.47,794l-0.71,2-0.67,2-0.63,2.08-0.59,2.14-0.28,1.09-0.27,1.1-0.06.28-0.06.28-0.06.28-0.06.28-0.12.56-0.12.56-0.44,2.26L817,811.2l-0.34,2.31-0.29,2.34-0.25,2.36-0.2,2.38-0.08,1.2L815.76,823v1.21l0,0.6,0,0.6,0,2.41v2.4l0.06,2.39,0.11,2.38,0.16,2.37,0.21,2.36,0.13,1.18,0.14,1.17,0,0.29,0,0.29,0,0.29,0,0.29,0.08,0.58,0.08,0.58,0.36,2.28,0.41,2.24,0.46,2.19,0.5,2.15,0.55,2.11,0.6,2.06,0.32,1,0.33,1,0.34,1,0.35,1,0.72,1.89,0.76,1.82,0.8,1.74,0.83,1.67,0.87,1.6,0.91,1.53,0.23,0.37,0.24,0.37,0.12,0.18,0.12,0.18,0.12,0.18,0.12,0.18,0.48,0.7,0.49,0.67,1,1.28,1,1.19,1,1.1,1.07,1L833,880l1.11,0.82,0.28,0.19,0.28,0.19,0.14,0.09,0.14,0.09,0.14,0.09,0.14,0.09,0.57,0.33,0.57,0.3,1.15,0.53,1.16,0.42,2,0.49m3.47-112.06-2.18.93-0.6.31-0.6.34-0.3.18-0.3.19-0.15.1-0.15.1-0.15.1-0.15.1-1.17.85-1.14.94-1.12,1-1.09,1.12L834,779l-1,1.3-0.51.68-0.51.71-0.25.36-0.25.37-0.12.19-0.12.19-0.12.19-0.12.19-1,1.56-0.92,1.63-0.88,1.7-0.84,1.76-0.8,1.83-0.77,1.9-0.37,1-0.36,1-0.18.5-0.17.51-0.09.26-0.09.26-0.08.26-0.08.26-0.64,2.09-0.6,2.13L822.58,804l-0.5,2.2-0.45,2.24-0.41,2.28L821,811.85,820.86,813l-0.08.59-0.08.59,0,0.3,0,0.3,0,0.3,0,0.3-0.26,2.37-0.21,2.38-0.15,2.38-0.1,2.39-0.05,2.4v2.4l0,1.2,0,1.2,0,0.6,0,0.6v0.6l0,0.3,0,0.3,0.15,2.39,0.2,2.36,0.25,2.33,0.3,2.3,0.35,2.27,0.4,2.25,0.22,1.11,0.23,1.1,0.12,0.55,0.12,0.55,0.06,0.27,0.06,0.27,0.06,0.27,0.07,0.27,0.55,2.13,0.59,2.07,0.63,2,0.67,2,0.71,1.89,0.75,1.83,0.39,0.89,0.4,0.88,0.1,0.22,0.1,0.22,0.1,0.22,0.1,0.21,0.21,0.43,0.21,0.42,0.87,1.63,0.9,1.54,0.93,1.46,1,1.37,1,1.29,1,1.21,0.52,0.57,0.53,0.55,0.27,0.27,0.27,0.26,0.13,0.13,0.14,0.13,0.14,0.13,0.14,0.12,1.09,0.94,1.11,0.84,1.12,0.74,1.13,0.64,1.14,0.55,1.16,0.45,0.15,0.05m-3-4.46,1.09,1,1.11,0.87,1.13,0.77,1.14,0.67L844.5,882l0.29,0.15,0.13,0.07M836.1,776.77l-1.55,2.16-0.76,1.17-0.74,1.22-0.72,1.27-0.7,1.32-0.09.17-0.09.17-0.09.17-0.09.17-0.17.34-0.17.35-0.33.7-0.33.71-0.63,1.45L829,789.61l-0.58,1.52-0.55,1.55-0.53,1.59-0.5,1.62-0.48,1.66-0.45,1.7-0.11.43-0.11.43-0.05.22-0.05.22-0.05.22-0.05.22-0.2.88-0.19.88-0.36,1.78-0.33,1.79-0.3,1.81-0.27,1.83-0.24,1.84-0.21,1.86-0.18,1.88-0.15,1.89-0.06,1-0.06,1,0,0.48,0,0.48,0,0.48,0,0.48-0.05,1.92,0,1.91V827l0,1.9,0.07,1.9,0.11,1.89,0.14,1.89,0.17,1.89,0.1,0.94,0.11,0.94,0,0.23,0,0.23,0,0.23,0,0.23,0.06,0.47,0.06,0.47,0.27,1.85,0.3,1.82,0.68,3.56,0.8,3.46m19,31.49-1.74-.93-1.12-.73-1.1-.83L839.7,879l-1.07-1-0.53-.54-0.52-.57-0.26-.29-0.26-.3-0.13-.15-0.13-.15-0.13-.15-0.13-.16-1-1.29-1-1.38-0.94-1.46L832.74,870l-0.44-.8-0.43-.82-0.21-.42-0.21-.42-0.21-.43-0.21-.43-0.8-1.77-0.76-1.83-0.72-1.88-0.67-1.94-0.63-2-0.59-2.06-0.55-2.12-0.5-2.18m16.83,32.27-1.26-.44-1.15-.51-1.14-.61-1.12-.71-1.11-.81-0.55-.44-0.55-.47-0.54-.49-0.54-.51-1.05-1.09-1-1.18-1-1.26-1-1.35-0.94-1.43-0.91-1.52-0.22-.39-0.22-.4-0.11-.2-0.11-.2-0.11-.2-0.11-.21-0.43-.83L827,867l-0.81-1.75-0.77-1.81-0.73-1.87-0.68-1.93-0.64-2-0.6-2.06-0.14-.52-0.14-.53-0.07-.27-0.07-.27-0.07-.27-0.07-.27L822,852.41l-0.25-1.09-0.46-2.2-0.42-2.23-0.37-2.26-0.32-2.29L819.9,840l-0.22-2.36,0-.59,0-.6,0-.3,0-.3,0-.3,0-.3-0.07-1.2-0.05-1.2-0.07-2.4,0-2.4,0-2.39,0.09-2.39,0.14-2.39,0.19-2.39,0.06-.6,0.06-.6,0.06-.6,0.07-.6,0.14-1.18,0.15-1.17,0.34-2.32,0.39-2.29,0.44-2.25,0.48-2.22,0.53-2.18,0.58-2.15,0.15-.53,0.16-.53,0.08-.26,0.08-.26,0.08-.26,0.08-.26,0.33-1,0.34-1,0.71-2,0.75-1.92,0.79-1.85,0.83-1.79,0.87-1.72,0.91-1.66,0.23-.4,0.24-.4,0.12-.2,0.12-.2,0.12-.2,0.12-.19,0.49-.76,0.49-.74,1-1.41,1-1.33,1.06-1.24,1.09-1.15,1.11-1.07,1.14-1,0.29-.23,0.29-.22,0.15-.11,0.15-.11,0.15-.11,0.15-.11,0.59-.41,0.59-.38,1.19-.69,1.2-.59,1.63-.63m-3.39,112.2-0.79-.14-1.17-.3-1.17-.4-0.58-.24-0.58-.26-0.14-.07-0.14-.07-0.14-.07-0.14-.07-0.29-.15-0.29-.16L834,881l-1.11-.79-1.09-.89-1.07-1-1.05-1.07-1-1.17-0.51-.62-0.5-.64-0.25-.33-0.25-.34-0.24-.34-0.24-.35L825.68,872l-0.91-1.5L823.89,869,823,867.32l-0.81-1.73-0.77-1.8-0.37-.93-0.37-.95-0.09-.24-0.09-.24-0.09-.24-0.09-.24-0.17-.49L820,860l-0.65-2-0.61-2-0.56-2.09-0.52-2.14-0.47-2.18-0.43-2.23-0.2-1.13L816.4,845l0-.29,0-.29,0-.29,0-.29-0.08-.58-0.08-.58-0.28-2.33L815.56,838l-0.18-2.36-0.13-2.37-0.08-2.39,0-2.4v-1.21l0-1.21v-1.21l0-.6,0-.6,0.13-2.4,0.18-2.38,0.23-2.36,0.28-2.34,0.33-2.32,0.38-2.3,0.21-1.14,0.22-1.14,0.24-1.13,0.25-1.12,0.53-2.19,0.57-2.14,0.61-2.09,0.66-2,0.7-2,0.75-1.94,0.19-.48,0.2-.47,0.1-.24,0.1-.23,0.1-.23,0.1-.23,0.41-.92,0.42-.9L824,787.2l0.9-1.66,0.93-1.58,1-1.5,1-1.43,1-1.35,0.26-.32,0.27-.32,0.13-.16,0.13-.16,0.13-.16,0.14-.15,0.54-.6,0.55-.58,1.11-1.08,1.13-1,1.15-.89,1.16-.8,1.18-.7,1.2-.61,0.3-.14,0.3-.13,0.15-.06,0.15-.06,0.15-.06,0.15-.06,0.61-.22,0.61-.19,2-.44m22.79,44.7,0.26,2.38,0.2,2.39,0.15,2.4,0.1,2.42,0,0.61v4.23l-0.06,2.4-0.11,2.38-0.16,2.37-0.21,2.35-0.26,2.33-0.31,2.32-0.09.58-0.09.58,0,0.29,0,0.29,0,0.29,0,0.29-0.2,1.13-0.21,1.12-0.45,2.2-0.5,2.16-0.54,2.11L862,857.16l-0.63,2-0.68,2-0.18.48-0.18.48-0.18.48-0.18.47-0.38.93-0.38.91-0.8,1.76-0.83,1.68-0.87,1.61-0.9,1.53-0.93,1.46-1,1.38-0.12.17-0.12.17-0.12.16-0.13.16-0.25.32-0.25.32-0.51.62-0.51.59-1,1.11-1.06,1-1.08.92-1.1.83-1.12.74-1.14.64-0.14.07-0.14.07-0.15.07-0.15.07-0.29.13-0.29.13-0.58.23L843,883l-1.17.34-1.17.24-1.18.13-1.18,0-1.18-.07-1.19-.17-0.15,0-0.15,0-0.15,0-0.15,0-0.3-.07-0.29-.08-0.59-.18-0.58-.2-1.16-.47-1.14-.57-1.13-.67-1.11-.77-1.1-.87-1.09-1-0.27-.26-0.27-.26-0.27-.27-0.26-.27-0.52-.56-0.52-.58-1-1.23-1-1.32-1-1.4-0.92-1.48L820,869.38l-0.86-1.65-0.11-.21-0.11-.21-0.1-.21-0.1-.22-0.21-.43-0.2-.44-0.4-.89-0.39-.9-0.74-1.85-0.7-1.91-0.66-2-0.62-2-0.58-2.08-0.53-2.15-0.06-.27-0.06-.27-0.06-.27-0.06-.27-0.12-.55-0.12-.55-0.22-1.11-0.21-1.12-0.39-2.25L812,843.29,811.71,841l-0.24-2.34-0.19-2.37-0.14-2.4v-1.21l0-.6,0-.6,0-1.2v-3.6l0.06-2.39,0.12-2.39,0.17-2.38,0.1-1.19,0.12-1.19,0.13-1.19,0.14-1.19,0.32-2.35,0.37-2.31,0.42-2.27,0.46-2.23,0.51-2.19,0.56-2.15,0.3-1.06,0.31-1.05,0.16-.52,0.16-.52,0.08-.26,0.08-.26,0.08-.26,0.08-.26,0.7-2,0.74-1.95,0.78-1.88,0.81-1.81,0.85-1.75,0.89-1.68,0.46-.81,0.47-.8,0.24-.39,0.24-.39,0.12-.19,0.12-.19,0.12-.19,0.12-.19,1-1.46,1-1.37,1-1.28,1.07-1.19,1.1-1.1,1.12-1,0.57-.47,0.58-.45,0.29-.22,0.29-.21,0.15-.1,0.15-.1,0.15-.1,0.15-.1,1.19-.73,1.2-.63,1.21-.53,1.21-.43,1.22-.33,1.23-.23,0.62-.08,0.62-.05,0.31,0h0.94l1.74,0.14m-20.78,6.37-0.65.87-1.06,1.52-1,1.61-1,1.69-1,1.77-0.92,1.85-0.89,1.94-0.11.25-0.11.25-0.11.25-0.11.25-0.21.5-0.21.51-0.4,1-0.39,1L813,794.6l-0.7,2.18L811.6,799,811,801.29l-0.56,2.34-0.51,2.4-0.06.3-0.06.3-0.06.3-0.06.3-0.11.61-0.11.61-0.21,1.23-0.2,1.23-0.35,2.48-0.3,2.5-0.24,2.52L808,820.95l-0.07,1.28-0.06,1.28,0,0.64,0,0.64,0,0.65v0.65l0,2.58,0,2.56,0.08,2.55,0.14,2.53,0.19,2.52,0.25,2.5,0.14,1.24,0.16,1.24,0.08,0.62,0.09,0.62,0,0.31,0,0.31,0,0.31,0,0.31,0.41,2.43,0.46,2.38,0.51,2.33,0.55,2.28,0.6,2.22,0.65,2.17,0.34,1.07L813,862.2l0.18,0.52,0.19,0.52,0.09,0.26,0.09,0.26,0.1,0.26,0.1,0.26,0.79,2,0.83,1.92,0.87,1.84,0.9,1.76,0.94,1.68,1,1.6,0.5,0.77,0.51,0.75,0.26,0.37,0.26,0.36,0.13,0.18,0.13,0.18,0.13,0.18L821.1,878l1.08,1.34,1.1,1.24,1.12,1.14,1.15,1,1.17,0.94,1.19,0.84M817.3,794l-0.75,2.27-0.09.28-0.09.28-0.09.28-0.08.28L816,798l-0.16.57-0.32,1.14-0.3,1.15-0.57,2.32-0.52,2.36-0.47,2.4-0.41,2.44-0.36,2.48-0.31,2.52,0,0.32,0,0.32,0,0.32,0,0.32-0.06.64-0.06.64-0.11,1.27-0.09,1.27L812,823l-0.09,2.55,0,2.55,0,2.56,0.07,2.56,0.13,2.56,0,0.32,0,0.32,0,0.32,0,0.32,0,0.64,0.05,0.63,0.11,1.26,0.13,1.25,0.29,2.48,0.34,2.45,0.39,2.41,0.45,2.38,0.24,1.18,0.26,1.17,0.13,0.58,0.14,0.58,0.14,0.58,0.14,0.57,0.6,2.26,0.64,2.19,0.56,1.74M821,795.27l-0.17.54L820.18,798l-0.63,2.26L819,802.58l-0.53,2.36-0.25,1.2L818,807.36l-0.06.31-0.06.31-0.06.31-0.05.31-0.11.62-0.1.62-0.38,2.48-0.32,2.49-0.27,2.51-0.21,2.53-0.16,2.54-0.1,2.56,0,1.29,0,1.29v2.58l0.06,2.56,0.11,2.54,0.17,2.52,0.22,2.5,0.28,2.48,0.33,2.46,0.19,1.22,0.2,1.22,0.05,0.3,0.05,0.3,0.05,0.3,0.05,0.3,0.11,0.6,0.11,0.6,0.49,2.36,0.53,2.3,0.58,2.25,0.63,2.19,0.55,1.77" fill="none" stroke="#000" stroke-linecap="round" stroke-linejoin="round" stroke-width="0.71"/>
              <polyline points="825.2 795.22 825.18 795.27 824.49 797.47 823.85 799.73 823.7 800.31 823.55 800.89 823.47 801.18 823.4 801.47 823.33 801.77 823.25 802.06 822.98 803.24 822.71 804.42 822.22 806.81 821.78 809.23 821.4 811.69 821.07 814.17 820.78 816.68 820.56 819.22 820.51 819.86 820.47 820.5 820.42 821.15 820.39 821.79 820.32 823.07 820.27 824.36 820.21 826.92 820.2 829.47 820.25 832.02 820.35 834.56 820.5 837.1 820.72 839.63 820.75 839.94 820.78 840.26 820.81 840.57 820.84 840.89 820.91 841.52 820.98 842.14 821.14 843.39 821.3 844.62 821.67 847.06 822.1 849.45 822.57 851.8 823.09 854.11 823.66 856.38 824.28 858.61 824.36 858.88 824.45 859.16 824.53 859.43 824.61 859.7 824.78 860.25 824.95 860.78 825.33 861.9" fill="none" stroke="#000" stroke-linecap="round" stroke-linejoin="round" stroke-width="0.71"/>
              <polyline points="861.55 779.04 862.34 780.55 863.17 782.06 864.04 783.56 864.96 785.05 866.91 788.01 869.01 790.94 870.11 792.4 871.25 793.85 871.84 794.57 872.43 795.29 872.73 795.65 873.02 796.01 873.33 796.37 873.63 796.73 874.86 798.15 876.12 799.57 877.39 800.97 878.69 802.37" fill="none" stroke="#000" stroke-linecap="round" stroke-linejoin="round" stroke-width="0.71"/>
              <polyline points="854.59 782.25 854.21 781.65 853.83 781.06 853.63 780.77 853.44 780.48 853.34 780.34 853.24 780.2 853.14 780.06 853.04 779.92 852.25 778.83 851.43 777.81 850.6 776.84 849.76 775.93 848.9 775.08 848.03 774.28 847.15 773.54 846.25 772.86 845.79 772.54 845.33 772.24 845.1 772.1 844.87 771.95 844.75 771.88 844.64 771.81 844.52 771.75 844.4 771.68 843.47 771.18 842.53 770.74 841.59 770.37 840.64 770.06 839.69 769.81 838.73 769.63 837.77 769.5 836.81 769.44 836.33 769.44 835.85 769.45 835.6 769.46 835.36 769.48 835.24 769.49 835.12 769.5 835 769.51 834.88 769.52 833.91 769.65 832.95 769.85 832 770.11 831.05 770.42 830.11 770.8 829.18 771.24 828.25 771.75 827.33 772.31 826.87 772.61 826.42 772.93 826.19 773.1 825.96 773.27 825.74 773.44 825.51 773.62 824.62 774.37 823.74 775.17 822.88 776.02 822.04 776.93 821.21 777.89 820.4 778.9 819.6 779.97 818.82 781.09 818.05 782.26 817.31 783.48 817.12 783.8 816.94 784.12 816.76 784.44 816.58 784.76 816.23 785.41 815.88 786.07 815.2 787.43 814.54 788.83 813.91 790.26 813.31 791.73 812.72 793.25 812.16 794.8 811.63 796.39 811.12 798.02 811.05 798.22 810.99 798.43 810.93 798.64 810.87 798.85 810.75 799.27 810.63 799.68 810.39 800.53 810.17 801.38 809.74 803.09 809.34 804.82 808.97 806.58 808.63 808.36 808.32 810.16 808.03 811.98 807.77 813.82 807.54 815.68 807.49 816.15 807.44 816.63 807.39 817.1 807.35 817.57 807.26 818.52 807.18 819.47" fill="none" stroke="#000" stroke-linecap="round" stroke-linejoin="round" stroke-width="0.71"/>
              <polyline points="865.17 815.51 864.68 811.61 864.05 807.79 863.29 804.07 862.4 800.46 861.38 796.99 860.24 793.67 858.99 790.53 857.62 787.56 856.15 784.8 854.59 782.25" fill="none" stroke="#000" stroke-linecap="round" stroke-linejoin="round" stroke-width="0.71"/>
              <polyline points="827.91 884.57 828.85 885.08 829.79 885.53 830.74 885.92 831.69 886.25 832.17 886.39 832.65 886.52 832.89 886.58 833.13 886.63 833.37 886.68 833.61 886.73 834.58 886.88 835.54 886.96 836.5 886.99 837.46 886.95 838.41 886.86 839.37 886.7 840.32 886.48 841.27 886.2 841.75 886.03 842.22 885.85 842.46 885.76 842.7 885.66 842.82 885.61 842.94 885.56 843.05 885.5 843.17 885.45 844.11 884.98 845.04 884.46 845.96 883.88 846.86 883.25 847.75 882.55 848.63 881.81 849.5 881 850.36 880.13 851.2 879.21 852.03 878.23 852.14 878.11 852.24 877.98 852.34 877.85 852.45 877.72 852.65 877.46 852.85 877.2 853.25 876.66 853.65 876.11 854.43 874.98 855.18 873.8 855.92 872.58 856.63 871.31 857.32 870 858 868.63 858.65 867.23 859.27 865.77 859.43 865.4 859.58 865.02 859.73 864.65 859.88 864.27 860.18 863.5 860.46 862.73 861.01 861.16 861.54 859.56 862.04 857.93 862.51 856.27 862.95 854.58 863.36 852.86 863.75 851.11 864.11 849.33 864.27 848.43 864.43 847.52 864.47 847.29 864.51 847.06 864.55 846.83 864.59 846.61 864.66 846.15 864.73 845.69 865 843.84 865.23 841.99 865.43 840.13 865.61 838.25 865.75 836.37 865.85 834.48 865.93 832.57 865.98 830.66 865.99 829.7 865.99 828.74 865.99 828.25 865.98 827.77 865.98 827.29 865.97 826.81 865.91 824.89 865.83 822.99 865.71 821.1 865.56 819.22 865.38 817.36 865.17 815.51" fill="none" stroke="#000" stroke-linecap="round" stroke-linejoin="round" stroke-width="0.71"/>
              <polyline points="807.18 819.47 806.99 823.43 806.93 827.41 807 831.38 807.2 835.34 807.54 839.26 808 843.13 808.6 846.93 809.31 850.64 810.15 854.26 811.11 857.75 812.18 861.11 813.36 864.33 814.64 867.38 816.03 870.26 817.5 872.95 819.06 875.44 820.7 877.72 822.42 879.79 824.19 881.62 826.03 883.22 827.91 884.57" fill="none" stroke="#000" stroke-linecap="round" stroke-linejoin="round" stroke-width="0.71"/>
              <polyline points="861.55 779.04 860.01 776.16 858.39 773.48 856.68 771 854.9 768.74 853.06 766.7 851.15 764.89 849.19 763.31 847.19 761.98 845.15 760.89 843.08 760.06 840.99 759.48 838.88 759.15 836.77 759.09 834.66 759.28 832.56 759.74 830.47 760.44 828.42 761.4" fill="none" stroke="#000" stroke-linecap="round" stroke-linejoin="round" stroke-width="0.71"/>
              <polyline points="828.42 761.4 826.39 762.61 824.41 764.07 822.48 765.76 820.6 767.69 818.79 769.85 817.05 772.22 815.38 774.8 813.8 777.58 812.3 780.54 810.9 783.69 809.6 787 808.41 790.46 807.33 794.06 806.36 797.78 805.5 801.62 804.77 805.56 804.16 809.58" fill="none" stroke="#000" stroke-linecap="round" stroke-linejoin="round" stroke-width="0.71"/>
              <polyline points="804.16 809.58 803.67 813.66 803.32 817.8 803.09 821.97 802.99 826.16 803.03 830.36 803.19 834.54 803.48 838.7 803.9 842.81 804.45 846.86 805.12 850.84 805.91 854.73 806.83 858.51 807.85 862.18 808.99 865.71 810.24 869.1 811.59 872.33 813.04 875.38" fill="none" stroke="#000" stroke-linecap="round" stroke-linejoin="round" stroke-width="0.71"/>
              <polyline points="813.04 875.38 814.58 878.26 816.2 880.94 817.91 883.42 819.69 885.68 821.53 887.72 823.44 889.53 825.4 891.11 827.4 892.44 829.44 893.53 831.51 894.36 833.61 894.94 835.71 895.27 837.82 895.33 839.93 895.14 842.03 894.69 844.12 893.98 846.17 893.02" fill="none" stroke="#000" stroke-linecap="round" stroke-linejoin="round" stroke-width="0.71"/>
              <polyline points="846.17 893.02 848.2 891.81 850.18 890.35 852.11 888.66 853.99 886.73 855.8 884.58 857.54 882.2 859.21 879.62 860.79 876.85 862.29 873.88 863.69 870.73 864.99 867.42 866.18 863.96 867.27 860.36 868.24 856.63 869.09 852.8 869.82 848.86 870.43 844.84" fill="none" stroke="#000" stroke-linecap="round" stroke-linejoin="round" stroke-width="0.71"/>
              <polyline points="870.43 844.84 870.92 840.76 871.27 836.62 871.5 832.45 871.6 828.26 871.56 824.06 871.4 819.88 871.11 815.72 870.69 811.61 870.14 807.56 869.47 803.58 868.68 799.69 867.76 795.91 866.74 792.24 865.6 788.71 864.35 785.32 863 782.09 861.55 779.04" fill="none" stroke="#000" stroke-linecap="round" stroke-linejoin="round" stroke-width="0.71"/>
              <polyline points="880.12 812.97 878.45 816.78 876.88 820.64 875.43 824.54 874.12 828.49 872.95 832.5 871.93 836.56 871.7 837.59 871.49 838.62 871.38 839.14 871.28 839.66 871.18 840.18 871.09 840.69 870.74 842.77 870.43 844.84" fill="none" stroke="#000" stroke-linecap="round" stroke-linejoin="round" stroke-width="0.71"/>
              <polyline points="870.43 844.84 870.18 846.91 869.97 848.97 869.81 851.02 869.7 853.06 869.61 857.11 869.7 861.11 869.8 863.1 869.94 865.08 870.03 866.07 870.12 867.05 870.17 867.54 870.23 868.03 870.28 868.52 870.34 869.01 870.59 870.96 870.87 872.89 871.18 874.81 871.52 876.72" fill="none" stroke="#000" stroke-linecap="round" stroke-linejoin="round" stroke-width="0.71"/>
              <line x1="886.41" y1="812.97" x2="877.81" y2="876.72" fill="none" stroke="#000" stroke-linecap="round" stroke-linejoin="round" stroke-width="0.71"/>
              <polyline points="851.67 902.91 853.91 902.78 856.15 902.38 858.37 901.73 860.57 900.82 862.74 899.65 864.86 898.23 866.95 896.57 868.98 894.66 870.95 892.52 872.85 890.15 874.68 887.57 876.43 884.77 878.09 881.78 879.66 878.6 881.13 875.23 882.51 871.71 883.77 868.02 884.93 864.2 885.97 860.25 886.89 856.18 887.68 852.01 888.36 847.76 888.9 843.43 889.32 839.05 889.6 834.63 889.76 830.18 889.78 825.72 889.67 821.27 889.43 816.84 889.05 812.44 888.55 808.1 887.92 803.82 887.17 799.62 886.29 795.52 885.29 791.53 884.17 787.66 882.94 783.93 881.61 780.35 880.16 776.93 878.62 773.68" fill="none" stroke="#000" stroke-linecap="round" stroke-linejoin="round" stroke-width="0.71"/>
              <polyline points="878.62 773.68 876.95 770.55 875.18 767.62 873.32 764.91 871.39 762.43 869.38 760.18 867.31 758.18 865.19 756.43 863.01 754.94 860.79 753.71 858.54 752.75 856.26 752.06 853.97 751.65 851.67 751.51" fill="none" stroke="#000" stroke-linecap="round" stroke-linejoin="round" stroke-width="0.71"/>
              <polyline points="815.73 773.68 816.73 771.78 817.76 769.94" fill="none" stroke="#000" stroke-linecap="round" stroke-linejoin="round" stroke-width="0.71"/>
              <polyline points="856.14 752.86 853.9 752.14 851.63 751.7 849.36 751.51 847.08 751.61 844.82 751.96 842.56 752.59 840.33 753.48 838.13 754.64 835.97 756.05 833.85 757.72 831.79 759.64" fill="none" stroke="#000" stroke-linecap="round" stroke-linejoin="round" stroke-width="0.71"/>
              <line x1="849.86" y1="752.86" x2="856.14" y2="752.86" fill="none" stroke="#000" stroke-linecap="round" stroke-linejoin="round" stroke-width="0.71"/>
              <polyline points="849.86 752.86 852.55 754.09 855.2 755.7" fill="none" stroke="#000" stroke-linecap="round" stroke-linejoin="round" stroke-width="0.71"/>
              <line x1="861.48" y1="755.7" x2="855.2" y2="755.7" fill="none" stroke="#000" stroke-linecap="round" stroke-linejoin="round" stroke-width="0.71"/>
              <polyline points="884.98 802.37 884.16 798.12 883.22 793.97 882.15 789.94 880.96 786.05 879.66 782.3 878.25 778.72 876.73 775.32 875.11 772.1 873.39 769.08 871.59 766.27 869.7 763.68 867.74 761.32 865.71 759.2 863.63 757.33 861.48 755.7" fill="none" stroke="#000" stroke-linecap="round" stroke-linejoin="round" stroke-width="0.71"/>
              <line x1="878.69" y1="802.37" x2="884.98" y2="802.37" fill="none" stroke="#000" stroke-linecap="round" stroke-linejoin="round" stroke-width="0.71"/>
              <polyline points="878.69 802.37 879.5 807.62 880.12 812.97" fill="none" stroke="#000" stroke-linecap="round" stroke-linejoin="round" stroke-width="0.71"/>
              <line x1="886.41" y1="812.97" x2="880.12" y2="812.97" fill="none" stroke="#000" stroke-linecap="round" stroke-linejoin="round" stroke-width="0.71"/>
              <polyline points="877.81 876.72 879.26 873.18 880.59 869.49 881.82 865.64 882.92 861.65 883.9 857.53 884.75 853.31 885.48 848.99 886.07 844.6 886.53 840.14 886.86 835.63 887.04 831.09 887.09 826.54 887 822 886.77 817.47 886.41 812.97" fill="none" stroke="#000" stroke-linecap="round" stroke-linejoin="round" stroke-width="0.71"/>
              <line x1="871.52" y1="876.72" x2="877.81" y2="876.72" fill="none" stroke="#000" stroke-linecap="round" stroke-linejoin="round" stroke-width="0.71"/>
              <polyline points="871.52 876.72 869.64 880.74 867.61 884.48" fill="none" stroke="#000" stroke-linecap="round" stroke-linejoin="round" stroke-width="0.71"/>
              <line x1="873.9" y1="884.48" x2="867.61" y2="884.48" fill="none" stroke="#000" stroke-linecap="round" stroke-linejoin="round" stroke-width="0.71"/>
              <polyline points="841.8 901.56 844.07 902.28 846.35 902.73 848.64 902.91 850.93 902.81 853.22 902.44 855.48 901.8 857.73 900.89 859.94 899.71 862.12 898.27 864.24 896.57 866.32 894.62 868.32 892.43 870.26 890 872.13 887.35 873.9 884.48" fill="none" stroke="#000" stroke-linecap="round" stroke-linejoin="round" stroke-width="0.71"/>
              <line x1="835.52" y1="901.56" x2="841.81" y2="901.56" fill="none" stroke="#000" stroke-linecap="round" stroke-linejoin="round" stroke-width="0.71"/>
              <polyline points="835.52 901.56 832.82 900.33 830.18 898.72" fill="none" stroke="#000" stroke-linecap="round" stroke-linejoin="round" stroke-width="0.71"/>
              <line x1="848.98" y1="902.91" x2="851.67" y2="902.91" fill="none" stroke="#000" stroke-linecap="round" stroke-linejoin="round" stroke-width="0.71"/>
              <line x1="851.67" y1="751.51" x2="848.98" y2="751.51" fill="none" stroke="#000" stroke-linecap="round" stroke-linejoin="round" stroke-width="0.71"/>
            </g>
          </g>
          <g id="e8f13d4a-7f76-43ae-b8ae-ed3a26efb11d" data-name="3way">
            <g>
              <path d="M836.58,769.18c-7.48,0-14.3,5.59-19.49,14.78h18.34s5.3,0,5.3,10.64a17.18,17.18,0,0,1-.88,5.9H851.1c2.76,0,5,4.48,5,10s-2.24,10-5,10H807.41c-0.16,2.46-.25,5-0.25,7.49,0,2.25.07,4.46,0.19,6.64H851.1c2.76,0,5,4.48,5,10s-2.24,10-5,10H839.36a16.51,16.51,0,0,1,1.36,7.37c0,9.49-5.29,9.49-5.29,9.49H816.78c5.23,9.51,12.17,15.31,19.79,15.31,16.25,0,29.42-26.34,29.42-58.83S852.82,769.18,836.58,769.18Z" fill="none" stroke="#000" stroke-linecap="round" stroke-linejoin="round" stroke-width="0.71"/>
              <g>
                <path d="M173.34,828.11a23.35,23.35,0,0,1,1.27-7.59H153.37a43.7,43.7,0,0,0-.06,14.13h21A23.39,23.39,0,0,1,173.34,828.11Z" fill="none" stroke="#000" stroke-linejoin="round" stroke-width="0.71"/>
                <path d="M162,854.69a43.7,43.7,0,0,0,34.52,16.86H835.43s5.29,0,5.29-9.49a16.51,16.51,0,0,0-1.36-7.37H162Z" fill="none" stroke="#000" stroke-linejoin="round" stroke-width="0.71"/>
                <path d="M839.86,800.5a17.18,17.18,0,0,0,.88-5.9c0-10.64-5.3-10.64-5.3-10.64H196.56A43.7,43.7,0,0,0,162.3,800.5H839.86Z" fill="none" stroke="#000" stroke-linejoin="round" stroke-width="0.71"/>
              </g>
              <path d="M851.1,820.53c2.76,0,5-4.48,5-10s-2.24-10-5-10H108s-9.94.78-9.94,10,10.83,10,10.83,10H851.1Z" fill="none" stroke="#000" stroke-linejoin="round" stroke-width="0.71"/>
              <path d="M851.1,854.69c2.76,0,5-4.48,5-10s-2.24-10-5-10H108s-9.94.78-9.94,10,10.83,10,10.83,10H851.1Z" fill="none" stroke="#000" stroke-linejoin="round" stroke-width="0.71"/>
            </g>
          </g>
        </g>
        <ellipse id="a12e4878-c298-4a9e-ae4a-89df9af64801" data-name="kettle top" cx="496.06" cy="277.75" rx="496.06" ry="83.94" fill="url(#80be4c7c-984f-4a69-9a14-1c5b39348f59)" style="mix-blend-mode: multiply"/>
        <path d="M496.06,361.69C222.09,361.69,0,324.11,0,277.75v772.48c0,43.18,192.73,78.74,440.57,83.41h111c247.83-4.67,440.55-40.23,440.57-83.41V277.75C992.13,324.11,770,361.69,496.06,361.69Z" fill="#00adee" opacity="0.4" style="mix-blend-mode: multiply"/>
      </g>
    </g>
  </g>
</svg>
