<svg id="8c08919f-2638-4f62-b037-8657aad369cb" data-name="e70ddf2f-1347-4920-9234-e42bbf488abf" xmlns="http://www.w3.org/2000/svg" viewBox="0 0 170.79 360.72">
  <title>step_1_composite</title>
  <g>
    <polygon points="7.79 317.37 7.84 318.4 7.76 316.35 7.79 317.37" fill="#fff" stroke="#000" stroke-linecap="round" stroke-linejoin="round" stroke-width="0.71"/>
    <path d="M163.42,314.21l0.06-.53h0l0.11-.71-0.07.31v-0.35l2.56-3.78,2-3.89,1.44-4,0.94-3.41,0.29-3.42h-0.39l0.39-4.58-0.19-4.38-0.77-4.19-1.35-4.06-1.91-3.94-2.5-3.79-3-3.64-3.51-3.52-4-3.34L149,255.85l-4.9-2.91-5.3-2.67-5.63-2.42-6-2.13-6.26-1.87-6.51-1.49-6.71-1.21-6.86-.89-7-.56-7-.22-7,.11-7,.45-6.88.81L59.22,242l-6.59,1.39-6.35,1.73-6.09,2-5.78,2.31L29,252l-5,2.83-4.7,3-4.16,3.27-3.68,3.46-3.17,3.65L5.67,272l-2.1,3.86-1.54,4-1,4-0.35,4v5.71L1,297.41l0.87,3.92,1.44,3.92,2,3.86,2.49,3.74v1.64l0.08,0.85v0.42L8,316.16,7.84,318.4,8,320.09l0.3,1.68,0.43,1.68,0.53,1.66,0.31,0.83,0.33,0.83,0.18,0.41,0.18,0.41L10.48,328l0.2,0.41L11.54,330l1,1.6,0.49,0.8,0.55,0.79,0.29,0.39L14.17,334l0.3,0.39,0.31,0.39L16,336.31l1.41,1.54,0.73,0.74,0.76,0.73,0.39,0.36L19.71,340l0.4,0.36,0.41,0.36,1.68,1.4L24,343.52l1.86,1.32,2,1.28,1,0.62,1,0.61,1,0.6,1.07,0.59,2.19,1.14,2.27,1.09L36.94,351l0.58,0.26,0.59,0.26,0.59,0.26,1.2,0.5,1.21,0.49,2.47,0.93,2.54,0.88,0.64,0.21L47.42,355l0.65,0.2,0.65,0.2L50,355.79l1.33,0.38,2.7,0.71,2.74,0.65,0.69,0.15,0.7,0.15L58.9,358l0.7,0.14L61,358.37l1.42,0.25,2.86,0.46,2.89,0.4,0.73,0.09,0.73,0.09,0.73,0.08,0.71,0.11L72.56,360,74,360.08l2.95,0.2,3,0.14h5.94l3-.06,3-.12h2.22l0.74-.05,1.48-.12,1.47-.14,2.93-.32,2.91-.38,0.72-.11,0.72-.11,0.72-.11,0.72-.12,1.43-.25,1.42-.26,2.82-.57,2.78-.64,0.69-.17,0.69-.17,0.68-.18,0.68-.18,1.35-.37,1.34-.39,2.64-.81,2.59-.87,0.64-.23,0.63-.23,0.63-.23,0.63-.24,1.24-.49,1.22-.5,2.4-1,2.33-1.09,0.57-.28,0.57-.28,0.56-.29,0.56-.29,1.1-.59,1.08-.6,2.1-1.24,2-1.28,0.49-.33,0.49-.33,0.48-.33,0.48-.34,0.94-.68,0.91-.69,1.76-1.41,1.67-1.45,0.4-.37,0.4-.37,0.39-.37,0.38-.37,0.75-.75,0.72-.76,1.37-1.66,1.27-1.57,0.3-.4,0.3-.4,0.29-.4,0.28-.4,0.55-.81,0.52-.82,1-1.65,0.85-1.67,0.38-.84,0.36-.85,0.33-.85,0.3-.85,0.51-1.71,0.4-1.72,0.16-.87,0.13-.87,0.05-.43v-1.29l0.06-1.84Z" fill="#fff"/>
  </g>
  <g>
    <line x1="140.07" y1="280.99" x2="140.07" y2="269.42" fill="none" stroke="#000" stroke-linecap="round" stroke-linejoin="round" stroke-width="0.71"/>
    <line x1="30.73" y1="284.58" x2="30.73" y2="296.15" fill="none" stroke="#000" stroke-linecap="round" stroke-linejoin="round" stroke-width="0.71"/>
    <polyline points="117.91 272.81 118.11 273.42 118.3 274.03 118.44 274.64 118.56 275.26 118.64 275.88 118.69 276.5 118.7 276.81 118.7 277.12 118.7 277.13" fill="none" stroke="#000" stroke-linecap="round" stroke-linejoin="round" stroke-width="0.71"/>
    <path d="M113.56,266.29l-1-.73-0.38-.27L111.8,265l-0.2-.13-0.2-.13-0.2-.13-0.2-.13-0.82-.5-0.85-.48-0.87-.46-0.89-.45-0.92-.43-0.94-.41-1-.39-1-.38-0.5-.18-0.51-.18-0.26-.09-0.26-.09-0.14-.08-0.26-.08-1.05-.32-1.06-.3-1.08-.28-1.09-.26-1.1-.24-1.11-.21-1.12-.19L93,258.33l-1.15-.15-1.16-.13H89.56l-0.63-.2H88.35l-1.16-.06-1.16,0H81.38l-1.16.1L79,258H77.87L77.3,258l-0.57.07-1.13.16-1.11.18-1.1.2-1.09.22-1.07.24-1.06.26-1,.28-1,.3-0.26.08-0.26.08-0.25.08-0.25.08-0.5.17-0.49.17-1,.36-0.94.37-0.94.53-0.9.41-0.87.43-0.85.44-0.82.46-0.81.46-0.2.12-0.19.12-0.19.12-0.19.13-0.37.25-0.37.26-0.71.52-0.67.53-0.64.54-0.61.55-0.58.56-0.54.58-0.51.59-0.48.6-0.23.3-0.22.31-0.11.15-0.1.15-0.1.15-0.1.16-0.37.62-0.33.63-0.29.63-0.26.64-0.22.64-0.18.64-0.14.65-0.1.66v1.46m68.6,1-0.13-.7-0.16-.66-0.2-.66-0.24-.65-0.27-.65-0.15-.32-0.16-.32-0.08-.16-0.09-.16-0.12-.18-0.09-.16-0.38-.63-0.42-.62-0.45-.61-0.49-.6-0.52-.59-0.55-.58-0.59-.57-0.66-.64-0.32-.28-0.33-.27-0.2-.12-0.17-.14-0.17-.13-0.17-.13-0.72-.52-0.74-.51-0.77-.49-0.79-.48-0.82-.46-0.83-.47-0.82-.4-0.9-.41-0.5-.19-0.47-.2-0.24-.1-0.24-.1-0.24-.09-0.24-.09-1-.36-1-.34-1-.32-1-.3-1-.28-1-.26-1.06-.24L95,261l-0.52-.1-0.55-.1H92.86l-1.11-.15-1.11-.13-1.11-.11-1.11-.09-1.12-.07H81.67l-1.12.07-1.11.09-1.1.11-1.09.13-1.08.15-1.07.17H74l-1.05.21-0.52.12-0.52.12-0.26.06-0.26.06-0.26.06-0.26.07-1,.28-1,.29-1,.31-0.87.34-1,.34-0.9.37-0.88.38-0.86.4-0.36.21-0.42.21-0.23.09-0.2.11-0.2.11-0.2.11-0.75.47-0.75.47-0.72.48-0.69.49-0.66.5-0.63.52-0.6.53-0.57.54-0.27.28-0.27.28-0.18.11-0.13.14-0.13.14-0.12.14-0.46.58-0.43.58-0.39.62-0.36.6-0.32.6-0.32.6-0.25.61-0.21.62-0.09.31-0.08.31v0.64l-0.1.63-0.06.63v1.25l0,0.63,0.09,0.63,0.13,0.63,0.17,0.63,0.1,0.31L52.89,282,53,282.15,53,282.31l0.06,0.16,0,0.16,0.28,0.61,0.26,0.61,0.35,0.6L54.31,285l0.42,0.58,0.46,0.57,0.49,0.57,0.53,0.56,0.28,0.28,0.28,0.25L56.93,288,57,288.13l0.15,0.13,0.15,0.13,0.7,0.53,0.66,0.51,0.68,0.5L60,290.41l0.75,0.44,0.77,0.45,0.8,0.44,0.83,0.42,0.43,0.21L64,292.6l0.22,0.1,0.22,0.1,0.23,0.05,0.22,0.1,0.9,0.37,0.92,0.35L67.69,294l1,0.32,1,0.3,1,0.28,1,0.26,1,0.24,0.53,0.11,0.53,0.11,0.29,0.1,0.27,0h0.54L75.92,296,77,296.11l1,0.23,1.1,0.11,1.1,0.09,1.11,0.07H87l1.12-.06,1.12-.08,1.11-.1,1.11-.13,1.1-.15,1.09-.17,1.09-.19,0.54-.1,0.54-.11,0.27-.06,0.27-.06,0.27-.06,0.27-.06,1.05-.25,1-.27,1-.29,1-.31,1-.33,1-.35,0.95-.37,0.93-.39,0.46-.2,0.45-.21,0.45-.21,0.44-.22,0.86-.44,0.84-.46,0.81-.48,0.78-.49m8.3-9.87-0.1-.32-0.23-.65-0.27-.65-0.3-.64-0.34-.64-0.37-.63-0.41-.62-0.22-.31-0.23-.31-0.12-.15-0.12-.15-0.12-.15-0.12-.15-0.52-.6-0.55-.59-0.58-.57-0.58-.57-0.68-.59-0.67-.54-0.7-.52-0.74-.51-0.38-.25-0.39-.18-0.2-.12-0.2-.12-0.2-.12-0.2-.12-0.82-.52-0.82-.43-0.87-.43-0.89-.41-0.91-.4-1-.33-1-.36-1-.34-0.5-.16-0.5-.16-0.51-.16-0.51-.15-1-.28-1-.26-1.06-.24-1.07-.22-1.08-.2-1.09-.18L92,263.93l-1.11-.14-0.56-.06-0.56-.06H88.69l-1.13-.07H84.13l-1.1-.15H81.91l-1.12.06-1.11.08H79.12l-0.56,0H77.45l-1.09.15-1.08.17-1.06.19-1.05.21-1,.23-1,.25-1,.27-1,.29-0.49.15-0.49.16-0.24.08-0.24.08-0.24.08-0.24.08-0.94.35-0.91.36-0.89.38-0.86.4-0.83.41-0.81.43-0.78.45-0.76.46-0.41.46-0.36.24-0.18.12-0.18.12-0.18.12-0.17.12L58.3,271l-0.64.52L57,272l-0.57.54-0.54.55-0.51.56-0.47.57-0.44.61-0.21.29-0.2.3-0.1.15-0.09.15-0.09.11-0.09.15-0.33.61-0.29.61-0.26.63-0.22.62-0.18.62-0.14.62-0.06.32" fill="none" stroke="#000" stroke-linecap="round" stroke-linejoin="round" stroke-width="0.71"/>
    <path d="M117.59,281.91L117,280.85l-0.37-.64-0.4-.63-0.44-.62-0.47-.61-0.51-.6-0.54-.59-0.57-.58-0.61-.57-0.32-.28-0.32-.28-0.33-.27-0.34-.27-0.7-.53-0.73-.52-0.76-.5-0.78-.48-0.81-.42L107.2,272l-0.86-.43-0.89-.42L105,271l-0.46-.2-0.23-.1-0.23-.1-0.24-.1-0.24-.1-1-.37-1-.35-1-.33-1-.31-1-.29-1-.27-1.05-.25L95.51,268l-0.53-.1-0.54-.1H93.36l-1.11-.16-1.11-.14-1.1-.28-1.11-.1L87.8,267l-1.12,0H82.16L81,267l-1.12.08-1.11.1-1.1.12-1.09.14-1.08.16-1.07.18-1.06.2-0.52.11-0.52.12-0.26.06-0.26.06-0.26.06-0.26.06-1,.27-1,.29-1,.3-1,.32L66.4,270l-0.91.36-0.89.38-0.87.39-0.43.2-0.42.21-0.21.11-0.21.11-0.13.12-0.2.11-0.8.45-0.77.44-0.73.47-0.7.49-0.67.5-0.66.54-0.61.52-0.58.48-0.28.27-0.29.32-0.13.14-0.13.14-0.11.13-0.13.14-0.5.59-0.45.58-0.41.59-0.37.59-0.34.6-0.3.6-0.27.61-0.23.62h0m63.93,1.77-0.21-.33-0.43-.62-0.46-.61-0.5-.6-0.53-.53-0.14-.15-0.14-.15-0.15-.18-0.15-.15-0.3-.29-0.3-.28-0.63-.56-0.62-.54-0.69-.53-0.72-.52-0.75-.5-0.84-.48-0.81-.47-0.84-.46-0.21-.11-0.14-.12-0.22-.11-0.22-.11-0.44-.21-0.45-.21-0.91-.41-0.92-.39-0.94-.37-1-.35-1-.33-1-.31-1-.29-1-.27-0.26-.07-0.31-.08H97.09l-0.27-.06-0.53-.12-0.54-.11-1.08-.21-1.08-.19L92.51,271l-1.1-.15-1.11-.13-1.11-.1L88,270.48l-1.13-.06H82.42l-1.12,0-1.11.07-1.11.09-1.1.11-1.09.11-1.09.16H74.73l-0.53.1-0.53.1-1,.22-1,.24-1,.26-1,.28-1,.3-1,.32-0.94.34-0.93.36-0.26.32-0.23.09L65,274l-0.22.1-0.44.19-0.44.2-0.85.41-0.82.42-0.8.44-0.77.45-0.66.46-0.71.48-0.69.5-0.66.51-0.16.13-0.16.13-0.16.13-0.15.13L57,279l-0.29.27-0.56.55-0.52.56-0.49.56-0.45.57-0.42.58-0.38.59-0.5.88m62,1.82-0.81-.93-0.59-.56-0.59-.57-0.62-.56-0.65-.55-0.68-.53-0.72-.52-0.18-.13-0.19-.14-0.19-.13-0.18-.13-0.39-.25-0.39-.25-0.8-.48-0.83-.46-0.85-.44-0.87-.43-0.87-.43-1-.36-0.94-.37-1-.36-0.25-.09-0.25-.09-0.25-.08-0.25-.08-0.5-.16-0.5-.16-1-.3-1-.28-1-.26L96,275,95,274.85l-1.08-.19-1.09-.17-1.11-.15H90.56L90,274.11l-0.56,0L88.35,274l-1.12-.06-1.2-.06H81.58l-1.12.07H79.34l-0.56,0-0.55.06-1.1.13-1.1.3-1.07.17-1,.22-1,.21-1,.24-1,.26-1,.28H69.56l-0.25.07L69,276l-0.25.08-0.49.16-0.48.16-0.95.33-0.92.35-0.9.37-0.85.36-0.85.4-0.83.42-0.81.44-0.78.45-0.19.12-0.19.17-0.19.12-0.19.12-0.37.24-0.36.24-0.69.5-0.66.51-0.63.52-0.6.53-0.56.54-0.53.55-0.5.56-0.45.57L54.7,285l-0.11.15-0.11.15m59.24,1.75-0.13-.2-0.31-.28-0.31-.28-0.16-.14-0.16-.14-0.16-.16-0.17-.14-0.68-.54-0.71-.52-0.74-.51-0.76-.49-0.79-.48-0.82-.46L107,282.3l-0.92-.45-0.45-.21-0.45-.21-0.18-.08-0.23-.1-0.23-.1-0.23-.1-0.94-.38-1-.36-1-.34-1-.32-1-.3-1-.28-1-.26-1.06-.24-0.54-.11-0.54-.11-0.27,0-0.27,0H94.19L93,278l-1.11-.11-1.1-.14-1.11-.11-1.11-.09-1.12-.07H81.84l-1.12.06-1.11.08-1.1.1-1.09.13-1.08,0-1.08.17-1.07.19-0.53.1-0.53.11-0.26.06-0.26.06-0.26.06-0.31.1L71,279l-1,.27-1,.29-1,.31-0.95.33-0.93.35-0.85.35-0.89.38-0.44.2-0.43.2-0.21.1-0.21.1-0.21.11-0.21.11-0.81.43-0.78.45-0.75.46-0.74.46-0.7.49-0.67.5-0.64.52-0.58.56-0.29.27-0.28.27-0.14.14-0.14.14-0.24.25m55.74,1.71-0.55-.41-0.73-.51-0.76-.5-0.39-.24-0.4-.24-0.2-.12-0.2-.12-0.21-.12-0.21-.12-0.86-.47-0.87-.44-0.89-.42-0.91-.4-0.93-.38-0.93-.36-1-.35-1-.33-0.5-.16-0.48-.16H99.41l-0.26-.07-0.26-.07-0.26-.07-1-.27-1.06-.25-1.1-.27-1.08-.2-1.08-.18-1.09-.16-1.1-.14L90,281.05l-0.56,0H88.36L88,280.85H81l-1.11.08-1.11.1-0.55.06-0.55.06h-1.1l-1.09.16-1.07.19-1.09.35-1,.23-1,.25-1,.27-1,.29-1,.31-0.48.16-0.48.17-0.24.08-0.24.09-0.24.09-0.26.06-0.92.36-0.89.38-0.87.39-0.84.41-0.82.46-0.79.44-0.76.46-0.74.47-0.36.24-0.35.25-0.16.14-0.17.13-0.17.13-0.17.13-0.64.51m51.37,1.71-0.93-.54-0.83-.45-0.85-.44-0.88-.42-0.9-.4-0.93-.39-1-.37-0.24-.09-0.24-.09-0.24-.09-0.25-.09-0.49-.17-0.5-.16-1-.31-1-.29-1-.27-1-.25-1.06-.23-1.07-.21L93.65,285l-1.18-.16H91.35l-0.56-.07-0.55-.23-1.12-.1L88,284.37l-1.12-.06H82.39l-1.13,0H79l-1.1.12-1.09.14-1.08.16-1.07.18-1.06.2-1,.22-1,.24-1,.26-0.25.07-0.34.22-0.25.07-0.25.07-0.5.15-0.49.15-1,.32-0.94.34-0.92.35L64.8,288l-0.87.39-0.85.41-0.83.43-0.8.44-0.2.11-0.15.08-0.19.12-0.19.12-0.56.35m45.8,1.73h-0.09l-0.45-.21-0.45-.2-0.93-.4-0.94-.37-1-.35-1-.33-1-.32-1-.3-1-.28L97,289.15l-0.27-.06L96.5,289,96.23,289,96,288.91l-0.51-.06-0.54-.11-1.09-.19-1.09-.17-1.1-.15-1.1-.13L89.42,288l-1.13-.14-1.12-.06-1.13,0H81.52l-1.11.1-1.11.09-1.1.11-1.09.13-1.08.18-1.08.18H74.42l-0.27,0-0.27,0-0.53.21-0.53.11-1,.24-1,.26-1,.28-1,.29-1,.31-0.94.33-0.93.35-0.91.36-0.22.1-0.22.1-0.22.1-0.22.1-0.43.2-0.43.21H63.22m38.41,1.72-0.24-.06-0.5-.16-0.5-.16-0.51-.15-0.51-.15-1-.28-1-.26-1.06-.24-1.07-.22-1.08-.2L93,291.85l-1.1-.16-1.11-.14-0.56-.06-0.56,0H88.59l-1.13-.07H81.79l-1.12.06-1.12.08L79,291.46l-0.56.06-0.55.06-0.55.07-1.09.15L75.2,292l-1.06.19-1,.21-1,.23-1.11.25-1,.27-1,.29-0.49.15-0.51.16-0.65.22M95,295.67l-1.76-.31H92.16l-0.56-.07L91,295.05l-1.11-.12-1.1-.08-1.12-.07-1.12,0H79.85l-1.11.1-1.1.12-1.09.14-1.08.16-1.65.3m-18-7.39-2.29-2.31-1.75-2.46L50.63,281,50,278.3v-2.66l0.6-2.64,1.19-2.57L53.58,268l2.3-2.31,2.8-2.12,3.25-1.89L65.58,260l4-1.34m0,0,1.8-.44,1.85-.39,0.93-.17,0.94-.15,0.47-.07L76,257.4l0.48-.06,0.52-.06,1.92-.2,1.93-.14,1.91-.09h5.88L90.6,257l1.9,0.23,1.87,0.3,1.84,0.36L97,258.27l0.9,0.22,0.45,0.11,0.45,0.12,0.22,0.06,0.27,0.07,0.22,0.06L99.77,259l1.72,0.53,1.66,0.59,1.59,0.64,1.53,0.69,0.77,0.36,0.72,0.38,0.28,0.19,0.35,0.2,0.17,0.1,0.17,0.1,0.17,0.1,0.17,0.1,1.31,0.84,1.22,0.87,1.13,0.91,1,1L114.2,267l0.46,0.5,0.22,0.25L115.1,268l0.21,0.26,0.2,0.26,0.74,1,0.63,1.06,0.52,1.08,0.41,1.1m-8,17.21,2.86-2.06,2.34-2.27,1.78-2.44,1.19-2.55,0.57-2.62-0.06-2.64-0.59-2.56m-8,17.21-1.31.83-1.39.78-1.46.74-1.53.69-0.8.32-0.81.31-0.21.08-0.21.08L102,294l-0.21.07-0.42.14-0.43.14-1.71.54-1.77.46-1.81.4-1.85.34-0.94.15-1,.13-0.48.06-0.48.06-0.48,0H89.91l-1.88.18-1.93.09H81.22l-1-.06L80,296.65H78.35l-1.91-.22-1.88-.28-1.84-.34-1.81-.41L70,295l-0.89-.24-0.22-.06-0.22-.06-0.22-.06-0.22-.06-0.43-.13-0.43-.14-1.67-.57-1.61-.62-1.55-.68L61,291.66l-0.72-.38-0.67-.43-0.17-.1-0.17-.1-0.17-.1-0.17-.1-0.33-.21L58.31,290,57,289.2l-1.18-.9M44,255.44L30.91,283.73m0,0-0.17,1.12,0.51,1.1,1.13,0.9m0,0,35.87,20.76m0,0,1.61,0.65,1.9,0.29,2-.1m0,0,49-7.58m0,0,1.78-.48,1.39-.8,0.83-1m0,0L139.9,270.3m0,0,0.14-1.17-0.51-1.1-1.13-.93m0,0-35.86-20.71m0,0-1.61-.65L99,245.45l-2,.1m0,0-49,7.58m0,0-1.78.48-1.39.8-0.83,1m119.3,59.19-0.06,1.84v1.29l-0.05.43-0.13.87-0.16.87-0.4,1.72L162,323.33l-0.3.85-0.33.85-0.36.85-0.38.84-0.85,1.67-1,1.65-0.52.82-0.55.81-0.28.4-0.29.4-0.3.4-0.3.4-1.33,1.58-1.37,1.55-0.72.76-0.75.75-0.38.37-0.39.37-0.4.37-0.4.37-1.68,1.46-1.76,1.41-0.91.69-0.94.68-0.48.34-0.48.33-0.49.33-0.49.33-2,1.28-2.1,1.24-1.08.6-1.1.59-0.56.29-0.56.29-0.57.28-0.59.32-2.33,1.09-2.4,1-1.22.5-1.24.49-0.63.24-0.63.23-0.63.23-0.64.23-2.59.87-2.64.81-1.34.39-1.35.37-0.68.18-0.68.18-0.69.17-0.69.17-2.78.64-2.82.57-1.42.26-1.43.25-0.72.12-0.72.11-0.72.11-0.72.11-2.91.38-2.93.32L96,360l-1.48.12-0.74.05H91.58l-3,.12-3,.06H79.65l-3-.14L73.7,360l-1.47-.13-1.44,0L70,359.74l-0.73-.08-0.73-.09-0.73-.09-2.89-.4-2.86-.46-1.42-.25-1.41-.27-0.7-.14-0.7-.14-0.7-.15-0.69-.15-2.71-.67-2.7-.71-1.33-.37-1.32-.39-0.65-.2-0.65-.2-0.65-.21-0.64-.21-2.54-.88-2.47-.93-1.21-.49-1.2-.5-0.59-.26-0.59-.26L36.64,351,36,350.73l-2.27-1.09-2.19-1.14-1.07-.59-1-.6-1-.61-1-.62-2-1.28-1.86-1.32-1.77-1.36-1.68-1.4-0.41-.36-0.4-.36L19,339.64l-0.39-.36-0.76-.73-0.76-.7-1.39-1.5-1.29-1.53-0.31-.39-0.3-.39-0.29-.39-0.29-.39-0.55-.79-0.52-.79-1-1.6-0.86-1.62-0.2-.41-0.19-.41-0.18-.41-0.18-.41L9.25,326l-0.31-.83-0.5-1.71L8,321.78l-0.3-1.68-0.19-1.7" fill="none" stroke="#000" stroke-linecap="round" stroke-linejoin="round" stroke-width="0.71"/>
    <path d="M7.52,318.4l-0.06-1v-1m0-3.52v0m0,3.13v0.37m155.91-1.71V314.3M7.44,312.55v1.91l0.08,0.85v0.42l0.06,0.42,0.06,0.42L7.84,317l0.35,1.68,0.47,1.68,0.28,0.84L9.23,322l0.16,0.41,0.17,0.41,0.18,0.41,0.18,0.41,0.8,1.64,0.91,1.61,0.49,0.8,0.52,0.79,0.27,0.4,0.28,0.39,0.28,0.39,0.29,0.39L15,331.65l1.33,1.52,1.43,1.48,1.53,1.45,0.4,0.36,0.37,0.39,0.41,0.35,0.42,0.35,0.85,0.7,0.87,0.69,1.81,1.34,1.9,1.3,0.48,0.27,0.49,0.32,0.25,0.16,0.25,0.16L28,342.66l0.3,0.19,1,0.61,1,0.6,2.15,1.17,2.23,1.12,0.57,0.27,0.64,0.23,0.58,0.27L37,347.38l1.23,0.47,1.19,0.5,2.44,1,2.5,0.91,1.27,0.43L47,351.11l0.65,0.21,0.65,0.2,0.66,0.2,0.66,0.19,2.67,0.74L55,353.33l1.38,0.32,1.39,0.3,0.7,0.15,0.7,0.14,0.7,0.14,0.71,0.13,2.84,0.5,2.87,0.43,2.9,0.37L72,356.13l1.47,0.13L75,356.37l1.48,0.1L78,356.55l3,0.11h7.49l1.49-.05,3-.15,3-.22,0.74-.06,0.74-.07,0.74-.07,0.74-.08,1.47-.17,1.46-.18,2.9-.41,2.87-.47,1.42-.26,1.42-.28,0.71-.14,0.7-.15,0.7-.15,0.7-.16,2.76-.66,2.71-.72,1.34-.38,1.33-.4,0.66-.2,0.66-.21,0.65-.21,0.65-.22,2.56-.9,2.5-1,2.44-1,2.37-1.06,0.58-.27,0.58-.28,0.57-.28,0.57-.28,1.12-.57,1.1-.59,2.15-1.21,2.07-1.26,0.51-.32,0.5-.32,0.49-.33,0.49-.33,1-.67,0.94-.68,1.58-1.39,1.72-1.42,0.42-.36,0.41-.36,0.2-.18,0.2-.18,0.2-.18,0.2-.18,0.78-.74,0.75-.75,1.43-1.53,1.33-1.56,0.63-.79,0.6-.77,0.29-.4,0.28-.4,0.28-.4,0.27-.41,1-1.64,0.88-1.7,0.41-.84,0.39-.84,0.2-.37,0.18-.42,0.17-.42,0.16-.43m1.67-7.59v0.73l-0.06.53L163,315.31l-0.19,1.06-0.51,2.11-0.68,2.09m-1.46-3.9-0.18.46-0.44,1-0.48,1-0.26.51-0.27.51-0.28.51-0.29.51-0.6,1-0.64,1-0.34.5-0.35.49-0.36.49-0.37.49-0.76,1-0.8,1-0.84.95L152,329l-0.23.23-0.23.23-0.23.23-0.23.23-0.47.46-0.48.45-2,1.78L146,334.36l-0.56.42-0.57.42-0.29.21-0.29.21-0.29.21-0.29.2-1.2.81-1.23.79-2.55,1.53-2.67,1.46-0.34.18-0.34.18-0.35.17-0.35.17-0.7.34-0.71.34-1.43.66-1.46.64-1.48.62-1.51.6-0.76.29-0.77.29-0.39.14-0.39.14-0.39.14-0.39.14-3.26,1-3.25,1-1.66.45-1.68.43-0.42.1-0.42.1-0.42.1-0.42.1-0.85.19-0.85.19-3.45.69-3.5.59-0.88.13-0.89.13-0.44.06-0.45.06-0.45.06-0.45.06-1.79.21-1.79.19-3.6.3-3.63.21H80.63L78.82,352H75.2l-3.6-.29L68,351.15l-1.77-.23-1.76-.26L64,350.59l-0.44-.07-0.44-.07-0.44-.07-0.87-.15L61,350.08l-3.42-.67-3.36-.77-0.83-.21-0.83-.21-0.41-.11L51.77,348l-0.44-.15-0.41-.11-1.62-.46-1.6-.49-3.13-1-3-1.12-0.37-.15-0.37-.15-0.37-.15L40,344.08l-0.73-.3-0.73-.31-1.43-.62-1.41-.65-1.38-.67L33,340.85l-0.67-.35-0.66-.36L31.38,340,31,339.77l-0.32-.18-0.32-.18-2.49-1.5-2.37-1.57-1.13-.81-1.1-.82-0.27-.2-0.27-.21-0.27-.21-0.27-.24-0.52-.42L21.19,333l-1-.86-1-.88-0.92-.89-0.88-.9L17,329l-0.42-.46-0.21-.23-0.2-.23L16,327.85l-0.2-.23-0.8-.91-0.73-.95-1.36-1.91-1.18-2-0.14-.25-0.13-.25-0.13-.25-0.13-.25L11,320.4l-0.29-.55-0.45-1-0.4-1-0.36-1-0.32-1L9,315.34l-0.1-.49-0.06-.24" fill="none" stroke="#000" stroke-linecap="round" stroke-linejoin="round" stroke-width="0.71"/>
    <polyline points="161.56 320.53 162.69 316.75 163.28 312.92" fill="none" stroke="#000" stroke-linecap="round" stroke-linejoin="round" stroke-width="0.71"/>
    <polyline points="18.21 323.25 18.38 323.43 18.68 323.75 18.96 324.06 19.27 324.37 19.57 324.68 20.82 325.9 22.14 327.1 23.54 328.27 25 329.42 25.38 329.7 25.75 329.98 26.14 330.26 26.54 330.54 27.32 331.08 28.13 331.62 29.77 332.68 31.48 333.7 32.37 334.2 33.26 334.69 33.7 334.94 34.16 335.18 34.63 335.42 35.09 335.65 36.98 336.58 38.91 337.46 40.88 338.31 42.92 339.12 43.45 339.32 43.95 339.51 44.48 339.7 45.01 339.89 46.06 340.26 47.13 340.62 49.3 341.31 51.49 341.96 52.62 342.27 53.73 342.56 54.3 342.71 54.88 342.85 55.45 342.99 56.02 343.13 58.33 343.65 60.66 344.12 61.84 344.34 63.02 344.55 63.63 344.65 64.22 344.75 64.83 344.85 65.42 344.94" fill="none" stroke="#000" stroke-linecap="round" stroke-linejoin="round" stroke-width="0.71"/>
    <polyline points="11.09 317 11.26 317.39 11.41 317.73 11.57 318.07 11.74 318.42 11.91 318.76 12.28 319.44 12.65 320.11 13.46 321.45 14.35 322.78 14.82 323.43 15.31 324.09 15.56 324.41 15.82 324.74 16.09 325.06 16.34 325.38 17.45 326.65 18.64 327.9 19.89 329.12 21.2 330.32 21.55 330.62 21.89 330.91 22.25 331.21 22.59 331.5 23.32 332.07 24.05 332.65 25.57 333.77 27.16 334.85 27.96 335.39 28.8 335.92 29.21 336.18 29.64 336.44 30.07 336.69 30.5 336.95 32.27 337.95 34.09 338.91 35.95 339.84 37.88 340.73 38.87 341.16 39.85 341.59 40.87 342 41.88 342.41 43.95 343.19 46.05 343.93 47.13 344.28 48.22 344.63 48.77 344.8 49.3 344.96 49.85 345.13 50.41 345.29 52.65 345.91 54.91 346.48 57.2 347.02 59.52 347.51 60.12 347.62 60.7 347.74 61.3 347.85 61.88 347.96 63.08 348.16 64.27 348.36 66.67 348.71 69.08 349.02 70.31 349.16 71.53 349.29 72.75 349.4 73.97 349.51 76.44 349.68 78.92 349.81 81.39 349.89 83.88 349.92 85.13 349.92 86.36 349.91 87 349.9 87.61 349.88 88.23 349.87 88.86 349.85 91.33 349.74 93.81 349.59 96.28 349.39 98.72 349.14 99.34 349.07 99.95 349 100.56 348.93 101.17 348.85 102.39 348.68 103.59 348.51 106 348.13 108.38 347.7 109.56 347.46 110.73 347.22 111.31 347.1 111.91 346.97 112.48 346.84 113.06 346.7 115.36 346.14 117.64 345.54 119.86 344.9 122.06 344.21 122.61 344.03 123.14 343.85 123.69 343.66 124.22 343.48 125.28 343.1 126.33 342.71 128.41 341.9 130.44 341.05 131.43 340.61 132.41 340.16 132.9 339.94 133.38 339.71 133.87 339.48 134.34 339.24 136.22 338.28 138.03 337.29 139.81 336.27 141.5 335.21 141.93 334.94 142.34 334.66 142.75 334.39 143.16 334.12 143.97 333.56 144.75 332.99 146.26 331.84 147.72 330.67 148.43 330.07 149.12 329.46 149.44 329.15 149.78 328.85 150.12 328.54 150.44 328.23 151.69 326.97 152.88 325.69 153.97 324.39 155.01 323.07 155.26 322.74 155.5 322.4 155.75 322.07 155.97 321.73 156.44 321.05 156.87 320.37 157.68 319.01" fill="none" stroke="#000" stroke-linecap="round" stroke-linejoin="round" stroke-width="0.71"/>
    <polyline points="8.23 313.83 8.63 315.71 8.81 316.41 9.02 317.11 9.23 317.81 9.48 318.51 10.03 319.9 10.64 321.27 11.35 322.63 12.12 323.98 12.32 324.31 12.53 324.65 12.74 324.98 12.96 325.32 13.41 325.98 13.88 326.63 14.88 327.93 15.96 329.21 16.52 329.85 17.09 330.47 17.39 330.78 17.7 331.1 18 331.4 18.3 331.71 19.59 332.93 20.93 334.12 22.36 335.28 23.82 336.42 24.59 336.98 25.38 337.53 25.77 337.8 26.18 338.07 26.57 338.34 26.98 338.61 28.64 339.66 30.36 340.68 32.15 341.67 33.98 342.62 34.45 342.86 34.91 343.09 35.4 343.32 35.88 343.54 36.84 343.99 37.8 344.43 39.8 345.27 41.84 346.08 42.87 346.47 43.91 346.85 44.44 347.04 44.97 347.22 45.51 347.41 46.03 347.58 48.2 348.28 50.4 348.93 52.63 349.54 54.91 350.11 55.48 350.24 56.05 350.38 56.63 350.51 57.22 350.63 58.38 350.88 59.55 351.12 61.91 351.56 64.28 351.96 64.89 352.05 65.5 352.14 66.09 352.23 66.69 352.31 67.91 352.47 69.13 352.62 70.34 352.75 71.56 352.88 72.17 352.93 72.8 352.99 73.41 353.04 74.03 353.09 76.5 353.26 78.97 353.39 81.44 353.46 83.92 353.5 84.55 353.5 85.17 353.49 85.8 353.49 86.42 353.48 87.67 353.46 88.91 353.42 91.39 353.32 93.86 353.16 96.31 352.97 98.78 352.72 99.39 352.65 100 352.58 100.61 352.51 101.22 352.43 102.44 352.27 103.64 352.1 106.05 351.72 108.42 351.29 109.61 351.06 110.78 350.82 111.38 350.7 111.97 350.57 112.55 350.44 113.13 350.31 115.42 349.76 117.7 349.16 119.94 348.52 122.14 347.84 122.69 347.66 123.22 347.49 123.78 347.3 124.31 347.12 125.38 346.74 126.44 346.36 128.51 345.56 130.54 344.72 131.54 344.28 132.53 343.84 133.03 343.62 133.51 343.39 134 343.16 134.49 342.93 136.38 341.98 138.21 340.99 139.99 339.98 141.72 338.93 142.13 338.66 142.56 338.39 142.97 338.12 143.38 337.85 144.19 337.3 144.99 336.74 146.53 335.6 148 334.43 148.72 333.84 149.43 333.23 149.76 332.93 150.1 332.63 150.44 332.32 150.78 332.01 152.06 330.76 153.26 329.49 154.41 328.2 155.47 326.89 155.97 326.23 156.47 325.56 156.94 324.89 157.38 324.21 158.24 322.85 159 321.47 159.69 320.08 160.31 318.67 160.47 318.32 160.59 317.96 160.72 317.6 160.85 317.25 161.09 316.54 161.31 315.82 161.56 314.95" fill="none" stroke="#000" stroke-linecap="round" stroke-linejoin="round" stroke-width="0.71"/>
    <polyline points="146.54 328.41 142.16 331.6 137.29 334.53 131.97 337.19 126.25 339.55 120.16 341.59 113.77 343.3 107.13 344.65 100.3 345.64 93.33 346.25 86.31 346.49 79.28 346.35 72.28 345.83 65.42 344.94" fill="none" stroke="#000" stroke-linecap="round" stroke-linejoin="round" stroke-width="0.71"/>
    <polyline points="122.58 337.36 116.28 339.23 109.72 340.75 102.92 341.9 95.97 342.67 88.94 343.06 81.86 343.06 74.81 342.67 67.86 341.9 61.08 340.75 54.51 339.23 48.22 337.36" fill="none" stroke="#000" stroke-linecap="round" stroke-linejoin="round" stroke-width="0.71"/>
    <polyline points="140.07 280.99 140.03 281.42 139.88 281.84" fill="none" stroke="#000" stroke-linecap="round" stroke-linejoin="round" stroke-width="0.71"/>
    <line x1="139.87" y1="281.84" x2="126.74" y2="310.13" fill="none" stroke="#000" stroke-linecap="round" stroke-linejoin="round" stroke-width="0.71"/>
    <polyline points="126.75 310.13 125.92 311.16 124.53 311.97 122.73 312.45" fill="none" stroke="#000" stroke-linecap="round" stroke-linejoin="round" stroke-width="0.71"/>
    <line x1="122.73" y1="312.45" x2="73.73" y2="320.03" fill="none" stroke="#000" stroke-linecap="round" stroke-linejoin="round" stroke-width="0.71"/>
    <polyline points="73.73 320.03 71.78 320.13 69.86 319.83 68.25 319.18" fill="none" stroke="#000" stroke-linecap="round" stroke-linejoin="round" stroke-width="0.71"/>
    <line x1="68.26" y1="319.18" x2="32.38" y2="298.47" fill="none" stroke="#000" stroke-linecap="round" stroke-linejoin="round" stroke-width="0.71"/>
    <polyline points="32.38 298.47 31.16 297.41 30.73 296.15" fill="none" stroke="#000" stroke-linecap="round" stroke-linejoin="round" stroke-width="0.71"/>
    <polyline points="170.44 293.2 170.15 297.26 169.28 301.29 167.84 305.26 165.82 309.15 163.28 312.93 160.19 316.57 156.59 320.06 152.5 323.36 147.97 326.46 143 329.32 137.63 331.95 131.91 334.3 125.86 336.38 119.56 338.16 113 339.64 106.28 340.8 99.39 341.63 92.42 342.13 85.39 342.3 78.38 342.13 71.39 341.63 64.53 340.8 57.78 339.64 51.23 338.16 44.92 336.38 38.88 334.3 33.16 331.95 27.8 329.32 22.84 326.46 18.29 323.36 14.21 320.06 10.61 316.57 7.53 312.93 4.96 309.15 2.96 305.26 1.51 301.28 0.65 297.26 0.35 293.2" fill="none" stroke="#000" stroke-linecap="round" stroke-linejoin="round" stroke-width="0.71"/>
    <polyline points="3.25 275.87 1.72 279.83 0.76 283.84 0.36 287.9 0.56 291.95 1.33 295.99 2.69 299.97 4.59 303.87 7.05 307.67 10.05 311.34 13.57 314.86 17.57 318.19 22.05 321.32 26.95 324.23 32.24 326.9 37.91 329.3 43.9 331.43 50.16 333.26 56.67 334.79 63.38 336 70.25 336.88 77.2 337.44 84.22 337.67 91.25 337.55 98.23 337.11 105.14 336.33 111.89 335.23 118.48 333.8 124.83 332.07 130.93 330.04 136.69 327.73 142.13 325.15 147.16 322.32 151.78 319.26 155.94 315.99 159.63 312.53 162.79 308.91 165.44 305.15 167.53 301.28 169.07 297.32 170.04 293.3 170.43 289.25 170.24 285.19 169.47 281.16 168.12 277.18 166.21 273.27 163.74 269.47 160.74 265.8 157.22 262.29 153.22 258.95 148.75 255.82 143.84 252.91 138.54 250.25 132.88 247.84 126.89 245.72 120.63 243.89 114.11 242.36 107.41 241.15 100.55 240.26 93.58 239.7 86.56 239.48 79.55 239.59 72.56 240.04 65.66 240.82 58.9 241.92 52.31 243.34 45.95 245.07 39.88 247.1 34.09 249.42 28.66 252 23.64 254.82 19.02 257.89 14.86 261.15 11.18 264.61 8 268.23 5.36 271.99 3.25 275.87" fill="none" stroke="#000" stroke-linecap="round" stroke-linejoin="round" stroke-width="0.71"/>
    <line x1="170.43" y1="293.2" x2="170.43" y2="288.57" fill="none" stroke="#000" stroke-linecap="round" stroke-linejoin="round" stroke-width="0.71"/>
    <line x1="0.35" y1="288.57" x2="0.35" y2="293.2" fill="none" stroke="#000" stroke-linecap="round" stroke-linejoin="round" stroke-width="0.71"/>
    <line x1="139.87" y1="281.84" x2="139.87" y2="270.27" fill="none" stroke="#000" stroke-linecap="round" stroke-linejoin="round" stroke-width="0.71"/>
    <line x1="126.74" y1="298.56" x2="126.74" y2="310.13" fill="none" stroke="#000" stroke-linecap="round" stroke-linejoin="round" stroke-width="0.71"/>
    <line x1="32.38" y1="286.9" x2="32.38" y2="298.47" fill="none" stroke="#000" stroke-linecap="round" stroke-linejoin="round" stroke-width="0.71"/>
    <line x1="68.26" y1="319.18" x2="68.26" y2="307.61" fill="none" stroke="#000" stroke-linecap="round" stroke-linejoin="round" stroke-width="0.71"/>
    <line x1="122.73" y1="312.45" x2="122.73" y2="300.87" fill="none" stroke="#000" stroke-linecap="round" stroke-linejoin="round" stroke-width="0.71"/>
    <line x1="73.73" y1="308.46" x2="73.73" y2="320.03" fill="none" stroke="#000" stroke-linecap="round" stroke-linejoin="round" stroke-width="0.71"/>
  </g>
  <g id="3f5cf489-22cc-46f5-9237-b06989445f26" data-name="5e00dbdc-c902-494e-b607-a3f678d9d9f6">
    <path d="M125.75,153.74s4.23,3.65,4.93,7.42l-0.08,26.06-7.13,9.83,6.28,7.31V222l-12,12.54v4.81s-4.87,14.91-32.38,14.91-32.62-15.06-32.62-15.06v-6.27L43.46,221l-0.09-12.58,0.34-6,4.53-4.06-7.49-7V166l4.71-11.62s2.22-27.67,39.92-29C85.38,125.36,121.94,124.49,125.75,153.74Z" fill="#fff"/>
    <g>
      <polygon points="123.47 197.05 129.88 204.6 129.88 222.28 110.95 241.83 103.09 244.42 66.37 243.7 58.61 240.49 43.1 220.84 43.1 207.7 43.62 202.42 48.27 198.49 62.36 211.82 69.96 214.88 71.65 213.84 106.95 212.18 108.06 212.62 115.37 209.36 115.3 207.99 123.47 197.05" fill="none" stroke="#000" stroke-linecap="round" stroke-linejoin="round" stroke-width="0.71"/>
      <polyline points="43.1 208.22 58.51 227.25 65.96 230.77 102.99 231.59 110.64 229.11 129.88 209.67" fill="none" stroke="#000" stroke-miterlimit="10" stroke-width="0.71"/>
      <line x1="58.51" y1="227.25" x2="58.61" y2="240.49" fill="none" stroke="#000" stroke-miterlimit="10" stroke-width="0.71"/>
      <line x1="65.96" y1="230.77" x2="66.37" y2="243.7" fill="none" stroke="#000" stroke-miterlimit="10" stroke-width="0.71"/>
      <line x1="102.99" y1="231.59" x2="103.09" y2="244.42" fill="none" stroke="#000" stroke-miterlimit="10" stroke-width="0.71"/>
      <line x1="110.64" y1="229.11" x2="110.95" y2="241.84" fill="none" stroke="#000" stroke-miterlimit="10" stroke-width="0.71"/>
    </g>
    <g>
      <path d="M52.39,233.9S58.1,249,85.3,249a48.28,48.28,0,0,0,25.65-7.13" fill="none" stroke="#000" stroke-miterlimit="10" stroke-width="0.71"/>
      <path d="M67.83,243.73a52.77,52.77,0,0,0,17.47,2.63,50.49,50.49,0,0,0,14.33-1.94" fill="none" stroke="#000" stroke-miterlimit="10" stroke-width="0.71"/>
      <path d="M52.39,236.49s5.71,15.06,32.91,15.06c25.59,0,32.67-14.61,32.67-14.61" fill="none" stroke="#000" stroke-miterlimit="10" stroke-width="0.71"/>
      <path d="M52.39,232.61v6.6s5.71,15.06,32.91,15.06S118,239,118,239v-4.41" fill="none" stroke="#000" stroke-miterlimit="10" stroke-width="0.71"/>
    </g>
    <g>
      <path d="M51.17,201.43c0.14,6.07,5.17,11.86,5.17,11.86S63.75,225,84.61,225.84s33.14-11.59,33.79-17a23.78,23.78,0,0,0,3.1-8.55" fill="none" stroke="#000" stroke-miterlimit="10" stroke-width="0.71"/>
      <path d="M52.39,206.77s5.71,15.06,32.91,15.06,35.45-18.26,35.45-18.26" fill="none" stroke="#000" stroke-miterlimit="10" stroke-width="0.71"/>
      <path d="M106.4,212.25s-7.93,4.62-20.89,4.62c-26.69,0-33.12-14.41-33.12-14.41" fill="none" stroke="#000" stroke-miterlimit="10" stroke-width="0.71"/>
    </g>
    <polyline points="40.75 165.98 40.75 191.38 62.36 211.82 69.96 214.88 71.65 213.84 106.95 212.18 108.27 212.7 115.37 209.36 115.37 208.22 130.6 187.22 130.68 161.15" fill="none" stroke="#000" stroke-miterlimit="10" stroke-width="0.71"/>
    <path d="M45.52,155.36A60.14,60.14,0,0,0,40.75,166s14,1.7,21,19.08l8.37,2.16s15.83-9.72,38.17-2.17l7-2.79s5.62-17.69,15.38-21.1c0,0,.73-1-5.18-7.9" fill="none" stroke="#000" stroke-miterlimit="10" stroke-width="0.71"/>
    <line x1="61.73" y1="185.06" x2="62.36" y2="211.82" fill="none" stroke="#000" stroke-miterlimit="10" stroke-width="0.71"/>
    <line x1="70.1" y1="187.22" x2="70.68" y2="214.47" fill="none" stroke="#000" stroke-miterlimit="10" stroke-width="0.71"/>
    <line x1="108.27" y1="185.05" x2="108.27" y2="212.7" fill="none" stroke="#000" stroke-miterlimit="10" stroke-width="0.71"/>
    <line x1="115.3" y1="182.25" x2="115.37" y2="209.36" fill="none" stroke="#000" stroke-miterlimit="10" stroke-width="0.71"/>
    <g>
      <ellipse cx="85.51" cy="143.36" rx="25.24" ry="14.48" fill="none" stroke="#000" stroke-miterlimit="10" stroke-width="0.71"/>
      <ellipse cx="85.51" cy="153.25" rx="39.99" ry="27.62" fill="none" stroke="#000" stroke-miterlimit="10" stroke-width="0.71"/>
      <path d="M61.8,148.22s23.78-16.11,47,.83" fill="none" stroke="#000" stroke-miterlimit="10" stroke-width="0.71"/>
    </g>
  </g>
  <ellipse cx="85.3" cy="122.36" rx="8.44" ry="3.3" fill="#fff" stroke="#000" stroke-linecap="round" stroke-miterlimit="10" stroke-width="0.71"/>
  <ellipse cx="69.58" cy="69.72" rx="8.47" ry="3.31" fill="#fff" stroke="#000" stroke-linecap="round" stroke-miterlimit="10" stroke-width="0.71"/>
  <path d="M109.55,97.32s0.51-1.62-4.83-10.62h-7.9c-4.49,9-4.25,10.62-4.25,10.62,0,3,3.8,5.52,8.5,5.52S109.55,100.37,109.55,97.32Zm-14.17.4c0-1.94,2.54-3.5,5.66-3.5s5.66,1.57,5.66,3.5-2.54,3.5-5.66,3.5S95.38,99.65,95.38,97.72Z" fill="#fff" stroke="#000" stroke-linecap="round" stroke-miterlimit="10"/>
  <g id="cee678c8-4cc3-4868-bbaf-f4c426e4734d" data-name=" Group ">
    <line x1="98.83" y1="78.76" x2="98.83" y2="88.96" fill="none" stroke="#000" stroke-linecap="square" stroke-miterlimit="10" stroke-width="0.71"/>
    <line x1="98.83" y1="78.76" x2="98.83" y2="88.96" fill="none" stroke="#fff" stroke-linecap="square" stroke-miterlimit="10" stroke-width="1.42"/>
    <line x1="100.81" y1="78.76" x2="100.81" y2="88.96" fill="none" stroke="#000" stroke-linecap="square" stroke-miterlimit="10" stroke-width="0.71"/>
    <line x1="100.81" y1="78.76" x2="100.81" y2="88.96" fill="none" stroke="#fff" stroke-linecap="square" stroke-miterlimit="10" stroke-width="1.42"/>
    <line x1="102.79" y1="78.76" x2="102.79" y2="88.96" fill="none" stroke="#000" stroke-linecap="square" stroke-miterlimit="10" stroke-width="0.71"/>
    <line x1="102.79" y1="78.76" x2="102.79" y2="88.96" fill="none" stroke="#fff" stroke-linecap="square" stroke-miterlimit="10" stroke-width="1.42"/>
  </g>
  <path d="M92.3,70.34c0,10.19,1.52,9,1.52,14.17v5.17s0.26,3,7.23,3c6.28,0,6.73-3,6.73-3V84c0-4.26,1.52-3.85,1.52-13.68,0,0-1.78,2.74-8.69,2.74S92.3,70.34,92.3,70.34Z" fill="#fff" stroke="#000" stroke-linecap="round" stroke-linejoin="round" stroke-width="0.71"/>
  <path d="M109.43,69.72c0-1.88-3.86-3.38-8.61-3.38s-8.62,1.51-8.62,3.37,3.86,3.37,8.62,3.37S109.43,71.58,109.43,69.72Zm-15.53,0c0-1.11,3.09-2,6.91-2s6.91,0.9,6.91,2-3.09,2-6.91,2S93.9,70.84,93.9,69.72Z" fill="#fff" stroke="#000" stroke-linecap="round" stroke-miterlimit="10" stroke-width="0.71"/>
  <path d="M87,36c-0.07.85,1.38,7.8,5.57,13.11,3.32,4.2,4.75,6.48,3.81,22.18a21.92,21.92,0,0,0,9.85-.29s1.28-16.77-3.85-24.84a69.65,69.65,0,0,1-6.13-11.28" fill="#fff" stroke="#000" stroke-miterlimit="10" stroke-width="0.71"/>
  <ellipse cx="69.54" cy="89.39" rx="6.98" ry="2.73" fill="#fff" stroke="#000" stroke-linecap="round" stroke-miterlimit="10" stroke-width="0.71"/>
  <path d="M78.28,97.32s0.51-1.62-4.83-10.62H65.54c-4.49,9-4.25,10.62-4.25,10.62,0,3,3.8,5.52,8.5,5.52S78.28,100.37,78.28,97.32Zm-14.17.4c0-1.94,2.54-3.5,5.66-3.5s5.66,1.57,5.66,3.5-2.54,3.5-5.66,3.5-5.65-1.57-5.65-3.5h0Z" fill="#fff" stroke="#000" stroke-linecap="round" stroke-miterlimit="10"/>
  <g id="232df2aa-6cd6-44e9-ac6a-3d276602830d" data-name=" Group 2">
    <line x1="67.31" y1="78.76" x2="67.31" y2="88.96" fill="none" stroke="#000" stroke-linecap="square" stroke-miterlimit="10" stroke-width="0.71"/>
    <line x1="67.31" y1="78.76" x2="67.31" y2="88.96" fill="none" stroke="#fff" stroke-linecap="square" stroke-miterlimit="10" stroke-width="1.42"/>
    <line x1="69.3" y1="78.76" x2="69.3" y2="88.96" fill="none" stroke="#000" stroke-linecap="square" stroke-miterlimit="10" stroke-width="0.71"/>
    <line x1="69.3" y1="78.76" x2="69.3" y2="88.96" fill="none" stroke="#fff" stroke-linecap="square" stroke-miterlimit="10" stroke-width="1.42"/>
    <line x1="71.27" y1="78.76" x2="71.27" y2="88.96" fill="none" stroke="#000" stroke-linecap="square" stroke-miterlimit="10" stroke-width="0.71"/>
    <line x1="71.27" y1="78.76" x2="71.27" y2="88.96" fill="none" stroke="#fff" stroke-linecap="square" stroke-miterlimit="10" stroke-width="1.42"/>
  </g>
  <path d="M61,70.34c0,10.19,1.52,9,1.52,14.17v5.17s0.26,3,7.23,3c6.28,0,6.73-3,6.73-3V84c0-4.26,1.52-3.85,1.52-13.68,0,0-1.78,2.74-8.69,2.74S61,70.34,61,70.34Z" fill="#fff" stroke="#000" stroke-linecap="round" stroke-linejoin="round" stroke-width="0.71"/>
  <path d="M77.92,69.72c0-1.86-3.86-3.37-8.62-3.37s-8.62,1.51-8.62,3.37,3.86,3.37,8.62,3.37S77.92,71.58,77.92,69.72Zm-15.53,0c0-1.11,3.09-2,6.91-2s6.91,0.9,6.91,2-3.09,2-6.91,2S62.39,70.84,62.39,69.72Z" fill="#fff" stroke="#000" stroke-linecap="round" stroke-miterlimit="10" stroke-width="0.71"/>
  <path d="M84,36.15C84,37,84.62,39.58,79.6,46.82c-0.54.77-1,1.48-1.53,2.14C75.16,53,74,54.62,74.3,64.17l0.12,6.9s-3.86,1.38-9.92.1l-0.12-6.65q0-1.55,0-2.93c0-10.06,2.14-13.53,5.72-18.46,0.44-.61.91-1.25,1.4-2,3-4.36,2.61-6.09,2.61-6.15" fill="#fff" stroke="#000" stroke-miterlimit="10" stroke-width="0.71"/>
  <ellipse cx="85.24" cy="142.4" rx="6.98" ry="2.73" fill="#fff" stroke="#000" stroke-linecap="round" stroke-miterlimit="10" stroke-width="0.71"/>
  <path d="M94,150.33s0.51-2.63-4.83-10.63H81.24c-4.49,8-4.25,10.63-4.25,10.63,0,3,3.8,5.52,8.5,5.52S94,153.38,94,150.33Zm-14.16.41c0-1.94,2.54-3.5,5.66-3.5s5.66,1.57,5.66,3.5-2.54,3.5-5.66,3.5S79.82,152.67,79.82,150.74Z" fill="#fff" stroke="#000" stroke-linecap="round" stroke-miterlimit="10"/>
  <g id="9bf14c4b-0b5d-428c-87c1-3f0a6788f19e" data-name=" Group 3">
    <line x1="83.26" y1="130.77" x2="83.26" y2="141.97" fill="none" stroke="#000" stroke-linecap="square" stroke-miterlimit="10" stroke-width="0.71"/>
    <line x1="83.26" y1="130.77" x2="83.26" y2="141.97" fill="none" stroke="#fff" stroke-linecap="square" stroke-miterlimit="10" stroke-width="1.42"/>
    <line x1="85.25" y1="130.77" x2="85.25" y2="141.97" fill="none" stroke="#000" stroke-linecap="square" stroke-miterlimit="10" stroke-width="0.71"/>
    <line x1="85.25" y1="130.77" x2="85.25" y2="141.97" fill="none" stroke="#fff" stroke-linecap="square" stroke-miterlimit="10" stroke-width="1.42"/>
    <line x1="87.22" y1="130.77" x2="87.22" y2="141.97" fill="none" stroke="#000" stroke-linecap="square" stroke-miterlimit="10" stroke-width="0.71"/>
    <line x1="87.22" y1="130.77" x2="87.22" y2="141.97" fill="none" stroke="#fff" stroke-linecap="square" stroke-miterlimit="10" stroke-width="1.42"/>
  </g>
  <path d="M76.73,122.36c0,10.19,1.52,9,1.52,14.17v6.17s0.26,3,7.23,3c6.28,0,6.73-3,6.73-3V136c0-4.26,1.52-3.85,1.52-13.68,0,0-1.78,3.33-8.69,3.33S76.73,122.36,76.73,122.36Z" fill="#fff" stroke="#000" stroke-linecap="round" stroke-linejoin="round" stroke-width="0.71"/>
  <path d="M93.82,122.36c0-1.86-3.86-3.37-8.62-3.37s-8.62,1.51-8.62,3.37,3.86,3.37,8.62,3.37S93.82,124.22,93.82,122.36Zm-15.53,0c0-1.11,3.09-2,6.91-2s6.91,0.9,6.91,2-3.09,2-6.91,2-6.86-.89-6.86-2h0Z" fill="#fff" stroke="#000" stroke-linecap="round" stroke-miterlimit="10" stroke-width="0.71"/>
  <path d="M90.35,36s-0.79,12.66-.22,36.74c0.37,15.51.28,38.88,0.11,51,0,0-5.42,1.4-9.92,0,0,0,.26-35.48-0.1-50.83-0.57-24.2.23-36.77,0.23-37" fill="#fff" stroke="#000" stroke-miterlimit="10" stroke-width="0.71"/>
  <path d="M69.91,0V32.52c0,2,6.81,3.64,15.45,3.64s15.36-1.7,15.36-3.73V0.19" fill="none" stroke="#000" stroke-miterlimit="10"/>
</svg>
