<svg id="31332570-079e-499d-a7e8-5a13df0dc854" data-name="80bbbd99-c6b5-4d49-a6e9-74f58618940e" xmlns="http://www.w3.org/2000/svg" viewBox="0 0 169.62 265.09">
  <title>step_9_composite</title>
  <g opacity="0.25">
    <g>
      <g id="b4930fb1-0cea-40cf-8874-fc72987d5964" data-name="54124002-6bc7-48b6-85d7-6834c6222a83">
        <path d="M69.52,109.66a24.44,24.44,0,0,1,.32-5.26l1.53-1s1.52-1.35,1.52-11.17h-17c0,10.13,1.55,11.13,1.55,11.13l1.53,1c0.36,1.68.57,7.66,0,9.58l-1.53.72v5.85h7" fill="#fff" stroke="#000" stroke-linejoin="round" stroke-width="0.71"/>
        <line x1="58.96" y1="104.4" x2="69.87" y2="104.4" fill="none" stroke="#000" stroke-linejoin="round" stroke-width="0.71"/>
        <line x1="58.96" y1="113.98" x2="64.42" y2="113.98" fill="none" stroke="#000" stroke-linejoin="round" stroke-width="0.71"/>
      </g>
      <path id="97a34929-5500-4ede-b323-d0b93cbdde25" data-name="898f822c-ab4e-40b0-bb19-1a05023b1350" d="M59,92.19s-1.58-10.84,6.48-17.84c6.49-5.67,3.68-18.83,3.68-18.83H83.38S84,71.52,75,80.27c-6.76,6.65-4.35,11.91-4.35,11.91H59Z" fill="#fff" stroke="#000" stroke-linejoin="round" stroke-width="0.71"/>
    </g>
    <path d="M94.39,265.09q-0.07-23.73-.21-47.47" fill="none" stroke="#231f20" stroke-miterlimit="10" stroke-width="0.71"/>
    <path d="M116.86,217.63c-0.34,16-.34,31,0,47" fill="none" stroke="#231f20" stroke-miterlimit="10" stroke-width="0.71"/>
    <path d="M54.52,263.61v-46" fill="none" stroke="#231f20" stroke-miterlimit="10" stroke-width="0.71"/>
    <path d="M77.17,217.63c-0.17,15.36-.08,30.72.08,46.07" fill="none" stroke="#231f20" stroke-miterlimit="10" stroke-width="0.71"/>
    <path d="M44.57,160.93H98.9V155h10.4v5.93h17.48V133.16h-4.92c0-6.65-5.14-6.25-5.14-6.25H55.52c-6.4,0-5.74,6.25-5.74,6.25h-5Z" fill="none" stroke="#000" stroke-linejoin="round" stroke-width="0.71"/>
    <line x1="85.68" y1="160.93" x2="85.68" y2="180.77" fill="none" stroke="#000" stroke-linejoin="round" stroke-width="0.71"/>
    <polygon points="138.12 160.93 138.12 180.78 85.68 180.78 33.24 180.78 33.24 160.93 138.12 160.93" fill="none" stroke="#000" stroke-linejoin="round" stroke-width="0.71"/>
    <g>
      <path d="M129.87,217.63H41.73a14.6,14.6,0,0,1-1.35-2.92c-0.05-.66,2-1.3,2-3.21,0-2.43-2.06-3.25-2.06-3.9s2.06-1.49,2.06-3.37-2.06-2.14-2.06-2.87,2.06-1,2.06-3.06-2.06-2.14-2.06-2.94,2.06-1.17,2.06-2.83-2.06-2.46-2.06-3.17,2.81-2.66,2.81-8.59h85.33c0,5.27,2.53,7.8,2.53,8.59s-2,.49-1.61,2.37c0.35,1.66,1.23,1.34,1.23,2.11s-1.9.91-1.9,2.83,1.9,2.33,1.9,3.1-1.9,1.36-1.9,3.28,1.9,2.32,1.9,3-1.9,1.46-1.9,3.73c0,2,2,2.52,2.28,2.91S129.87,217.63,129.87,217.63Z" fill="none" stroke="#000" stroke-linejoin="round" stroke-width="0.71"/>
      <line x1="130.62" y1="189.35" x2="40.32" y2="189.35" fill="none" stroke="#000" stroke-linejoin="round" stroke-width="0.71"/>
      <line x1="40.32" y1="195.38" x2="130.62" y2="193.83" fill="none" stroke="#000" stroke-linejoin="round" stroke-width="0.71"/>
      <line x1="40.54" y1="201.32" x2="130.62" y2="199.77" fill="none" stroke="#000" stroke-linejoin="round" stroke-width="0.71"/>
      <line x1="40.32" y1="207.6" x2="130.62" y2="206.05" fill="none" stroke="#000" stroke-linejoin="round" stroke-width="0.71"/>
    </g>
    <rect x="64.42" y="109.91" width="42.52" height="17.01" fill="#fff" stroke="#000" stroke-linejoin="round" stroke-width="0.71"/>
    <rect x="83.49" y="106.37" width="3.96" height="20.54" fill="#fff" stroke="#000" stroke-linejoin="round" stroke-width="0.71"/>
    <g>
      <polygon points="83.49 104.38 79.53 105.38 79.53 126.92 83.49 126.92 83.49 104.38" fill="#fff" stroke="#000" stroke-linejoin="round" stroke-width="0.71"/>
      <path d="M79.52,105.36s1.33,3,4-1" fill="none" stroke="#000" stroke-linejoin="round" stroke-width="0.71"/>
    </g>
    <g>
      <path id="98a4f605-9323-4d95-985d-98dbb43a3242" data-name="0afa96bf-1aba-475b-a2e7-8581b5d5eed7" d="M90.2,125.36c0-1.94.7-3.19,6.66-3.19,5.66,0,6.66,1.19,6.66,3.19H90.2Z" fill="none" stroke="#000" stroke-linejoin="round" stroke-width="0.71"/>
      <g id="dcc0eb4a-579e-4ad2-8935-4a085f23b476" data-name="dd789bc1-5d20-4a02-b983-39d4c830488f">
        <path d="M100.43,92.19c0,10.16,1.53,11.16,1.53,11.16l1.56,1c0.36,1.68.57,7.66,0,9.58l-1.53.72v5.85h14v-6l-1.53-.55s-0.76-5.84,0-9.58l1.53-1s1.52-1.35,1.52-11.17H100.43Z" fill="#fff" stroke="#000" stroke-linejoin="round" stroke-width="0.71"/>
        <line x1="103.48" y1="104.4" x2="114.39" y2="104.4" fill="none" stroke="#000" stroke-linejoin="round" stroke-width="0.71"/>
        <line x1="103.48" y1="113.98" x2="114.39" y2="113.98" fill="none" stroke="#000" stroke-linejoin="round" stroke-width="0.71"/>
        <path d="M90.2,125.36v1.59h14.64s4.63-.29,1.5-6.37h-1.82s2.76,4.78-1,4.78H90.2Z" fill="#fff" stroke="#000" stroke-linejoin="round" stroke-width="0.71"/>
      </g>
      <path id="778a7c60-07d2-4cd1-a825-a0acafa7708e" data-name="e8302c00-b41f-413b-a6b1-5eb134742693" d="M115.15,92.19s1.31-7.65-8.21-19c-6-7.18-7.16-17.62-7.16-17.62H86.52s0.9,14.33,9,23.1c8.54,9.29,7.15,13.57,7.15,13.57h12.5Z" fill="#fff" stroke="#000" stroke-linejoin="round" stroke-width="0.71"/>
    </g>
    <rect x="61.5" y="0.35" width="46.92" height="55.18" fill="none" stroke="#000" stroke-linejoin="round" stroke-width="0.71"/>
  </g>
  <g>
    <g id="955392c0-c137-4b8e-815e-83df6611547d" data-name="b5e6c8ec-f082-44dc-b83b-3ff5928c2ed2">
      <path d="M141.8,122.7c0.09,10.19,1.63,11.16,1.63,11.16l1.54,1c0.37,1.67.64,7.65,0.09,9.58l-1.52.73,0.05,5.85,14-.13-0.06-6-1.53-.54s-0.82-5.84-.09-9.58l1.52-1s1.51-1.37,1.42-11.19Z" fill="#fff" stroke="#000" stroke-linejoin="round" stroke-width="0.71"/>
      <line x1="144.96" y1="134.88" x2="155.87" y2="134.77" fill="none" stroke="#000" stroke-linejoin="round" stroke-width="0.71"/>
      <line x1="145.05" y1="144.46" x2="155.96" y2="144.35" fill="none" stroke="#000" stroke-linejoin="round" stroke-width="0.71"/>
    </g>
    <path id="6ac83664-47ba-4f37-a0ef-1a36ef102b25" data-name="9e56372a-0ec1-4787-8d34-209f3f12c096" d="M156.52,122.55s0.08-5.91-8.25-16.18c-7-8.61-19.08-14.14-40.94-23.92C89.66,74.55,91.52,55.54,91.52,55.54H78.36s0.09,26.61,17.42,34.13c21,9.12,34.24,15.29,39.5,20.24,9.19,8.64,8.79,12.69,8.79,12.69Z" fill="#fff" stroke="#000" stroke-linejoin="round" stroke-width="0.71"/>
    <g id="8048153f-c8a1-462b-848c-b45f156a00bf" data-name="25c2ebdf-a821-4fa5-9142-dd566d11c1a4">
      <path d="M146.68,151a4.18,4.18,0,0,1,.22,2.7,24.43,24.43,0,0,1,7-.08,3.48,3.48,0,0,1-.16-2.69Z" fill="none" stroke="#000" stroke-linejoin="round" stroke-width="0.71"/>
      <polygon points="157.09 158 144.02 158.16 143.86 156.69 157.18 156.56 157.09 158" fill="none" stroke="#000" stroke-linejoin="round" stroke-width="0.71"/>
    </g>
    <g id="2eebc6dd-380f-4ba5-b1e3-99ee7ba3dfba" data-name="f292ac1e-7d11-4abc-beb1-7e984a7c78bc">
      <path d="M143.86,156.69c0-1.94.67-3.19,6.63-3.25,5.71-.05,6.67,1.19,6.69,3.12Z" fill="none" stroke="#000" stroke-linejoin="round" stroke-width="0.71"/>
      <polygon points="152.77 165.38 148.46 165.41 148.42 158.09 152.74 158.04 152.77 165.38" fill="none" stroke="#000" stroke-linejoin="round" stroke-width="0.71"/>
      <line x1="148.43" y1="160.11" x2="152.74" y2="159.6" fill="none" stroke="#000" stroke-linejoin="round" stroke-width="0.71"/>
      <line x1="148.49" y1="161.47" x2="152.8" y2="160.94" fill="none" stroke="#000" stroke-linejoin="round" stroke-width="0.71"/>
      <line x1="148.4" y1="162.82" x2="152.71" y2="162.28" fill="none" stroke="#000" stroke-linejoin="round" stroke-width="0.71"/>
      <line x1="148.45" y1="164.16" x2="152.76" y2="163.61" fill="none" stroke="#000" stroke-linejoin="round" stroke-width="0.71"/>
    </g>
  </g>
  <g id="e2bf078e-f3cb-4c2d-883c-f662def55547" data-name="1a632663-a130-4137-af59-31be4700f943">
    <g>
      <rect x="9.89" y="55.22" width="149.83" height="103.28" fill="none" stroke="#000" stroke-linecap="round" stroke-linejoin="round" stroke-width="0.71"/>
      <rect x="22.8" y="158.51" width="124.01" height="27.81" fill="none" stroke="#000" stroke-linecap="round" stroke-linejoin="round" stroke-width="0.71"/>
      <rect x="38.69" y="186.31" width="92.23" height="2.98" fill="none" stroke="#000" stroke-linecap="round" stroke-linejoin="round" stroke-width="0.71"/>
      <rect x="29.75" y="189.29" width="110.1" height="6.83" fill="none" stroke="#000" stroke-linecap="round" stroke-linejoin="round" stroke-width="0.71"/>
    </g>
    <g>
      <polygon points="169.26 195.89 139.87 195.89 139.87 189.29 130.93 189.27 130.93 186.29 146.82 186.29 146.82 158.5 159.73 158.5 159.73 55.2 169.26 55.2 169.26 195.89" fill="none" stroke="#000" stroke-linecap="round" stroke-linejoin="round" stroke-width="0.71"/>
      <polygon points="0.35 195.89 29.75 195.89 29.75 189.29 38.69 189.27 38.69 186.29 22.8 186.29 22.8 158.5 9.89 158.5 9.89 55.2 0.35 55.2 0.35 195.89" fill="none" stroke="#000" stroke-linecap="round" stroke-linejoin="round" stroke-width="0.71"/>
    </g>
  </g>
</svg>
