<svg id="d1bc65f7-5f3d-42b7-9aa8-94ce1c9dd00e" data-name="Layer 2" xmlns="http://www.w3.org/2000/svg" viewBox="0 0 170.08 212.6">
  <title>enclosure</title>
  <g id="8ed3cf47-a06d-46ac-bdb0-52ee2717de1a" data-name="lid iso">
    <g>
      <g>
        <path d="M162.39,90.65c0,0.94,0,1.58,0,1.67l0,6.82h0s0-1,0-.94v3a23.42,23.42,0,0,1-4,12.79v-0.15c0,19.47-33.14,38.93-74,38.93-40.64,0-73.46-19.43-73.8-40.58-1-1.85-1.83-2.56-2.36-4.51a6.26,6.26,0,0,1-.71-2.52h0c-0.08-1-.14-2.72-0.14-3.52l0-1.07a5.82,5.82,0,0,1-.14-1.41H7.33V97.62A28,28,0,0,1,7,92.22c-4.61,6.06-7.18,12.45-7.18,19.5,0,27.21,38.07,49.1,85,49.1s85.51-22.13,85.51-49.34C170.39,104.06,167.51,97,162.39,90.65Z" fill="none" stroke="#000" stroke-linecap="round" stroke-linejoin="round"/>
        <path d="M162.36,90.61h0Z" fill="none" stroke="#000" stroke-linecap="round" stroke-linejoin="round" stroke-width="0.71"/>
      </g>
      <path d="M83.31,160.72c-44.85,0-83.89-21.84-83.89-48.79l0.21,4.3C-0.37,143.18,36.24,165,83.2,165s85-21.38,85-48.32V111.4C168.2,138.35,130.92,160.72,83.31,160.72Z" fill="none" stroke="#000" stroke-linecap="round" stroke-linejoin="round"/>
    </g>
    <path d="M10.57,111.83c0,21.28,33,40.85,73.82,40.85s74-19.55,74-39c0,0-11.09,33.91-74.17,33.91S10.57,111.83,10.57,111.83Z" fill="none" stroke="#000" stroke-linecap="round" stroke-linejoin="round" stroke-width="0.71"/>
    <path d="M7.39,100.42c0,22.81,34.68,41.31,77.5,41.31s77.5-18.37,77.5-41.18l0-11.1c0-24.63-34.73-44.6-77.56-44.6S7.22,64.8,7.22,89.44Z" fill="none" stroke="#000" stroke-linecap="round" stroke-linejoin="round" stroke-width="0.71"/>
    <g>
      <path d="M7.52,102.81c0,12.72,29.54,37.3,76.89,37.3,47,0,77.94-23.44,77.94-39" fill="none" stroke="#000" stroke-linecap="round" stroke-linejoin="round" stroke-width="0.71"/>
      <path d="M7.22,96.49c0,19.38,33,41.63,77.19,41.63,46.23,0,78-23.25,78-41.38" fill="none" stroke="#000" stroke-linecap="round" stroke-linejoin="round" stroke-width="0.71"/>
      <path d="M7.22,89.44c-3.5,23.28,33,46.67,77.19,46.67,42.61,0,75.36-19.1,78-45" fill="none" stroke="#000" stroke-linecap="round" stroke-linejoin="round" stroke-width="0.71"/>
      <path d="M162.16,89.44c0,24.63-34.73,44.6-77.56,44.6S7,114.07,7,89.44" fill="none" stroke="#000" stroke-linecap="round" stroke-linejoin="round" stroke-width="0.71"/>
    </g>
    <g>
      <ellipse cx="84.6" cy="88.47" rx="33.46" ry="19.24" fill="none" stroke="#000" stroke-miterlimit="10" stroke-width="0.71"/>
      <path d="M118.1,90.19c-1.52-9.88-15.85-18.21-33.32-19-18.32-.8-33.19,7-33.44,17.51" fill="none" stroke="#000" stroke-miterlimit="10" stroke-width="0.71"/>
      <path d="M117.7,91.9c-2.81-9.11-16.47-16.53-32.91-17.24-17.33-.75-31.56,6.2-33.27,15.84" fill="none" stroke="#000" stroke-miterlimit="10" stroke-width="0.71"/>
      <path d="M117,93.61c-3.91-8.3-16.86-14.84-32.24-15.51C68.51,77.39,55,83.49,52,92.21" fill="none" stroke="#000" stroke-miterlimit="10" stroke-width="0.71"/>
      <path d="M116.05,95.31c-4.79-7.46-17-13.15-31.27-13.78-15.19-.66-28,4.61-32.07,12.41" fill="none" stroke="#000" stroke-miterlimit="10" stroke-width="0.71"/>
      <path d="M114.77,97c-5.46-6.59-16.83-11.46-30-12-14.05-.61-26.06,3.86-31,10.7" fill="none" stroke="#000" stroke-miterlimit="10" stroke-width="0.71"/>
      <path d="M113.13,98.69C107.21,93,96.74,88.94,84.79,88.42c-12.86-.56-24,3.14-29.61,9" fill="none" stroke="#000" stroke-miterlimit="10" stroke-width="0.71"/>
      <path d="M111.08,100.36c-6.12-4.74-15.61-8-26.29-8.51C73.2,91.35,63,94.3,57,99.19" fill="none" stroke="#000" stroke-miterlimit="10" stroke-width="0.71"/>
      <path d="M108.53,102c-6.06-3.78-14.46-6.32-23.74-6.73-10.2-.44-19.31,1.79-25.45,5.66" fill="none" stroke="#000" stroke-miterlimit="10" stroke-width="0.71"/>
      <path d="M105.27,103.67a52.22,52.22,0,0,0-20.49-4.94c-8.64-.38-16.48,1.18-22.42,4" fill="none" stroke="#000" stroke-miterlimit="10" stroke-width="0.71"/>
      <path d="M101,105.3a54.76,54.76,0,0,0-16.21-3.13,51.29,51.29,0,0,0-18.37,2.38" fill="none" stroke="#000" stroke-miterlimit="10" stroke-width="0.71"/>
      <path d="M84.79,105.61a57.29,57.29,0,0,1,9.77,1.26" fill="none" stroke="#000" stroke-miterlimit="10" stroke-width="0.71"/>
      <path d="M84.79,105.61a54.92,54.92,0,0,0-12.13.79" fill="none" stroke="#000" stroke-miterlimit="10" stroke-width="0.71"/>
    </g>
  </g>
</svg>
