<svg id="fcd4d83d-78d2-4ed5-bcae-cd8b84b08e35" data-name="Layer 2" xmlns="http://www.w3.org/2000/svg" viewBox="0 0 170.08 212.6">
  <title>enclosure</title>
  <g>
    <polyline points="131.12 59.77 130.6 56.77 129.49 53.83 127.82 50.98 125.6 48.25 122.87 45.69 119.64 43.32 115.98 41.18 111.92 39.29 107.52 37.67 102.83 36.36 97.91 35.35 92.83 34.68 87.65 34.34 82.43 34.34 77.25 34.68 72.17 35.35 67.25 36.36 62.56 37.67 58.16 39.29 54.1 41.18 50.44 43.32 47.21 45.69 44.48 48.25 42.26 50.98 40.59 53.83 39.48 56.77 38.96 59.77" fill="none" stroke="#000" stroke-linecap="round" stroke-linejoin="round" stroke-width="0.71"/>
    <polyline points="62.93 81.98 58.55 80.41 54.5 78.57 50.84 76.48 47.59 74.16 44.82 71.65 42.55 68.98 40.81 66.17 39.63 63.28 39.01 60.32 38.97 57.34 39.5 54.38 40.6 51.47 42.26 48.66 44.45 45.96 47.15 43.42 50.33 41.08 53.93 38.95 57.93 37.07 62.27 35.45 66.88 34.13 71.73 33.12 76.74 32.42 81.86 32.05 87.02 32.01 92.15 32.3 97.19 32.92 102.08 33.87 106.76 35.12 111.17 36.67 115.24 38.49 118.95 40.56 122.22 42.86 125.04 45.35 127.35 48.01 129.14 50.81 130.37 53.7 131.04 56.65 131.13 59.63 130.65 62.59 129.59 65.5" fill="none" stroke="#000" stroke-linecap="round" stroke-linejoin="round" stroke-width="0.71"/>
    <polyline points="129.59 65.5 127.92 68.42 125.67 71.21 122.88 73.84 119.59 76.25 115.83 78.44 111.67 80.36 107.15 81.98" fill="none" stroke="#000" stroke-linecap="round" stroke-linejoin="round" stroke-width="0.71"/>
    <polyline points="140.07 54.45 140.12 54.77 140.16 55.09" fill="none" stroke="#000" stroke-linecap="round" stroke-linejoin="round" stroke-width="0.71"/>
    <polyline points="29.91 55.09 29.97 54.7 30.03 54.31" fill="none" stroke="#000" stroke-linecap="round" stroke-linejoin="round" stroke-width="0.71"/>
    <polyline points="45.95 30.17 42.14 32.61 38.78 35.26 35.92 38.1 33.57 41.09 31.77 44.21 30.54 47.42 29.88 50.68 29.8 53.97 30.32 57.24 31.41 60.46 33.07 63.6 35.28 66.63 38.02 69.51 41.26 72.22 44.96 74.71 49.09 76.97 53.59 78.98 58.44 80.71 63.56 82.14 68.91 83.26 74.43 84.05 80.06 84.52 85.75 84.64 91.43 84.43 97.04 83.89 102.53 83.01 107.83 81.81 112.88 80.3 117.64 78.5 122.06 76.43 126.08 74.11 129.67 71.56 132.79 68.81 135.4 65.89 137.48 62.83 139 59.66 139.94 56.42 140.31 53.14 140.09 49.86 139.29 46.61 137.91 43.42 135.97 40.33 133.49 37.37 130.5 34.58 127.03 31.98 123.11 29.59 118.78 27.46 114.1 25.59 109.11 24 103.87 22.73 98.43 21.77 92.84 21.14 87.17 20.84 81.48 20.89 75.83 21.27 70.28 21.98 64.88 23.02 59.69 24.37 54.77 26.03 50.18 27.97 45.95 30.17" fill="none" stroke="#000" stroke-linecap="round" stroke-linejoin="round" stroke-width="0.71"/>
    <polyline points="0 168.46 0.29 172.51 1.16 176.54 2.6 180.51 4.61 184.4 7.16 188.18 10.25 191.82 13.85 195.31 17.93 198.61 22.47 201.71 27.44 204.58 32.8 207.2 38.52 209.56 44.56 211.64 50.88 213.42 57.42 214.89 64.16 216.05 71.04 216.88 78.01 217.39 85.03 217.55 92.06 217.39 99.03 216.88 105.91 216.05 112.65 214.9 119.19 213.42 125.51 211.64 131.55 209.56 137.27 207.2 142.63 204.58 147.6 201.71 152.14 198.62 156.23 195.31 159.83 191.83 162.91 188.18 165.47 184.4 167.47 180.51 168.92 176.54 169.79 172.52 170.08 168.46" fill="none" stroke="#000" stroke-linecap="round" stroke-linejoin="round" stroke-width="0.71"/>
    <polyline points="24.91 18.02 20.15 21 15.83 24.2 11.99 27.6 8.64 31.17 5.82 34.89 3.54 38.72 1.81 42.66 0.65 46.66 0.07 50.7 0.07 54.76 0.65 58.81 1.81 62.81 3.54 66.74 5.82 70.58 8.64 74.3 11.99 77.86 15.83 81.26 20.15 84.47 24.91 87.45 30.08 90.2 35.63 92.69 41.51 94.91 47.69 96.84 54.13 98.47 60.77 99.79 67.59 100.78 74.52 101.45 81.53 101.79 88.55 101.79 95.56 101.45 102.49 100.78 109.3 99.79 115.95 98.47 122.39 96.84 128.57 94.91 134.45 92.69 140 90.2 145.17 87.45 149.93 84.47 154.25 81.26 158.09 77.86 161.44 74.3 164.26 70.58 166.54 66.74 168.27 62.81 169.43 58.81 170.01 54.76 170.01 50.7 169.43 46.66 168.27 42.66 166.54 38.72 164.26 34.89 161.44 31.17 158.09 27.6 154.25 24.2 149.93 21 145.17 18.02 140 15.27 134.45 12.78 128.57 10.56 122.39 8.62 115.95 6.99 109.3 5.68 102.49 4.68 95.56 4.01 88.55 3.68 81.53 3.68 74.52 4.01 67.59 4.68 60.77 5.68 54.13 6.99 47.69 8.62 41.51 10.56 35.63 12.78 30.08 15.27 24.91 18.02" fill="none" stroke="#000" stroke-linecap="round" stroke-linejoin="round" stroke-width="0.71"/>
    <line x1="170.08" y1="168.46" x2="170.08" y2="52.73" fill="none" stroke="#000" stroke-linecap="round" stroke-linejoin="round" stroke-width="0.71"/>
    <line y1="52.73" y2="168.46" fill="none" stroke="#000" stroke-linecap="round" stroke-linejoin="round" stroke-width="0.71"/>
    <polyline points="30.03 55.51 30.66 51.97 31.98 48.5 33.96 45.13 36.58 41.92 39.8 38.89 43.59 36.09 47.9 33.55 52.67 31.3 57.84 29.38 63.36 27.8 69.15 26.58 75.13 25.75 81.24 25.3 87.4 25.26 93.53 25.61 99.55 26.35 105.39 27.48 110.97 28.97 116.23 30.82 121.1 32.99 125.52 35.47 129.44 38.21 132.8 41.19 135.56 44.37 137.69 47.7 139.16 51.16 139.96 54.68" fill="none" stroke="#000" stroke-linecap="round" stroke-linejoin="round" stroke-width="0.71"/>
  </g>
</svg>
