<svg id="194cde19-0e28-49d3-8a7e-cd0f196c5373" data-name="illustration" xmlns="http://www.w3.org/2000/svg" viewBox="0 0 1096.05 1044.33">
  <title>heater_element</title>
  <g opacity="0.25">
    <path d="M586.15,29.55c-13-12.72-8.43-15.9-8.43-15.9l10.52-.59s0.05,4.44,4.13,9.74l7.27,5.53-5.51,8.1S592.41,35.68,586.15,29.55Z" transform="translate(0 89.7)" fill="none" stroke="#000" stroke-linejoin="round" stroke-width="0.71"/>
    <g>
      <path d="M627.15,46.85S625,45,610.93,39l-2.42,3.56c11,10.46,13.44,11.95,13.44,11.95,4.07,2.77,8.54,3.3,10,1.19S631.22,49.62,627.15,46.85ZM623.9,54c-2.59-1.76-3.9-4.33-2.95-5.74s3.83-1.13,6.42.63,3.9,4.33,2.95,5.74S626.48,55.73,623.9,54Z" transform="translate(0 89.7)" fill="#fff" stroke="#000" stroke-linecap="round" stroke-linejoin="round"/>
      <g id="2b57826c-e7ae-413b-9691-5c9d0ab32ea6" data-name="&lt;Group&gt;">
        <g>
          <line x1="601.72" y1="124.82" x2="617.59" y2="135.62" fill="none" stroke="#000" stroke-linecap="square" stroke-miterlimit="10" stroke-width="2.83"/>
          <line x1="601.72" y1="124.82" x2="617.59" y2="135.62" fill="none" stroke="#fff" stroke-linecap="square" stroke-linejoin="round" stroke-width="1.42"/>
        </g>
      </g>
      <path d="M619.58,40.75l-10-6.83c-2.92-2-1.93-2.84-8.66-7.42L593,38.15c7,4.75,6.84,3.13,10.42,5.56l9.71,6.6Z" transform="translate(0 89.7)" fill="#fff" stroke="#000" stroke-linecap="round" stroke-linejoin="round" stroke-width="0.71"/>
    </g>
  </g>
  <g opacity="0.25">
    <path d="M110.27,92.94c-1.32-23.4,16.82-29.16,16.82-29.16l1.82,10.75a24.52,24.52,0,0,0-8.8,20.32l1.08,9.07-9.66,1.67A104.37,104.37,0,0,1,110.27,92.94Z" transform="translate(0 89.7)" fill="none" stroke="#000" stroke-linejoin="round" stroke-width="0.71"/>
    <g>
      <path d="M127,136.57s-0.21-2.84-5.64-17.12l-4.25.74c0.15,15.2.77,18,.77,18,0.84,4.85,3.56,8.43,6.08,8S127.88,141.42,127,136.57Zm-7.38,2.61c-0.53-3.08.39-5.81,2.07-6.11s3.47,2,4,5.05-0.39,5.81-2.07,6.11S120.19,142.26,119.65,139.18Z" transform="translate(0 89.7)" fill="#fff" stroke="#000" stroke-linecap="round" stroke-linejoin="round"/>
      <g id="5c631ab1-93d1-46e3-bf2f-1a18f7dc6041" data-name="&lt;Group&gt;">
        <g>
          <line x1="117.77" y1="199.83" x2="121.05" y2="218.75" fill="none" stroke="#000" stroke-linecap="square" stroke-miterlimit="10" stroke-width="2.83"/>
          <line x1="117.77" y1="199.83" x2="121.05" y2="218.75" fill="none" stroke="#fff" stroke-linecap="square" stroke-linejoin="round" stroke-width="1.42"/>
        </g>
      </g>
      <path d="M126.14,126.89l-2.08-12c-0.6-3.48.7-3.36-.69-11.38l-13.88,2.41c1.44,8.32,2.51,7.09,3.25,11.35l2,11.57Z" transform="translate(0 89.7)" fill="#fff" stroke="#000" stroke-linecap="round" stroke-linejoin="round" stroke-width="0.71"/>
    </g>
  </g>
  <g opacity="0.25">
    <path d="M441,35.6c-22.5,6.53-24.19-9.85-24.19-9.85l10.07-4.19s0.94,7.69,13.78,4l8.6-3.09,3.8,9A104.37,104.37,0,0,1,441,35.6Z" transform="translate(0 89.7)" fill="none" stroke="#000" stroke-linejoin="round" stroke-width="0.71"/>
    <g>
      <path d="M479.78,9.48s-2.72.84-15.42,9.34l1.67,4C480.81,19.23,483.37,18,483.37,18c4.54-1.91,7.41-5.37,6.42-7.72S484.32,7.57,479.78,9.48Zm4.2,6.61c-2.88,1.21-5.75.92-6.41-.65s1.14-3.83,4-5,5.75-.92,6.41.65S486.86,14.87,484,16.08Z" transform="translate(0 89.7)" fill="#fff" stroke="#000" stroke-linecap="round" stroke-linejoin="round"/>
      <g id="5b6eff4f-1734-4127-a108-c0a393529536" data-name="&lt;Group&gt;">
        <g>
          <line x1="456.1" y1="114.13" x2="473.8" y2="106.69" fill="none" stroke="#000" stroke-linecap="square" stroke-miterlimit="10" stroke-width="2.83"/>
          <line x1="456.1" y1="114.13" x2="473.8" y2="106.69" fill="none" stroke="#fff" stroke-linecap="square" stroke-linejoin="round" stroke-width="1.42"/>
        </g>
      </g>
      <path d="M470.55,12.52l-11.2,4.71c-3.25,1.37-3.43.07-10.93,3.23l5.46,13c7.78-3.27,6.35-4,10.33-5.71L475,23.18Z" transform="translate(0 89.7)" fill="#fff" stroke="#000" stroke-linecap="round" stroke-linejoin="round" stroke-width="0.71"/>
    </g>
  </g>
  <g opacity="0.25">
    <path d="M280.76,43.21c-23.4,1.32-29.16-16.82-29.16-16.82l10.75-1.82a24.52,24.52,0,0,0,20.32,8.8l9.07-1.08,1.67,9.66A104.37,104.37,0,0,1,280.76,43.21Z" transform="translate(0 89.7)" fill="none" stroke="#000" stroke-linejoin="round" stroke-width="0.71"/>
    <g>
      <path d="M324.39,26.44s-2.84.21-17.12,5.64L308,36.33c15.2-.15,18-0.77,18-0.77,4.85-.84,8.43-3.56,8-6.08S329.24,25.6,324.39,26.44ZM327,33.82c-3.08.53-5.81-.39-6.11-2.07s2-3.47,5.05-4,5.81,0.39,6.11,2.07S330.08,33.29,327,33.82Z" transform="translate(0 89.7)" fill="#fff" stroke="#000" stroke-linecap="round" stroke-linejoin="round"/>
      <g id="069a533b-6786-4583-8bf6-c50204642f0c" data-name="&lt;Group&gt;">
        <g>
          <line x1="297.96" y1="125.4" x2="316.87" y2="122.12" fill="none" stroke="#000" stroke-linecap="square" stroke-miterlimit="10" stroke-width="2.83"/>
          <line x1="297.96" y1="125.4" x2="316.87" y2="122.12" fill="none" stroke="#fff" stroke-linecap="square" stroke-linejoin="round" stroke-width="1.42"/>
        </g>
      </g>
      <path d="M314.71,27.33l-12,2.08c-3.48.6-3.36-.7-11.38,0.69L293.77,44c8.32-1.44,7.09-2.51,11.35-3.25l11.57-2Z" transform="translate(0 89.7)" fill="#fff" stroke="#000" stroke-linecap="round" stroke-linejoin="round" stroke-width="0.71"/>
    </g>
  </g>
  <circle cx="316.68" cy="111.37" r="13.88" fill="#fff"/>
  <g opacity="0.5">
    <polyline points="101.25 169.5 101.25 201.47 57.13 217.45 13 201.47 13 169.5 21.88 166.29" fill="none" stroke="#000" stroke-linejoin="round" stroke-width="0.71"/>
    <polyline points="101.25 201.47 101.25 210.15 57.13 226.13 13 210.15 13 201.47" fill="none" stroke="#000" stroke-linejoin="round" stroke-width="0.71"/>
    <path d="M53.8,48.1H33.85c-4.74,0-4.51,5.45-4.51,5.45s-7.47-.25-7.47,5.2L22,78.69s0.14,2.09,0,6.07l-0.17,17.71s4,7.06,14.16,7.06H67.61v-4.71h8.92v4.71s15.85,0,15.85-9.29V83L91.15,56.75s0.54-3.32-7-3.32c0,0,.21-5.32-5-5.32H63.77" transform="translate(0 89.7)" fill="none" stroke="#000" stroke-linejoin="round" stroke-width="0.71"/>
    <path d="M56.65,80.79S51.26,82.34,50.09,78L49.84,60.33a4.22,4.22,0,0,1,3.3-1.63c2,0,3.64,2,3.64,2Z" transform="translate(0 89.7)" fill="none" stroke="#000" stroke-linejoin="round" stroke-width="0.71"/>
    <path d="M56.65,80.79s-0.37,2.57,2.76,2.57H83.75c2.85-.86,2.5-4,2.5-4s-1.07-12-2.54-12.07c-2-.15-22.13.56-22.13,0.56V56.46l-1.24-.93H56.65V80.79Z" transform="translate(0 89.7)" fill="none" stroke="#000" stroke-linejoin="round" stroke-width="0.71"/>
    <path d="M63.46,52.81V44.45s0.21-1.84-2.27-1.84c0,0-2.34-.43-3,1.05l-0.1,9.15" transform="translate(0 89.7)" fill="none" stroke="#000" stroke-linejoin="round" stroke-width="0.71"/>
    <path d="M30.77,65.13H28.54v3.41L38,68.6a1.06,1.06,0,0,0,.62-0.93L38.29,56s-0.09-3.16,2.6-3.16h32s2.92-.09,2.69,3.53c-0.42,6.58-.9,11.09-0.9,11.09" transform="translate(0 89.7)" fill="none" stroke="#000" stroke-linejoin="round" stroke-width="0.71"/>
    <path d="M30.89,68.55L31.2,51.76s0.06-1.24,2.48-1.24H51.6s2-.53,2.17-2,0-9.55,0-9.55a0.76,0.76,0,0,1,.55-0.53h3.43a0.63,0.63,0,0,1,.33.6V52.81" transform="translate(0 89.7)" fill="none" stroke="#000" stroke-linejoin="round" stroke-width="0.71"/>
    <path d="M30.31,126.72s9,11.55,30.66,9.85A40.12,40.12,0,0,0,83.24,127" transform="translate(0 89.7)" fill="none" stroke="#000" stroke-linejoin="round" stroke-width="0.71"/>
    <path d="M87.78,125.34c-3.36,6.92-10.66,15.32-26.45,16.44-27.4,2-34.62-16.36-34.62-16.36" transform="translate(0 89.7)" fill="none" stroke="#000" stroke-linejoin="round" stroke-width="0.71"/>
    <path d="M27.76,127.45s16,17.49,40.9,10.71c9.43-2.57,14.85-7.71,17.94-12.39" transform="translate(0 89.7)" fill="none" stroke="#000" stroke-linejoin="round" stroke-width="0.71"/>
    <line x1="57.12" y1="217.45" x2="57.12" y2="226.13" fill="none" stroke="#000" stroke-linejoin="round" stroke-width="0.71"/>
    <ellipse cx="69.4" cy="164.51" rx="4.11" ry="2.29" fill="none" stroke="#000" stroke-linejoin="round" stroke-width="0.71"/>
    <path d="M22,86c0,3,4.3,3.76,4.3,3.76s-0.57-6.41,4.92-6.41H83.75s4.41-.34,4.41,5.22c0,0,4.22-.48,4.22-5.56" transform="translate(0 89.7)" fill="none" stroke="#000" stroke-linejoin="round" stroke-width="0.71"/>
  </g>
  <g>
    <path d="M70.52,78.64S73.15,78.92,88.15,76V71.7c-15-2.45-17.64-2.31-17.64-2.31-4.92,0-8.91,2.07-8.91,4.63S65.59,78.64,70.52,78.64Z" transform="translate(0 89.7)" fill="#fff" stroke="#000" stroke-linecap="round" stroke-linejoin="round"/>
    <g id="d7dd70c8-6f04-4db3-a8dd-c2863bc0e536" data-name="&lt;Group&gt;">
      <g>
        <line x1="98.35" y1="163.73" x2="79.14" y2="163.73" fill="none" stroke="#000" stroke-linecap="square" stroke-miterlimit="10" stroke-width="2.83"/>
        <line x1="98.35" y1="163.73" x2="79.14" y2="163.73" fill="none" stroke="#fff" stroke-linecap="square" stroke-linejoin="round" stroke-width="1.42"/>
      </g>
    </g>
    <path d="M80.41,79.42H92.56c3.53,0,3.19,1.26,11.33,1.26V66.59c-8.44,0-7.41,1.26-11.74,1.26H80.41V79.42Z" transform="translate(0 89.7)" fill="#fff" stroke="#000" stroke-linecap="round" stroke-linejoin="round" stroke-width="0.71"/>
    <path d="M69.4,70.36c3.13,0,5.66,1.94,5.66,3.65s-2.53,3.09-5.66,3.09S63.74,75.71,63.74,74,66.28,70.36,69.4,70.36Z" transform="translate(0 89.7)" fill="#fff" stroke="#000" stroke-linecap="round" stroke-linejoin="round"/>
    <polygon points="67.75 162.91 66.8 163.58 67.76 164.05 68.83 163.35 70.01 163.35 71.05 164.07 72.01 163.6 71.18 163.07 71.18 162.32 71.92 161.7 71.14 161.26 70.04 161.79 68.89 161.79 67.64 161.28 66.84 161.7 67.75 162.18 67.75 162.91"/>
  </g>
  <g>
    <path d="M75.81,27s1.63,2.34,13.59,11.85l3.28-2.8C84.79,23.1,82.85,21,82.85,21c-3.2-3.74-7.37-5.43-9.31-3.77S72.61,23.3,75.81,27Zm5-6c2,2.38,2.63,5.2,1.33,6.31s-4,.08-6-2.3-2.63-5.2-1.33-6.31S78.79,18.65,80.83,21Z" transform="translate(0 89.7)" fill="#fff" stroke="#000" stroke-linecap="round" stroke-linejoin="round"/>
    <g id="31569635-0c44-49fd-b0b4-5969e1eb78b6" data-name="&lt;Group&gt;">
      <g>
        <line x1="97.27" y1="134.75" x2="84.79" y2="120.15" fill="none" stroke="#000" stroke-linecap="square" stroke-miterlimit="10" stroke-width="2.83"/>
        <line x1="97.27" y1="134.75" x2="84.79" y2="120.15" fill="none" stroke="#fff" stroke-linecap="square" stroke-linejoin="round" stroke-width="1.42"/>
      </g>
    </g>
    <path d="M81.52,34.91l7.9,9.24c2.29,2.68,1.12,3.25,6.4,9.43l10.71-9.15c-5.49-6.42-5.78-4.82-8.59-8.1L90.31,27.4Z" transform="translate(0 89.7)" fill="#fff" stroke="#000" stroke-linecap="round" stroke-linejoin="round" stroke-width="0.71"/>
  </g>
  <rect x="103.89" y="158.29" width="23.6" height="10.05" fill="#fff" stroke="#000" stroke-linejoin="round" stroke-width="0.71"/>
  <path d="M127.64,65.84c-18.82,0-30.43-13.45-30.43-13.45l7.71-6.59s9.68,10.45,23.95,10.88Z" transform="translate(0 89.7)" fill="#fff" stroke="#000" stroke-linejoin="round" stroke-width="0.71"/>
  <path d="M141.65,83.67H128.37c-2,0-3.73-6.6-3.73-15.38s1.61-15.53,3.64-15.53l13.54-.17" transform="translate(0 89.7)" fill="#fff" stroke="#000" stroke-linejoin="round"/>
  <g opacity="0.5">
    <path d="M252.22,48.1H232.28c-4.74,0-4.51,5.45-4.51,5.45s-7.47-.25-7.47,5.2l0.17,19.94s0.14,2.09,0,6.07l-0.17,17.71s4,7.06,14.16,7.06H266v-4.71h8.92v4.71s15.85,0,15.85-9.29V83l-1.23-26.27s0.54-3.32-7-3.32c0,0,.21-5.32-5-5.32H262.19" transform="translate(0 89.7)" fill="none" stroke="#000" stroke-linejoin="round" stroke-width="0.71"/>
    <path d="M255.07,80.79s-5.39,1.55-6.56-2.79l-0.25-17.68a4.22,4.22,0,0,1,3.3-1.63c2,0,3.64,2,3.64,2Z" transform="translate(0 89.7)" fill="none" stroke="#000" stroke-linejoin="round" stroke-width="0.71"/>
    <path d="M255.07,80.79s-0.37,2.57,2.76,2.57h24.34c2.85-.86,2.5-4,2.5-4s-1.07-12-2.54-12.07c-2-.15-22.13.56-22.13,0.56V56.46l-1.24-.93h-3.69V80.79Z" transform="translate(0 89.7)" fill="none" stroke="#000" stroke-linejoin="round" stroke-width="0.71"/>
    <path d="M261.89,52.81V44.45s0.21-1.84-2.27-1.84c0,0-2.34-.43-3,1.05l-0.1,9.15" transform="translate(0 89.7)" fill="none" stroke="#000" stroke-linejoin="round" stroke-width="0.71"/>
    <path d="M229.2,65.13H227v3.41l9.47,0.06a1.06,1.06,0,0,0,.62-0.93L236.72,56s-0.09-3.16,2.6-3.16h32s2.92-.09,2.69,3.53c-0.42,6.58-.9,11.09-0.9,11.09" transform="translate(0 89.7)" fill="none" stroke="#000" stroke-linejoin="round" stroke-width="0.71"/>
    <path d="M229.32,68.55l0.31-16.79s0.06-1.24,2.48-1.24H250s2-.53,2.17-2,0-9.55,0-9.55a0.76,0.76,0,0,1,.55-0.53h3.43a0.63,0.63,0,0,1,.33.6V52.81" transform="translate(0 89.7)" fill="none" stroke="#000" stroke-linejoin="round" stroke-width="0.71"/>
    <path d="M228.73,126.72s9,11.55,30.66,9.85A40.12,40.12,0,0,0,281.66,127" transform="translate(0 89.7)" fill="none" stroke="#000" stroke-linejoin="round" stroke-width="0.71"/>
    <path d="M286.2,125.34c-3.36,6.92-10.66,15.32-26.45,16.44-27.4,2-34.62-16.36-34.62-16.36" transform="translate(0 89.7)" fill="none" stroke="#000" stroke-linejoin="round" stroke-width="0.71"/>
    <path d="M226.18,127.45s16,17.49,40.9,10.71c9.43-2.57,14.85-7.71,17.94-12.39" transform="translate(0 89.7)" fill="none" stroke="#000" stroke-linejoin="round" stroke-width="0.71"/>
    <line x1="255.55" y1="217.45" x2="255.55" y2="226.13" fill="none" stroke="#000" stroke-linejoin="round" stroke-width="0.71"/>
    <polyline points="220.3 166.29 211.42 169.5 211.42 201.47 255.55 217.45 299.68 201.47 299.68 169.5 290.49 166.18" fill="none" stroke="#000" stroke-linejoin="round" stroke-width="0.71"/>
    <polyline points="299.68 201.47 299.68 210.15 255.55 226.13 211.42 210.15 211.42 201.47" fill="none" stroke="#000" stroke-linejoin="round" stroke-width="0.71"/>
    <path d="M220.44,86c0,3,4.3,3.76,4.3,3.76s-0.57-6.41,4.92-6.41h52.51s4.41-.34,4.41,5.22c0,0,4.22-.48,4.22-5.56" transform="translate(0 89.7)" fill="none" stroke="#000" stroke-linejoin="round" stroke-width="0.71"/>
  </g>
  <g>
    <path d="M268.69,78.7s8.46,0,8.46-5.63V66.67h-2.47s-0.5,2.62-2.75,2.62c-1.88,0-3.19.13-3.19,0.13-4.92,0-8.94,2.08-8.94,4.64S263.77,78.7,268.69,78.7Zm-0.94-8.21c3.13,0,5.66,1.87,5.66,3.58s-2.53,3.09-5.66,3.09-5.66-1.38-5.66-3.09S264.63,70.49,267.75,70.49Z" transform="translate(0 89.7)" fill="#fff" stroke="#000" stroke-linecap="round" stroke-linejoin="round"/>
    <path d="M278.85,68.27V56.12c0-3.53,1.26-3.19,1.26-11.33,0,0,.2-2.74-7-2.74s-7,2.74-7,2.74c0,8.44,1.26,7.41,1.26,11.74V68.27s1.68,2,5.78,2S278.85,68.27,278.85,68.27Z" transform="translate(0 89.7)" fill="#fff" stroke="#000" stroke-linecap="round" stroke-linejoin="round" stroke-width="0.71"/>
    <ellipse cx="273.06" cy="134.33" rx="7.04" ry="2.58" fill="#fff" stroke="#000" stroke-linecap="round" stroke-linejoin="round" stroke-width="0.71"/>
    <path d="M264.87,27.3s2.12,5.74,7.07,8c6.46,3,6.5,11,6.5,11s-1.42.91-5.37,0.91-5.31-.89-5.31-0.89,2.29-3-4.26-6.3-7.95-12.36-7.95-12.36Z" transform="translate(0 89.7)" fill="#fff" stroke="#000" stroke-linejoin="round" stroke-width="0.71"/>
    <polygon points="266.1 162.91 265.15 163.58 266.11 164.05 267.18 163.35 268.36 163.35 269.4 164.07 270.36 163.6 269.53 163.07 269.53 162.32 270.27 161.7 269.49 161.26 268.39 161.79 267.24 161.79 265.99 161.28 265.19 161.7 266.1 162.18 266.1 162.91"/>
  </g>
  <g>
    <path d="M188,52.67s2.85-.09,17.35-4.91l-0.56-4.27c-15.19-.49-18,0-18,0-4.88.63-8.57,3.2-8.24,5.74S183.08,53.31,188,52.67Zm-2.3-7.48c3.1-.4,5.79.64,6,2.33s-2.12,3.39-5.22,3.79-5.79-.64-6-2.33S182.56,45.59,185.66,45.19Z" transform="translate(0 89.7)" fill="#fff" stroke="#000" stroke-linecap="round" stroke-linejoin="round"/>
    <g id="8768bb9b-42f7-4220-afef-792fc00c21be" data-name="&lt;Group&gt;">
      <g>
        <line x1="214.76" y1="134.24" x2="195.72" y2="136.71" fill="none" stroke="#000" stroke-linecap="square" stroke-miterlimit="10" stroke-width="2.83"/>
        <line x1="214.76" y1="134.24" x2="195.72" y2="136.71" fill="none" stroke="#fff" stroke-linecap="square" stroke-linejoin="round" stroke-width="1.42"/>
      </g>
    </g>
    <path d="M197.67,52.19l12-1.57c3.5-.45,3.33.84,11.4-0.21l-1.82-14c-8.37,1.09-7.19,2.21-11.48,2.76l-11.64,1.51Z" transform="translate(0 89.7)" fill="#fff" stroke="#000" stroke-linecap="round" stroke-linejoin="round" stroke-width="0.71"/>
  </g>
  <path d="M252.55,25.17c-3,19.15-31.67,23.43-31.67,23.43l-1.27-9.74s18.63-1.6,23.77-14.91Z" transform="translate(0 89.7)" fill="#fff" stroke="#000" stroke-linejoin="round" stroke-width="0.71"/>
  <path d="M270.15,0.17V24.45c0,2-6.49,3.73-15.26,3.73s-15.48-1.61-15.48-3.64L239.16,0" transform="translate(0 89.7)" fill="#fff" stroke="#000" stroke-linejoin="round"/>
  <g>
    <path d="M281.11,18a43.72,43.72,0,0,1,41.72,43.68" transform="translate(0 89.7)" fill="none" stroke="#000" stroke-linejoin="round" stroke-width="0.71"/>
    <polygon points="285.15 110.25 285.43 109.6 281.18 107.74 285.63 106.43 285.43 105.75 279.11 107.61 285.15 110.25"/>
  </g>
  <text transform="translate(309.53 116.24)" font-size="12" fill="#4d4d4d" font-family="Roboto" font-weight="700">90° </text>
  <g opacity="0.5">
    <path d="M436.48,48.1H416.53c-4.74,0-4.51,5.45-4.51,5.45s-7.47-.25-7.47,5.2l0.17,19.94s0.14,2.09,0,6.07l-0.17,17.71s4,7.06,14.16,7.06h31.58v-4.71h8.92v4.71s15.85,0,15.85-9.29V83l-1.23-26.27s0.54-3.32-7-3.32c0,0,.21-5.32-5-5.32H446.45" transform="translate(0 89.7)" fill="none" stroke="#000" stroke-linejoin="round" stroke-width="0.71"/>
    <path d="M439.33,80.79s-5.39,1.55-6.56-2.79l-0.25-17.68a4.22,4.22,0,0,1,3.3-1.63c2,0,3.64,2,3.64,2Z" transform="translate(0 89.7)" fill="none" stroke="#000" stroke-linejoin="round" stroke-width="0.71"/>
    <path d="M439.33,80.79s-0.37,2.57,2.76,2.57h24.34c2.85-.86,2.5-4,2.5-4s-1.07-12-2.54-12.07c-2-.15-22.13.56-22.13,0.56V56.46L443,55.53h-3.69V80.79Z" transform="translate(0 89.7)" fill="none" stroke="#000" stroke-linejoin="round" stroke-width="0.71"/>
    <path d="M446.14,52.81V44.45s0.21-1.84-2.27-1.84c0,0-2.34-.43-3,1.05l-0.1,9.15" transform="translate(0 89.7)" fill="none" stroke="#000" stroke-linejoin="round" stroke-width="0.71"/>
    <path d="M413.45,65.13h-2.23v3.41l9.47,0.06a1.06,1.06,0,0,0,.62-0.93L421,56s-0.09-3.16,2.6-3.16h32s2.92-.09,2.69,3.53c-0.42,6.58-.9,11.09-0.9,11.09" transform="translate(0 89.7)" fill="none" stroke="#000" stroke-linejoin="round" stroke-width="0.71"/>
    <path d="M413.57,68.55l0.31-16.79s0.06-1.24,2.48-1.24h17.92s2-.53,2.17-2,0-9.55,0-9.55a0.76,0.76,0,0,1,.55-0.53h3.43a0.63,0.63,0,0,1,.33.6V52.81" transform="translate(0 89.7)" fill="none" stroke="#000" stroke-linejoin="round" stroke-width="0.71"/>
    <path d="M413,126.72s9,11.55,30.66,9.85A40.12,40.12,0,0,0,465.91,127" transform="translate(0 89.7)" fill="none" stroke="#000" stroke-linejoin="round" stroke-width="0.71"/>
    <path d="M470.45,125.34c-3.36,6.92-10.66,15.32-26.45,16.44-27.4,2-34.62-16.36-34.62-16.36" transform="translate(0 89.7)" fill="none" stroke="#000" stroke-linejoin="round" stroke-width="0.71"/>
    <path d="M410.44,127.45s16,17.49,40.9,10.71c9.43-2.57,14.85-7.71,17.94-12.39" transform="translate(0 89.7)" fill="none" stroke="#000" stroke-linejoin="round" stroke-width="0.71"/>
    <line x1="439.8" y1="217.45" x2="439.8" y2="226.13" fill="none" stroke="#000" stroke-linejoin="round" stroke-width="0.71"/>
    <polyline points="404.55 166.29 395.68 169.5 395.68 201.47 439.8 217.45 483.93 201.47 483.93 169.5 474.75 166.18" fill="none" stroke="#000" stroke-linejoin="round" stroke-width="0.71"/>
    <polyline points="483.93 201.47 483.93 210.15 439.8 226.13 395.68 210.15 395.68 201.47" fill="none" stroke="#000" stroke-linejoin="round" stroke-width="0.71"/>
    <path d="M404.69,86.07c0,3,4.3,3.76,4.3,3.76s-0.57-6.41,4.92-6.41h52.51s4.41-.34,4.41,5.22c0,0,4.22-.48,4.22-5.56" transform="translate(0 89.7)" fill="none" stroke="#000" stroke-linejoin="round" stroke-width="0.71"/>
  </g>
  <g>
    <path d="M452.82,78.7s8.33,0,8.33-5.63V66.67h-2.22s-0.5,2.62-2.75,2.62c-1.88,0-3.19.13-3.19,0.13-4.92,0-9,2.08-9,4.64S447.9,78.7,452.82,78.7ZM452,70.61c3.13,0,5.66,1.75,5.66,3.45s-2.53,3.09-5.66,3.09-5.66-1.38-5.66-3.09S448.88,70.61,452,70.61Z" transform="translate(0 89.7)" fill="#fff" stroke="#000" stroke-linecap="round" stroke-linejoin="round"/>
    <path d="M463.1,68.27V56.12c0-3.53,1.26-3.19,1.26-11.33,0,0,.2-2.74-7-2.74s-7,2.74-7,2.74c0,8.44,1.26,7.41,1.26,11.74V68.27s1.68,2,5.78,2S463.1,68.27,463.1,68.27Z" transform="translate(0 89.7)" fill="#fff" stroke="#000" stroke-linecap="round" stroke-linejoin="round" stroke-width="0.71"/>
    <ellipse cx="457.32" cy="134.33" rx="7.04" ry="2.58" fill="#fff" stroke="#000" stroke-linecap="round" stroke-linejoin="round" stroke-width="0.71"/>
    <path d="M433.57,25.9s-1.06,3.1,17.62,8.27c11.48,3.18,11.5,12.13,11.5,12.13s-1.42.91-5.37,0.91S452,46.33,452,46.33s0.57-3.41-10.64-5.92C427.05,37.21,425,29.91,425,29.91Z" transform="translate(0 89.7)" fill="#fff" stroke="#000" stroke-linejoin="round" stroke-width="0.71"/>
    <polygon points="450.35 163.16 449.4 163.83 450.36 164.3 451.44 163.6 452.61 163.6 453.65 164.32 454.61 163.85 453.78 163.32 453.78 162.57 454.52 161.95 453.75 161.51 452.64 162.04 451.49 162.04 450.25 161.53 449.45 161.95 450.35 162.43 450.35 163.16"/>
  </g>
  <path d="M393.16,61.6s-8.43.48-10.62-7.93c-2.06-7.9,7.49-14.49,22-17,6.67-1.14,6.67-3.78,6.67-3.78l9.68-1.73s1.2,5.88-7.43,10.74c-7,4-20.31,4.5-21.8,7.18-1.7,3,1.5,3.3,1.5,3.3V61.6Z" transform="translate(0 89.7)" fill="#fff" stroke="#000" stroke-linejoin="round" stroke-width="0.71"/>
  <path d="M427.16,0.42l8.73,22.4c0.58,1.95-5,5.4-13.44,7.91s-15.23,2.88-15.81.93l-11-31.24" transform="translate(0 89.7)" fill="#fff" stroke="#000" stroke-linecap="round" stroke-linejoin="round"/>
  <g>
    <path d="M416.64,60.88l4.49,0.72m0.9-8.3-5.39.73" transform="translate(0 89.7)" fill="#fff" stroke="#000" stroke-linecap="round" stroke-linejoin="round" stroke-width="0.71"/>
    <g id="99a0909a-0889-44f4-bff0-09be2d1e3ab8" data-name="&lt;Group&gt;">
      <g>
        <line x1="398.7" y1="147.23" x2="417.9" y2="147.23" fill="none" stroke="#000" stroke-linecap="square" stroke-miterlimit="10" stroke-width="2.83"/>
        <line x1="398.7" y1="147.23" x2="417.9" y2="147.23" fill="none" stroke="#fff" stroke-linecap="square" stroke-linejoin="round" stroke-width="0.71"/>
      </g>
    </g>
    <path d="M416.64,62.92H404.49c-3.53,0-3.19,1.26-11.33,1.26V50.09c8.44,0,7.41,1.26,11.74,1.26h11.74V62.92Z" transform="translate(0 89.7)" fill="#fff" stroke="#000" stroke-linecap="round" stroke-linejoin="round" stroke-width="0.71"/>
  </g>
  <g opacity="0.5">
    <path d="M578.21,48.1H558.26c-4.74,0-4.51,5.45-4.51,5.45s-7.47-.25-7.47,5.2l0.17,19.94s0.14,2.09,0,6.07l-0.17,17.71s4,7.06,14.16,7.06H592v-4.71h8.92v4.71s15.85,0,15.85-9.29V83l-1.23-26.27s0.54-3.32-7-3.32c0,0,.21-5.32-5-5.32H588.18" transform="translate(0 89.7)" fill="none" stroke="#000" stroke-linejoin="round" stroke-width="0.71"/>
    <path d="M546.42,86c0,3,4.3,3.76,4.3,3.76s-0.57-6.41,4.92-6.41h52.51s4.41-.34,4.41,5.22c0,0,4.22-.48,4.22-5.56" transform="translate(0 89.7)" fill="none" stroke="#000" stroke-linejoin="round" stroke-width="0.71"/>
    <path d="M581.06,80.79s-5.39,1.55-6.56-2.79l-0.25-17.68a4.22,4.22,0,0,1,3.3-1.63c2,0,3.64,2,3.64,2Z" transform="translate(0 89.7)" fill="none" stroke="#000" stroke-linejoin="round" stroke-width="0.71"/>
    <path d="M581.06,80.79s-0.37,2.57,2.76,2.57h24.34c2.85-.86,2.5-4,2.5-4s-1.07-12-2.54-12.07c-2-.15-22.13.56-22.13,0.56V56.46l-1.24-.93h-3.69V80.79Z" transform="translate(0 89.7)" fill="none" stroke="#000" stroke-linejoin="round" stroke-width="0.71"/>
    <path d="M587.87,52.81V44.45s0.21-1.84-2.27-1.84c0,0-2.34-.43-3,1.05l-0.1,9.15" transform="translate(0 89.7)" fill="none" stroke="#000" stroke-linejoin="round" stroke-width="0.71"/>
    <path d="M555.18,65.13H553v3.41l9.47,0.06a1.06,1.06,0,0,0,.62-0.93L562.7,56s-0.09-3.16,2.6-3.16h32s2.92-.09,2.69,3.53c-0.42,6.58-.9,11.09-0.9,11.09" transform="translate(0 89.7)" fill="none" stroke="#000" stroke-linejoin="round" stroke-width="0.71"/>
    <path d="M555.3,68.55l0.31-16.79s0.06-1.24,2.48-1.24H576s2-.53,2.17-2,0-9.55,0-9.55a0.76,0.76,0,0,1,.55-0.53h3.43a0.63,0.63,0,0,1,.33.6V52.81" transform="translate(0 89.7)" fill="none" stroke="#000" stroke-linejoin="round" stroke-width="0.71"/>
    <path d="M554.72,126.72s9,11.55,30.66,9.85A40.12,40.12,0,0,0,607.64,127" transform="translate(0 89.7)" fill="none" stroke="#000" stroke-linejoin="round" stroke-width="0.71"/>
    <path d="M612.19,125.34c-3.36,6.92-10.66,15.32-26.45,16.44-27.4,2-34.62-16.36-34.62-16.36" transform="translate(0 89.7)" fill="none" stroke="#000" stroke-linejoin="round" stroke-width="0.71"/>
    <path d="M552.17,127.45s16,17.49,40.9,10.71c9.43-2.57,14.85-7.71,17.94-12.39" transform="translate(0 89.7)" fill="none" stroke="#000" stroke-linejoin="round" stroke-width="0.71"/>
    <line x1="581.53" y1="217.45" x2="581.53" y2="226.13" fill="none" stroke="#000" stroke-linejoin="round" stroke-width="0.71"/>
    <polyline points="546.29 166.29 537.41 169.5 537.41 201.47 581.53 217.45 625.66 201.47 625.66 169.5 616.48 166.18" fill="none" stroke="#000" stroke-linejoin="round" stroke-width="0.71"/>
    <polyline points="625.66 201.47 625.66 210.15 581.53 226.13 537.41 210.15 537.41 201.47" fill="none" stroke="#000" stroke-linejoin="round" stroke-width="0.71"/>
  </g>
  <g>
    <path d="M595.19,78.7s9,0,9-5.63V66.67h-3.49s-0.5,2.62-2.75,2.62c-1.88,0-3.19.13-3.19,0.13-4.92,0-8.68,2.08-8.68,4.64S590.26,78.7,595.19,78.7Zm-1.45-8.08c3.13,0,5.66,1.75,5.66,3.45s-2.53,3.09-5.66,3.09-5.66-1.38-5.66-3.09S590.61,70.61,593.74,70.61Z" transform="translate(0 89.7)" fill="#fff" stroke="#000" stroke-linecap="round" stroke-linejoin="round"/>
    <path d="M604.83,68.27V58.12c0-3.53,1.26-1.19,1.26-9.33,0,0,.2-2.74-7-2.74s-7,2.74-7,2.74c0,8.44,1.26,5.41,1.26,9.74v9.74s1.68,2,5.78,2S604.83,68.27,604.83,68.27Z" transform="translate(0 89.7)" fill="#fff" stroke="#000" stroke-linecap="round" stroke-linejoin="round" stroke-width="0.71"/>
    <ellipse cx="599.05" cy="138.33" rx="7.04" ry="2.58" fill="#fff" stroke="#000" stroke-linecap="round" stroke-linejoin="round" stroke-width="0.71"/>
    <path d="M590.86,18.3s4.4,11.41,8.67,16.46c4.9,5.78,4.89,15.54,4.89,15.54s-1.42.91-5.37,0.91-5.31-.89-5.31-0.89,0-8.16-5.26-14.3c-4.78-5.58-6.95-17.36-6.95-17.36Z" transform="translate(0 89.7)" fill="#fff" stroke="#000" stroke-linejoin="round" stroke-width="0.71"/>
    <polygon points="592.09 163.16 591.13 163.83 592.09 164.3 593.17 163.6 594.35 163.6 595.39 164.32 596.35 163.85 595.52 163.32 595.52 162.57 596.25 161.95 595.48 161.51 594.38 162.04 593.23 162.04 591.98 161.53 591.18 161.95 592.09 162.43 592.09 163.16"/>
  </g>
  <g>
    <path d="M561.15,52.17v3.89c0,2.28-.08,3.48,1.52,4.29" transform="translate(0 89.7)" fill="none" stroke="#000" stroke-linecap="round" stroke-linejoin="round"/>
    <path d="M569.36,50.48V40.33c0-3.53,1.26-1.19,1.26-9.33,0,0,.2-2.74-7-2.74s-7,2.74-7,2.74c0,8.44,1.26,5.41,1.26,9.74v9.74s1.68,2,5.78,2S569.36,50.48,569.36,50.48Z" transform="translate(0 89.7)" fill="#fff" stroke="#000" stroke-linecap="round" stroke-linejoin="round" stroke-width="0.71"/>
    <ellipse cx="563.58" cy="120.54" rx="7.04" ry="2.58" fill="#fff" stroke="#000" stroke-linecap="round" stroke-linejoin="round" stroke-width="0.71"/>
    <path d="M569.77,18.3s-0.12,2.74-5.07,5a10.73,10.73,0,0,0-6.47,9.18s1.42,0.91,5.37.91,4.83-.72,4.83-0.72-0.78-1.54,4.71-4.68c6.38-3.66,5.95-9.36,5.95-9.36Z" transform="translate(0 89.7)" fill="#fff" stroke="#000" stroke-linejoin="round" stroke-width="0.71"/>
  </g>
  <path d="M597.15,0.17V18.45c0,2-6.71,3.73-15.48,3.73s-15.52-1.61-15.52-3.64V0.17" transform="translate(0 89.7)" fill="#fff" stroke="#000" stroke-linejoin="round"/>
  <text transform="translate(0 24.25)" font-size="28.35" fill="#fff" font-family="Roboto" font-weight="700">Sc<tspan x="32.14" y="0">r</tspan><tspan x="41.86" y="0">ew </tspan><tspan x="84.6" y="0">ey</tspan><tspan x="113.54" y="0">e lugs onto heater element</tspan></text>
  <text transform="translate(0 75.94)" font-size="11.34" fill="#fff" font-family="Roboto" font-weight="700">Sc<tspan x="12.86" y="0">r</tspan><tspan x="16.74" y="0">ew li</tspan><tspan x="39.9" y="0">v</tspan><tspan x="45.61" y="0">e</tspan></text>
  <text transform="translate(170.08 75.94)" font-size="11.34" fill="#fff" font-family="Roboto" font-weight="700">Bend li<tspan x="34.83" y="0">v</tspan><tspan x="40.55" y="0">e lug 90°</tspan></text>
  <text transform="translate(524.41 75.94)" font-size="11.34" fill="#fff" font-family="Roboto" font-weight="700">Bend neutral lug 90°</text>
  <text transform="translate(671.65 75.94)" font-size="11.34" fill="#fff" font-family="Roboto" font-weight="700">Rem<tspan x="22.96" y="0">o</tspan><tspan x="29.28" y="0">v</tspan><tspan x="35" y="0">e thick washer</tspan></text>
  <text transform="translate(368.5 75.94)" font-size="11.34" fill="#fff" font-family="Roboto" font-weight="700">Sc<tspan x="12.86" y="0">r</tspan><tspan x="16.74" y="0">ew neutral</tspan></text>
  <line y1="47.6" x2="992.13" y2="47.6" fill="none" stroke="#fff" stroke-miterlimit="10" stroke-width="2.83"/>
  <g opacity="0.25">
    <polyline points="693.74 168.62 684.28 170.99 684.28 206.37 728.31 218.61 772.41 206.37 772.41 170.99 762.92 168.62" fill="#fff" stroke="#231f20" stroke-miterlimit="10" stroke-width="0.71"/>
    <path d="M763,68.36" transform="translate(0 89.7)" fill="#fff" stroke="#231f20" stroke-miterlimit="10" stroke-width="0.71"/>
    <path d="M693.74,68.14V92.52S700,105.28,728,105.28c18,0,31.76-7.16,34.94-14.31V68.36" transform="translate(0 89.7)" fill="#fff" stroke="#231f20" stroke-miterlimit="10" stroke-width="0.71"/>
    <path d="M693.74,87.39S700,100.15,728,100.15c18.52,0,30.3-6.13,34.94-13.32" transform="translate(0 89.7)" fill="#fff" stroke="#231f20" stroke-miterlimit="10" stroke-width="0.71"/>
    <path d="M693.74,82.26S700,95,728,95c17.32,0,33.13-8.19,34.94-13.79" transform="translate(0 89.7)" fill="#fff" stroke="#231f20" stroke-miterlimit="10" stroke-width="0.71"/>
    <path d="M693.74,77.13S700.43,89.93,728,89.9c21.95,0,32.19-8.21,34.94-14.31" transform="translate(0 89.7)" fill="#fff" stroke="#231f20" stroke-miterlimit="10" stroke-width="0.71"/>
    <path d="M693.74,72.1s2,12.76,34.28,12.76c21,0,32.88-7.56,34.94-14.31" transform="translate(0 89.7)" fill="#fff" stroke="#231f20" stroke-miterlimit="10" stroke-width="0.71"/>
    <path d="M752.61,57.89V68.75c0,2.17-3.81,3.94-8.51,3.94s-8.51-1.76-8.51-3.94V54.09c-2.34-.21-4.76-0.32-7.24-0.32-2.32,0-4.58.1-6.78,0.28v14.7c0,2.17-3.81,3.94-8.51,3.94s-8.51-1.76-8.51-3.94v-11c-6.66,2.62-10.82,6.32-10.82,10.43,0,7.93,15.5,14.36,34.61,14.36S763,76.07,763,68.14C763,64.12,759,60.5,752.61,57.89Z" transform="translate(0 89.7)" fill="#fff" stroke="#231f20" stroke-miterlimit="10" stroke-width="0.71"/>
    <path d="M759.32,120.75v15.5a5.67,5.67,0,0,1-5.67,5.67h-49a5.67,5.67,0,0,1-5.67-5.67v-15.5" transform="translate(0 89.7)" fill="none" stroke="#231f20" stroke-linecap="round" stroke-linejoin="round" stroke-width="0.71"/>
    <path d="M721.57,65.44v3.31c0,2.17-3.81,3.94-8.51,3.94s-8.51-1.76-8.51-3.94V65.44a3.43,3.43,0,0,0-1.8,2.7c0,2.63,4.62,4.77,10.31,4.77s10.31-2.14,10.31-4.77A3.43,3.43,0,0,0,721.57,65.44Z" transform="translate(0 89.7)" fill="#fff" stroke="#231f20" stroke-miterlimit="10" stroke-width="0.71"/>
    <path d="M752.61,65.44v3.31c0,2.17-3.81,3.94-8.51,3.94s-8.51-1.76-8.51-3.94V65.44a3.43,3.43,0,0,0-1.8,2.7c0,2.63,4.62,4.77,10.31,4.77s10.31-2.14,10.31-4.77A3.43,3.43,0,0,0,752.61,65.44Z" transform="translate(0 89.7)" fill="#fff" stroke="#231f20" stroke-miterlimit="10" stroke-width="0.71"/>
    <path d="M721.57,15.19V68.75c0,2.17-3.81,3.94-8.51,3.94s-8.51-1.76-8.51-3.94V15.19" transform="translate(0 89.7)" fill="#fff" stroke="#231f20" stroke-miterlimit="10" stroke-width="0.71"/>
    <path d="M752.61,15.19V68.75c0,2.17-3.81,3.94-8.51,3.94s-8.51-1.76-8.51-3.94V15.19" transform="translate(0 89.7)" fill="#fff" stroke="#231f20" stroke-miterlimit="10" stroke-width="0.71"/>
    <line x1="728.35" y1="207.71" x2="728.35" y2="218.61" fill="#fff" stroke="#231f20" stroke-miterlimit="10" stroke-width="0.71"/>
    <polyline points="772.41 195.47 728.35 207.71 684.28 195.47" fill="#fff" stroke="#231f20" stroke-miterlimit="10" stroke-width="0.71"/>
  </g>
  <g>
    <path d="M897.17,124.92c-3.36,6.92-10.66,15.32-26.45,16.44-27.4,2-34.62-16.36-34.62-16.36l30.42,11Z" transform="translate(0 89.7)" fill="#fff" stroke="#000" stroke-linejoin="round" stroke-width="0.71"/>
    <polygon points="910.65 201.05 910.65 209.74 866.52 225.72 822.4 209.74 822.4 201.05 866.52 217.03 910.65 201.05" fill="#fff" stroke="#000" stroke-linejoin="round" stroke-width="0.71"/>
    <polyline points="831.27 165.87 822.4 169.09 822.4 201.05 866.52 217.03 910.65 201.05 910.65 169.09 901.47 165.76" fill="#fff" stroke="#000" stroke-linejoin="round" stroke-width="0.71"/>
    <g>
      <g id="6403e703-9a59-42be-95ef-32ed9a3499d1" data-name="eye lug">
        <path d="M915,77c2.92,7.53,4.32,7.81,4.32,7.81l1.42,0.32a26.27,26.27,0,0,1,2.74,7.08l-0.92,1,1.67,4.32,10.31-4-1.72-4.44-1.28,0A29.21,29.21,0,0,1,928.78,82l0.83-1.19s0.74-1.43-2.07-8.69Z" transform="translate(0 89.7)" fill="#fff" stroke="#000" stroke-linejoin="round" stroke-width="0.71"/>
        <line x1="920.73" y1="174.84" x2="928.78" y2="171.72" fill="#fff" stroke="#000" stroke-linejoin="round" stroke-width="0.71"/>
        <line x1="923.47" y1="181.91" x2="931.53" y2="178.79" fill="#fff" stroke="#000" stroke-linejoin="round" stroke-width="0.71"/>
      </g>
      <path id="71bf2f62-f63c-4f4a-ba14-b164bf685d20" data-name="ground cable" d="M865.4,38c-3.29-7.57-3.6-17.11-3.6-17.11h8.1L884,52.17l-17.46.52Z" transform="translate(0 89.7)" fill="#fff" stroke="#000" stroke-linejoin="round" stroke-width="0.71"/>
      <path id="4eb21e73-b956-4cc8-bb97-08a5b42f6957" data-name="ground cable" d="M900.73,58.94c11.8,7.73,15.9,17.35,15.9,17.35l9.23-3.51s-2.1-4.51-8.69-12.64c-5.53-6.82-12-11.09-28.51-16.55V59.94Z" transform="translate(0 89.7)" fill="#fff" stroke="#000" stroke-linejoin="round" stroke-width="0.71"/>
      <g id="65e599d6-c7b6-4e8d-becb-04a2238b6562" data-name="eye lug metal">
        <path d="M926.51,96.62s2.52,2.81-.5,5l9.84-3.81s-3.41-.36-4.11-3.21Z" transform="translate(0 89.7)" fill="#fff" stroke="#000" stroke-linejoin="round" stroke-width="0.71"/>
        <polygon points="936.18 188.58 926.53 192.35 926.01 191.31 935.85 187.5 936.18 188.58" fill="#fff" stroke="#000" stroke-linejoin="round" stroke-width="0.71"/>
      </g>
    </g>
    <path d="M842.3,133.21V412.47c0,2.17,3.81,3.94,8.51,3.94s8.51-1.76,8.51-3.94V140.94a31.17,31.17,0,0,1-17-7.73" transform="translate(0 89.7)" fill="#fff" stroke="#231f20" stroke-miterlimit="10" stroke-width="0.71"/>
    <path d="M890.35,133.92V412.47c0,2.17-3.81,3.94-8.51,3.94s-8.51-1.76-8.51-3.94V141.1A31.4,31.4,0,0,0,890.35,133.92Z" transform="translate(0 89.7)" fill="#fff" stroke="#231f20" stroke-miterlimit="10" stroke-width="0.71"/>
    <path d="M863.2,47.69H843.25c-4.74,0-4.51,5.45-4.51,5.45s-7.47-.25-7.47,5.2l0.17,19.94s0.14,2.09,0,6.07L831.27,102s4,7.06,14.16,7.06H877V104.4h8.92v4.71s15.85,0,15.85-9.29V82.6l-1.23-26.27s0.54-3.32-7-3.32c0,0,.21-5.32-5-5.32H873.17" transform="translate(0 89.7)" fill="#fff" stroke="#000" stroke-linejoin="round" stroke-width="0.71"/>
    <path d="M831.41,85.59c0,3,4.3,3.76,4.3,3.76s-0.57-6.41,4.92-6.41h52.51s4.41-.34,4.41,5.22c0,0,4.22-.48,4.22-5.56" transform="translate(0 89.7)" fill="#fff" stroke="#000" stroke-linejoin="round" stroke-width="0.71"/>
    <path d="M866,80.37s-5.39,1.55-6.56-2.79l-0.25-17.68a4.22,4.22,0,0,1,3.3-1.63c2,0,3.64,2,3.64,2Z" transform="translate(0 89.7)" fill="#fff" stroke="#000" stroke-linejoin="round" stroke-width="0.71"/>
    <path d="M866,80.37s-0.37,2.57,2.76,2.57h24.34c2.85-.86,2.5-4,2.5-4s-1.07-12-2.54-12.07c-2-.15-22.13.56-22.13,0.56V56l-1.24-.93H866V80.37Z" transform="translate(0 89.7)" fill="#fff" stroke="#000" stroke-linejoin="round" stroke-width="0.71"/>
    <path d="M872.86,52.39V44s0.21-1.84-2.27-1.84c0,0-2.34-.43-3,1.05l-0.1,9.15" transform="translate(0 89.7)" fill="#fff" stroke="#000" stroke-linejoin="round" stroke-width="0.71"/>
    <path d="M840.29,68.13l0.31-16.79s0.06-1.24,2.48-1.24H861s2-.53,2.17-2,0-9.55,0-9.55a0.76,0.76,0,0,1,.55-0.53h3.43a0.63,0.63,0,0,1,.33.6V52.39" transform="translate(0 89.7)" fill="#fff" stroke="#000" stroke-linejoin="round" stroke-width="0.71"/>
    <path d="M840.17,64.71h-2.23v3.41l9.47,0.06a1.06,1.06,0,0,0,.62-0.93l-0.34-11.7s-0.09-3.16,2.6-3.16h32s2.92-.09,2.69,3.53c-0.42,6.58-.9,11.09-0.9,11.09" transform="translate(0 89.7)" fill="none" stroke="#000" stroke-linejoin="round" stroke-width="0.71"/>
    <path d="M839.71,126.31s9,11.55,30.66,9.85a40.12,40.12,0,0,0,22.27-9.59" transform="translate(0 89.7)" fill="none" stroke="#000" stroke-linejoin="round" stroke-width="0.71"/>
    <path d="M837.16,127s16,17.49,40.9,10.71c9.43-2.57,14.85-7.71,17.94-12.39" transform="translate(0 89.7)" fill="none" stroke="#000" stroke-linejoin="round" stroke-width="0.71"/>
    <line x1="866.52" y1="217.03" x2="866.52" y2="225.72" fill="#fff" stroke="#000" stroke-linejoin="round" stroke-width="0.71"/>
    <g>
      <path d="M879.68,78.28s8.47,0,8.47-5.63v-6h-2.5s-0.5,2.41-2.75,2.41c-1.88,0-3.19,0-3.19,0-4.92,0-8.93,2-8.93,4.59S874.76,78.28,879.68,78.28Zm-1-8.08c3.13,0,5.66,1.75,5.66,3.45s-2.53,3.09-5.66,3.09-5.66-1.38-5.66-3.09S875.6,70.19,878.73,70.19Z" transform="translate(0 89.7)" fill="#fff" stroke="#000" stroke-linecap="round" stroke-linejoin="round"/>
      <path d="M889.82,67.85V57.7c0-3.53,1.26-1.19,1.26-9.33,0,0,.2-2.74-7-2.74s-7,2.74-7,2.74c0,8.44,1.26,5.41,1.26,9.74v9.74s1.68,2,5.78,2S889.82,67.85,889.82,67.85Z" transform="translate(0 89.7)" fill="#fff" stroke="#000" stroke-linecap="round" stroke-linejoin="round" stroke-width="0.71"/>
      <ellipse cx="884.04" cy="137.91" rx="7.04" ry="2.58" fill="#fff" stroke="#000" stroke-linecap="round" stroke-linejoin="round" stroke-width="0.71"/>
      <path d="M875.84,17.88s4.4,11.41,8.67,16.46c4.9,5.78,4.89,15.54,4.89,15.54S888,50.8,884,50.8s-5.31-.89-5.31-0.89,0-8.16-5.26-14.3c-4.78-5.58-6.95-17.36-6.95-17.36Z" transform="translate(0 89.7)" fill="#fff" stroke="#000" stroke-linejoin="round" stroke-width="0.71"/>
      <polygon points="877.07 162.74 876.12 163.42 877.08 163.88 878.15 163.19 879.33 163.19 880.37 163.91 881.33 163.43 880.5 162.91 880.5 162.15 881.24 161.53 880.47 161.09 879.36 161.62 878.21 161.62 876.97 161.11 876.17 161.53 877.07 162.01 877.07 162.74"/>
    </g>
    <g>
      <path d="M854.35,50.06V39.91c0-3.53,1.26-1.19,1.26-9.33,0,0,.2-2.74-7-2.74s-7,2.74-7,2.74c0,8.44,1.26,5.41,1.26,9.74v9.74s1.68,2,5.78,2S854.35,50.06,854.35,50.06Z" transform="translate(0 89.7)" fill="#fff" stroke="#000" stroke-linecap="round" stroke-linejoin="round" stroke-width="0.71"/>
      <ellipse cx="848.57" cy="120.12" rx="7.04" ry="2.58" fill="#fff" stroke="#000" stroke-linecap="round" stroke-linejoin="round" stroke-width="0.71"/>
      <path d="M854.76,17.88s-0.12,2.74-5.07,5a10.73,10.73,0,0,0-6.47,9.18s1.42,0.91,5.37.91,4.83-.72,4.83-0.72-0.78-1.54,4.71-4.68c6.38-3.66,5.95-9.36,5.95-9.36Z" transform="translate(0 89.7)" fill="#fff" stroke="#000" stroke-linejoin="round" stroke-width="0.71"/>
      <path d="M845.52,51.63v6.91s0.84,2.56,2.33,2.56" transform="translate(0 89.7)" fill="none" stroke="#000" stroke-linecap="round" stroke-linejoin="round" stroke-width="0.71"/>
    </g>
    <path d="M881.15,0.17V18c0,2-6.71,3.73-15.48,3.73s-15.52-1.61-15.52-3.64V0.17" transform="translate(0 89.7)" fill="#fff" stroke="#000" stroke-linejoin="round"/>
  </g>
  <g opacity="0.25">
    <g>
      <g id="5b556247-db99-4e8a-8dd9-887a57268cc9" data-name="eye lug">
        <path d="M1006.43,109.3a24.44,24.44,0,0,1,.32-5.26l1.53-1s1.52-1.35,1.52-11.17h-17c0,10.19,1.52,11.17,1.52,11.17l1.53,1c0.36,1.68.57,7.66,0,9.58l-1.53.72v5.85h7" transform="translate(0 89.7)" fill="#fff" stroke="#000" stroke-linejoin="round" stroke-width="0.71"/>
        <line x1="995.85" y1="193.74" x2="1006.76" y2="193.74" fill="none" stroke="#000" stroke-linejoin="round" stroke-width="0.71"/>
        <line x1="995.85" y1="203.32" x2="1001.3" y2="203.32" fill="none" stroke="#000" stroke-linejoin="round" stroke-width="0.71"/>
      </g>
      <path id="904b4ead-d257-4b81-961a-83ccf8d41638" data-name="cable" d="M995.85,91.84S994.26,81,1002.33,74c6.49-5.67,3.68-18.83,3.68-18.83h14.26s0.59,16-8.35,24.75c-6.76,6.65-4.35,11.91-4.35,11.91H995.85Z" transform="translate(0 89.7)" fill="#fff" stroke="#000" stroke-linejoin="round" stroke-width="0.71"/>
    </g>
    <path d="M1053.74,217.27V943.2s0,11.07-11.34,11.07-11.34-11.07-11.34-11.07V217.27" transform="translate(0 89.7)" fill="none" stroke="#231f20" stroke-miterlimit="10" stroke-width="0.71"/>
    <path d="M1014.06,217.27V943.2s0,11.07-11.34,11.07-11.34-11.07-11.34-11.07V217.27" transform="translate(0 89.7)" fill="none" stroke="#231f20" stroke-miterlimit="10" stroke-width="0.71"/>
    <path d="M981.46,160.57h54.33v-5.93h10.4v5.93h17.48V132.81h-4.92c0-6.65-5.14-6.25-5.14-6.25H992.37c-6.4,0-5.74,6.25-5.74,6.25h-5Z" transform="translate(0 89.7)" fill="none" stroke="#000" stroke-linejoin="round" stroke-width="0.71"/>
    <line x1="1022.56" y1="250.27" x2="1022.56" y2="270.11" fill="none" stroke="#000" stroke-linejoin="round" stroke-width="0.71"/>
    <polygon points="1075 250.27 1075 270.12 1022.56 270.12 970.12 270.12 970.12 250.27 1075 250.27" fill="none" stroke="#000" stroke-linejoin="round" stroke-width="0.71"/>
    <g>
      <path d="M1066.75,217.27H978.61a14.6,14.6,0,0,1-1.35-2.92c-0.05-.66,2-1.3,2-3.21,0-2.43-2.06-3.25-2.06-3.9s2.06-1.49,2.06-3.37-2.06-2.14-2.06-2.92,2.06-1,2.06-3.06-2.06-2.1-2.06-2.87,2.06-1.17,2.06-2.83-2.06-2.49-2.06-3.19,2.81-2.66,2.81-8.59h85.33c0,5.27,2.53,7.8,2.53,8.59s-2,.49-1.61,2.37c0.35,1.66,1.23,1.34,1.23,2.11s-1.9.91-1.9,2.83,1.9,2.33,1.9,3.1-1.9,1.36-1.9,3.28,1.9,2.32,1.9,3-1.9,1.46-1.9,3.73c0,2,2,2.52,2.28,2.91S1066.75,217.27,1066.75,217.27Z" transform="translate(0 89.7)" fill="none" stroke="#000" stroke-linejoin="round" stroke-width="0.71"/>
      <line x1="1067.5" y1="278.7" x2="977.21" y2="278.7" fill="none" stroke="#000" stroke-linejoin="round" stroke-width="0.71"/>
      <line x1="977.21" y1="284.72" x2="1067.5" y2="283.18" fill="none" stroke="#000" stroke-linejoin="round" stroke-width="0.71"/>
      <line x1="977.42" y1="290.66" x2="1067.5" y2="289.11" fill="none" stroke="#000" stroke-linejoin="round" stroke-width="0.71"/>
      <line x1="977.21" y1="296.94" x2="1067.5" y2="295.39" fill="none" stroke="#000" stroke-linejoin="round" stroke-width="0.71"/>
    </g>
    <rect x="1001.3" y="199.25" width="42.52" height="17.01" fill="#fff" stroke="#000" stroke-linejoin="round" stroke-width="0.71"/>
    <rect x="1020.37" y="195.72" width="3.96" height="20.54" fill="#fff" stroke="#000" stroke-linejoin="round" stroke-width="0.71"/>
    <g>
      <polygon points="1020.37 193.72 1016.41 194.72 1016.41 216.26 1020.37 216.26 1020.37 193.72" fill="#fff" stroke="#000" stroke-linejoin="round" stroke-width="0.71"/>
      <path d="M1016.41,105s1.33,3,4-1" transform="translate(0 89.7)" fill="none" stroke="#000" stroke-linejoin="round" stroke-width="0.71"/>
    </g>
    <g>
      <path id="d6b54c62-85f1-4f40-9583-7b21e9f21836" data-name="screw" d="M1027.08,125c0-1.94.7-3.19,6.66-3.19,5.71,0,6.66,1.25,6.66,3.19h-13.32Z" transform="translate(0 89.7)" fill="none" stroke="#000" stroke-linejoin="round" stroke-width="0.71"/>
      <g id="2114c2c5-8315-441a-bad5-97dffbb4db73" data-name="eye lug">
        <path d="M1037.32,91.84c0,10.19,1.52,11.17,1.52,11.17l1.53,1c0.36,1.68.57,7.66,0,9.58l-1.53.72v5.85h14v-6l-1.53-.55s-0.76-5.84,0-9.58l1.53-1s1.52-1.35,1.52-11.17h-17Z" transform="translate(0 89.7)" fill="#fff" stroke="#000" stroke-linejoin="round" stroke-width="0.71"/>
        <line x1="1040.37" y1="193.74" x2="1051.28" y2="193.74" fill="none" stroke="#000" stroke-linejoin="round" stroke-width="0.71"/>
        <line x1="1040.37" y1="203.32" x2="1051.28" y2="203.32" fill="none" stroke="#000" stroke-linejoin="round" stroke-width="0.71"/>
        <path d="M1027.08,125v1.59h14.64s4.63-.29,1.5-6.37h-1.81s2.75,4.77-1,4.77h-13.32Z" transform="translate(0 89.7)" fill="#fff" stroke="#000" stroke-linejoin="round" stroke-width="0.71"/>
      </g>
      <path id="a5b69223-39c1-409d-8f38-8c04546ef90b" data-name="cable" d="M1052,91.84s1.31-7.65-8.21-19c-6-7.18-7.16-17.62-7.16-17.62h-13.24s0.9,14.33,9,23.1c8.54,9.29,7.15,13.57,7.15,13.57H1052Z" transform="translate(0 89.7)" fill="#fff" stroke="#000" stroke-linejoin="round" stroke-width="0.71"/>
    </g>
    <rect x="998.39" y="89.7" width="46.92" height="55.18" fill="none" stroke="#000" stroke-linejoin="round" stroke-width="0.71"/>
  </g>
  <g>
    <g id="5aca5b07-9fb8-458a-affa-d8001e750b17" data-name="eye lug">
      <path d="M1078.68,122.35c0.09,10.19,1.63,11.16,1.63,11.16l1.54,1c0.37,1.67.64,7.65,0.09,9.58l-1.52.73,0.05,5.85,14-.13-0.06-6-1.53-.54s-0.82-5.84-.09-9.58l1.52-1s1.51-1.37,1.42-11.19Z" transform="translate(0 89.7)" fill="#fff" stroke="#000" stroke-linejoin="round" stroke-width="0.71"/>
      <line x1="1081.84" y1="224.22" x2="1092.75" y2="224.12" fill="none" stroke="#000" stroke-linejoin="round" stroke-width="0.71"/>
      <line x1="1081.93" y1="233.8" x2="1092.84" y2="233.7" fill="none" stroke="#000" stroke-linejoin="round" stroke-width="0.71"/>
    </g>
    <path id="a61bd38b-59de-4c6c-9ce9-307e9565df81" data-name="ground cable" d="M1093.41,122.2s0.08-5.91-8.25-16.18c-7-8.61-19.08-14.14-40.94-23.92-17.68-7.91-15.77-26.92-15.77-26.92h-13.2s0.09,26.61,17.42,34.13c21,9.12,34.24,15.29,39.5,20.24,9.19,8.64,8.79,12.69,8.79,12.69Z" transform="translate(0 89.7)" fill="#fff" stroke="#000" stroke-linejoin="round" stroke-width="0.71"/>
    <g id="e3281680-8a18-40ff-9a64-e9b323b2599b" data-name="eye lug metal">
      <path d="M1083.56,150.66a4.18,4.18,0,0,1,.22,2.7,24.43,24.43,0,0,1,7-.08,3.48,3.48,0,0,1-.16-2.69Z" transform="translate(0 89.7)" fill="none" stroke="#000" stroke-linejoin="round" stroke-width="0.71"/>
      <polygon points="1093.98 247.34 1080.9 247.5 1080.75 246.03 1094.07 245.91 1093.98 247.34" fill="none" stroke="#000" stroke-linejoin="round" stroke-width="0.71"/>
    </g>
    <g id="a9554755-0d15-4df8-8950-19e767be6edf" data-name="screw">
      <path d="M1080.75,156.34c0-1.94.67-3.19,6.63-3.25,5.71-.05,6.67,1.19,6.69,3.12Z" transform="translate(0 89.7)" fill="none" stroke="#000" stroke-linejoin="round" stroke-width="0.71"/>
      <polygon points="1089.65 254.72 1085.34 254.76 1085.31 247.43 1089.62 247.39 1089.65 254.72" fill="none" stroke="#000" stroke-linejoin="round" stroke-width="0.71"/>
      <line x1="1085.32" y1="249.46" x2="1089.63" y2="248.93" fill="none" stroke="#000" stroke-linejoin="round" stroke-width="0.71"/>
      <line x1="1085.37" y1="250.81" x2="1089.68" y2="250.29" fill="none" stroke="#000" stroke-linejoin="round" stroke-width="0.71"/>
      <line x1="1085.29" y1="252.15" x2="1089.6" y2="251.63" fill="none" stroke="#000" stroke-linejoin="round" stroke-width="0.71"/>
      <line x1="1085.33" y1="253.51" x2="1089.65" y2="252.96" fill="none" stroke="#000" stroke-linejoin="round" stroke-width="0.71"/>
    </g>
  </g>
  <g opacity="0.25">
    <polyline points="693.74 340.62 684.28 342.99 684.28 378.37 728.31 390.61 772.41 378.37 772.41 342.99 762.92 340.62" fill="#fff" stroke="#231f20" stroke-miterlimit="10" stroke-width="0.71"/>
    <path d="M763,240.36" transform="translate(0 89.7)" fill="#fff" stroke="#231f20" stroke-miterlimit="10" stroke-width="0.71"/>
    <path d="M693.74,240.13v24.38S700,277.28,728,277.28c18,0,31.76-7.16,34.94-14.31v-22.6" transform="translate(0 89.7)" fill="#fff" stroke="#231f20" stroke-miterlimit="10" stroke-width="0.71"/>
    <path d="M693.74,259.39S700,272.15,728,272.15c18.52,0,30.3-6.13,34.94-13.32" transform="translate(0 89.7)" fill="#fff" stroke="#231f20" stroke-miterlimit="10" stroke-width="0.71"/>
    <path d="M693.74,254.26S700,267,728,267c17.32,0,33.13-8.19,34.94-13.79" transform="translate(0 89.7)" fill="#fff" stroke="#231f20" stroke-miterlimit="10" stroke-width="0.71"/>
    <path d="M693.74,249.13s6.69,12.79,34.28,12.76c21.95,0,32.19-8.21,34.94-14.31" transform="translate(0 89.7)" fill="#fff" stroke="#231f20" stroke-miterlimit="10" stroke-width="0.71"/>
    <path d="M693.74,244.1s2,12.76,34.28,12.76c21,0,32.88-7.56,34.94-14.31" transform="translate(0 89.7)" fill="#fff" stroke="#231f20" stroke-miterlimit="10" stroke-width="0.71"/>
    <path d="M752.61,229.89v10.86c0,2.17-3.81,3.94-8.51,3.94s-8.51-1.76-8.51-3.94V226.09c-2.34-.21-4.76-0.32-7.24-0.32-2.32,0-4.58.1-6.78,0.28v14.7c0,2.17-3.81,3.94-8.51,3.94s-8.51-1.76-8.51-3.94v-11c-6.66,2.62-10.82,6.32-10.82,10.43,0,7.93,15.5,14.36,34.61,14.36S763,248.07,763,240.13C763,236.12,759,232.5,752.61,229.89Z" transform="translate(0 89.7)" fill="#fff" stroke="#231f20" stroke-miterlimit="10" stroke-width="0.71"/>
    <path d="M759.32,292.75v15.5a5.67,5.67,0,0,1-5.67,5.67h-49a5.67,5.67,0,0,1-5.67-5.67v-15.5" transform="translate(0 89.7)" fill="none" stroke="#231f20" stroke-linecap="round" stroke-linejoin="round" stroke-width="0.71"/>
    <path d="M721.57,237.44v3.31c0,2.17-3.81,3.94-8.51,3.94s-8.51-1.76-8.51-3.94v-3.31a3.43,3.43,0,0,0-1.8,2.7c0,2.63,4.62,4.77,10.31,4.77s10.31-2.14,10.31-4.77A3.43,3.43,0,0,0,721.57,237.44Z" transform="translate(0 89.7)" fill="#fff" stroke="#231f20" stroke-miterlimit="10" stroke-width="0.71"/>
    <path d="M752.61,237.44v3.31c0,2.17-3.81,3.94-8.51,3.94s-8.51-1.76-8.51-3.94v-3.31a3.43,3.43,0,0,0-1.8,2.7c0,2.63,4.62,4.77,10.31,4.77s10.31-2.14,10.31-4.77A3.43,3.43,0,0,0,752.61,237.44Z" transform="translate(0 89.7)" fill="#fff" stroke="#231f20" stroke-miterlimit="10" stroke-width="0.71"/>
    <path d="M721.57,187.19v53.56c0,2.17-3.81,3.94-8.51,3.94s-8.51-1.76-8.51-3.94V187.19" transform="translate(0 89.7)" fill="#fff" stroke="#231f20" stroke-miterlimit="10" stroke-width="0.71"/>
    <path d="M752.61,187.19v53.56c0,2.17-3.81,3.94-8.51,3.94s-8.51-1.76-8.51-3.94V187.19" transform="translate(0 89.7)" fill="#fff" stroke="#231f20" stroke-miterlimit="10" stroke-width="0.71"/>
    <line x1="728.35" y1="379.71" x2="728.35" y2="390.61" fill="#fff" stroke="#231f20" stroke-miterlimit="10" stroke-width="0.71"/>
    <polyline points="772.41 367.47 728.35 379.71 684.28 367.47" fill="#fff" stroke="#231f20" stroke-miterlimit="10" stroke-width="0.71"/>
  </g>
  <g>
    <path d="M771.32,237.83c-3.38-9.58-10.41-9.77-18.71-7.94,0,0,9.94,3.64,10.34,9.9v13.44s-9.11,14.1-35.74,17.1c-26.83,3-33.48-10.21-33.48-10.21V241.86c-7,4-11.36,9.6-11.36,17v6.66c0,16.85,22.17,17.5,46,17.52,20.47,0,46-18.67,46-35.52Z" transform="translate(0 89.7)" fill="#aaa" stroke="#231f20" stroke-linecap="round" stroke-linejoin="round" stroke-width="0.71"/>
    <path d="M682.37,258.83c0,16.85,24.45,18.45,46,17.52s48.58-22.63,43-38.52c-3.38-9.58-10.41-9.77-18.71-7.94" transform="translate(0 89.7)" fill="none" stroke="#231f20" stroke-linecap="round" stroke-linejoin="round" stroke-width="0.71"/>
  </g>
  <g opacity="0.25">
    <polyline points="693.74 513.29 684.28 515.66 684.28 551.03 728.31 563.27 772.41 551.03 772.41 515.66 762.92 513.29" fill="#fff" stroke="#231f20" stroke-miterlimit="10" stroke-width="0.71"/>
    <path d="M763,413" transform="translate(0 89.7)" fill="#fff" stroke="#231f20" stroke-miterlimit="10" stroke-width="0.71"/>
    <path d="M693.74,412.8v24.38S700,449.95,728,449.95c18,0,31.76-7.16,34.94-14.31V413" transform="translate(0 89.7)" fill="#fff" stroke="#231f20" stroke-miterlimit="10" stroke-width="0.71"/>
    <path d="M693.74,432.05S700,444.82,728,444.82c18.52,0,30.3-6.13,34.94-13.32" transform="translate(0 89.7)" fill="#fff" stroke="#231f20" stroke-miterlimit="10" stroke-width="0.71"/>
    <path d="M693.74,426.93S700,439.69,728,439.69c17.32,0,33.13-8.19,34.94-13.79" transform="translate(0 89.7)" fill="#fff" stroke="#231f20" stroke-miterlimit="10" stroke-width="0.71"/>
    <path d="M693.74,421.8s6.69,12.79,34.28,12.76c21.95,0,32.19-8.21,34.94-14.31" transform="translate(0 89.7)" fill="#fff" stroke="#231f20" stroke-miterlimit="10" stroke-width="0.71"/>
    <path d="M693.74,416.76s2,12.76,34.28,12.76c21,0,32.88-7.56,34.94-14.31" transform="translate(0 89.7)" fill="#fff" stroke="#231f20" stroke-miterlimit="10" stroke-width="0.71"/>
    <path d="M752.61,402.56v10.86c0,2.17-3.81,3.94-8.51,3.94s-8.51-1.76-8.51-3.94V398.75c-2.34-.21-4.76-0.32-7.24-0.32-2.32,0-4.58.1-6.78,0.28v14.7c0,2.17-3.81,3.94-8.51,3.94s-8.51-1.76-8.51-3.94v-11c-6.66,2.62-10.82,6.32-10.82,10.43,0,7.93,15.5,14.36,34.61,14.36S763,420.73,763,412.8C763,408.79,759,405.16,752.61,402.56Z" transform="translate(0 89.7)" fill="#fff" stroke="#231f20" stroke-miterlimit="10" stroke-width="0.71"/>
    <path d="M759.32,465.42v15.5a5.67,5.67,0,0,1-5.67,5.67h-49a5.67,5.67,0,0,1-5.67-5.67v-15.5" transform="translate(0 89.7)" fill="none" stroke="#231f20" stroke-linecap="round" stroke-linejoin="round" stroke-width="0.71"/>
    <path d="M721.57,410.11v3.31c0,2.17-3.81,3.94-8.51,3.94s-8.51-1.76-8.51-3.94v-3.31a3.43,3.43,0,0,0-1.8,2.7c0,2.63,4.62,4.77,10.31,4.77s10.31-2.14,10.31-4.77A3.43,3.43,0,0,0,721.57,410.11Z" transform="translate(0 89.7)" fill="#fff" stroke="#231f20" stroke-miterlimit="10" stroke-width="0.71"/>
    <path d="M752.61,410.11v3.31c0,2.17-3.81,3.94-8.51,3.94s-8.51-1.76-8.51-3.94v-3.31a3.43,3.43,0,0,0-1.8,2.7c0,2.63,4.62,4.77,10.31,4.77s10.31-2.14,10.31-4.77A3.43,3.43,0,0,0,752.61,410.11Z" transform="translate(0 89.7)" fill="#fff" stroke="#231f20" stroke-miterlimit="10" stroke-width="0.71"/>
    <path d="M721.57,359.86v53.56c0,2.17-3.81,3.94-8.51,3.94s-8.51-1.76-8.51-3.94V359.86" transform="translate(0 89.7)" fill="#fff" stroke="#231f20" stroke-miterlimit="10" stroke-width="0.71"/>
    <path d="M752.61,359.86v53.56c0,2.17-3.81,3.94-8.51,3.94s-8.51-1.76-8.51-3.94V359.86" transform="translate(0 89.7)" fill="#fff" stroke="#231f20" stroke-miterlimit="10" stroke-width="0.71"/>
    <line x1="728.35" y1="552.38" x2="728.35" y2="563.27" fill="#fff" stroke="#231f20" stroke-miterlimit="10" stroke-width="0.71"/>
    <polyline points="772.41 540.14 728.35 552.38 684.28 540.14" fill="#fff" stroke="#231f20" stroke-miterlimit="10" stroke-width="0.71"/>
  </g>
  <g>
    <path d="M762.92,420.33l0,15.87s-0.89,14.36-34.61,14.36-34.61-14.36-34.61-14.36V420c-7,3.9-11.27,9-11.27,14.58v3.36c0,12.23,20.39,22.15,45.55,22.15s45.55-9.92,45.55-22.15v-3.36C773.57,429.14,769.57,424.18,762.92,420.33Z" transform="translate(0 89.7)" fill="#aaa" stroke="#231f20" stroke-linecap="round" stroke-linejoin="round" stroke-width="0.71"/>
    <path d="M773.57,434.56c0,12.23-20.39,22.15-45.55,22.15s-45.55-9.92-45.55-22.15" transform="translate(0 89.7)" fill="none" stroke="#231f20" stroke-linecap="round" stroke-linejoin="round" stroke-width="0.71"/>
  </g>
  <g opacity="0.25">
    <path d="M763,588.36" transform="translate(0 89.7)" fill="#fff" stroke="#231f20" stroke-miterlimit="10" stroke-width="0.71"/>
    <line x1="762.96" y1="696.53" x2="762.96" y2="678.06" fill="#fff" stroke="#231f20" stroke-miterlimit="10" stroke-width="0.71"/>
    <line x1="693.74" y1="677.83" x2="693.74" y2="698.07" fill="#fff" stroke="#231f20" stroke-miterlimit="10" stroke-width="0.71"/>
    <path d="M693.74,607.39S700,620.15,728,620.15c18.52,0,30.3-6.13,34.94-13.32" transform="translate(0 89.7)" fill="#fff" stroke="#231f20" stroke-miterlimit="10" stroke-width="0.71"/>
    <path d="M693.74,602.26S700,615,728,615c17.32,0,33.13-8.19,34.94-13.79" transform="translate(0 89.7)" fill="#fff" stroke="#231f20" stroke-miterlimit="10" stroke-width="0.71"/>
    <path d="M693.74,597.13s6.69,12.79,34.28,12.76c21.95,0,32.19-8.21,34.94-14.31" transform="translate(0 89.7)" fill="#fff" stroke="#231f20" stroke-miterlimit="10" stroke-width="0.71"/>
    <path d="M693.74,592.1s2,12.76,34.28,12.76c21,0,32.88-7.56,34.94-14.31" transform="translate(0 89.7)" fill="#fff" stroke="#231f20" stroke-miterlimit="10" stroke-width="0.71"/>
    <path d="M752.61,577.89v10.86c0,2.17-3.81,3.94-8.51,3.94s-8.51-1.76-8.51-3.94V574.09c-2.34-.21-4.76-0.32-7.24-0.32-2.32,0-4.58.1-6.78,0.28v14.7c0,2.17-3.81,3.94-8.51,3.94s-8.51-1.76-8.51-3.94v-11c-6.66,2.62-10.82,6.32-10.82,10.43,0,7.93,15.5,14.36,34.61,14.36S763,596.07,763,588.13C763,584.12,759,580.5,752.61,577.89Z" transform="translate(0 89.7)" fill="#fff" stroke="#231f20" stroke-miterlimit="10" stroke-width="0.71"/>
    <path d="M721.57,585.44v3.31c0,2.17-3.81,3.94-8.51,3.94s-8.51-1.76-8.51-3.94v-3.31a3.43,3.43,0,0,0-1.8,2.7c0,2.63,4.62,4.77,10.31,4.77s10.31-2.14,10.31-4.77A3.43,3.43,0,0,0,721.57,585.44Z" transform="translate(0 89.7)" fill="#fff" stroke="#231f20" stroke-miterlimit="10" stroke-width="0.71"/>
    <path d="M752.61,585.44v3.31c0,2.17-3.81,3.94-8.51,3.94s-8.51-1.76-8.51-3.94v-3.31a3.43,3.43,0,0,0-1.8,2.7c0,2.63,4.62,4.77,10.31,4.77s10.31-2.14,10.31-4.77A3.43,3.43,0,0,0,752.61,585.44Z" transform="translate(0 89.7)" fill="#fff" stroke="#231f20" stroke-miterlimit="10" stroke-width="0.71"/>
    <path d="M721.57,535.19v53.56c0,2.17-3.81,3.94-8.51,3.94s-8.51-1.76-8.51-3.94V535.19" transform="translate(0 89.7)" fill="#fff" stroke="#231f20" stroke-miterlimit="10" stroke-width="0.71"/>
    <path d="M752.61,535.19v53.56c0,2.17-3.81,3.94-8.51,3.94s-8.51-1.76-8.51-3.94V535.19" transform="translate(0 89.7)" fill="#fff" stroke="#231f20" stroke-miterlimit="10" stroke-width="0.71"/>
  </g>
  <path d="M770.57,608.79c0,12.23-17.39,19.15-42.55,19.15s-41.55-6.92-41.55-19.15c0-11.38,7.27-13.95,7.27-13.95v11.22s0.89,14.36,34.61,14.36c32.14,0,34.61-14.36,34.61-14.36l0-10.87S770.57,598.42,770.57,608.79Z" transform="translate(0 89.7)" fill="#aaa" stroke="#231f20" stroke-linecap="round" stroke-linejoin="round" stroke-width="0.71"/>
</svg>
