<svg id="8f03742e-b9df-476d-83a7-a70945eb6002" data-name="illustration" xmlns="http://www.w3.org/2000/svg" viewBox="0 0 141.73 155.91">
  <title>heater_element</title>
  <g opacity="0.25">
    <path d="M110.27,92.52c-1.32-23.4,16.82-29.16,16.82-29.16l1.82,10.75a24.52,24.52,0,0,0-8.8,20.32l1.08,9.07-9.66,1.67A104.37,104.37,0,0,1,110.27,92.52Z" fill="none" stroke="#000" stroke-linejoin="round" stroke-width="0.71"/>
    <g>
      <path d="M127,136.15s-0.21-2.84-5.64-17.12l-4.25.74c0.15,15.2.77,18,.77,18,0.84,4.85,3.56,8.43,6.08,8S127.88,141,127,136.15Zm-7.38,2.61c-0.53-3.08.39-5.81,2.07-6.11s3.47,2,4,5.05-0.39,5.81-2.07,6.11S120.19,141.84,119.65,138.76Z" fill="#fff" stroke="#000" stroke-linecap="round" stroke-linejoin="round"/>
      <g id="0b4fbe9a-0d50-46dc-91d7-ed8b1aa85e77" data-name="&lt;Group&gt;">
        <g>
          <line x1="117.77" y1="109.72" x2="121.05" y2="128.63" fill="none" stroke="#000" stroke-linecap="square" stroke-miterlimit="10" stroke-width="2.83"/>
          <line x1="117.77" y1="109.72" x2="121.05" y2="128.63" fill="none" stroke="#fff" stroke-linecap="square" stroke-linejoin="round" stroke-width="1.42"/>
        </g>
      </g>
      <path d="M126.14,126.47l-2.08-12c-0.6-3.48.7-3.36-.69-11.38l-13.88,2.41c1.44,8.32,2.51,7.09,3.25,11.35l2,11.57Z" fill="#fff" stroke="#000" stroke-linecap="round" stroke-linejoin="round" stroke-width="0.71"/>
    </g>
  </g>
  <g opacity="0.5">
    <polyline points="101.25 79.39 101.25 111.35 57.12 127.33 13 111.35 13 79.39 21.88 76.17" fill="none" stroke="#000" stroke-linejoin="round" stroke-width="0.71"/>
    <polyline points="101.25 111.35 101.25 120.04 57.12 136.02 13 120.04 13 111.35" fill="none" stroke="#000" stroke-linejoin="round" stroke-width="0.71"/>
    <path d="M53.8,47.69H33.85c-4.74,0-4.51,5.45-4.51,5.45s-7.47-.25-7.47,5.2L22,78.27s0.14,2.09,0,6.07L21.88,102s4,7.06,14.16,7.06H67.61V104.4h8.92v4.71s15.85,0,15.85-9.29V82.6L91.15,56.33s0.54-3.32-7-3.32c0,0,.21-5.32-5-5.32H63.77" fill="none" stroke="#000" stroke-linejoin="round" stroke-width="0.71"/>
    <path d="M56.65,80.37s-5.39,1.55-6.56-2.79L49.84,59.91a4.22,4.22,0,0,1,3.3-1.63c2,0,3.64,2,3.64,2Z" fill="none" stroke="#000" stroke-linejoin="round" stroke-width="0.71"/>
    <path d="M56.65,80.37s-0.37,2.57,2.76,2.57H83.75c2.85-.86,2.5-4,2.5-4s-1.07-12-2.54-12.07c-2-.15-22.13.56-22.13,0.56V56l-1.24-.93H56.65V80.37Z" fill="none" stroke="#000" stroke-linejoin="round" stroke-width="0.71"/>
    <path d="M63.46,52.39V44s0.21-1.84-2.27-1.84c0,0-2.34-.43-3,1.05l-0.1,9.15" fill="none" stroke="#000" stroke-linejoin="round" stroke-width="0.71"/>
    <path d="M30.77,64.71H28.54v3.41L38,68.18a1.06,1.06,0,0,0,.62-0.93l-0.34-11.7s-0.09-3.16,2.6-3.16h32s2.92-.09,2.69,3.53C75.21,62.5,74.73,67,74.73,67" fill="none" stroke="#000" stroke-linejoin="round" stroke-width="0.71"/>
    <path d="M30.89,68.13L31.2,51.34s0.06-1.24,2.48-1.24H51.6s2-.53,2.17-2,0-9.55,0-9.55A0.76,0.76,0,0,1,54.32,38h3.43a0.63,0.63,0,0,1,.33.6V52.39" fill="none" stroke="#000" stroke-linejoin="round" stroke-width="0.71"/>
    <path d="M30.31,126.31s9,11.55,30.66,9.85a40.12,40.12,0,0,0,22.27-9.59" fill="none" stroke="#000" stroke-linejoin="round" stroke-width="0.71"/>
    <path d="M87.78,124.92c-3.36,6.92-10.66,15.32-26.45,16.44C33.93,143.31,26.7,125,26.7,125" fill="none" stroke="#000" stroke-linejoin="round" stroke-width="0.71"/>
    <path d="M27.76,127s16,17.49,40.9,10.71c9.43-2.57,14.85-7.71,17.94-12.39" fill="none" stroke="#000" stroke-linejoin="round" stroke-width="0.71"/>
    <line x1="57.12" y1="127.33" x2="57.12" y2="136.02" fill="none" stroke="#000" stroke-linejoin="round" stroke-width="0.71"/>
    <ellipse cx="69.4" cy="74.39" rx="4.11" ry="2.29" fill="none" stroke="#000" stroke-linejoin="round" stroke-width="0.71"/>
    <path d="M22,85.59c0,3,4.3,3.76,4.3,3.76s-0.57-6.41,4.92-6.41H83.75s4.41-.34,4.41,5.22c0,0,4.22-.48,4.22-5.56" fill="none" stroke="#000" stroke-linejoin="round" stroke-width="0.71"/>
  </g>
  <g>
    <path d="M70.52,78.22s2.64,0.28,17.64-2.63V71.28C73.15,68.83,70.52,69,70.52,69,65.59,69,61.6,71,61.6,73.6S65.59,78.22,70.52,78.22Z" fill="#fff" stroke="#000" stroke-linecap="round" stroke-linejoin="round"/>
    <g id="1f8e7e11-5229-4bc8-add1-df7e6d42dd9d" data-name="&lt;Group&gt;">
      <g>
        <line x1="98.35" y1="73.61" x2="79.14" y2="73.61" fill="none" stroke="#000" stroke-linecap="square" stroke-miterlimit="10" stroke-width="2.83"/>
        <line x1="98.35" y1="73.61" x2="79.14" y2="73.61" fill="none" stroke="#fff" stroke-linecap="square" stroke-linejoin="round" stroke-width="1.42"/>
      </g>
    </g>
    <path d="M80.41,79H92.56c3.53,0,3.19,1.26,11.33,1.26V66.18c-8.44,0-7.41,1.26-11.74,1.26H80.41V79Z" fill="#fff" stroke="#000" stroke-linecap="round" stroke-linejoin="round" stroke-width="0.71"/>
    <path d="M69.4,69.94c3.13,0,5.66,1.94,5.66,3.65s-2.53,3.09-5.66,3.09-5.66-1.38-5.66-3.09S66.28,69.94,69.4,69.94Z" fill="#fff" stroke="#000" stroke-linecap="round" stroke-linejoin="round"/>
    <polygon points="67.75 72.79 66.8 73.47 67.76 73.93 68.83 73.24 70.01 73.24 71.05 73.96 72.01 73.49 71.18 72.96 71.18 72.2 71.92 71.58 71.14 71.14 70.04 71.67 68.89 71.67 67.64 71.16 66.84 71.58 67.75 72.06 67.75 72.79"/>
  </g>
  <g>
    <path d="M75.81,26.62S77.44,29,89.4,38.47l3.28-2.8c-7.89-13-9.83-15.06-9.83-15.06-3.2-3.74-7.37-5.43-9.31-3.77S72.61,22.88,75.81,26.62Zm5-6c2,2.38,2.63,5.2,1.33,6.31s-4,.08-6-2.3-2.63-5.2-1.33-6.31S78.79,18.23,80.83,20.61Z" fill="#fff" stroke="#000" stroke-linecap="round" stroke-linejoin="round"/>
    <g id="edc5621f-631e-42d7-bf48-c846db41b6e0" data-name="&lt;Group&gt;">
      <g>
        <line x1="97.27" y1="44.63" x2="84.79" y2="30.04" fill="none" stroke="#000" stroke-linecap="square" stroke-miterlimit="10" stroke-width="2.83"/>
        <line x1="97.27" y1="44.63" x2="84.79" y2="30.04" fill="none" stroke="#fff" stroke-linecap="square" stroke-linejoin="round" stroke-width="1.42"/>
      </g>
    </g>
    <path d="M81.52,34.49l7.9,9.24c2.29,2.68,1.12,3.25,6.4,9.43L106.52,44c-5.49-6.42-5.78-4.82-8.59-8.1L90.31,27Z" fill="#fff" stroke="#000" stroke-linecap="round" stroke-linejoin="round" stroke-width="0.71"/>
  </g>
  <rect x="103.89" y="68.18" width="23.6" height="10.05" fill="#fff" stroke="#000" stroke-linejoin="round" stroke-width="0.71"/>
  <path d="M127.64,65.43C108.82,65.43,97.2,52,97.2,52l7.71-6.59s9.68,10.45,23.95,10.88Z" fill="#fff" stroke="#000" stroke-linejoin="round" stroke-width="0.71"/>
  <path d="M141.65,83.26H128.37c-2,0-3.73-6.6-3.73-15.38s1.61-15.53,3.64-15.53l13.54-.17" fill="#fff" stroke="#000" stroke-linejoin="round"/>
</svg>
