<svg id="7e5b3f7d-a8f7-4383-a2ce-b9e25771c5e3" data-name="actions" xmlns="http://www.w3.org/2000/svg" viewBox="0 0 300 300">
  <title>icon</title>
  <g id="2f28296a-da0d-4590-86ef-636e246ecfd1" data-name="screw">
    <circle cx="150" cy="150" r="150" fill="#929497"/>
    <g>
      <g>
        <path d="M126,139.16l24.07-15.32,30.59-45.89s21.63-29.61,46.25-5-4.33,44.25-4.33,44.25l-48.8,31.25-16.19,23.64S134.56,163.44,126,139.16Z" fill="none" stroke="#fff" stroke-linecap="round" stroke-linejoin="round" stroke-width="15"/>
        <path d="M191.36,68.07s11.27,29.5,40.16,40.21" fill="none" stroke="#fff" stroke-linecap="round" stroke-linejoin="round" stroke-width="15"/>
        <path d="M150.08,123.83s5.82,15.3,23.71,24.62" fill="none" stroke="#fff" stroke-linecap="round" stroke-linejoin="round" stroke-width="15"/>
      </g>
      <path d="M138.72,159.22s0.12,0.68.25,1.84,0.29,2.84.36,4.84c0,1,0,2.06,0,3.22a0.6,0.6,0,0,1-.28.61,2.17,2.17,0,0,0-.59.33l-1,1L133,175.55l-24.27,24.27L84.45,224.1l-2.37,2.37a14.14,14.14,0,0,0-2,2.25,1.75,1.75,0,0,1-1.21.74l-1.66.16c-1.07.09-2.08,0.15-3,.2-1.84.09-3.36,0.09-4.42,0.06s-1.64-.06-1.64-0.06,0-.6-0.06-1.64,0-2.58.06-4.42c0-.92.11-1.93,0.2-3l0.16-1.66a1.75,1.75,0,0,1,.74-1.21,14.14,14.14,0,0,0,2.25-2l2.37-2.37,24.27-24.27,24.27-24.27,4.52-4.52,1-1a2.17,2.17,0,0,0,.33-0.59,0.6,0.6,0,0,1,.61-0.28c1.16,0,2.21,0,3.22,0,2,0.07,3.64.19,4.84,0.36S138.72,159.22,138.72,159.22Z" fill="#fff"/>
    </g>
  </g>
</svg>
