<svg id="179f4df3-378b-4737-85d9-73a0c350edbd" data-name="actions" xmlns="http://www.w3.org/2000/svg" viewBox="0 0 300 300">
  <title>icon</title>
  <path d="M296.82,247.83L170.32,28.71a23.46,23.46,0,0,0-40.63,0L3.18,247.83A23.46,23.46,0,0,0,23.49,283h253A23.46,23.46,0,0,0,296.82,247.83ZM150,243.25a11.87,11.87,0,1,1,11.87-11.87A11.87,11.87,0,0,1,150,243.25Zm14.72-143-5.07,87.3a9.66,9.66,0,0,1-19.29,0l-5.07-87.3A9.66,9.66,0,0,1,144.93,90h10.14A9.66,9.66,0,0,1,164.72,100.23Z" fill="#444"/>
</svg>
