<svg xmlns="http://www.w3.org/2000/svg" xmlns:xlink="http://www.w3.org/1999/xlink" viewBox="0 0 992.13 1134.57">
  <defs>
    <filter id="e63f0136-6ecf-4360-b806-158ecb5f6ea5" x="141.31" y="0" width="850.81" height="1134.57" filterUnits="userSpaceOnUse" color-interpolation-filters="sRGB">
      <feFlood flood-color="#fff" result="bg"/>
      <feBlend in="SourceGraphic" in2="bg"/>
    </filter>
    <mask id="884b68c2-f22c-4728-8ed5-fd0b36e56a9d" x="141.31" y="0" width="850.81" height="1134.57" maskUnits="userSpaceOnUse">
      <path d="M839.19,1134.57H992.13V0H839.19V783.28c14.85,0,23.22,24.33,23.22,46.26,0,19.82-8.37,43.55-23.22,43.55v261.48Z" filter="url(#e63f0136-6ecf-4360-b806-158ecb5f6ea5)"/>
    </mask>
    <filter id="e4fb4bfe-8263-466f-9eb9-2ec5c636af85" x="790.65" y="766.06" width="100.85" height="125.43" filterUnits="userSpaceOnUse" color-interpolation-filters="sRGB">
      <feFlood flood-color="#fff" result="bg"/>
      <feBlend in="SourceGraphic" in2="bg"/>
    </filter>
    <mask id="cabdc18f-7ece-4b49-9db5-49d3131e215d" x="790.65" y="766.06" width="100.85" height="125.43" maskUnits="userSpaceOnUse">
      <path d="M837.73,872c13.35,0,25.09-19.42,25.09-43.66,0-27.84-11.15-45.34-25-45.34H790.65v88.81Z" filter="url(#e4fb4bfe-8263-466f-9eb9-2ec5c636af85)"/>
    </mask>
    <linearGradient id="5c5386dd-246d-42fd-a85e-130b72e5a6c5" x1="163.68" y1="549.35" x2="1123.68" y2="787.35" gradientUnits="userSpaceOnUse">
      <stop offset="0" stop-color="#00adee" stop-opacity="0.1"/>
      <stop offset="0.15" stop-color="#00adee" stop-opacity="0.24"/>
      <stop offset="1" stop-color="#00adee"/>
    </linearGradient>
  </defs>
  <title>kettle</title>
  <g style="isolation: isolate">
    <g id="69857ab1-d97c-4aa7-8cec-a01de693cd4a" data-name="kettles">
      <g id="c9d87250-652d-43fd-a59a-501bcb763a70" data-name="iso inside">
        <path d="M496.06,168.29C222.1,168.29,0,130.7,0,84.34v965.88c0,46.36,222.1,83.94,496.06,83.94s496.06-37.58,496.06-83.94V84.34C992.13,130.7,770,168.29,496.06,168.29ZM839.19,873.46c-13.37,0-24.2-20.34-24.2-45.44s10.83-45.44,24.2-45.44,24.2,20.34,24.2,45.44S852.56,873.46,839.19,873.46Z" fill="#d0d2d3" stroke="#231f20" stroke-miterlimit="10" stroke-width="0.71"/>
        <path d="M814.59,870.66l14.14,16.57,6.08,2.64,11.39,0.51c20.41,5.77,44.95-15.35,44.95-63,0-37-18.67-60.86-35.05-60.86l-9.44.55s-25.94,6.51-30.85,17.66c0,0-11.88,17.83-11.88,44.22S814.59,870.66,814.59,870.66Z" fill="#fff"/>
        <ellipse id="e00533b3-63f3-4caf-a55b-569ab2e9b797" data-name="kettle bottom" cx="496.06" cy="84.34" rx="496.06" ry="83.94" fill="#d0d2d3" stroke="#231f20" stroke-miterlimit="10" stroke-width="0.71"/>
        <ellipse id="059f2c6f-9710-4159-a813-e4c6cff83b09" data-name="kettle top" cx="496.06" cy="1049.72" rx="496.06" ry="83.94" fill="#d0d2d3" stroke="#231f20" stroke-miterlimit="10" stroke-width="0.71"/>
        <g mask="url(#884b68c2-f22c-4728-8ed5-fd0b36e56a9d)">
          <g>
            <path d="M823.45,873.29h40.88s21.4-8.25,21.4-44.92c0-23.6-12-41.62-24-45.79h-37.9" fill="#fff" stroke="#231f20" stroke-miterlimit="10" stroke-width="0.71"/>
            <path d="M855.73,873.29s21.4-8.25,21.4-44.92c0-24.27-10.28-39.7-22.34-45.79" fill="#fff" stroke="#231f20" stroke-miterlimit="10" stroke-width="0.71"/>
            <path d="M847.13,873.29s21.4-8.25,21.4-44.92c0-22.7-13.74-43.42-23.13-45.79" fill="#fff" stroke="#231f20" stroke-miterlimit="10" stroke-width="0.71"/>
            <path d="M838.53,873.29s21.45-8.77,21.4-44.92c0-28.76-13.76-42.18-24-45.79" fill="#fff" stroke="#231f20" stroke-miterlimit="10" stroke-width="0.71"/>
            <path d="M830.09,873.29s21.4-2.66,21.4-44.92c0-27.54-12.67-43.08-24-45.79" fill="#fff" stroke="#231f20" stroke-miterlimit="10" stroke-width="0.71"/>
            <path d="M806.28,796.14h18.21c3.64,0,6.6,5,6.6,11.15s-3,11.15-6.6,11.15H799.9a85.35,85.35,0,0,0-.07,18.37h24.65c3.64,0,6.6,5,6.6,11.15s-3,11.15-6.6,11.15H806c4.39,8.73,10.6,14.17,17.49,14.17,13.3,0,24.08-20.31,24.08-45.35s-10.78-45.35-24.08-45.35C816.72,782.58,810.64,787.77,806.28,796.14Z" fill="#fff" stroke="#231f20" stroke-miterlimit="10" stroke-width="0.71"/>
            <path d="M818.93,836.81h5.55c3.64,0,6.6,5,6.6,11.15s-3,11.15-6.6,11.15h-5.55a6,6,0,0,0,4.52,2.37c4.42,0,8-6.05,8-13.52s-3.58-13.52-8-13.52A6,6,0,0,0,818.93,836.81Z" fill="#fff" stroke="#231f20" stroke-miterlimit="10" stroke-width="0.71"/>
            <path d="M818.93,796.14h5.55c3.64,0,6.6,5,6.6,11.15s-3,11.15-6.6,11.15h-5.55a6,6,0,0,0,4.52,2.37c4.42,0,8-6.05,8-13.52s-3.58-13.52-8-13.52A6,6,0,0,0,818.93,796.14Z" fill="#fff" stroke="#231f20" stroke-miterlimit="10" stroke-width="0.71"/>
            <path d="M152.92,836.81H824.48c3.64,0,6.6,5,6.6,11.15s-3,11.15-6.6,11.15H152.92s-11.25-.21-11.25-11.15S152.92,836.81,152.92,836.81Z" fill="#fff" stroke="#231f20" stroke-miterlimit="10" stroke-width="0.71"/>
            <path d="M152.92,796.14H824.48c3.64,0,6.6,5,6.6,11.15s-3,11.15-6.6,11.15H152.92s-11.25-.38-11.25-11.15S152.92,796.14,152.92,796.14Z" fill="#fff" stroke="#231f20" stroke-miterlimit="10" stroke-width="0.71"/>
          </g>
        </g>
        <g mask="url(#cabdc18f-7ece-4b49-9db5-49d3131e215d)">
          <g id="d35d3595-57d1-4949-9346-8bbc3ef259fd" data-name="locknut">
            <polyline points="838.62 786.63 836.81 786.74 836.26 786.82 835.71 786.91 835.44 786.97 835.17 787.03 834.89 787.09 834.62 787.16 833.54 787.5 832.47 787.91 831.41 788.39 830.37 788.96 829.34 789.59 828.33 790.3 827.83 790.69 827.33 791.09 827.09 791.3 826.84 791.52 826.6 791.74 826.35 791.96 825.4 792.89 824.47 793.89 823.58 794.95 822.71 796.07 821.87 797.26 821.05 798.51 820.66 799.15 820.27 799.82 820.08 800.16 819.89 800.5 819.7 800.85 819.51 801.19 818.8 802.61 818.13 804.07 817.49 805.58 816.89 807.13 816.33 808.72 815.81 810.36 815.57 811.19 815.33 812.04 815.11 812.89 814.89 813.75 814.5 815.48 814.16 817.23 813.85 819 813.6 820.79 813.38 822.6 813.21 824.43 813.18 824.89 813.15 825.35 813.12 825.81 813.09 826.27 813.05 827.2 813.01 828.12 812.99 829.96 813 831.78 813.07 833.61 813.18 835.42 813.33 837.23 813.53 839.02 813.59 839.47 813.65 839.92 813.71 840.37 813.78 840.81 813.92 841.69 814.07 842.56 814.4 844.28 814.78 845.97 815.19 847.63 815.65 849.25 816.15 850.83 816.69 852.38 816.84 852.77 816.98 853.15 817.13 853.52 817.28 853.89 817.58 854.63 817.89 855.35 818.55 856.75 819.23 858.11 819.96 859.4 820.71 860.64" fill="none" stroke="#000" stroke-linecap="round" stroke-linejoin="round" stroke-width="0.71"/>
            <polyline points="841.05 786.87 839.67 787.18 838.6 787.51 837.54 787.93 836.48 788.42 835.43 788.99 835.17 789.14 834.91 789.3 834.65 789.46 834.39 789.63 833.88 789.99 833.38 790.35 832.39 791.14 831.42 792 830.47 792.93 829.55 793.93 828.65 795 827.77 796.13 827.56 796.43 827.35 796.73 827.13 797.03 826.92 797.33 826.51 797.96 826.11 798.59 825.34 799.9 824.59 801.26 823.89 802.67 823.21 804.13 822.58 805.65 821.97 807.22 821.41 808.83 820.89 810.46 820.42 812.13 819.99 813.83 819.6 815.55 819.25 817.31 819.1 818.19 818.95 819.09 818.88 819.54 818.82 819.99 818.75 820.45 818.69 820.9 818.48 822.72 818.32 824.54 818.2 826.37 818.13 828.2 818.1 830.03 818.12 831.86 818.14 832.78 818.18 833.7 818.21 834.16 818.24 834.62 818.26 835.08 818.3 835.53 818.46 837.35 818.66 839.13 818.9 840.9 819.19 842.64 819.53 844.35 819.91 846.05 820.11 846.88 820.33 847.71 820.44 848.13 820.56 848.54 820.67 848.94 820.79 849.35 821.3 850.93 821.84 852.47 822.42 853.96 823.03 855.41 823.68 856.8 824.37 858.15 824.55 858.48 824.73 858.8 824.82 858.97 824.91 859.13 825 859.29 825.1 859.45 825.47 860.07 825.85 860.68 826.64 861.85 827.45 862.96 828.28 864 829.14 864.97 830.03 865.87 830.94 866.71 831.17 866.91 831.4 867.1 831.52 867.2 831.64 867.29 831.75 867.39 831.87 867.48 832.35 867.84 832.83 868.17 833.79 868.79 834.76 869.32 835.75 869.78 836.75 870.16 837.76 870.47 838.78 870.7 838.91 870.72 839.04 870.74 839.17 870.76 839.3 870.78 839.55 870.82 839.81 870.84 840.33 870.89 840.84 870.91 841.16 870.91" fill="none" stroke="#000" stroke-linecap="round" stroke-linejoin="round" stroke-width="0.71"/>
            <polyline points="843.64 787.54 843.12 787.73 842.85 787.84 842.58 787.95 841.52 788.45 840.48 789.02 839.45 789.67 838.45 790.39 837.46 791.18 836.49 792.04 836.01 792.5 835.54 792.98 835.3 793.23 835.07 793.48 834.84 793.74 834.61 794 833.71 795.07 832.84 796.2 832 797.39 831.19 798.64 830.42 799.95 829.67 801.32 829.31 802.03 828.96 802.75 828.62 803.49 828.28 804.23 827.65 805.75 827.05 807.3 826.5 808.9 825.99 810.53 825.51 812.2 825.08 813.91 824.98 814.34 824.88 814.78 824.78 815.22 824.69 815.66 824.51 816.54 824.35 817.42 824.05 819.2 823.79 821 823.59 822.8 823.42 824.62 823.31 826.45 823.24 828.29 823.23 828.75 823.22 829.22 823.21 829.68 823.21 830.14 823.22 831.07 823.23 831.98 823.3 833.81 823.42 835.62 823.58 837.42 823.78 839.2 824.03 840.97 824.32 842.73 824.4 843.17 824.49 843.6 824.57 844.03 824.66 844.46 824.85 845.31 825.04 846.16 825.47 847.81 825.93 849.42 826.43 851 826.98 852.53 827.26 853.29 827.56 854.03 827.71 854.4 827.86 854.76 827.94 854.95 828.02 855.13 828.1 855.31 828.18 855.49 828.84 856.89 829.53 858.23 830.25 859.51 831 860.74 831.78 861.9 832.59 863 833.01 863.53 833.43 864.04 833.65 864.29 833.87 864.54 833.98 864.66 834.09 864.78 834.2 864.9 834.3 865.02 835.2 865.93 836.11 866.76 837.03 867.52 837.98 868.2 838.94 868.81 839.92 869.34 840.42 869.58 840.92 869.8 841.04 869.86 841.17 869.91 841.29 869.96 841.42 870 841.67 870.1 841.93 870.19 843.69 870.66" fill="none" stroke="#000" stroke-linecap="round" stroke-linejoin="round" stroke-width="0.71"/>
            <polyline points="846.19 788.68 845.58 789.03 844.55 789.68 843.55 790.4 842.56 791.19 841.59 792.06 841.35 792.28 841.11 792.52 840.99 792.64 840.87 792.76 840.75 792.88 840.63 793 840.16 793.5 839.7 794.01 838.81 795.08 837.94 796.22 837.1 797.41 836.29 798.66 835.52 799.97 834.77 801.34 834.59 801.7 834.41 802.05 834.32 802.23 834.24 802.41 834.15 802.59 834.06 802.77 833.72 803.51 833.39 804.25 832.75 805.77 832.16 807.32 831.61 808.92 831.09 810.55 830.62 812.22 830.19 813.94 830.14 814.15 830.09 814.37 830.04 814.59 829.99 814.81 829.89 815.25 829.8 815.68 829.62 816.56 829.46 817.45 829.16 819.23 828.9 821.02 828.7 822.82 828.53 824.64 828.42 826.47 828.35 828.32 828.34 828.55 828.34 828.78 828.33 829.01 828.33 829.25 828.33 829.71 828.32 830.17 828.33 831.09 828.35 832.01 828.42 833.83 828.53 835.64 828.69 837.44 828.89 839.23 829.01 840.12 829.14 841 829.22 841.44 829.29 841.88 829.33 842.1 829.36 842.32 829.4 842.54 829.44 842.76 829.78 844.49 830.16 846.18 830.59 847.83 831.05 849.44 831.55 851.02 832.1 852.55 832.38 853.31 832.68 854.05 832.83 854.42 832.99 854.79 833.06 854.97 833.14 855.15 833.22 855.33 833.3 855.51 833.96 856.91 834.65 858.25 835.37 859.53 836.12 860.75 836.9 861.91 837.72 863.02 838.13 863.54 838.56 864.06 838.67 864.18 838.78 864.31 838.88 864.43 838.99 864.56 839.21 864.8 839.43 865.04 840.32 865.94 841.23 866.77 842.16 867.52 843.1 868.21 844.07 868.82 845.05 869.35 845.89 869.75" fill="none" stroke="#000" stroke-linecap="round" stroke-linejoin="round" stroke-width="0.71"/>
            <polyline points="820.71 860.64 821.59 861.99 822.49 863.27 823.43 864.47 824.41 865.59 824.91 866.12 825.42 866.64 825.68 866.89 825.94 867.13 826.2 867.37 826.46 867.6 827.52 868.47 828.6 869.25 829.69 869.93 830.81 870.53 831.38 870.8 831.95 871.04 832.24 871.16 832.52 871.27 832.81 871.37 833.1 871.46 834.26 871.78 835.42 872.01 836.58 872.14 837.75 872.18 838.91 872.12 840.08 871.97 840.23 871.94 840.38 871.92 840.52 871.89 840.67 871.86 840.96 871.79 841.25 871.72 841.83 871.56 842.41 871.38 843.55 870.95 844.67 870.43 845.78 869.83 846.88 869.13 847.42 868.75 847.96 868.34 848.23 868.13 848.49 867.91 848.63 867.8 848.76 867.69 848.89 867.58 849.02 867.46 850.06 866.51 851.06 865.47 852.04 864.36 852.98 863.18 853.89 861.92 854.77 860.59 854.99 860.25 855.2 859.89 855.31 859.72 855.41 859.54 855.52 859.36 855.62 859.18 856.03 858.45 856.43 857.71 857.2 856.18 857.93 854.6 858.61 852.96 859.25 851.28 859.85 849.54 860.41 847.75 860.54 847.29 860.67 846.83 860.79 846.37 860.92 845.91 861.15 844.98 861.37 844.04 861.78 842.15 862.14 840.23 862.45 838.28 862.71 836.32 862.82 835.32 862.92 834.32 862.97 833.82 863.01 833.31 863.05 832.81 863.08 832.3 863.25 828.25 863.21 824.22 863.11 822.21 862.96 820.21 862.87 819.2 862.76 818.2 862.73 817.95 862.71 817.7 862.67 817.45 862.64 817.2 862.58 816.71 862.51 816.21 862.21 814.25 861.87 812.32 861.48 810.42 861.03 808.55 860.55 806.72 860.01 804.92 859.73 804.03 859.43 803.15 859.28 802.71 859.12 802.28 858.97 801.85 858.8 801.42" fill="none" stroke="#000" stroke-linecap="round" stroke-linejoin="round" stroke-width="0.71"/>
            <polyline points="818.3 780.74 819.04 779.92 819.89 779.11 820.88 778.28 822.01 777.45 823.29 776.6 824.74 775.75 826.36 774.89 828.16 774.01" fill="none" stroke="#000" stroke-linecap="round" stroke-linejoin="round" stroke-width="0.71"/>
            <line x1="815.8" y1="784.68" x2="813.49" y2="788.68" fill="none" stroke="#000" stroke-linecap="round" stroke-linejoin="round" stroke-width="0.71"/>
            <polyline points="828.72 887.23 826.43 885.02 824.24 882.78 822.14 880.53 820.16 878.25 818.29 875.94 816.55 873.61 814.95 871.25 813.49 868.86" fill="none" stroke="#000" stroke-linecap="round" stroke-linejoin="round" stroke-width="0.71"/>
            <polyline points="845.1 883.53 843.31 884.4 841.7 885.26 840.25 886.12 838.97 886.96 837.83 887.8 836.84 888.63 836.61 888.83 836.39 889.04 836.18 889.24 835.98 889.45 835.6 889.86 835.24 890.26" fill="none" stroke="#000" stroke-linecap="round" stroke-linejoin="round" stroke-width="0.71"/>
            <line x1="874.64" y1="876.81" x2="845.66" y2="890.26" fill="none" stroke="#000" stroke-linecap="round" stroke-linejoin="round" stroke-width="0.71"/>
            <polyline points="828.16 774.01 830.12 773.14 832.21 772.28 834.43 771.43 836.79 770.59 839.26 769.75 841.84 768.92 842.51 768.71 843.17 768.51 843.85 768.3 844.52 768.1 845.89 767.69 847.28 767.29" fill="none" stroke="#000" stroke-linecap="round" stroke-linejoin="round" stroke-width="0.71"/>
            <polyline points="853.8 770.31 854.07 772.53 854.45 774.76 854.96 777.02 855.61 779.3 856.4 781.6 857.36 783.93 858.48 786.29 859.78 788.68" fill="none" stroke="#000" stroke-linecap="round" stroke-linejoin="round" stroke-width="0.71"/>
            <line x1="864.21" y1="770.31" x2="885.43" y2="807.06" fill="none" stroke="#000" stroke-linecap="round" stroke-linejoin="round" stroke-width="0.71"/>
            <polyline points="845.86 869.78 843.91 868.79 843.41 868.49 842.92 868.16 842.43 867.82 841.95 867.45 841 866.67 840.08 865.82 839.18 864.89 838.3 863.9 837.45 862.83 836.63 861.69 836.43 861.39 836.23 861.09 836.13 860.94 836.03 860.79 835.93 860.63 835.83 860.48 835.44 859.85 835.07 859.21 834.34 857.89 833.65 856.51 832.99 855.08 832.38 853.6 831.79 852.06 831.25 850.47 831.12 850.06 831 849.65 830.87 849.24 830.75 848.83 830.51 848 830.29 847.16 829.88 845.46 829.51 843.74 829.19 841.98 828.91 840.19 828.78 839.29 828.67 838.38 828.62 837.92 828.57 837.46 828.53 837 828.49 836.53 828.35 834.67 828.25 832.82 828.21 830.96 828.22 829.09 828.27 827.23 828.37 825.36 828.43 824.43 828.51 823.49 828.54 823.26 828.56 823.02 828.58 822.79 828.61 822.55 828.66 822.09 828.71 821.62 828.95 819.78 829.24 817.97 829.58 816.17 829.96 814.41 830.39 812.67 830.86 810.95 831.11 810.1 831.38 809.26 831.65 808.43 831.94 807.61 832.54 806.01 833.17 804.47 833.85 802.97 834.57 801.52 835.32 800.12 836.11 798.77 836.31 798.44 836.52 798.12 836.62 797.96 836.73 797.79 836.83 797.64 836.94 797.48 837.36 796.86 837.79 796.25 838.68 795.09 839.59 794.01 840.53 792.99 841.49 792.04 842.48 791.16 843.5 790.35 843.63 790.25 843.76 790.15 843.89 790.06 844.02 789.97 844.28 789.79 844.54 789.61 845.06 789.27 845.59 788.96 846.15 788.64" fill="none" stroke="#000" stroke-linecap="round" stroke-linejoin="round" stroke-width="0.71"/>
            <polyline points="843.67 870.68 843.48 870.64 842.45 870.39 841.42 870.05 841.16 869.95 840.91 869.85 840.65 869.74 840.4 869.63 839.89 869.39 839.39 869.13 838.4 868.55 837.42 867.89 836.47 867.16 835.53 866.36 834.62 865.47 833.72 864.51 833.61 864.38 833.5 864.26 833.39 864.13 833.28 864 833.06 863.74 832.85 863.48 832.42 862.93 832 862.38 831.2 861.22 830.42 860 829.67 858.71 828.96 857.37 828.62 856.68 828.28 855.97 828.12 855.61 827.95 855.24 827.87 855.06 827.79 854.87 827.71 854.68 827.63 854.5 827.02 852.98 826.46 851.43 825.94 849.83 825.46 848.2 825.02 846.52 824.62 844.81 824.44 843.94 824.27 843.06 824.18 842.61 824.11 842.16 824.03 841.72 823.96 841.27 823.69 839.46 823.48 837.64 823.31 835.81 823.19 833.97 823.12 832.11 823.09 830.24 823.1 829.3 823.12 828.36 823.12 828.12 823.13 827.89 823.14 827.65 823.15 827.41 823.17 826.94 823.19 826.47 823.31 824.61 823.47 822.75 823.69 820.91 823.95 819.09 824.25 817.28 824.61 815.49 824.71 815.04 824.8 814.6 824.86 814.37 824.91 814.15 824.96 813.93 825.01 813.71 825.23 812.84 825.46 811.97 825.95 810.27 826.48 808.61 827.05 807 827.66 805.42 828.32 803.89 829.01 802.39 829.19 802.03 829.38 801.66 829.56 801.3 829.75 800.95 830.13 800.25 830.52 799.57 831.32 798.25 832.15 797 833.01 795.8 833.91 794.67 834.37 794.13 834.84 793.61 835.07 793.35 835.31 793.1 835.43 792.97 835.55 792.85 835.67 792.72 835.79 792.6 836.77 791.67 837.77 790.82 838.79 790.05 839.83 789.35 840.88 788.73 841.95 788.19 842.49 787.94 843.03 787.72 843.54 787.53" fill="none" stroke="#000" stroke-linecap="round" stroke-linejoin="round" stroke-width="0.71"/>
            <polyline points="844.84 870.36 844.25 870.52 843.99 870.58 843.73 870.64 843.59 870.67 843.46 870.69 843.33 870.71 843.2 870.74 842.15 870.87 841.11 870.91 840.07 870.88 839.03 870.76 838 870.56 836.96 870.27 836.45 870.1 835.94 869.91 835.81 869.86 835.68 869.8 835.55 869.75 835.42 869.69 835.17 869.58 834.91 869.46 833.91 868.92 832.93 868.32 831.96 867.64 831.01 866.88 830.09 866.04 829.18 865.13 828.73 864.65 828.29 864.14 827.85 863.62 827.42 863.08 826.59 861.96 825.79 860.76 825.4 860.14 825.01 859.51 824.83 859.18 824.64 858.85 824.55 858.69 824.45 858.52 824.36 858.35 824.27 858.18 823.57 856.81 822.9 855.38 822.28 853.91 821.69 852.39 821.14 850.83 820.63 849.21 820.39 848.38 820.17 847.54 820.05 847.12 819.95 846.69 819.84 846.26 819.74 845.84 819.36 844.11 819.02 842.35 818.74 840.57 818.49 838.77 818.3 836.95 818.15 835.1 818.12 834.63 818.09 834.17 818.08 833.93 818.07 833.7 818.05 833.47 818.04 833.23 818.01 832.29 817.99 831.36 817.99 829.48 818.03 827.62 818.12 825.76 818.25 823.9 818.44 822.05 818.67 820.2 818.7 819.97 818.74 819.74 818.77 819.51 818.8 819.28 818.88 818.82 818.95 818.36 819.11 817.45 819.28 816.55 819.65 814.78 820.07 813.03 820.53 811.32 821.03 809.64 821.58 807.99 822.17 806.37 822.81 804.8 823.48 803.28 824.19 801.82 824.93 800.41 825.71 799.06 826.52 797.76 826.94 797.14 827.37 796.52 827.59 796.22 827.81 795.93 827.92 795.78 828.03 795.63 828.14 795.49 828.26 795.34 829.17 794.23 830.1 793.2 831.06 792.23 832.04 791.34 833.05 790.52 834.07 789.77 834.6 789.42 835.12 789.1 835.26 789.02 835.39 788.94 835.52 788.86 835.66 788.79 835.92 788.64 836.19 788.5 837.27 787.99 838.36 787.56 839.45 787.21 840.55 786.94 841.06 786.85" fill="none" stroke="#000" stroke-linecap="round" stroke-linejoin="round" stroke-width="0.71"/>
            <polyline points="818.23 856.35 817.58 854.89 816.96 853.39 816.38 851.85 815.85 850.27 815.35 848.63 814.9 846.96 814.79 846.53 814.69 846.11 814.59 845.67 814.49 845.24 814.3 844.37 814.12 843.49 813.8 841.72 813.53 839.93 813.3 838.12 813.13 836.28 813.05 835.36 812.99 834.42 812.97 833.96 812.94 833.49 812.92 833.02 812.91 832.55 812.87 830.67 812.88 828.8 812.94 826.94 813.05 825.08 813.2 823.23 813.4 821.38 813.52 820.45 813.65 819.53 813.69 819.3 813.72 819.07 813.76 818.84 813.8 818.61 813.87 818.15 813.95 817.7 814.3 815.9 814.68 814.14 815.12 812.4 815.59 810.7 816.11 809.03 816.68 807.39 816.83 806.99 816.98 806.59 817.05 806.39 817.13 806.19 817.21 805.99 817.29 805.79 817.61 805.01 817.93 804.24 818.62 802.74 819.34 801.3 820.1 799.91 820.89 798.58 821.71 797.31 822.58 796.09 822.8 795.79 823.02 795.5 823.25 795.21 823.47 794.93 823.93 794.38 824.39 793.85 825.34 792.84 826.3 791.9 827.29 791.03 828.3 790.24 828.82 789.87 829.34 789.52 829.6 789.35 829.87 789.18 830 789.11 830.13 789.03 830.26 788.95 830.4 788.87 831.47 788.31 832.55 787.82 833.64 787.42 834.74 787.1 835.84 786.87 836.95 786.71 837.51 786.66 838.07 786.64 838.21 786.63 838.35 786.63 838.5 786.63 838.64 786.63 838.92 786.64 839.2 786.65 840.32 786.74 841.43 786.92 842.53 787.18 843.62 787.52 844.71 787.94 845.79 788.44 846.32 788.73 846.86 789.03 846.99 789.11 847.12 789.19 847.26 789.27 847.39 789.35 847.65 789.52 847.91 789.7 848.94 790.44 849.95 791.25 850.93 792.13 851.89 793.09 852.83 794.12 853.74 795.22 853.97 795.51 854.19 795.8 854.3 795.95 854.41 796.1 854.52 796.25 854.63 796.4 855.06 797.01 855.49 797.63 856.3 798.92 857.09 800.27 857.83 801.67 858.54 803.12 859.22 804.63 859.85 806.2 860.01 806.6 860.16 807 860.31 807.41 860.45 807.82 860.74 808.63 861.01 809.46 861.9 812.55" fill="none" stroke="#000" stroke-linecap="round" stroke-linejoin="round" stroke-width="0.71"/>
            <polyline points="864.22 876.81 861.46 877.62 858.79 878.44 856.22 879.26 853.76 880.1 851.4 880.94 849.17 881.79 847.07 882.66 845.1 883.53" fill="none" stroke="#000" stroke-linecap="round" stroke-linejoin="round" stroke-width="0.71"/>
            <polyline points="859.78 788.68 861.23 791.06 862.83 793.41 864.56 795.74 866.43 798.05 868.41 800.33 870.52 802.6 871.06 803.16 871.61 803.73 872.17 804.29 872.73 804.84 873.86 805.95 875.01 807.05" fill="none" stroke="#000" stroke-linecap="round" stroke-linejoin="round" stroke-width="0.71"/>
            <polyline points="876.76 818.35 875.28 821.38 873.9 824.43 872.63 827.51 871.48 830.62 870.46 833.77 869.58 836.96 868.84 840.18 868.25 843.45" fill="none" stroke="#000" stroke-linecap="round" stroke-linejoin="round" stroke-width="0.71"/>
            <polyline points="868.25 843.45 867.83 846.69 867.57 849.9 867.47 853.08 867.51 856.23 867.7 859.36 868.02 862.45 868.12 863.22 868.22 863.99 868.33 864.76 868.45 865.52 868.71 867.03 869 868.54" fill="none" stroke="#000" stroke-linecap="round" stroke-linejoin="round" stroke-width="0.71"/>
            <line x1="887.17" y1="818.35" x2="879.41" y2="868.54" fill="none" stroke="#000" stroke-linecap="round" stroke-linejoin="round" stroke-width="0.71"/>
            <polyline points="852.42 790.37 851.43 789.28 850.41 788.28 849.37 787.36 848.31 786.51 847.77 786.11 847.22 785.74 846.95 785.56 846.67 785.38 846.39 785.21 846.11 785.05 844.99 784.45 843.86 783.93 842.72 783.51 841.57 783.17 840.41 782.91 839.25 782.74 838.67 782.69 838.08 782.66 837.78 782.66 837.49 782.66 837.19 782.66 836.9 782.67 835.73 782.77 834.57 782.96 833.41 783.24 832.27 783.61 831.13 784.06 830 784.6 829.45 784.9 828.89 785.22 828.61 785.4 828.33 785.57 828.06 785.75 827.78 785.94 826.71 786.74 825.65 787.61 824.63 788.57 823.63 789.6 822.66 790.71 821.71 791.9 821.48 792.21 821.25 792.53 821.13 792.69 821.02 792.85 820.9 793.01 820.79 793.17 820.34 793.84 819.9 794.51 819.06 795.91 818.25 797.37 817.49 798.89 816.76 800.47 816.08 802.11 815.43 803.81 815.36 804.02 815.28 804.24 815.2 804.46 815.13 804.68 814.98 805.12 814.83 805.56 814.55 806.45 814.28 807.35 813.78 809.18 813.33 811.04 812.93 812.93 812.58 814.86 812.42 815.83 812.27 816.82 812.21 817.31 812.14 817.81 812.11 818.06 812.08 818.31 812.05 818.56 812.03 818.81 811.83 820.82 811.69 822.83 811.6 824.84 811.57 826.86 811.59 828.88 811.67 830.9 811.73 831.91 811.8 832.92 811.82 833.17 811.84 833.43 811.87 833.68 811.89 833.93 811.94 834.43 811.99 834.93 812.23 836.92 812.52 838.88 812.87 840.8 813.27 842.7 813.72 844.57 814.22 846.4 814.29 846.63 814.35 846.86 814.42 847.09 814.49 847.31 814.63 847.76 814.77 848.21 815.07 849.09 815.38 849.95 816.02 851.64 816.72 853.26 817.45 854.83 818.23 856.35" fill="none" stroke="#000" stroke-linecap="round" stroke-linejoin="round" stroke-width="0.71"/>
            <polyline points="818.23 856.35 819.43 858.57 820.71 860.64" fill="none" stroke="#000" stroke-linecap="round" stroke-linejoin="round" stroke-width="0.71"/>
            <polyline points="858.8 801.42 857.41 798.32 855.88 795.43 854.21 792.78 852.42 790.37" fill="none" stroke="#000" stroke-linecap="round" stroke-linejoin="round" stroke-width="0.71"/>
            <polyline points="859.78 788.68 857.98 785.8 856.07 783.16 854.05 780.77 851.93 778.65 849.72 776.81 847.44 775.26 845.1 774.01 842.72 773.07 840.3 772.44 837.86 772.12 835.41 772.12 832.97 772.44 830.55 773.07 828.16 774.01" fill="none" stroke="#000" stroke-linecap="round" stroke-linejoin="round" stroke-width="0.71"/>
            <polyline points="828.16 774.01 825.82 775.26 823.54 776.81 821.34 778.65 819.22 780.77 817.2 783.16 815.28 785.8 813.49 788.68 811.82 791.79 810.3 795.11 808.92 798.61 807.69 802.28 806.63 806.1 805.74 810.05 805.02 814.1" fill="none" stroke="#000" stroke-linecap="round" stroke-linejoin="round" stroke-width="0.71"/>
            <polyline points="805.02 814.1 804.47 818.23 804.11 822.42 803.92 826.65 803.92 830.89 804.11 835.12 804.47 839.31 805.02 843.45 805.74 847.5 806.63 851.44 807.69 855.26 808.92 858.93 810.3 862.44 811.82 865.75 813.49 868.86" fill="none" stroke="#000" stroke-linecap="round" stroke-linejoin="round" stroke-width="0.71"/>
            <polyline points="813.49 868.86 815.28 871.74 817.2 874.39 819.22 876.78 821.34 878.9 823.54 880.74 825.82 882.28 828.16 883.53 830.55 884.48 832.97 885.11 835.41 885.43 837.86 885.43 840.3 885.11 842.72 884.48 845.1 883.53" fill="none" stroke="#000" stroke-linecap="round" stroke-linejoin="round" stroke-width="0.71"/>
            <polyline points="845.1 883.53 847.44 882.28 849.72 880.74 851.93 878.9 854.05 876.78 856.07 874.39 857.98 871.74 859.78 868.86 861.44 865.75 862.97 862.44 864.35 858.93 865.57 855.26 866.63 851.44 867.53 847.5 868.25 843.45" fill="none" stroke="#000" stroke-linecap="round" stroke-linejoin="round" stroke-width="0.71"/>
            <polyline points="868.25 843.45 868.79 839.31 869.16 835.12 869.34 830.89 869.34 826.65 869.16 822.42 868.79 818.23 868.25 814.1 867.53 810.05 866.63 806.1 865.57 802.28 864.35 798.61 862.97 795.11 861.44 791.79 859.78 788.68" fill="none" stroke="#000" stroke-linecap="round" stroke-linejoin="round" stroke-width="0.71"/>
            <polyline points="855.15 891.13 857.64 890.99 860.12 890.54 862.58 889.79 865 888.75 867.38 887.43 869.69 885.82 871.94 883.94 874.1 881.79 876.18 879.39 878.15 876.75 880.01 873.88 881.76 870.79 883.37 867.49 884.85 864.02 886.19 860.37 887.38 856.57 888.41 852.64 889.29 848.59 890 844.45 890.54 840.23 890.91 835.96 891.11 831.65 891.14 827.33 891 823.02 890.68 818.73 890.2 814.5 889.54 810.33 888.72 806.25 887.74 802.27 886.6 798.43 885.31 794.73 883.88 791.19 882.31 787.84 880.61 784.68" fill="none" stroke="#000" stroke-linecap="round" stroke-linejoin="round" stroke-width="0.71"/>
            <polyline points="880.61 784.68 878.73 781.64 876.73 778.85 874.61 776.31 872.4 774.04 870.11 772.05 867.73 770.34 865.29 768.94 862.8 767.84 860.27 767.04 857.72 766.57 855.15 766.41" fill="none" stroke="#000" stroke-linecap="round" stroke-linejoin="round" stroke-width="0.71"/>
            <polyline points="815.8 784.68 817.02 782.65 818.3 780.74" fill="none" stroke="#000" stroke-linecap="round" stroke-linejoin="round" stroke-width="0.71"/>
            <polyline points="857.69 767.29 854.95 766.67 852.18 766.42 849.41 766.53 846.66 767.02 843.93 767.87 841.25 769.08" fill="none" stroke="#000" stroke-linecap="round" stroke-linejoin="round" stroke-width="0.71"/>
            <line x1="847.28" y1="767.29" x2="857.69" y2="767.29" fill="none" stroke="#000" stroke-linecap="round" stroke-linejoin="round" stroke-width="0.71"/>
            <polyline points="847.28 767.29 850.58 768.53 853.8 770.31" fill="none" stroke="#000" stroke-linecap="round" stroke-linejoin="round" stroke-width="0.71"/>
            <line x1="864.21" y1="770.31" x2="853.8" y2="770.31" fill="none" stroke="#000" stroke-linecap="round" stroke-linejoin="round" stroke-width="0.71"/>
            <polyline points="885.43 807.05 884.44 802.93 883.29 798.93 881.98 795.09 880.51 791.42 878.89 787.94 877.13 784.68 875.25 781.63 873.24 778.83 871.12 776.29 868.9 774.01 866.6 772.02 864.22 770.31" fill="none" stroke="#000" stroke-linecap="round" stroke-linejoin="round" stroke-width="0.71"/>
            <line x1="875.01" y1="807.06" x2="885.43" y2="807.06" fill="none" stroke="#000" stroke-linecap="round" stroke-linejoin="round" stroke-width="0.71"/>
            <polyline points="875.01 807.05 876.04 812.63 876.76 818.35" fill="none" stroke="#000" stroke-linecap="round" stroke-linejoin="round" stroke-width="0.71"/>
            <line x1="887.17" y1="818.35" x2="876.76" y2="818.35" fill="none" stroke="#000" stroke-linecap="round" stroke-linejoin="round" stroke-width="0.71"/>
            <polyline points="879.41 868.54 880.98 865 882.4 861.28 883.67 857.38 884.77 853.35 885.7 849.18 886.45 844.91 887.03 840.56 887.43 836.15 887.64 831.7 887.67 827.24 887.51 822.78 887.17 818.35" fill="none" stroke="#000" stroke-linecap="round" stroke-linejoin="round" stroke-width="0.71"/>
            <line x1="869" y1="868.54" x2="879.41" y2="868.54" fill="none" stroke="#000" stroke-linecap="round" stroke-linejoin="round" stroke-width="0.71"/>
            <polyline points="869 868.54 866.72 872.87 864.22 876.81" fill="none" stroke="#000" stroke-linecap="round" stroke-linejoin="round" stroke-width="0.71"/>
            <line x1="874.64" y1="876.81" x2="864.22" y2="876.81" fill="none" stroke="#000" stroke-linecap="round" stroke-linejoin="round" stroke-width="0.71"/>
            <polyline points="845.66 890.26 848.22 890.85 850.79 891.12 853.37 891.07 855.93 890.7 858.48 890.01 861 889.01 863.46 887.7 865.86 886.09 868.2 884.18 870.44 881.99 872.59 879.53 874.64 876.81" fill="none" stroke="#000" stroke-linecap="round" stroke-linejoin="round" stroke-width="0.71"/>
            <line x1="835.24" y1="890.26" x2="845.66" y2="890.26" fill="none" stroke="#000" stroke-linecap="round" stroke-linejoin="round" stroke-width="0.71"/>
            <polyline points="835.24 890.26 831.94 889.01 828.72 887.23" fill="none" stroke="#000" stroke-linecap="round" stroke-linejoin="round" stroke-width="0.71"/>
            <line x1="851.68" y1="891.13" x2="855.15" y2="891.13" fill="none" stroke="#000" stroke-linecap="round" stroke-linejoin="round" stroke-width="0.71"/>
            <line x1="855.15" y1="766.41" x2="851.68" y2="766.41" fill="none" stroke="#000" stroke-linecap="round" stroke-linejoin="round" stroke-width="0.71"/>
          </g>
        </g>
        <ellipse id="b15bedc9-0128-4500-a942-02414b5d64bf" data-name="kettle top" cx="496.06" cy="631.75" rx="496.06" ry="83.94" fill="url(#5c5386dd-246d-42fd-a85e-130b72e5a6c5)" style="mix-blend-mode: multiply"/>
        <path d="M496.06,715.69C222.09,715.69,0,678.11,0,631.75v418.48c0,43.18,192.73,78.74,440.57,83.41h111c247.83-4.67,440.55-40.23,440.57-83.41V631.75C992.13,678.11,770,715.69,496.06,715.69Z" fill="#00adee" opacity="0.4" style="mix-blend-mode: multiply"/>
      </g>
    </g>
  </g>
</svg>
