<?xml version="1.0" encoding="utf-8" ?>
<!--
  Generator: Adobe Illustrator 19.2.1, SVG Export Plug-In . SVG Version: 6.00 Build 0)
-->
<svg
  version="1.1"
  id="_x35_2e287ee-df79-4d29-8488-032dbf5c65ae"
  xmlns="http://www.w3.org/2000/svg"
  xmlns:xlink="http://www.w3.org/1999/xlink"
  x="0px"
  y="0px"
  viewBox="0 0 134.8 291.7"
  style="enable-background:new 0 0 134.8 291.7;"
  xml:space="preserve"
>
  <style type="text/css">
    .st0{fill:none;stroke:#000000;stroke-width:0.71;stroke-linecap:round;stroke-linejoin:round;}
	.st1{fill:#FFFFFF;stroke:#000000;stroke-width:0.71;stroke-linecap:round;stroke-linejoin:round;}
	.st2{clip-path:url(#SVGID_2_);}
	.st3{fill:none;stroke:#000000;stroke-width:0.71;stroke-miterlimit:10;}
	.st4{fill:#FFFFFF;stroke:#231F20;stroke-width:0.71;stroke-miterlimit:10;}
	.st5{fill:#FFFFFF;stroke:#000000;stroke-width:0.71;stroke-linejoin:round;}
	.st6{fill:none;stroke:#000000;stroke-width:0.71;stroke-linejoin:round;}
	.st7{fill:#FFFFFF;stroke:#000000;stroke-linecap:round;stroke-linejoin:round;}
	.st8{fill:#FFFFFF;stroke:#000000;stroke-linejoin:round;}
  </style>
  <g id="_x30_6da26d9-6223-4093-9bbe-ad1629945128">
    <g id="c4360069-d710-4cdc-a5c4-9cb9b8cb0b77">
      <path class="st0" d="M81.5,200c-11.3-1.8-22.9-1.8-34.2,0" />
      <path
        class="st1"
        d="M64.4,131.2c-35.4,0-64,16.6-64,37s28.7,37,64,37s64-16.6,64-37S99.8,131.2,64.4,131.2z M64.4,201.5 			c-32.7,0-59.1-15.1-59.1-33.7S31.7,134,64.4,134s59.1,15.1,59.1,33.8S97.1,201.5,64.4,201.5L64.4,201.5z"
      />
      <path
        class="st1"
        d="M128.5,254.3c0,20.4-28.7,37-64,37s-64-16.6-64-37l0,0v-86.2l0,0c0,20.4,28.7,37,64,37s64-16.6,64-37V254.3z"
      />
    </g>
    <g id="e7686750-1f7a-42c6-aa67-74e26cf627d9">
      <g>
        <defs>
          <ellipse id="SVGID_1_" cx="64.4" cy="169" rx="56.4" ry="32.1" />
        </defs>
        <clipPath id="SVGID_2_">
          <use xlink:href="#SVGID_1_" style="overflow:visible;" />
        </clipPath>
        <g class="st2">
          <g>
            <ellipse class="st0" cx="64.4" cy="170.6" rx="56.4" ry="31.2" />
            <ellipse class="st0" cx="64.4" cy="173.2" rx="56.4" ry="31.2" />
            <ellipse class="st0" cx="64.4" cy="175.9" rx="56.4" ry="31.2" />
            <ellipse class="st0" cx="64.4" cy="178.5" rx="56.4" ry="31.2" />
            <ellipse class="st0" cx="64.4" cy="181.1" rx="56.4" ry="31.2" />
            <ellipse class="st0" cx="64.4" cy="183.7" rx="56.4" ry="31.2" />
            <ellipse class="st0" cx="64.4" cy="186.3" rx="56.4" ry="31.2" />
          </g>
        </g>
      </g>
      <ellipse class="st3" cx="64.4" cy="169" rx="56.4" ry="32.1" />
    </g>
  </g>
  <title>heater_element</title>
  <g>
    <path
      class="st4"
      d="M40.5,133.7v64.1c0,0.5,3.2,1.4,7.7,2.1c4.7,0.6,9.5,1.3,9.5,0.8l-0.2-65.2C51.2,135.3,45.3,134.7,40.5,133.7"
    />
    <path
      class="st4"
      d="M88.6,133.2V198c0,0.5-3.9,1.1-8.5,2c-4.7,0.9-8.5,1.2-8.5,0.7v-66C77.9,134.7,83.8,134.1,88.6,133.2z"
    />
    <path
      class="st5"
      d="M95.4,124.8c-3.4,6.9-10.7,15.3-26.5,16.4c-27.4,1.9-34.6-16.4-34.6-16.4l30.4,11L95.4,124.8z"
    />
    <polygon
      class="st5"
      points="108.9,111.2 108.9,119.9 64.8,135.9 20.6,119.9 20.6,111.2 64.8,127.2"
    />
    <polyline
      class="st5"
      points="29.5,76 20.6,79.2 20.6,111.2 64.8,127.2 108.9,111.2 108.9,79.2 99.7,75.9"
    />
    <g>
      <g id="f411d24e-5583-4b37-853d-f148808076fb">
        <path
          class="st5"
          d="M113.2,76.8c2.9,7.5,4.3,7.8,4.3,7.8L119,85c1.3,2.2,2.2,4.6,2.7,7.1l-0.9,1l1.7,4.3l10.3-4l-1.7-4.4h-1.3 				c-1.2-2.2-2.1-4.6-2.7-7.1l0.8-1.2c0,0,0.7-1.4-2.1-8.7L113.2,76.8z"
        />
        <line class="st6" x1="119" y1="85" x2="127" y2="81.8" />
        <line class="st6" x1="121.7" y1="92" x2="129.8" y2="88.9" />
      </g>
      <path
        id="cc431c7b-d94e-4857-87bb-cd50d9ab1ad3"
        class="st5"
        d="M63.6,37.8C60.3,30.3,60,20.7,60,20.7h8.1L82.3,52l-17.5,0.5 			L63.6,37.8z"
      />
      <path
        id="_x33_4410b62-7e8a-4bf7-8dd6-3ed263a64d6c"
        class="st5"
        d="M99,58.8c11.8,7.7,15.9,17.4,15.9,17.4l9.2-3.5 			c0,0-2.1-4.5-8.7-12.6c-5.5-6.8-12-11.1-28.5-16.5v16.3L99,58.8z"
      />
      <g id="_x35_84e36b7-75be-4863-a430-9c1374f89c89">
        <path
          class="st5"
          d="M124.7,96.5c0,0,2.5,2.8-0.5,5l9.8-3.8c0,0-3.4-0.4-4.1-3.2L124.7,96.5z"
        />
        <polygon
          class="st5"
          points="134.4,98.7 124.8,102.5 124.2,101.4 134.1,97.6"
        />
      </g>
    </g>
    <path
      class="st5"
      d="M61.4,47.5h-20C36.7,47.5,37,53,37,53s-7.5-0.3-7.5,5.2l0.1,19.9c0,0,0.1,2.1,0,6.1l-0.1,17.7 		c0,0,4,7.1,14.2,7.1h31.6v-4.7h8.9v4.7c0,0,15.8,0,15.8-9.3V82.4l-1.2-26.3c0,0,0.5-3.3-7-3.3c0,0,0.2-5.3-5-5.3H71.4"
    />
    <path
      class="st5"
      d="M29.6,85.4c0,3,4.3,3.8,4.3,3.8s-0.6-6.4,4.9-6.4h52.5c0,0,4.4-0.3,4.4,5.2c0,0,4.2-0.5,4.2-5.6"
    />
    <path
      class="st5"
      d="M64.3,80.2c0,0-5.4,1.6-6.6-2.8l-0.3-17.7c0.8-1,2-1.6,3.3-1.6c2,0,3.6,2,3.6,2L64.3,80.2z"
    />
    <path
      class="st5"
      d="M64.3,80.2c0,0-0.4,2.6,2.8,2.6h24.3c2.8-0.9,2.5-4,2.5-4s-1.1-12-2.5-12.1c-2-0.2-22.1,0.6-22.1,0.6V55.8 		L68,54.9h-3.7V80.2z"
    />
    <path
      class="st5"
      d="M71.1,52.2v-8.4c0,0,0.2-1.8-2.3-1.8c0,0-2.3-0.4-3,1l-0.1,9.2"
    />
    <path
      class="st5"
      d="M38.5,68l0.3-16.8c0,0,0.1-1.2,2.5-1.2h17.9c0,0,2-0.5,2.2-2s0-9.5,0-9.5c0.1-0.3,0.3-0.5,0.6-0.5h3.4 		c0.2,0.1,0.3,0.4,0.3,0.6v13.8"
    />
    <path
      class="st6"
      d="M38.4,64.5h-2.2V68l9.5,0.1c0.4-0.2,0.6-0.5,0.6-0.9l-0.3-11.7c0,0-0.1-3.2,2.6-3.2h32c0,0,2.9-0.1,2.7,3.5 		c-0.4,6.6-0.8,11.1-0.8,11.1"
    />
    <path
      class="st6"
      d="M37.9,126.1c0,0,9,11.6,30.7,9.9c8.2-0.8,16-4.2,22.3-9.6"
    />
    <path
      class="st6"
      d="M35.4,126.8c0,0,16,17.5,40.9,10.7c9.4-2.6,14.8-7.7,17.9-12.4"
    />
    <line class="st6" x1="64.8" y1="127.2" x2="64.8" y2="135.9" />
    <g>
      <path
        class="st7"
        d="M77.9,78.1c0,0,8.5,0,8.5-5.6v-6h-2.5c0,0-0.5,2.4-2.8,2.4c-1.9,0-3.2,0-3.2,0c-4.9,0-8.9,2-8.9,4.6 			S73,78.1,77.9,78.1z M76.9,70c3.1,0,5.7,1.8,5.7,3.4s-2.5,3.1-5.7,3.1s-5.7-1.4-5.7-3.1S73.8,70,76.9,70L76.9,70z"
      />
      <path
        class="st1"
        d="M88.1,67.7V57.5c0-3.5,1.3-1.2,1.3-9.3c0,0,0.2-2.7-7-2.7s-7,2.7-7,2.7c0,8.4,1.3,5.4,1.3,9.7v9.7 			c0,0,1.7,2,5.8,2S88.1,67.7,88.1,67.7z"
      />
      <ellipse class="st1" cx="82.3" cy="48" rx="7" ry="2.6" />
      <path
        class="st5"
        d="M74.1,17.7c0,0,4.4,11.4,8.7,16.5c4.9,5.8,4.9,15.5,4.9,15.5s-1.4,0.9-5.4,0.9S77,49.7,77,49.7 			s0-8.2-5.3-14.3c-4.8-5.6-6.9-17.4-6.9-17.4L74.1,17.7z"
      />
      <polygon
        points="75.3,72.9 74.4,73.6 75.3,74 76.4,73.3 77.6,73.3 78.6,74 79.6,73.6 78.7,73 78.7,72.3 79.5,71.7 78.7,71.2  			77.6,71.8 76.4,71.8 75.2,71.2 74.4,71.7 75.3,72.1"
      />
    </g>
    <g>
      <path
        class="st1"
        d="M52.6,49.9V39.7c0-3.5,1.3-1.2,1.3-9.3c0,0,0.2-2.7-7-2.7s-7,2.7-7,2.7c0,8.4,1.3,5.4,1.3,9.7v9.7 			c0,0,1.7,2,5.8,2S52.6,49.9,52.6,49.9z"
      />
      <ellipse class="st1" cx="46.8" cy="30.3" rx="7" ry="2.6" />
      <path
        class="st5"
        d="M53,17.7c0,0-0.1,2.7-5.1,5c-3.7,1.6-6.2,5.1-6.5,9.2c0,0,1.4,0.9,5.4,0.9s4.8-0.7,4.8-0.7s-0.8-1.5,4.7-4.7 			c6.4-3.7,6-9.4,6-9.4L53,17.7z"
      />
      <path class="st0" d="M43.8,51.5v6.9c0,0,0.8,2.6,2.3,2.6" />
    </g>
    <path class="st8" d="M79.4,0v17.8c0,2-6.7,3.7-15.5,3.7s-15.5-1.6-15.5-3.6V0"
    />
  </g>
</svg>
