<svg id="9852f9dc-da14-4d67-a271-9893060a5df9" data-name="Layer 1" xmlns="http://www.w3.org/2000/svg" xmlns:xlink="http://www.w3.org/1999/xlink" viewBox="0 0 261.16 202.87">
  <defs>
    <clipPath id="926776dc-9753-4cdb-8859-0b9421b31b7c" transform="translate(0 0)">
      <rect x="42.2" y="67.04" width="109.18" height="86.91" fill="none"/>
    </clipPath>
    <clipPath id="b8f9131f-a208-4d05-93e8-bac5bd120ef7" transform="translate(0 0)">
      <path d="M103.58,110.5c0,21,9.68,38,21.62,38s21.62-17,21.62-38-9.68-38-21.62-38-21.62,17-21.62,38" fill="none"/>
    </clipPath>
    <clipPath id="9e819421-69fd-4710-b5a2-12cc05443637" transform="translate(0 0)">
      <rect width="261.16" height="202.87" fill="none"/>
    </clipPath>
    <clipPath id="289c6894-06b0-4523-ba84-6a22b16945e8" transform="translate(0 0)">
      <path d="M105.16,96.33a53.36,53.36,0,0,0-1.48,12.42,79.44,79.44,0,0,0,1.49,15.1h11.6V96.33H105.16Z" fill="none"/>
    </clipPath>
    <clipPath id="6ce77dc7-ab83-4ad7-9b73-6f81baa56790" transform="translate(0 0)">
      <rect x="139.98" y="85.33" width="64.61" height="49.99" fill="none"/>
    </clipPath>
  </defs>
  <title>step_15_composite</title>
  <g clip-path="url(#926776dc-9753-4cdb-8859-0b9421b31b7c)">
    <path d="M104.31,122a74.08,74.08,0,0,0,0-23" transform="translate(0 0)" fill="none" stroke="#010101" stroke-linecap="round" stroke-linejoin="round" stroke-width="0.36"/>
    <path d="M150.7,110.5c0-23.82-11.15-43.12-24.89-43.12s-24.9,19.31-24.9,43.12,11.15,43.12,24.9,43.12,24.89-19.31,24.89-43.12m-47.35,0c0-22,10.17-39.8,22.72-39.8s22.72,17.82,22.72,39.8-10.17,39.8-22.72,39.8-22.72-17.82-22.72-39.8" transform="translate(0 0)" fill="#fff"/>
    <path d="M150.7,110.5c0-23.82-11.15-43.12-24.89-43.12s-24.9,19.31-24.9,43.12,11.15,43.12,24.9,43.12S150.7,134.32,150.7,110.5Zm-47.35,0c0-22,10.17-39.8,22.72-39.8s22.72,17.82,22.72,39.8-10.17,39.8-22.72,39.8S103.35,132.48,103.35,110.5Z" transform="translate(0 0)" fill="none" stroke="#010101" stroke-linecap="round" stroke-linejoin="round" stroke-width="0.36"/>
    <path d="M67.79,153.62c-13.75,0-24.9-19.31-24.9-43.12S54,67.37,67.79,67.37h58c-13.75,0-24.89,19.31-24.89,43.12s11.15,43.12,24.89,43.12h-58Z" transform="translate(0 0)" fill="#fff"/>
    <path d="M67.79,153.62c-13.75,0-24.9-19.31-24.9-43.12S54,67.37,67.79,67.37h58c-13.75,0-24.89,19.31-24.89,43.12s11.15,43.12,24.89,43.12h-58Z" transform="translate(0 0)" fill="none" stroke="#010101" stroke-linecap="round" stroke-linejoin="round" stroke-width="0.36"/>
  </g>
  <g clip-path="url(#b8f9131f-a208-4d05-93e8-bac5bd120ef7)">
    <ellipse cx="124.14" cy="110.5" rx="21.02" ry="37.96" fill="none" stroke="#010101" stroke-linecap="round" stroke-linejoin="round" stroke-width="0.36"/>
    <ellipse cx="122.38" cy="110.5" rx="21.02" ry="37.96" fill="none" stroke="#010101" stroke-linecap="round" stroke-linejoin="round" stroke-width="0.36"/>
    <ellipse cx="120.61" cy="110.5" rx="21.02" ry="37.96" fill="none" stroke="#010101" stroke-linecap="round" stroke-linejoin="round" stroke-width="0.36"/>
    <ellipse cx="118.85" cy="110.5" rx="21.02" ry="37.96" fill="none" stroke="#010101" stroke-linecap="round" stroke-linejoin="round" stroke-width="0.36"/>
    <ellipse cx="117.09" cy="110.5" rx="21.02" ry="37.96" fill="none" stroke="#010101" stroke-linecap="round" stroke-linejoin="round" stroke-width="0.36"/>
    <ellipse cx="115.33" cy="110.5" rx="21.02" ry="37.96" fill="none" stroke="#010101" stroke-linecap="round" stroke-linejoin="round" stroke-width="0.36"/>
    <ellipse cx="113.57" cy="110.5" rx="21.02" ry="37.96" fill="none" stroke="#010101" stroke-linecap="round" stroke-linejoin="round" stroke-width="0.36"/>
  </g>
  <g clip-path="url(#926776dc-9753-4cdb-8859-0b9421b31b7c)">
    <ellipse cx="125.21" cy="110.5" rx="21.62" ry="37.96" fill="none" stroke="#010101" stroke-miterlimit="10" stroke-width="0.36"/>
  </g>
  <g clip-path="url(#9e819421-69fd-4710-b5a2-12cc05443637)">
    <path d="M116.78,126.85V91.71H106.71a49.83,49.83,0,0,0-3,17.5,76.21,76.21,0,0,0,2.06,17.64h11Z" transform="translate(0 0)" fill="#fff"/>
  </g>
  <g clip-path="url(#289c6894-06b0-4523-ba84-6a22b16945e8)">
    <path d="M71.71,110c0-2.1.66-3.81,1.48-3.81s1.48,1.7,1.48,3.81-0.66,3.81-1.48,3.81-1.48-1.7-1.48-3.81" transform="translate(0 0)" fill="#fff"/>
    <ellipse cx="73.19" cy="109.98" rx="1.48" ry="3.81" fill="none" stroke="#010101" stroke-linecap="round" stroke-miterlimit="10" stroke-width="0.32"/>
    <path d="M95.26,102.88c0-2.11.66-3.82,1.48-3.82s1.48,1.71,1.48,3.82-0.66,3.82-1.48,3.82-1.48-1.71-1.48-3.82" transform="translate(0 0)" fill="#fff"/>
    <ellipse cx="96.74" cy="102.88" rx="1.48" ry="3.82" fill="none" stroke="#010101" stroke-linecap="round" stroke-miterlimit="10" stroke-width="0.32"/>
    <path d="M84.39,120.91s0.73,0.23,4.75-2.18v-3.57c-4-2-4.75-1.92-4.75-1.92-1.36,0-2.47,1.72-2.47,3.83s1.11,3.83,2.47,3.83m-0.18-6.39c0.87,0,1.57,1.14,1.57,2.55s-0.7,2.55-1.57,2.55-1.57-1.14-1.57-2.55,0.7-2.55,1.57-2.55" transform="translate(0 0)" fill="#fff"/>
    <path d="M84.39,120.91s0.73,0.23,4.75-2.18v-3.57c-4-2-4.75-1.92-4.75-1.92-1.36,0-2.47,1.72-2.47,3.83S83,120.91,84.39,120.91Zm-0.18-6.39c0.87,0,1.57,1.14,1.57,2.55s-0.7,2.55-1.57,2.55-1.57-1.14-1.57-2.55S83.35,114.52,84.21,114.52Z" transform="translate(0 0)" fill="none" stroke="#010101" stroke-linecap="round" stroke-miterlimit="10" stroke-width="0.45"/>
    <line x1="92.7" y1="116.08" x2="88.13" y2="116.08" fill="none" stroke="#010101" stroke-linecap="square" stroke-miterlimit="10" stroke-width="0.32"/>
    <line x1="92.7" y1="116.08" x2="88.13" y2="116.08" fill="none" stroke="#fff" stroke-linecap="square" stroke-miterlimit="10" stroke-width="0.64"/>
    <line x1="92.7" y1="116.97" x2="88.13" y2="116.97" fill="none" stroke="#010101" stroke-linecap="square" stroke-miterlimit="10" stroke-width="0.32"/>
    <line x1="92.7" y1="116.97" x2="88.13" y2="116.97" fill="none" stroke="#fff" stroke-linecap="square" stroke-miterlimit="10" stroke-width="0.64"/>
    <line x1="92.7" y1="117.86" x2="88.13" y2="117.86" fill="none" stroke="#010101" stroke-linecap="square" stroke-miterlimit="10" stroke-width="0.32"/>
    <line x1="92.7" y1="117.86" x2="88.13" y2="117.86" fill="none" stroke="#fff" stroke-linecap="square" stroke-miterlimit="10" stroke-width="0.64"/>
    <path d="M96.46,113.13c-4.56,0-4,.69-6.34.69H87.8s-1.34.12-1.34,3.26c0,2.83,1.34,3,1.34,3h2.54c1.91,0,1.72.69,6.12,0.69,0,0-1.23-.8-1.23-3.92s1.23-3.75,1.23-3.75" transform="translate(0 0)" fill="#fff"/>
    <path d="M96.46,113.13c-4.56,0-4,.69-6.34.69H87.8s-1.34.12-1.34,3.26c0,2.83,1.34,3,1.34,3h2.54c1.91,0,1.72.69,6.12,0.69,0,0-1.23-.8-1.23-3.92S96.46,113.13,96.46,113.13Z" transform="translate(0 0)" fill="none" stroke="#010101" stroke-linecap="round" stroke-linejoin="round" stroke-width="0.32"/>
    <path d="M96.74,120.86c0.83,0,1.51-1.74,1.51-3.89s-0.68-3.89-1.51-3.89-1.51,1.74-1.51,3.89,0.68,3.89,1.51,3.89m0-7c0.5,0,.9,1.4.9,3.12s-0.4,3.12-.9,3.12-0.9-1.4-.9-3.12,0.4-3.12.9-3.12" transform="translate(0 0)" fill="#fff"/>
    <path d="M96.74,120.86c0.83,0,1.51-1.74,1.51-3.89s-0.68-3.89-1.51-3.89-1.51,1.74-1.51,3.89S95.91,120.86,96.74,120.86Zm0-7c0.5,0,.9,1.4.9,3.12s-0.4,3.12-.9,3.12-0.9-1.4-.9-3.12S96.24,113.85,96.74,113.85Z" transform="translate(0 0)" fill="none" stroke="#010101" stroke-linecap="round" stroke-miterlimit="10" stroke-width="0.32"/>
    <path d="M111.84,110.73a12.78,12.78,0,0,0-5.86,2.51c-1.88,1.5-2.9,2.14-9.92,1.72a10,10,0,0,0,.13,4.44s7.5,0.58,11.11-1.74a31.07,31.07,0,0,1,5-2.77" transform="translate(0 0)" fill="#fff"/>
    <path d="M111.84,110.73a12.78,12.78,0,0,0-5.86,2.51c-1.88,1.5-2.9,2.14-9.92,1.72a10,10,0,0,0,.13,4.44s7.5,0.58,11.11-1.74a31.07,31.07,0,0,1,5-2.77" transform="translate(0 0)" fill="none" stroke="#010101" stroke-miterlimit="10" stroke-width="0.32"/>
    <path d="M86.72,102.87c0-1.74.55-3.15,1.22-3.15s1.22,1.41,1.22,3.15S88.61,106,87.94,106s-1.22-1.41-1.22-3.15" transform="translate(0 0)" fill="#fff"/>
    <ellipse cx="87.94" cy="102.87" rx="1.22" ry="3.15" fill="none" stroke="#010101" stroke-linecap="round" stroke-miterlimit="10" stroke-width="0.32"/>
    <path d="M84.39,106.81s0.73,0.23,4.75-2.18v-3.57c-4-2-4.75-1.92-4.75-1.92-1.36,0-2.47,1.72-2.47,3.83s1.11,3.83,2.47,3.83m-0.18-6.39c0.87,0,1.57,1.14,1.57,2.55s-0.7,2.55-1.57,2.55-1.57-1.14-1.57-2.55,0.7-2.55,1.57-2.55" transform="translate(0 0)" fill="#fff"/>
    <path d="M84.39,106.81s0.73,0.23,4.75-2.18v-3.57c-4-2-4.75-1.92-4.75-1.92-1.36,0-2.47,1.72-2.47,3.83S83,106.81,84.39,106.81Zm-0.18-6.39c0.87,0,1.57,1.14,1.57,2.55s-0.7,2.55-1.57,2.55-1.57-1.14-1.57-2.55S83.35,100.42,84.21,100.42Z" transform="translate(0 0)" fill="none" stroke="#010101" stroke-linecap="round" stroke-miterlimit="10" stroke-width="0.45"/>
    <line x1="92.7" y1="101.86" x2="88.13" y2="101.86" fill="none" stroke="#010101" stroke-linecap="square" stroke-miterlimit="10" stroke-width="0.32"/>
    <line x1="92.7" y1="101.86" x2="88.13" y2="101.86" fill="none" stroke="#fff" stroke-linecap="square" stroke-miterlimit="10" stroke-width="0.64"/>
    <line x1="92.7" y1="102.76" x2="88.13" y2="102.76" fill="none" stroke="#010101" stroke-linecap="square" stroke-miterlimit="10" stroke-width="0.32"/>
    <line x1="92.7" y1="102.76" x2="88.13" y2="102.76" fill="none" stroke="#fff" stroke-linecap="square" stroke-miterlimit="10" stroke-width="0.64"/>
    <line x1="92.7" y1="103.65" x2="88.13" y2="103.65" fill="none" stroke="#010101" stroke-linecap="square" stroke-miterlimit="10" stroke-width="0.32"/>
    <line x1="92.7" y1="103.65" x2="88.13" y2="103.65" fill="none" stroke="#fff" stroke-linecap="square" stroke-miterlimit="10" stroke-width="0.64"/>
    <path d="M96.46,99c-4.56,0-4,.69-6.34.69H87.8s-1.34.12-1.34,3.26c0,2.83,1.34,3,1.34,3h2.54c1.91,0,1.72.69,6.12,0.69,0,0-1.23-.8-1.23-3.92S96.46,99,96.46,99" transform="translate(0 0)" fill="#fff"/>
    <path d="M96.46,99c-4.56,0-4,.69-6.34.69H87.8s-1.34.12-1.34,3.26c0,2.83,1.34,3,1.34,3h2.54c1.91,0,1.72.69,6.12,0.69,0,0-1.23-.8-1.23-3.92S96.46,99,96.46,99Z" transform="translate(0 0)" fill="none" stroke="#010101" stroke-linecap="round" stroke-linejoin="round" stroke-width="0.32"/>
    <path d="M96.74,106.65c0.83,0,1.51-1.74,1.51-3.89s-0.68-3.89-1.51-3.89-1.51,1.74-1.51,3.89,0.68,3.89,1.51,3.89m0-7c0.5,0,.9,1.4.9,3.12s-0.4,3.12-.9,3.12-0.9-1.4-.9-3.12,0.4-3.12.9-3.12" transform="translate(0 0)" fill="#fff"/>
    <path d="M96.74,106.65c0.83,0,1.51-1.74,1.51-3.89s-0.68-3.89-1.51-3.89-1.51,1.74-1.51,3.89S95.91,106.65,96.74,106.65Zm0-7c0.5,0,.9,1.4.9,3.12s-0.4,3.12-.9,3.12-0.9-1.4-.9-3.12S96.24,99.64,96.74,99.64Z" transform="translate(0 0)" fill="none" stroke="#010101" stroke-linecap="round" stroke-miterlimit="10" stroke-width="0.32"/>
    <path d="M111.76,109.38c-0.38,0-1.53.29-4.77-2l-1-.69c-1.79-1.31-2.53-1.85-6.8-1.7l-3.09.05a9,9,0,0,1,0-4.47l3-.05,1.31,0c4.5,0,6.05,1,8.26,2.58l0.88,0.63c2,1.37,2.73,1.18,2.75,1.18" transform="translate(0 0)" fill="#fff"/>
    <path d="M111.76,109.38c-0.38,0-1.53.29-4.77-2l-1-.69c-1.79-1.31-2.53-1.85-6.8-1.7l-3.09.05a9,9,0,0,1,0-4.47l3-.05,1.31,0c4.5,0,6.05,1,8.26,2.58l0.88,0.63c2,1.37,2.73,1.18,2.75,1.18" transform="translate(0 0)" fill="none" stroke="#010101" stroke-miterlimit="10" stroke-width="0.32"/>
    <path d="M63,109.95c0-1.74.55-3.15,1.22-3.15s1.22,1.41,1.22,3.15-0.55,3.15-1.22,3.15S63,111.69,63,109.95" transform="translate(0 0)" fill="#fff"/>
    <ellipse cx="64.22" cy="109.95" rx="1.22" ry="3.15" fill="none" stroke="#010101" stroke-linecap="round" stroke-miterlimit="10" stroke-width="0.32"/>
    <path d="M60.67,113.89s1.18,0.23,4.76-2.18v-3.57c-3.58-2-4.76-1.92-4.76-1.92-1.36,0-2.47,1.72-2.47,3.83s1.11,3.83,2.47,3.83m-0.18-6.39c0.87,0,1.57,1.14,1.57,2.55s-0.7,2.55-1.57,2.55-1.57-1.14-1.57-2.55,0.7-2.55,1.57-2.55" transform="translate(0 0)" fill="#fff"/>
    <path d="M60.67,113.89s1.18,0.23,4.76-2.18v-3.57c-3.58-2-4.76-1.92-4.76-1.92-1.36,0-2.47,1.72-2.47,3.83S59.31,113.89,60.67,113.89Zm-0.18-6.39c0.87,0,1.57,1.14,1.57,2.55s-0.7,2.55-1.57,2.55-1.57-1.14-1.57-2.55S59.63,107.5,60.49,107.5Z" transform="translate(0 0)" fill="none" stroke="#010101" stroke-linecap="round" stroke-miterlimit="10" stroke-width="0.45"/>
    <line x1="69.42" y1="109.06" x2="64.41" y2="109.06" fill="none" stroke="#010101" stroke-linecap="square" stroke-miterlimit="10" stroke-width="0.32"/>
    <line x1="69.42" y1="109.06" x2="64.41" y2="109.06" fill="none" stroke="#fff" stroke-linecap="square" stroke-miterlimit="10" stroke-width="0.64"/>
    <line x1="69.42" y1="109.95" x2="64.41" y2="109.95" fill="none" stroke="#010101" stroke-linecap="square" stroke-miterlimit="10" stroke-width="0.32"/>
    <line x1="69.42" y1="109.95" x2="64.41" y2="109.95" fill="none" stroke="#fff" stroke-linecap="square" stroke-miterlimit="10" stroke-width="0.64"/>
    <line x1="69.42" y1="110.84" x2="64.41" y2="110.84" fill="none" stroke="#010101" stroke-linecap="square" stroke-miterlimit="10" stroke-width="0.32"/>
    <line x1="69.42" y1="110.84" x2="64.41" y2="110.84" fill="none" stroke="#fff" stroke-linecap="square" stroke-miterlimit="10" stroke-width="0.64"/>
    <path d="M73.19,106.11c-4.56,0-4,.69-6.34.69H64.08s-1.34.12-1.34,3.26c0,2.83,1.34,3,1.34,3h3c1.91,0,1.72.69,6.12,0.69,0,0-1.49-.8-1.49-3.92s1.49-3.75,1.49-3.75" transform="translate(0 0)" fill="#fff"/>
    <path d="M73.19,106.11c-4.56,0-4,.69-6.34.69H64.08s-1.34.12-1.34,3.26c0,2.83,1.34,3,1.34,3h3c1.91,0,1.72.69,6.12,0.69,0,0-1.49-.8-1.49-3.92S73.19,106.11,73.19,106.11Z" transform="translate(0 0)" fill="none" stroke="#010101" stroke-linecap="round" stroke-linejoin="round" stroke-width="0.32"/>
    <path d="M73.19,113.84c0.83,0,1.51-1.74,1.51-3.89s-0.68-3.89-1.51-3.89-1.51,1.74-1.51,3.89,0.68,3.89,1.51,3.89m0-7c0.5,0,.9,1.4.9,3.12s-0.4,3.12-.9,3.12-0.9-1.4-.9-3.12,0.4-3.12.9-3.12" transform="translate(0 0)" fill="#fff"/>
    <path d="M73.19,113.84c0.83,0,1.51-1.74,1.51-3.89s-0.68-3.89-1.51-3.89-1.51,1.74-1.51,3.89S72.35,113.84,73.19,113.84Zm0-7c0.5,0,.9,1.4.9,3.12s-0.4,3.12-.9,3.12-0.9-1.4-.9-3.12S72.69,106.84,73.19,106.84Z" transform="translate(0 0)" fill="none" stroke="#010101" stroke-linecap="round" stroke-miterlimit="10" stroke-width="0.32"/>
    <path d="M111.84,112.25s-5.66-.36-16.44-0.1c-6.94.17-17.4,0.13-22.84,0a9.64,9.64,0,0,1,0-4.47s15.88,0.12,22.74,0c10.83-.26,16.45.1,16.54,0.1" transform="translate(0 0)" fill="#fff"/>
    <path d="M111.84,112.25s-5.66-.36-16.44-0.1c-6.94.17-17.4,0.13-22.84,0a9.64,9.64,0,0,1,0-4.47s15.88,0.12,22.74,0c10.83-.26,16.45.1,16.54,0.1" transform="translate(0 0)" fill="none" stroke="#010101" stroke-miterlimit="10" stroke-width="0.32"/>
    <path d="M127.93,103H113.38c-0.91,0-1.63,3.07-1.63,7s0.76,6.93,1.67,6.93h14.42" transform="translate(0 0)" fill="none" stroke="#010101" stroke-miterlimit="10" stroke-width="0.45"/>
  </g>
  <polygon points="134.24 71.04 133.72 71.07 134.76 71.03 134.24 71.04" fill="#fff"/>
  <polygon points="134.24 71.04 133.72 71.07 134.76 71.03 134.24 71.04" fill="none" stroke="#010101" stroke-linecap="round" stroke-linejoin="round" stroke-width="0.36"/>
  <polygon points="135.84 149.81 136.11 149.84 136.13 149.84 136.49 149.9 136.33 149.86 136.38 149.87 136.46 149.87 136.49 149.9 138.4 151.19 140.37 152.21 142.38 152.94 144.09 153.38 145.82 153.52 145.82 153.33 148.15 153.52 150.36 153.42 152.48 153.03 154.54 152.35 156.54 151.38 158.47 150.13 160.33 148.62 162.11 146.84 163.8 144.81 165.39 142.55 166.86 140.07 168.21 137.38 169.43 134.52 170.5 131.49 171.43 128.31 172.2 125.02 172.81 121.62 173.26 118.15 173.55 114.63 173.66 111.08 173.6 107.52 173.38 103.99 172.98 100.49 172.42 97.07 171.7 93.74 170.83 90.52 169.8 87.44 168.63 84.52 167.32 81.77 165.89 79.22 164.34 76.89 162.69 74.78 160.94 72.92 159.11 71.31 157.2 69.97 155.24 68.91 153.24 68.13 151.21 67.64 149.16 67.45 146.26 67.45 144.31 67.59 142.33 68.03 140.34 68.76 138.39 69.78 136.53 71.03 136.14 71.04 135.71 71.07 135.28 71.11 135.07 71.13 134.85 71.16 133.72 71.07 132.86 71.17 132.01 71.33 131.16 71.54 130.32 71.8 129.9 71.96 129.48 72.13 129.27 72.22 129.06 72.31 128.86 72.41 128.65 72.51 127.83 72.94 127.02 73.43 126.61 73.7 126.22 73.98 126.02 74.12 125.82 74.27 125.62 74.42 125.43 74.58 124.65 75.23 123.89 75.93 123.52 76.3 123.15 76.68 122.97 76.88 122.78 77.08 122.6 77.28 122.42 77.48 121.72 78.33 121.03 79.23 120.36 80.17 119.71 81.16 119.4 81.67 119.09 82.19 118.78 82.72 118.48 83.26 117.91 84.37 117.36 85.52 117.22 85.81 117.09 86.11 116.96 86.4 116.83 86.7 116.57 87.31 116.33 87.92 115.85 89.17 115.41 90.46 115.3 90.78 115.2 91.11 115.09 91.44 114.99 91.77 114.8 92.44 114.61 93.11 114.25 94.48 113.92 95.86 113.84 96.22 113.77 96.57 113.69 96.92 113.62 97.28 113.49 97.99 113.36 98.71 113.13 100.15 112.92 101.61 112.88 101.98 112.84 102.35 112.8 102.72 112.76 103.09 112.68 103.83 112.62 104.58 112.52 106.07 112.45 107.57 112.44 107.94 112.42 108.32 112.42 108.7 112.41 109.08 112.4 109.83 112.41 110.58 112.44 112.09 112.5 113.59 112.52 113.97 112.54 114.34 112.57 114.72 112.59 115.09 112.65 115.84 112.72 116.59 112.88 118.07 113.08 119.54 113.13 119.91 113.19 120.28 113.25 120.64 113.31 121 113.43 121.73 113.56 122.45 113.85 123.87 114.18 125.28 114.26 125.63 114.35 125.98 114.44 126.32 114.53 126.67 114.72 127.35 114.91 128.03 115.32 129.37 115.76 130.68 115.88 131 116 131.32 116.11 131.64 116.23 131.96 116.48 132.59 116.73 133.21 117.26 134.42 117.81 135.6 117.95 135.89 118.1 136.18 118.24 136.46 118.39 136.75 118.69 137.3 118.99 137.85 119.62 138.91 120.26 139.94 120.43 140.19 120.6 140.44 120.77 140.68 120.94 140.92 121.28 141.4 121.63 141.86 122.34 142.75 123.07 143.59 123.26 143.79 123.44 143.99 123.63 144.19 123.82 144.39 124.2 144.77 124.59 145.13 125.37 145.83 126.17 146.47 126.37 146.62 126.57 146.77 126.78 146.92 126.98 147.06 127.39 147.34 127.81 147.6 128.64 148.09 129.48 148.51 129.91 148.71 130.34 148.89 130.77 149.05 131.2 149.2 132.07 149.47 132.94 149.67 133.38 149.75 133.82 149.82 134.04 149.84 134.26 149.87 134.48 149.89 134.7 149.91 135.63 149.94 135.84 149.81" fill="#fff"/>
  <line x1="152.65" y1="137.99" x2="158.51" y2="137.99" fill="none" stroke="#010101" stroke-linecap="round" stroke-linejoin="round" stroke-width="0.36"/>
  <line x1="150.83" y1="82.65" x2="144.98" y2="82.65" fill="none" stroke="#010101" stroke-linecap="round" stroke-linejoin="round" stroke-width="0.36"/>
  <path d="M165.58,89.39l-14.32-6.64m0,0-0.57-.09-0.56.26-0.47.57m0,0-10.48,18.16m0,0-0.33.82-0.15,1,0.05,1m0,0,3.84,24.8m0,0,0.24,0.9,0.41,0.71,0.52,0.42m0,0,14.32,6.65m0,0,0.57,0.09,0.56-.26,0.47-.57m0,0L170.16,119m0,0,0.33-.82,0.15-1-0.05-1m0,0-3.84-24.8m0,0-0.24-.9-0.41-.7-0.52-.42m-30,60.38-0.93,0-0.22,0-0.22,0-0.22,0-0.22,0-0.44-.07-0.44-.08-0.87-.2L131.2,149l-0.43-.15-0.43-.17-0.43-.18-0.43-.19-0.84-.43-0.83-.48-0.41-.26L127,146.9l-0.2-.14-0.2-.15-0.2-.15-0.2-.15-0.8-.64-0.78-.69-0.39-.37-0.38-.38-0.19-.19-0.19-.2-0.19-.2-0.18-.2-0.73-.84-0.71-.89-0.35-.46-0.34-.47-0.17-.24-0.17-.24-0.17-.25-0.16-.25-0.65-1L119,137.69l-0.3-.55-0.3-.56-0.15-.28L118.1,136l-0.14-.29-0.14-.29-0.55-1.18L116.73,133l-0.25-.62-0.25-.63-0.12-.32-0.12-.32-0.12-.32-0.11-.32-0.44-1.31-0.41-1.33-0.19-.68-0.19-.68-0.09-.34-0.09-.35-0.09-.35-0.08-.35-0.32-1.41-0.29-1.43-0.13-.72-0.12-.72-0.06-.36-0.06-.36-0.06-.37-0.05-.37-0.19-1.47-0.16-1.48-0.07-.74-0.06-.75,0-.37,0-.38,0-.37,0-.38-0.06-1.5,0-1.51v-3l0.07-1.5,0.1-1.49,0.06-.74,0.07-.74,0-.37,0-.37,0-.37,0-.37,0.2-1.46,0.23-1.44,0.13-.72,0.14-.71,0.07-.35,0.07-.35,0.08-.35,0.08-.35,0.33-1.39,0.36-1.37,0.19-.67,0.2-.67,0.1-.33,0.1-.33,0.1-.33,0.11-.33L115.85,89l0.47-1.25,0.25-.61,0.25-.61,0.13-.3,0.13-.3,0.13-.3,0.14-.29,0.55-1.15,0.58-1.11,0.3-.54,0.3-.53,0.31-.52,0.32-.51,0.65-1,0.67-.94,0.69-.9,0.71-.85,0.18-.21,0.18-.2,0.18-.2,0.18-.2,0.37-.38,0.37-.37,0.76-.7,0.78-.65,0.2-.15,0.2-.15L126,74l0.2-.14,0.4-.28,0.4-.26,0.81-.49,0.82-.44,0.21-.1,0.21-.1,0.21-.09,0.21-.09,0.42-.17,0.42-.16,0.84-.27,0.85-.21,0.85-.15,0.86-.1" transform="translate(0 0)" fill="none" stroke="#010101" stroke-linecap="round" stroke-linejoin="round" stroke-width="0.36"/>
  <path d="M133.72,70.91l0.52,0h0.52m1.78,0h0m-1.59,0h-0.16m0.87,78.9h0.17m0.88-78.9h-0.54l-0.43,0-0.43,0-0.21,0-0.21,0-0.21,0-0.21,0-0.85.18-0.85.24-0.42.14-0.42.15-0.21.08-0.21.09-0.21.09-0.21.09-0.83.4L129.4,73l-0.4.25-0.4.26-0.2.14-0.2.14-0.2.14-0.2.15-0.78.62-0.77.67-0.75.72-0.74.77-0.18.2-0.18.21-0.18.21-0.18.21-0.35.43-0.35.44-0.68.92-0.66,1-0.16.25-0.16.25-0.08.13-0.08.13-0.08.13-0.08.13-0.31.52-0.3.53-0.59,1.09-0.57,1.13-0.14.29-0.14.29-0.13.29-0.13.3-0.26.6-0.25.61L118,88.3l-0.46,1.26-0.22.64-0.21.65-0.1.33-0.1.33-0.1.33-0.1.33-0.37,1.35L116,94.92l-0.16.7-0.15.7-0.07.35-0.07.35-0.07.36-0.07.36-0.25,1.44L115,100.63l-0.19,1.47-0.15,1.48-0.06.75-0.06.75,0,0.75,0,0.75-0.06,1.5,0,1.51v1.51l0,0.75,0,0.75,0.08,1.5,0.11,1.5,0,0.37,0,0.37,0,0.37,0,0.37,0.08,0.74,0.09,0.74L115.1,120l0.24,1.45,0.13,0.72,0.14,0.72,0.07,0.36,0.07,0.36,0.08,0.35,0.08,0.35,0.33,1.4,0.36,1.37,0.19,0.68,0.2,0.67,0.1,0.33,0.11,0.33,0.11,0.33,0.11,0.33,0.45,1.3,0.48,1.27,0.51,1.23,0.54,1.2,0.14,0.29,0.14,0.29,0.14,0.29,0.14,0.29,0.29,0.57,0.3,0.56,0.61,1.09,0.64,1,0.16,0.25,0.16,0.25,0.17,0.25,0.17,0.25,0.34,0.49,0.34,0.48,0.7,0.92,0.72,0.87,0.18,0.21,0.18,0.21,0.09,0.1,0.09,0.1,0.09,0.1,0.09,0.1,0.38,0.39,0.38,0.38,0.77,0.72,0.79,0.67,0.4,0.32,0.4,0.3,0.2,0.15,0.2,0.14,0.21,0.14,0.21,0.14,0.83,0.51,0.84,0.46,0.42,0.21,0.43,0.19,0.21,0.09,0.21,0.09,0.21,0.09,0.22,0.08m3.84,0.84h-0.1l-0.27,0-0.27,0-0.54-.08-0.54-.1-1.07-.26-1.06-.34m2-.74-0.23-.09-0.52-.22-0.52-.24-0.26-.13-0.26-.13-0.26-.14L132.3,147l-0.51-.31-0.51-.33-0.25-.17-0.25-.18-0.25-.18-0.25-.19-0.49-.39-0.49-.41-0.48-.43-0.47-.45-0.12-.12-0.12-.11-0.12-.12-0.12-.12-0.23-.24-0.23-.24-0.9-1L125.66,141l-0.21-.28-0.21-.29-0.1-.15-0.1-.15-0.1-.15-0.1-.15-0.41-.61-0.4-.62-0.77-1.29-0.74-1.35-0.09-.17-0.09-.17-0.09-.18-0.09-.18-0.17-.35-0.17-.36-0.33-.73-0.33-.74-0.31-.75-0.3-.76-0.15-.39-0.15-.39-0.07-.2-0.07-.2-0.07-.2-0.07-.2-0.53-1.61-0.49-1.65-0.23-.84-0.22-.85-0.05-.21-0.05-.21-0.05-.21,0-.22-0.1-.43-0.09-.43-0.35-1.75-0.3-1.77-0.07-.45-0.06-.45,0-.23,0-.22,0-.23,0-.23-0.11-.9-0.1-.91-0.15-1.82-0.1-1.84v-3.68l0-.92,0-.92,0-.46,0-.46v-0.92l0.15-1.82,0.2-1.8,0.12-.89,0.13-.89,0-.22,0-.22,0-.22,0-.22,0.07-.44,0.08-.44L118,96.25l0.39-1.7,0.1-.42,0.11-.42,0.05-.21,0.06-.21,0.06-.21,0.06-.21,0.23-.82,0.25-.81,0.52-1.58,0.57-1.54,0.07-.19,0.07-.19,0.08-.19,0.07-.19,0.15-.37,0.16-.37,0.32-.73,0.33-.71,0.34-.7,0.35-.68,0.18-.34,0.18-.33,0.09-.16,0.09-.17,0.09-.16,0.09-.16,0.76-1.26,0.79-1.2,0.41-.57,0.42-.56,0.1-.14,0.11-.14,0.11-.14,0.11-.13,0.22-.26,0.22-.26,0.44-.5,0.44-.48,0.45-.47,0.46-.45,0.23-.22,0.23-.21,0.12-.11,0.12-.1,0.12-.1,0.12-.1,0.47-.39,0.48-.37,1-.68,1-.6,0.13-.07,0.13-.07,0.13-.07,0.13-.07,0.25-.13,0.25-.12,0.51-.23,0.51-.21,0.51-.18,0.52-.16,0.26-.07,0.26-.07,0.12,0" transform="translate(0 0)" fill="none" stroke="#010101" stroke-linecap="round" stroke-linejoin="round" stroke-width="0.36"/>
  <polyline points="132.64 148.87 134.55 149.44 136.49 149.74" fill="none" stroke="#010101" stroke-linecap="round" stroke-linejoin="round" stroke-width="0.36"/>
  <polyline points="131.26 76.32 131.17 76.4 131.01 76.55 130.85 76.7 130.7 76.85 130.54 77 129.92 77.64 129.31 78.31 128.72 79.01 128.14 79.75 128 79.94 127.86 80.14 127.72 80.33 127.58 80.53 127.3 80.93 127.03 81.33 126.49 82.17 125.97 83.03 125.72 83.48 125.47 83.93 125.35 84.16 125.23 84.39 125.11 84.63 124.98 84.86 124.52 85.81 124.07 86.79 123.64 87.79 123.23 88.82 123.13 89.09 123.03 89.35 122.94 89.61 122.84 89.88 122.65 90.41 122.47 90.95 122.12 92.05 121.8 93.16 121.64 93.73 121.49 94.3 121.42 94.58 121.34 94.87 121.27 95.16 121.2 95.45 120.94 96.62 120.7 97.8 120.59 98.4 120.48 99 120.43 99.3 120.38 99.6 120.33 99.91 120.29 100.21" fill="none" stroke="#010101" stroke-linecap="round" stroke-linejoin="round" stroke-width="0.36"/>
  <polyline points="134.43 72.71 134.23 72.8 134.06 72.88 133.88 72.96 133.71 73.05 133.54 73.13 133.19 73.31 132.85 73.5 132.17 73.91 131.5 74.36 131.17 74.6 130.84 74.85 130.67 74.98 130.51 75.11 130.35 75.24 130.19 75.38 129.54 75.94 128.91 76.53 128.29 77.17 127.68 77.83 127.53 78.01 127.39 78.18 127.24 78.36 127.09 78.54 126.8 78.9 126.51 79.28 125.94 80.04 125.39 80.84 125.12 81.26 124.85 81.68 124.72 81.89 124.59 82.1 124.46 82.32 124.33 82.54 123.83 83.43 123.34 84.35 122.87 85.3 122.42 86.27 122.2 86.77 121.98 87.27 121.77 87.78 121.57 88.3 121.17 89.34 120.8 90.41 120.62 90.95 120.44 91.5 120.36 91.78 120.27 92.06 120.19 92.33 120.11 92.61 119.8 93.74 119.5 94.89 119.23 96.05 118.99 97.23 118.93 97.53 118.87 97.82 118.81 98.12 118.76 98.42 118.66 99.02 118.56 99.63 118.38 100.84 118.22 102.06 118.15 102.68 118.08 103.3 118.03 103.92 117.97 104.54 117.89 105.79 117.82 107.04 117.78 108.3 117.77 109.55 117.77 110.18 117.77 110.81 117.78 111.13 117.78 111.44 117.79 111.76 117.8 112.07 117.86 113.33 117.93 114.58 118.03 115.83 118.16 117.07 118.19 117.38 118.23 117.69 118.27 118 118.31 118.31 118.39 118.92 118.48 119.53 118.67 120.75 118.89 121.95 119.01 122.55 119.13 123.14 119.19 123.44 119.26 123.74 119.33 124.03 119.39 124.32 119.68 125.49 119.98 126.63 120.31 127.76 120.66 128.88 120.75 129.15 120.84 129.43 120.93 129.7 121.03 129.97 121.22 130.51 121.42 131.04 121.83 132.09 122.25 133.11 122.47 133.62 122.7 134.11 122.82 134.36 122.93 134.61 123.05 134.85 123.17 135.09 123.66 136.04 124.16 136.96 124.67 137.85 125.21 138.72 125.35 138.93 125.49 139.14 125.62 139.35 125.76 139.55 126.05 139.96 126.33 140.36 126.91 141.13 127.51 141.86 127.81 142.22 128.12 142.57 128.28 142.74 128.43 142.91 128.59 143.07 128.74 143.24 129.38 143.87 130.03 144.47 130.69 145.03 131.35 145.56 131.52 145.68 131.69 145.8 131.86 145.93 132.03 146.04 132.37 146.27 132.72 146.49 133.41 146.9" fill="none" stroke="#010101" stroke-linecap="round" stroke-linejoin="round" stroke-width="0.36"/>
  <polyline points="136.03 71.27 135.08 71.47 134.72 71.56 134.37 71.66 134.01 71.78 133.66 71.9 132.96 72.17 132.27 72.49 131.58 72.84 130.89 73.23 130.72 73.34 130.56 73.44 130.39 73.55 130.22 73.66 129.88 73.89 129.55 74.13 128.89 74.63 128.25 75.17 127.92 75.46 127.61 75.75 127.45 75.9 127.29 76.05 127.14 76.21 126.98 76.37 126.36 77.01 125.76 77.7 125.17 78.41 124.6 79.16 124.32 79.55 124.04 79.94 123.9 80.14 123.76 80.34 123.62 80.55 123.49 80.75 122.96 81.6 122.44 82.47 121.94 83.37 121.46 84.3 121.34 84.53 121.22 84.77 121.11 85.01 120.99 85.25 120.77 85.74 120.55 86.24 120.12 87.24 119.71 88.27 119.51 88.79 119.32 89.32 119.22 89.59 119.13 89.86 119.04 90.13 118.95 90.4 118.6 91.49 118.27 92.61 117.96 93.74 117.67 94.89 117.6 95.18 117.53 95.47 117.47 95.76 117.4 96.06 117.28 96.64 117.16 97.24 116.94 98.43 116.73 99.64 116.69 99.94 116.64 100.25 116.6 100.55 116.56 100.86 116.47 101.47 116.4 102.08 116.33 102.7 116.27 103.32 116.24 103.63 116.21 103.94 116.19 104.25 116.16 104.56 116.07 105.81 116.01 107.06 115.97 108.32 115.95 109.58 115.95 109.89 115.96 110.21 115.96 110.52 115.96 110.84 115.97 111.47 115.99 112.09 116.05 113.35 116.12 114.6 116.22 115.85 116.35 117.09 116.38 117.4 116.42 117.71 116.45 118.02 116.49 118.33 116.58 118.94 116.66 119.56 116.86 120.77 117.07 121.98 117.19 122.58 117.31 123.17 117.37 123.47 117.44 123.77 117.5 124.06 117.57 124.35 117.85 125.52 118.15 126.67 118.47 127.8 118.82 128.92 118.91 129.19 119 129.47 119.09 129.74 119.18 130.01 119.37 130.56 119.57 131.09 119.97 132.14 120.4 133.17 120.62 133.68 120.84 134.18 120.96 134.43 121.07 134.67 121.19 134.92 121.31 135.16 121.78 136.12 122.28 137.05 122.8 137.95 123.33 138.82 123.46 139.03 123.6 139.25 123.74 139.46 123.87 139.67 124.15 140.08 124.44 140.48 125.01 141.26 125.61 142.01 125.91 142.37 126.21 142.72 126.36 142.9 126.52 143.07 126.67 143.24 126.83 143.41 127.46 144.06 128.1 144.67 128.76 145.25 129.42 145.78 129.75 146.04 130.09 146.29 130.43 146.53 130.78 146.76 131.47 147.19 132.16 147.57 132.87 147.93 133.58 148.24 133.76 148.31 133.94 148.38 134.12 148.45 134.3 148.51 134.66 148.63 135.02 148.74 135.46 148.87" fill="none" stroke="#010101" stroke-linecap="round" stroke-linejoin="round" stroke-width="0.36"/>
  <polyline points="128.65 141.27 127.04 139.05 125.55 136.59 124.21 133.89 123.01 130.99 121.98 127.91 121.12 124.68 120.43 121.32 119.93 117.86 119.62 114.34 119.5 110.78 119.57 107.22 119.83 103.69 120.28 100.21" fill="none" stroke="#010101" stroke-linecap="round" stroke-linejoin="round" stroke-width="0.36"/>
  <polyline points="124.12 129.14 123.17 125.95 122.41 122.63 121.83 119.19 121.43 115.67 121.24 112.11 121.24 108.53 121.44 104.96 121.83 101.45 122.41 98.01 123.18 94.69 124.12 91.5" fill="none" stroke="#010101" stroke-linecap="round" stroke-linejoin="round" stroke-width="0.36"/>
  <polyline points="152.65 137.99 152.43 137.97 152.22 137.89" fill="none" stroke="#010101" stroke-linecap="round" stroke-linejoin="round" stroke-width="0.36"/>
  <line x1="152.22" y1="137.89" x2="137.9" y2="131.25" fill="none" stroke="#010101" stroke-linecap="round" stroke-linejoin="round" stroke-width="0.36"/>
  <polyline points="137.9 131.25 137.38 130.83 136.97 130.12 136.73 129.22" fill="none" stroke="#010101" stroke-linecap="round" stroke-linejoin="round" stroke-width="0.36"/>
  <line x1="136.73" y1="129.22" x2="132.89" y2="104.42" fill="none" stroke="#010101" stroke-linecap="round" stroke-linejoin="round" stroke-width="0.36"/>
  <polyline points="132.89 104.42 132.84 103.42 132.99 102.46 133.32 101.65" fill="none" stroke="#010101" stroke-linecap="round" stroke-linejoin="round" stroke-width="0.36"/>
  <line x1="133.32" y1="101.65" x2="143.8" y2="83.49" fill="none" stroke="#010101" stroke-linecap="round" stroke-linejoin="round" stroke-width="0.36"/>
  <polyline points="143.81 83.49 144.34 82.87 144.98 82.65" fill="none" stroke="#010101" stroke-linecap="round" stroke-linejoin="round" stroke-width="0.36"/>
  <polyline points="146.47 153.36 144.42 153.21 142.38 152.77 140.37 152.04 138.4 151.03 136.49 149.73 134.64 148.17 132.88 146.35 131.21 144.28 129.64 141.98 128.19 139.47 126.86 136.75 125.67 133.86 124.62 130.8 123.71 127.61 122.97 124.29 122.38 120.89 121.96 117.4 121.71 113.87 121.62 110.32 121.71 106.77 121.96 103.24 122.38 99.75 122.97 96.34 123.71 93.03 124.62 89.84 125.67 86.78 126.86 83.89 128.19 81.17 129.64 78.66 131.21 76.36 132.88 74.29 134.64 72.47 136.49 70.91 138.4 69.61 140.37 68.6 142.38 67.87 144.42 67.43 146.47 67.28" fill="none" stroke="#010101" stroke-linecap="round" stroke-linejoin="round" stroke-width="0.36"/>
  <polyline points="155.24 68.75 153.24 67.97 151.21 67.48 149.16 67.28 147.1 67.38 145.06 67.78 143.04 68.46 141.07 69.42 139.15 70.67 137.29 72.19 135.51 73.97 133.82 76 132.24 78.26 130.76 80.74 129.42 83.42 128.2 86.29 127.12 89.32 126.2 92.49 125.42 95.79 124.81 99.18 124.36 102.65 124.08 106.17 123.97 109.73 124.02 113.28 124.25 116.82 124.64 120.31 125.2 123.73 125.92 127.06 126.8 130.28 127.83 133.36 129 136.28 130.3 139.03 131.73 141.58 133.28 143.92 134.94 146.02 136.69 147.89 138.52 149.49 140.42 150.83 142.38 151.89 144.39 152.67 146.42 153.16 148.47 153.35 150.52 153.26 152.56 152.87 154.58 152.18 156.56 151.22 158.48 149.97 160.34 148.45 162.12 146.67 163.8 144.65 165.39 142.38 166.86 139.9 168.21 137.22 169.43 134.35 170.5 131.32 171.43 128.15 172.2 124.86 172.81 121.46 173.26 117.99 173.55 114.47 173.66 110.91 173.6 107.36 173.38 103.82 172.98 100.33 172.42 96.91 171.7 93.58 170.83 90.36 169.8 87.28 168.63 84.36 167.32 81.61 165.89 79.06 164.34 76.72 162.69 74.62 160.94 72.75 159.11 71.15 157.2 69.81 155.24 68.75" fill="none" stroke="#010101" stroke-linecap="round" stroke-linejoin="round" stroke-width="0.36"/>
  <line x1="146.47" y1="153.36" x2="148.81" y2="153.36" fill="none" stroke="#010101" stroke-linecap="round" stroke-linejoin="round" stroke-width="0.36"/>
  <line x1="148.81" y1="67.28" x2="146.47" y2="67.28" fill="none" stroke="#010101" stroke-linecap="round" stroke-linejoin="round" stroke-width="0.36"/>
  <line x1="152.22" y1="137.89" x2="158.08" y2="137.89" fill="none" stroke="#010101" stroke-linecap="round" stroke-linejoin="round" stroke-width="0.36"/>
  <line x1="143.76" y1="131.25" x2="137.9" y2="131.25" fill="none" stroke="#010101" stroke-linecap="round" stroke-linejoin="round" stroke-width="0.36"/>
  <line x1="149.66" y1="83.49" x2="143.8" y2="83.49" fill="none" stroke="#010101" stroke-linecap="round" stroke-linejoin="round" stroke-width="0.36"/>
  <line x1="133.32" y1="101.65" x2="139.18" y2="101.65" fill="none" stroke="#010101" stroke-linecap="round" stroke-linejoin="round" stroke-width="0.36"/>
  <line x1="136.73" y1="129.22" x2="142.59" y2="129.22" fill="none" stroke="#010101" stroke-linecap="round" stroke-linejoin="round" stroke-width="0.36"/>
  <line x1="138.75" y1="104.42" x2="132.89" y2="104.42" fill="none" stroke="#010101" stroke-linecap="round" stroke-linejoin="round" stroke-width="0.36"/>
  <g clip-path="url(#6ce77dc7-ab83-4ad7-9b73-6f81baa56790)">
    <path d="M186.39,132.45l2.82-2.17v0c7.3-.65,13.09-9.39,13.09-20.13C202.29,99,195.91,90,188.2,90l-0.42,0h0l-3.94-2.38-15.3.31-3.1,3.45-2-2.46-2.65-.37h-6.64l-9.93,7.95-1.62,4-0.37,18.58,1.31,3.93,9.88,9.53h8.94l3.82-3.44,4.3,3.44h14.06Z" transform="translate(0 0)" fill="#fff"/>
    <ellipse cx="193.34" cy="110.2" rx="7.32" ry="12.75" fill="none" stroke="#010101" stroke-miterlimit="10" stroke-width="0.36"/>
    <ellipse cx="188.34" cy="110.2" rx="13.95" ry="20.2" fill="none" stroke="#010101" stroke-miterlimit="10" stroke-width="0.36"/>
    <polyline points="188.06 90 183.98 87.62 168.62 87.94 165.48 91.38 163.5 89.03 160.83 88.77 154.19 88.77 144.26 96.61 142.64 100.53 142.28 119.08 143.58 123.06 153.46 132.62 162.4 132.62 166.21 129.38 170.52 133.02 184.58 133.02 186.39 132.7 189.21 130.4" fill="none" stroke="#010101" stroke-miterlimit="10" stroke-width="0.36"/>
    <polyline points="160.57 88.77 150.95 96.56 149.18 100.32 148.76 119.03 150.01 122.9 159.84 132.62" fill="none" stroke="#010101" stroke-miterlimit="10" stroke-width="0.36"/>
    <line x1="150.95" y1="96.56" x2="144.26" y2="96.61" fill="none" stroke="#010101" stroke-miterlimit="10" stroke-width="0.36"/>
    <line x1="149.17" y1="100.32" x2="142.64" y2="100.53" fill="none" stroke="#010101" stroke-miterlimit="10" stroke-width="0.36"/>
    <line x1="148.76" y1="119.03" x2="142.28" y2="119.08" fill="none" stroke="#010101" stroke-miterlimit="10" stroke-width="0.36"/>
    <line x1="150.01" y1="122.9" x2="143.58" y2="123.06" fill="none" stroke="#010101" stroke-miterlimit="10" stroke-width="0.36"/>
    <path d="M164,92.85c-3.07.07-6,2.61-6,2.61s-5.92,3.76-6.34,14.28,5.85,16.76,8.61,17.07a12,12,0,0,0,4.32,1.57" transform="translate(0 0)" fill="none" stroke="#010101" stroke-miterlimit="10" stroke-width="0.36"/>
    <path d="M161.3,93.47s-7.61,2.88-7.61,16.63S162.92,128,162.92,128" transform="translate(0 0)" fill="none" stroke="#010101" stroke-miterlimit="10" stroke-width="0.36"/>
    <path d="M158.53,120.76a22.53,22.53,0,0,1-2.33-10.56c0-13.48,7.28-16.73,7.28-16.73" transform="translate(0 0)" fill="none" stroke="#010101" stroke-miterlimit="10" stroke-width="0.36"/>
    <polyline points="165.48 91.38 158.75 98.5 157.2 102.34 157.73 103.19 158.56 121.03 158.3 121.7 159.99 125.28 160.57 125.28 166.21 129.38" fill="none" stroke="#010101" stroke-miterlimit="10" stroke-width="0.36"/>
    <path d="M181.91,87.66s-0.86,7-9.64,10.52l-1.09,4.23s4.91,8,1.1,19.29l1.41,3.55s8.94,2.84,10.66,7.77" transform="translate(0 0)" fill="none" stroke="#010101" stroke-miterlimit="10" stroke-width="0.36"/>
    <line x1="172.27" y1="98.18" x2="159" y2="98.54" fill="none" stroke="#010101" stroke-miterlimit="10" stroke-width="0.36"/>
    <line x1="171.18" y1="102.41" x2="157.41" y2="102.71" fill="none" stroke="#010101" stroke-miterlimit="10" stroke-width="0.36"/>
    <line x1="172.27" y1="121.7" x2="158.3" y2="121.7" fill="none" stroke="#010101" stroke-miterlimit="10" stroke-width="0.36"/>
    <line x1="173.69" y1="125.25" x2="159.99" y2="125.29" fill="none" stroke="#010101" stroke-miterlimit="10" stroke-width="0.36"/>
    <path d="M190.88,98.18s8.14,12-.42,23.74" transform="translate(0 0)" fill="none" stroke="#010101" stroke-miterlimit="10" stroke-width="0.36"/>
  </g>
  <g clip-path="url(#9e819421-69fd-4710-b5a2-12cc05443637)">
    <path d="M189.3,99.7s-3.19,3.23-3.19,10.62,3.33,10.61,3.33,10.61h71.72V99.7H189.3Z" transform="translate(0 0)" fill="#231f20"/>
    <path d="M0,202.62s98.74-10.14,114.26-29.94c3.48-4.44,2.64-8.28,2.64-8.28V153.84" transform="translate(0 0)" fill="none" stroke="#231f20" stroke-width="0.5"/>
    <line x1="117.26" y1="67.02" x2="117.26" fill="none" stroke="#231f20" stroke-width="0.5"/>
  </g>
</svg>
