<svg id="7ee9149c-eac5-4a70-b1ad-38e7350e8ec4" data-name="Layer 1" xmlns="http://www.w3.org/2000/svg" xmlns:xlink="http://www.w3.org/1999/xlink" viewBox="0 0 131.44 166.32">
  <defs>
    <clipPath id="13686953-cd51-4cba-8354-fa427277b75d" transform="translate(-0.81 4)">
      <rect width="133.05" height="103.83" fill="none"/>
    </clipPath>
    <clipPath id="fcfa2453-7790-4563-a6a0-e0d043d93ae2" transform="translate(-0.81 4)">
      <rect x="-6.93" y="32.07" width="146.91" height="72.34" fill="none"/>
    </clipPath>
    <clipPath id="18f989d4-2559-420f-8905-72adcadf969b" transform="translate(-0.81 4)">
      <path d="M90.51,36.17v5.24s10,4.08,10,9.48V68.12S98.84,83,66.56,83c-33,0-34-13.5-34-13.5L32.43,50.89C33.66,44.6,43,41.17,43,41.17v-5H0v67.66H133V36.17H90.51Z" fill="none"/>
    </clipPath>
    <clipPath id="7aead0b3-a223-419c-8ffe-4a885d50545c" transform="translate(-0.81 4)">
      <path d="M25.29,0V69.73s6.79,14.4,41.19,14.4c36.39,0,41.55-15.18,41.55-15.18V0H25.29Z" fill="none"/>
    </clipPath>
    <clipPath id="6288bc60-4ecd-41dd-9a04-bb9ce828d80e" transform="translate(-0.81 4)">
      <rect x="32.44" y="-4" width="68.11" height="83.1" fill="none"/>
    </clipPath>
  </defs>
  <title>step_10_composite</title>
  <g clip-path="url(#13686953-cd51-4cba-8354-fa427277b75d)">
    <g clip-path="url(#13686953-cd51-4cba-8354-fa427277b75d)">
      <g opacity="0.25">
        <g clip-path="url(#fcfa2453-7790-4563-a6a0-e0d043d93ae2)">
          <g clip-path="url(#18f989d4-2559-420f-8905-72adcadf969b)">
            <polyline points="101.2 73.78 100.8 72.02 99.95 70.3 98.66 68.63 96.95 67.04 94.84 65.54 92.36 64.15 89.54 62.9 86.42 61.79 83.03 60.85 79.42 60.08 75.63 59.49 71.72 59.1 67.73 58.9 63.71 58.9 59.72 59.1 55.81 59.49 52.02 60.08 48.41 60.85 45.02 61.79 41.89 62.9 39.07 64.15 36.59 65.54 34.48 67.04 32.78 68.63 31.49 70.3 30.64 72.02 30.24 73.78" fill="none" stroke="#010101" stroke-linecap="round" stroke-linejoin="round" stroke-width="0.48"/>
            <polyline points="48.7 86.77 45.32 85.85 42.2 84.77 39.38 83.55 36.89 82.19 34.75 80.73 33 79.16 31.66 77.52 30.75 75.83 30.28 74.1 30.24 72.36 30.65 70.62 31.5 68.92 32.78 67.27 34.47 65.7 36.55 64.21 38.99 62.84 41.77 61.6 44.84 60.5 48.18 59.55 51.74 58.78 55.47 58.18 59.33 57.77 63.27 57.56 67.24 57.53 71.19 57.71 75.07 58.07 78.84 58.62 82.44 59.36 85.83 60.26 88.98 61.33 91.83 62.54 94.35 63.88 96.52 65.34 98.3 66.9 99.67 68.53 100.62 70.22 101.14 71.95 101.21 73.69 100.83 75.43 100.02 77.13" fill="none" stroke="#010101" stroke-linecap="round" stroke-linejoin="round" stroke-width="0.48"/>
            <polyline points="100.02 77.13 98.73 78.84 97 80.47 94.86 82 92.32 83.42 89.43 84.7 86.22 85.82 82.74 86.77" fill="none" stroke="#010101" stroke-linecap="round" stroke-linejoin="round" stroke-width="0.48"/>
            <polyline points="108.09 70.67 108.13 70.85 108.16 71.04" fill="none" stroke="#010101" stroke-linecap="round" stroke-linejoin="round" stroke-width="0.48"/>
            <polyline points="23.27 71.04 23.32 70.81 23.36 70.58" fill="none" stroke="#010101" stroke-linecap="round" stroke-linejoin="round" stroke-width="0.48"/>
            <polyline points="35.62 56.46 32.69 57.89 30.1 59.44 27.89 61.1 26.09 62.85 24.7 64.67 23.75 66.55 23.24 68.46 23.19 70.38 23.58 72.3 24.42 74.18 25.7 76.02 27.41 77.79 29.51 79.48 32.01 81.06 34.86 82.52 38.03 83.84 41.51 85.01 45.23 86.03 49.18 86.86 53.3 87.52 57.55 87.98 61.89 88.25 66.27 88.33 70.64 88.2 74.96 87.88 79.18 87.37 83.26 86.67 87.16 85.79 90.82 84.73 94.22 83.52 97.32 82.16 100.09 80.67 102.49 79.06 104.5 77.36 106.09 75.57 107.27 73.71 108 71.82 108.28 69.9 108.11 67.98 107.49 66.08 106.43 64.21 104.94 62.41 103.03 60.67 100.72 59.04 98.05 57.52 95.03 56.12 91.7 54.87 88.1 53.78 84.26 52.85 80.22 52.11 76.03 51.55 71.73 51.18 67.36 51.01 62.98 51.03 58.63 51.25 54.35 51.67 50.19 52.28 46.2 53.07 42.41 54.04 38.88 55.17 35.62 56.46" fill="none" stroke="#010101" stroke-linecap="round" stroke-linejoin="round" stroke-width="0.48"/>
            <polyline points="0.24 137.36 0.46 139.73 1.13 142.09 2.24 144.41 3.79 146.68 5.75 148.9 8.13 151.03 10.9 153.07 14.04 155 17.54 156.81 21.37 158.49 25.5 160.02 29.9 161.4 34.55 162.62 39.41 163.66 44.45 164.52 49.64 165.2 54.94 165.69 60.31 165.98 65.72 166.08 71.12 165.98 76.49 165.69 81.79 165.2 86.98 164.53 92.02 163.66 96.88 162.62 101.53 161.41 105.93 160.03 110.06 158.49 113.89 156.81 117.39 155 120.53 153.07 123.3 151.03 125.68 148.9 127.65 146.69 129.19 144.41 130.3 142.09 130.97 139.73 131.2 137.36" fill="none" stroke="#010101" stroke-linecap="round" stroke-linejoin="round" stroke-width="0.48"/>
            <polyline points="19.42 49.35 15.75 51.1 12.43 52.97 9.47 54.96 6.89 57.05 4.72 59.22 2.96 61.47 1.63 63.77 0.74 66.11 0.29 68.47 0.29 70.85 0.74 73.21 1.63 75.55 2.96 77.86 4.72 80.1 6.89 82.28 9.47 84.36 12.43 86.35 15.75 88.22 19.42 89.97 23.4 91.58 27.67 93.03 32.2 94.33 36.96 95.46 41.91 96.42 47.03 97.19 52.28 97.77 57.62 98.16 63.01 98.36 68.42 98.36 73.82 98.16 79.16 97.77 84.4 97.19 89.52 96.42 94.48 95.46 99.24 94.33 103.77 93.03 108.04 91.58 112.02 89.97 115.69 88.22 119.01 86.35 121.97 84.36 124.55 82.28 126.72 80.1 128.48 77.86 129.81 75.55 130.69 73.21 131.14 70.85 131.14 68.47 130.69 66.11 129.81 63.77 128.48 61.47 126.72 59.22 124.55 57.05 121.97 54.96 119.01 52.97 115.69 51.1 112.02 49.35 108.04 47.74 103.77 46.28 99.24 44.99 94.48 43.86 89.52 42.9 84.4 42.13 79.16 41.55 73.82 41.16 68.42 40.96 63.01 40.96 57.62 41.16 52.28 41.55 47.03 42.13 41.91 42.9 36.96 43.86 32.2 44.99 27.67 46.28 23.4 47.74 19.42 49.35" fill="none" stroke="#010101" stroke-linecap="round" stroke-linejoin="round" stroke-width="0.48"/>
            <line x1="131.2" y1="137.36" x2="131.2" y2="69.66" fill="none" stroke="#010101" stroke-linecap="round" stroke-linejoin="round" stroke-width="0.48"/>
            <line x1="0.24" y1="69.66" x2="0.24" y2="137.36" fill="none" stroke="#010101" stroke-linecap="round" stroke-linejoin="round" stroke-width="0.48"/>
            <polyline points="23.36 71.28 23.85 69.22 24.86 67.18 26.39 65.22 28.4 63.33 30.89 61.56 33.8 59.92 37.12 58.44 40.79 57.12 44.78 55.99 49.02 55.07 53.48 54.36 58.09 53.87 62.79 53.61 67.53 53.59 72.25 53.79 76.89 54.23 81.38 54.89 85.69 55.76 89.74 56.84 93.49 58.11 96.89 59.56 99.9 61.17 102.49 62.91 104.62 64.77 106.26 66.72 107.39 68.74 108.01 70.8" fill="none" stroke="#010101" stroke-linecap="round" stroke-linejoin="round" stroke-width="0.48"/>
          </g>
        </g>
      </g>
    </g>
    <g clip-path="url(#7aead0b3-a223-419c-8ffe-4a885d50545c)">
      <g opacity="0.25">
        <g clip-path="url(#6288bc60-4ecd-41dd-9a04-bb9ce828d80e)">
          <g clip-path="url(#6288bc60-4ecd-41dd-9a04-bb9ce828d80e)">
            <line x1="99.4" y1="69.78" x2="99.4" y2="51.79" fill="#fff"/>
            <line x1="99.4" y1="69.78" x2="99.4" y2="51.79" fill="none" stroke="#231f20" stroke-miterlimit="10" stroke-width="0.69"/>
            <line x1="31.98" y1="51.57" x2="31.98" y2="71.28" fill="#fff"/>
            <line x1="31.98" y1="51.57" x2="31.98" y2="71.28" fill="none" stroke="#231f20" stroke-miterlimit="10" stroke-width="0.69"/>
            <path d="M32.78,66.32s6.13,12.43,33.39,12.43c18,0,29.51-6,34-13" transform="translate(-0.81 4)" fill="#fff"/>
            <path d="M32.78,66.32s6.13,12.43,33.39,12.43c18,0,29.51-6,34-13" transform="translate(-0.81 4)" fill="none" stroke="#231f20" stroke-miterlimit="10" stroke-width="0.69"/>
            <path d="M32.78,61.33s6.13,12.43,33.39,12.43c16.87,0,32.27-8,34-13.43" transform="translate(-0.81 4)" fill="#fff"/>
            <path d="M32.78,61.33s6.13,12.43,33.39,12.43c16.87,0,32.27-8,34-13.43" transform="translate(-0.81 4)" fill="none" stroke="#231f20" stroke-miterlimit="10" stroke-width="0.69"/>
            <path d="M32.78,56.33S39.3,68.79,66.17,68.76c21.38,0,31.35-8,34-13.94" transform="translate(-0.81 4)" fill="#fff"/>
            <path d="M32.78,56.33S39.3,68.79,66.17,68.76c21.38,0,31.35-8,34-13.94" transform="translate(-0.81 4)" fill="none" stroke="#231f20" stroke-miterlimit="10" stroke-width="0.69"/>
            <path d="M32.78,51.43s2,12.43,33.39,12.43c20.47,0,32-7.36,34-13.94" transform="translate(-0.81 4)" fill="#fff"/>
            <path d="M32.78,51.43s2,12.43,33.39,12.43c20.47,0,32-7.36,34-13.94" transform="translate(-0.81 4)" fill="none" stroke="#231f20" stroke-miterlimit="10" stroke-width="0.69"/>
            <path d="M90.12,37.59V48.17c0,2.12-3.71,3.83-8.29,3.83s-8.29-1.72-8.29-3.83V33.89c-2.27-.2-4.63-0.31-7.05-0.31-2.26,0-4.46.09-6.6,0.27V48.17c0,2.12-3.71,3.83-8.29,3.83s-8.29-1.72-8.29-3.83V37.41C36.83,40,32.78,43.57,32.78,47.57c0,7.73,15.09,14,33.71,14s33.71-6.26,33.71-14c0-3.91-3.86-7.44-10.08-10" transform="translate(-0.81 4)" fill="#fff"/>
            <path d="M90.12,37.59V48.17c0,2.12-3.71,3.83-8.29,3.83s-8.29-1.72-8.29-3.83V33.89c-2.27-.2-4.63-0.31-7.05-0.31-2.26,0-4.46.09-6.6,0.27V48.17c0,2.12-3.71,3.83-8.29,3.83s-8.29-1.72-8.29-3.83V37.41C36.83,40,32.78,43.57,32.78,47.57c0,7.73,15.09,14,33.71,14s33.71-6.26,33.71-14C100.2,43.66,96.34,40.13,90.12,37.59Z" transform="translate(-0.81 4)" fill="none" stroke="#231f20" stroke-miterlimit="10" stroke-width="0.69"/>
            <path d="M59.89,44.94v3.23c0,2.12-3.71,3.83-8.29,3.83s-8.29-1.72-8.29-3.83V44.94a3.35,3.35,0,0,0-1.76,2.63c0,2.57,4.5,4.65,10,4.65s10-2.08,10-4.65a3.35,3.35,0,0,0-1.76-2.62" transform="translate(-0.81 4)" fill="#fff"/>
            <path d="M59.89,44.94v3.23c0,2.12-3.71,3.83-8.29,3.83s-8.29-1.72-8.29-3.83V44.94a3.35,3.35,0,0,0-1.76,2.63c0,2.57,4.5,4.65,10,4.65s10-2.08,10-4.65A3.35,3.35,0,0,0,59.89,44.94Z" transform="translate(-0.81 4)" fill="none" stroke="#231f20" stroke-miterlimit="10" stroke-width="0.69"/>
            <path d="M90.12,44.94v3.23c0,2.12-3.71,3.83-8.29,3.83s-8.29-1.72-8.29-3.83V44.94a3.35,3.35,0,0,0-1.76,2.63c0,2.57,4.5,4.65,10,4.65s10-2.08,10-4.65a3.35,3.35,0,0,0-1.76-2.62" transform="translate(-0.81 4)" fill="#fff"/>
            <path d="M90.12,44.94v3.23c0,2.12-3.71,3.83-8.29,3.83s-8.29-1.72-8.29-3.83V44.94a3.35,3.35,0,0,0-1.76,2.63c0,2.57,4.5,4.65,10,4.65s10-2.08,10-4.65A3.35,3.35,0,0,0,90.12,44.94Z" transform="translate(-0.81 4)" fill="none" stroke="#231f20" stroke-miterlimit="10" stroke-width="0.69"/>
            <path d="M59.89-4V48.17c0,2.12-3.71,3.83-8.29,3.83s-8.29-1.72-8.29-3.83V-4" transform="translate(-0.81 4)" fill="#fff"/>
            <path d="M59.89-4V48.17c0,2.12-3.71,3.83-8.29,3.83s-8.29-1.72-8.29-3.83V-4" transform="translate(-0.81 4)" fill="none" stroke="#231f20" stroke-miterlimit="10" stroke-width="0.69"/>
            <path d="M90.12-4V48.17c0,2.12-3.71,3.83-8.29,3.83s-8.29-1.72-8.29-3.83V-4" transform="translate(-0.81 4)" fill="#fff"/>
            <path d="M90.12-4V48.17c0,2.12-3.71,3.83-8.29,3.83s-8.29-1.72-8.29-3.83V-4" transform="translate(-0.81 4)" fill="none" stroke="#231f20" stroke-miterlimit="10" stroke-width="0.69"/>
          </g>
        </g>
      </g>
      <path d="M107.62,67.69c0,11.91-16.94,18.65-41.45,18.65S25.7,79.6,25.7,67.69c0-11.08,7.08-13.58,7.08-13.58V65s0.86,14,33.71,14c31.3,0,33.71-14,33.71-14l0-10.59s7.46,3.13,7.46,13.24" transform="translate(-0.81 4)" fill="#ababab"/>
      <path d="M107.62,67.69c0,11.91-16.94,18.65-41.45,18.65S25.7,79.6,25.7,67.69c0-11.08,7.08-13.58,7.08-13.58V65s0.86,14,33.71,14c31.3,0,33.71-14,33.71-14l0-10.59S107.62,57.58,107.62,67.69Z" transform="translate(-0.81 4)" fill="none" stroke="#231f20" stroke-linecap="round" stroke-linejoin="round" stroke-width="0.69"/>
    </g>
  </g>
</svg>
